<svg xmlns="http://www.w3.org/2000/svg" viewBox="0 0 180 251"><g fill="none" fill-rule="evenodd"><path d="M179.084 235.776c0 7.827-6.346 14.172-14.173 14.172H14.674c-7.828 0-14.173-6.345-14.173-14.172V14.673C.501 6.846 6.846.5 14.674.5h150.237c7.827 0 14.173 6.346 14.173 14.173v221.103z" fill="#F7F6F2"/><path d="M179.084 235.776c0 7.827-6.346 14.172-14.173 14.172H14.674c-7.828 0-14.173-6.345-14.173-14.172V14.673C.501 6.846 6.846.5 14.674.5h150.237c7.827 0 14.173 6.346 14.173 14.173v221.103h0z" stroke="#000"/><path d="M13.248 43.02c-.041.027-.071.042-.118.072-3.038 1.94-6.583 5.725-6.946 10.441-.173 2.244 1.262 3.798 3.117 3.832 1.185.022 2.137-.399 2.654-1.203.428-.668.538-1.699.607-1.222.25 1.816-.511 3.562-.922 5.087.459-.167 1.035-.251 1.614-.253h.009c.576.002 1.153.086 1.611.253-.411-1.525-1.17-3.271-.921-5.087.069-.477.178.554.606 1.222.516.804 1.469 1.225 2.653 1.203 1.855-.034 3.291-1.588 3.118-3.832-.365-4.716-3.909-8.501-6.944-10.441-.033-.024-.062-.039-.11-.072h-.028z" fill="#000"/><path d="M13.248 43.02c-.041.027-.071.042-.118.072-3.038 1.94-6.583 5.725-6.946 10.441-.173 2.244 1.262 3.798 3.117 3.832 1.185.022 2.137-.399 2.654-1.203.428-.668.538-1.699.607-1.222.25 1.816-.511 3.562-.922 5.087.459-.167 1.035-.251 1.614-.253h.009c.576.002 1.153.086 1.611.253-.411-1.525-1.17-3.271-.921-5.087.069-.477.178.554.606 1.222.516.804 1.469 1.225 2.653 1.203 1.855-.034 3.291-1.588 3.118-3.832-.365-4.716-3.909-8.501-6.944-10.441-.033-.024-.062-.039-.11-.072h-.028 0z" stroke="#000" stroke-width=".065" stroke-linejoin="round"/><path d="M166.318 207.43c-.041-.028-.07-.041-.117-.073-3.038-1.939-6.583-5.724-6.946-10.441-.173-2.244 1.262-3.798 3.118-3.832 1.183-.021 2.136.4 2.652 1.203.429.668.538 1.699.608 1.223.25-1.817-.511-3.563-.922-5.088.459.167 1.035.251 1.613.253h.01c.577-.002 1.152-.086 1.61-.253-.411 1.525-1.17 3.271-.921 5.088.069.476.179-.555.606-1.223.516-.803 1.469-1.224 2.653-1.203 1.855.034 3.291 1.588 3.118 3.832-.363 4.717-3.908 8.502-6.943 10.441-.033.025-.063.04-.111.073h-.028z" fill="#000"/><path d="M166.318 207.43c-.041-.028-.07-.041-.117-.073-3.038-1.939-6.583-5.724-6.946-10.441-.173-2.244 1.262-3.798 3.118-3.832 1.183-.021 2.136.4 2.652 1.203.429.668.538 1.699.608 1.223.25-1.817-.511-3.563-.922-5.088.459.167 1.035.251 1.613.253h.01c.577-.002 1.152-.086 1.61-.253-.411 1.525-1.17 3.271-.921 5.088.069.476.179-.555.606-1.223.516-.803 1.469-1.224 2.653-1.203 1.855.034 3.291 1.588 3.118 3.832-.363 4.717-3.908 8.502-6.943 10.441-.033.025-.063.04-.111.073h-.028 0z" stroke="#000" stroke-width=".065" stroke-linejoin="round"/><path d="M173.415 213.983l-.004-2.302-5.45.002.004 2.301h1.667l-.624 3.34-5.261-.007-.625-3.334h1.572l-.003-2.302h-5.449l.002 2.302h1.705l4.056 21.781.545-.004-.002.016 2.188-.027 4.067-21.765 1.612-.001zm-4.874 5.84l-2.16 11.554-2.166-11.559 4.326.005zM18.732 36.466l-4.067-21.767-2.189-.026.003.015-.545-.003-4.056 21.781-1.706.001-.002 2.301h5.45l.003-2.302H10.05l.625-3.334 5.261-.008.624 3.341-1.667-.001-.004 2.302 5.45.002.004-2.302h-1.611zm-7.588-5.835l2.166-11.56 2.159 11.554-4.325.006z" fill="#000"/><path d="M89.678 70.152c-.189.146-.323.223-.544.391-14.08 10.457-30.505 30.86-32.19 56.296-.801 12.101 5.85 20.476 14.448 20.659 5.49.117 9.903-2.151 12.294-6.485 1.987-3.605 2.495-9.161 2.818-6.593 1.158 9.795-2.369 19.208-4.276 27.431 2.127-.899 4.8-1.352 7.478-1.362h.044c2.674.01 5.342.463 7.466 1.362-1.905-8.223-5.425-17.636-4.268-27.431.322-2.568.828 2.988 2.812 6.593 2.39 4.334 6.803 6.602 12.292 6.485 8.599-.183 15.249-8.558 14.449-20.659C120.816 101.403 104.389 81 90.32 70.543c-.152-.134-.278-.25-.509-.391h-.133 0z" stroke="#000" stroke-width="1.5" stroke-linejoin="round"/><path d="M66.454 132.806a8.196 8.196 0 01-.02-.602c0-4.756 3.692-8.753 8.499-9.067.251-.018.499-.025.744-.025 5.877 0 10.819 4.565 11.207 10.513h.001a.5.5 0 01-.998.065c-.352-5.418-4.859-9.579-10.21-9.579-.225 0-.45.008-.676.024-4.282.277-7.567 3.84-7.567 8.069 0 .177.005.355.018.535a6.373 6.373 0 006.353 5.96c.139 0 .281-.005.422-.013a5 5 0 004.675-4.986c0-.109-.004-.219-.011-.329a3.902 3.902 0 00-3.887-3.648c-.088 0-.171.002-.258.009a3.02 3.02 0 00-2.824 3.009 2.316 2.316 0 002.316 2.366l.152-.002a1.755 1.755 0 001.639-1.747 1.303 1.303 0 00-1.303-1.336c-.035 0-.057 0-.084.004a.941.941 0 00-.882.937.6.6 0 00.002.052.5.5 0 01-.454.543.501.501 0 01-.542-.453 1.938 1.938 0 011.793-2.077c.069-.006.124-.006.167-.006 1.206 0 2.217.935 2.297 2.159a2.755 2.755 0 01-2.581 2.922l-.204.006a3.317 3.317 0 01-3.307-3.097 4.018 4.018 0 013.739-4.277 4.902 4.902 0 015.219 4.573 6.004 6.004 0 01-5.599 6.377 7.376 7.376 0 01-7.836-6.879zM105.203 139.684a5.997 5.997 0 01-5.601-5.982c0-.131.003-.264.014-.396a4.894 4.894 0 014.876-4.582 4.017 4.017 0 014.075 4.017c0 .09-.003.176-.009.267a3.31 3.31 0 01-3.302 3.099 2.754 2.754 0 01-2.787-2.75c0-.057.001-.123.007-.181a2.3 2.3 0 012.292-2.154 1.94 1.94 0 011.964 1.943l-.002.11a.501.501 0 01-1-.031l.002-.079a.944.944 0 00-.892-.94c-.015-.003-.037-.003-.072-.003-.677 0-1.251.529-1.296 1.236a1.751 1.751 0 001.62 1.845c.061.002.116.006.164.004a2.311 2.311 0 002.305-2.16 3.019 3.019 0 00-2.821-3.215 3.9 3.9 0 00-4.127 3.645 4.997 4.997 0 004.651 5.309 6.37 6.37 0 006.767-5.946c.011-.182.016-.361.016-.537.002-4.229-3.279-7.791-7.553-8.069a9.538 9.538 0 00-.676-.022c-5.341-.001-9.849 4.16-10.199 9.578a.5.5 0 11-.998-.066c.387-5.947 5.329-10.512 11.197-10.512.244 0 .492.007.742.025 4.805.314 8.489 4.312 8.489 9.066a9.4 9.4 0 01-.02.601 7.367 7.367 0 01-7.341 6.894c-.162 0-.323-.005-.485-.014z" fill="#000"/><path d="M89.754 138.001a.501.501 0 01-.354-.146.494.494 0 01-.146-.354c0-.078.004-.155.009-.232-.103-1.848-1.636-3.795-2.44-4.637a9.023 9.023 0 00-.449-.453.5.5 0 01-.14-.523c.001-.005.946-2.957 1.654-6.143.487-2.17.864-4.512 1.407-6.471-.217-.76-.45-1.451-.705-2.043a.546.546 0 01-.027-.087c-1.01-2.532-3.411-4.147-5.972-4.145-.679 0-1.372.113-2.056.354a4.95 4.95 0 00-3.309 4.668c.001.546.091 1.1.283 1.644a3.862 3.862 0 003.64 2.58c.426 0 .857-.07 1.281-.22a2.994 2.994 0 001.998-2.818 2.967 2.967 0 00-.171-.992 2.29 2.29 0 00-2.16-1.532c-.252 0-.507.041-.76.131a1.732 1.732 0 00-1.159 1.634c0 .19.033.383.1.575.185.527.683.859 1.212.859a1.3 1.3 0 00.427-.073.932.932 0 00.621-.877.923.923 0 00-.053-.307.644.644 0 00-.606-.43.626.626 0 00-.214.037.414.414 0 00-.278.391.42.42 0 00.026.136v.002a.5.5 0 11-.944.33 1.412 1.412 0 01.864-1.802 1.643 1.643 0 012.095 1.004 1.934 1.934 0 01-1.179 2.46 2.285 2.285 0 01-2.914-1.398 2.729 2.729 0 011.67-3.483c.36-.128.729-.189 1.092-.189 1.357 0 2.626.846 3.104 2.198a3.99 3.99 0 01-2.439 5.086 4.816 4.816 0 01-1.613.278 4.864 4.864 0 01-4.584-3.248 5.948 5.948 0 013.638-7.587 7.165 7.165 0 012.388-.412c3.015.002 5.801 1.911 6.937 4.869l.017.052c.097.234.192.479.283.735.118-.298.243-.579.379-.84 1.457-2.787 4.05-4.794 7.03-4.8.741 0 1.503.126 2.266.396a5.95 5.95 0 013.636 7.587 4.859 4.859 0 01-4.583 3.247 4.81 4.81 0 01-1.613-.277 3.985 3.985 0 01-2.665-3.76 3.938 3.938 0 01.226-1.324 3.294 3.294 0 013.104-2.2c.362 0 .732.06 1.093.189a2.728 2.728 0 011.824 2.576c0 .301-.051.606-.155.907a2.28 2.28 0 01-2.155 1.526 2.236 2.236 0 01-.758-.128 1.928 1.928 0 01-1.289-1.821 1.832 1.832 0 01.109-.639 1.643 1.643 0 011.55-1.098c.178 0 .365.028.545.094.581.206.945.749.944 1.334.001.158-.027.314-.076.464a.503.503 0 01-.635.313.498.498 0 01-.313-.633.415.415 0 00-.255-.536.644.644 0 00-.818.398.93.93 0 00.568 1.179 1.283 1.283 0 001.639-.783 1.73 1.73 0 00-1.058-2.211 2.291 2.291 0 00-2.92 1.402 2.992 2.992 0 001.827 3.809 3.86 3.86 0 004.921-2.359 4.952 4.952 0 00-3.026-6.314 5.789 5.789 0 00-1.933-.338c-2.502-.006-4.811 1.718-6.146 4.264-.286.541-.533 1.223-.756 1.996.546 1.964.986 4.256 1.476 6.459a79.555 79.555 0 001.648 6.12.5.5 0 01-.138.568c0 .001-.185.159-.477.453-.292.296-.683.719-1.073 1.227-.735.956-1.436 2.21-1.511 3.406.004.075.007.151.008.226a.498.498 0 01-.5.5h-.014zm.021-2.748c.747-1.721 2.095-3.071 2.648-3.592a80.136 80.136 0 01-1.587-5.943c-.344-1.556-.667-3.149-1.012-4.618-.324 1.473-.62 3.09-.96 4.63a80.421 80.421 0 01-1.586 5.94c.521.519 1.79 1.87 2.497 3.583zM99.379 98.622a7.41 7.41 0 01-5.027-1.956 6.031 6.031 0 01-1.963-4.463 6.024 6.024 0 011.593-4.088 4.924 4.924 0 013.643-1.603 4.936 4.936 0 013.34 1.3 4.04 4.04 0 011.313 2.989 4.047 4.047 0 01-1.065 2.738 3.338 3.338 0 01-2.465 1.084 3.327 3.327 0 01-2.258-.879 2.759 2.759 0 01-.9-2.046 2.752 2.752 0 01.729-1.873 2.318 2.318 0 013.276-.143 1.958 1.958 0 01.121 2.764 1.667 1.667 0 01-1.227.538c-.4 0-.806-.145-1.124-.437a.498.498 0 01-.03-.706.499.499 0 01.706-.031.652.652 0 00.448.174.657.657 0 00.489-.214.95.95 0 00.252-.646.946.946 0 00-.309-.704 1.316 1.316 0 00-1.866.081 1.755 1.755 0 00-.465 1.197c0 .483.192.957.576 1.309a2.321 2.321 0 001.582.615c.636 0 1.264-.255 1.727-.758a3.046 3.046 0 00.803-2.063 3.038 3.038 0 00-.989-2.251 3.924 3.924 0 00-2.664-1.038 3.93 3.93 0 00-2.907 1.279 5.024 5.024 0 00-1.329 3.412c0 1.369.551 2.73 1.639 3.727a6.417 6.417 0 004.351 1.692 6.43 6.43 0 004.751-2.087 8.16 8.16 0 002.148-5.524 8.162 8.162 0 00-2.649-6.029v.002a.5.5 0 11.675-.739 9.151 9.151 0 012.974 6.766 9.154 9.154 0 01-2.412 6.2 7.426 7.426 0 01-5.484 2.411h-.003zM74.517 96.211a9.149 9.149 0 01-2.412-6.199 9.157 9.157 0 012.974-6.767h.001a.5.5 0 01.677.737 8.152 8.152 0 00-2.653 6.03 8.143 8.143 0 002.151 5.522 6.42 6.42 0 004.752 2.088 6.437 6.437 0 004.358-1.692 5.033 5.033 0 001.641-3.727c0-1.22-.439-2.441-1.331-3.413a3.944 3.944 0 00-2.913-1.278 3.936 3.936 0 00-2.667 1.037 3.04 3.04 0 00-.99 2.252c0 .738.264 1.474.803 2.062a2.34 2.34 0 001.729.76c.569 0 1.135-.202 1.587-.616.384-.351.575-.827.576-1.309a1.769 1.769 0 00-.466-1.198 1.318 1.318 0 00-.976-.428c-.322 0-.64.114-.894.347a.95.95 0 00-.311.705.948.948 0 00.252.645.657.657 0 00.491.215.665.665 0 00.452-.175.5.5 0 01.707.033c.186.204.17.52-.033.707a1.67 1.67 0 01-1.126.435c-.447.001-.9-.182-1.227-.539a1.95 1.95 0 01.12-2.763 2.322 2.322 0 013.281.141c.487.532.731 1.206.73 1.875.001.75-.304 1.5-.901 2.047a3.351 3.351 0 01-2.262.878 3.345 3.345 0 01-2.467-1.083 4.048 4.048 0 01-1.066-2.739 4.038 4.038 0 011.316-2.989 4.929 4.929 0 013.342-1.3c1.337 0 2.675.54 3.65 1.602a6.026 6.026 0 011.593 4.089 6.032 6.032 0 01-1.965 4.464 7.441 7.441 0 01-5.033 1.956 7.43 7.43 0 01-5.49-2.412zM71.802 113.193a5.637 5.637 0 01-3.872-5.351c0-.586.091-1.183.285-1.767a4.614 4.614 0 014.376-3.168c.48 0 .968.076 1.447.235a3.79 3.79 0 012.41 4.784 3.132 3.132 0 01-2.973 2.148c-.326 0-.656-.051-.981-.157a2.606 2.606 0 01-1.789-2.474c0-.269.043-.546.133-.816a2.183 2.183 0 012.072-1.499c.227 0 .459.035.685.111a1.848 1.848 0 011.269 1.754c0 .191-.031.386-.093.577a.501.501 0 01-.951-.311.848.848 0 00-.54-1.071 1.183 1.183 0 00-1.493.755 1.604 1.604 0 001.02 2.024 2.128 2.128 0 002.691-1.354 2.787 2.787 0 00-1.774-3.522 3.608 3.608 0 00-4.558 2.298 4.57 4.57 0 00-.236 1.453 4.64 4.64 0 003.185 4.402 5.924 5.924 0 007.479-3.766c.258-.785.382-1.58.382-2.361a7.534 7.534 0 00-5.17-7.147 9.55 9.55 0 00-2.99-.483 9.54 9.54 0 00-9.052 6.548h.001a.5.5 0 11-.95-.312 10.539 10.539 0 0110.001-7.236c1.094 0 2.207.171 3.303.535a8.529 8.529 0 015.857 8.095c0 .886-.139 1.787-.432 2.674a6.926 6.926 0 01-6.572 4.753 6.899 6.899 0 01-2.17-.351zM99.011 108.791a8.475 8.475 0 01-.433-2.677 8.527 8.527 0 015.848-8.092 10.444 10.444 0 013.297-.535c4.416 0 8.526 2.808 9.986 7.236a.501.501 0 01-.951.312 9.522 9.522 0 00-9.035-6.549 9.462 9.462 0 00-2.982.485 7.528 7.528 0 00-5.163 7.143c0 .783.122 1.577.383 2.364a5.914 5.914 0 005.611 4.066 5.934 5.934 0 001.852-.3 4.636 4.636 0 003.18-4.401c0-.483-.076-.972-.235-1.455a3.603 3.603 0 00-3.419-2.48c-.375 0-.754.058-1.13.183a2.79 2.79 0 00-1.912 2.647c.001.29.045.583.141.874a2.126 2.126 0 002.019 1.463 2.1 2.1 0 00.666-.108c.672-.221 1.1-.85 1.1-1.523 0-.166-.027-.336-.081-.503a1.182 1.182 0 00-1.121-.813c-.124 0-.248.019-.371.06a.85.85 0 00-.581.804c.001.09.014.176.043.262a.5.5 0 01-.947.321 1.847 1.847 0 011.169-2.335 2.184 2.184 0 012.758 1.39 2.607 2.607 0 01-1.655 3.287 3.126 3.126 0 01-3.948-1.991 3.787 3.787 0 012.405-4.783 4.573 4.573 0 011.445-.236 4.606 4.606 0 014.369 3.168 5.635 5.635 0 01-3.581 7.119 6.935 6.935 0 01-2.166.35 6.915 6.915 0 01-6.561-4.753zM96.111 171.809c-.521 0-1.05-.088-1.566-.273a3.808 3.808 0 01-2.521-3.583c0-.427.07-.863.225-1.286a3.144 3.144 0 012.96-2.085c.352-.001.712.059 1.063.186a2.617 2.617 0 011.733 2.463c0 .293-.05.59-.154.883a2.195 2.195 0 01-2.065 1.454c-.247 0-.497-.043-.74-.13a1.856 1.856 0 01-1.23-1.745c0-.208.034-.423.11-.626.233-.647.84-1.05 1.491-1.05.175 0 .358.029.535.093.559.202.906.726.905 1.287 0 .154-.026.308-.08.462a1.191 1.191 0 01-.436.572c.255-.134.464-.36.568-.651a1.618 1.618 0 00-.975-2.072 2.148 2.148 0 00-2.745 1.298 2.81 2.81 0 001.693 3.589 3.64 3.64 0 004.651-2.193 4.661 4.661 0 00-2.818-5.969h.001a.5.5 0 11.336-.943 5.667 5.667 0 013.755 5.335 5.654 5.654 0 01-.333 1.914 4.637 4.637 0 01-4.36 3.07h-.003zm-1.245-4.4a.846.846 0 00.054.69.499.499 0 01.666-.461c.022.007.044.01.067.01a.193.193 0 00.181-.121.367.367 0 00-.222-.476.583.583 0 00-.746.358z" fill="#000"/><path d="M101.949 164.725a5.647 5.647 0 01-3.89-1.546l.001.001a.5.5 0 01.687-.728 4.641 4.641 0 003.202 1.273 4.66 4.66 0 003.395-1.462 3.63 3.63 0 00.993-2.496 3.621 3.621 0 00-1.139-2.642 2.803 2.803 0 00-1.928-.768 2.795 2.795 0 00-2.042.882 2.144 2.144 0 00.088 3.034 1.622 1.622 0 002.285-.066 1.18 1.18 0 00.324-.801c-.034.233-.138.46-.314.647a1.37 1.37 0 01-.992.426 1.363 1.363 0 01-.937-.372 1.58 1.58 0 01-.066-2.238 1.847 1.847 0 011.35-.583c.456-.001.917.169 1.274.507.454.43.686 1.012.686 1.595a2.189 2.189 0 01-.598 1.507 2.623 2.623 0 01-1.904.818 2.606 2.606 0 01-1.795-.714 3.139 3.139 0 01-.986-2.288 3.127 3.127 0 01.857-2.158 3.803 3.803 0 015.384-.156 4.622 4.622 0 011.452 3.37 4.62 4.62 0 01-1.265 3.183 5.662 5.662 0 01-4.118 1.775h-.004zm.395-6.17a.58.58 0 00.024.825.367.367 0 00.251.099.376.376 0 00.267-.114.194.194 0 00-.008-.275.5.5 0 01-.018-.707.502.502 0 01.129-.097l-.023-.001a.844.844 0 00-.622.27z" fill="#000"/><path d="M108.553 169.037a2.974 2.974 0 01-2.193-.962 2.483 2.483 0 01-.657-1.68 2.475 2.475 0 01.804-1.832 2.086 2.086 0 012.95.125c.311.338.467.771.466 1.197.001.476-.194.954-.572 1.305a1.52 1.52 0 01-2.141-.089 1.315 1.315 0 01-.348-.891c-.001-.351.143-.71.424-.965a1.13 1.13 0 01.162-.125 1.123 1.123 0 00-.265.181 1.484 1.484 0 00-.088 2.097 1.98 1.98 0 002.799.118 2.604 2.604 0 00.155-3.676 3.367 3.367 0 00-2.487-1.092c-.817 0-1.635.295-2.284.893l.001.001a.502.502 0 01-.707-.03.499.499 0 01.029-.707 4.355 4.355 0 012.961-1.156 4.37 4.37 0 013.223 1.414 3.6 3.6 0 01-.214 5.088 2.968 2.968 0 01-2.013.786h-.005zm-.591-3.053a.3.3 0 00-.1.226c.001.077.026.15.084.213.024.026.052.05.08.07a.501.501 0 01.145-.471c.009-.008.01-.015.01-.02-.001-.007-.001-.01-.004-.013a.147.147 0 00-.111-.049.146.146 0 00-.104.044zM79.042 168.724a5.668 5.668 0 013.421-7.249.499.499 0 11.336.94 4.672 4.672 0 00-3.092 4.395c.001.522.088 1.052.275 1.576a3.64 3.64 0 003.424 2.407c.406 0 .82-.069 1.226-.214a2.809 2.809 0 001.86-2.643c0-.316-.054-.636-.166-.949a2.148 2.148 0 00-2.02-1.422c-.242 0-.484.04-.725.129a1.618 1.618 0 00-1.072 1.521c.001.181.031.363.096.546.105.292.311.516.566.651a1.184 1.184 0 01-.433-.568 1.368 1.368 0 01.819-1.748 1.582 1.582 0 012.031.953 1.856 1.856 0 01-1.122 2.374 2.19 2.19 0 01-2.801-1.324 2.616 2.616 0 011.576-3.346 3.088 3.088 0 011.065-.188 3.15 3.15 0 012.961 2.086 3.81 3.81 0 01-2.299 4.87 4.637 4.637 0 01-5.926-2.797zm5.527-.794a.5.5 0 01.026.151.848.848 0 00.053-.693.588.588 0 00-.551-.389.594.594 0 00-.196.036.37.37 0 00-.244.345c0 .042.008.082.023.125a.192.192 0 00.181.128.268.268 0 00.072-.013.5.5 0 01.636.31z" fill="#000"/><path d="M73.442 162.934a4.63 4.63 0 01-1.263-3.182 4.616 4.616 0 011.453-3.37 3.803 3.803 0 015.382.153c.573.607.859 1.387.859 2.159 0 .834-.333 1.67-.987 2.29a2.613 2.613 0 01-1.796.713 2.623 2.623 0 01-1.903-.82 2.196 2.196 0 01-.599-1.506c0-.581.231-1.167.688-1.595a1.843 1.843 0 011.273-.506 1.85 1.85 0 011.349.582 1.583 1.583 0 01-.065 2.239 1.364 1.364 0 01-.937.371 1.36 1.36 0 01-.994-.428 1.188 1.188 0 01-.314-.646c.004.291.111.575.327.803.318.336.745.504 1.175.505a1.616 1.616 0 001.109-.438c.448-.426.673-.993.674-1.564a2.137 2.137 0 00-.586-1.471 2.796 2.796 0 00-2.042-.881 2.8 2.8 0 00-1.927.767 3.62 3.62 0 00-1.14 2.643c.001.896.329 1.791.993 2.494a4.65 4.65 0 003.394 1.463 4.65 4.65 0 003.204-1.273v.001a.5.5 0 01.688.725 5.669 5.669 0 01-8.015-.228zm3.217-4.564a.499.499 0 01-.026.706.19.19 0 00-.057.139.188.188 0 00.052.132.368.368 0 00.268.116.359.359 0 00.249-.099.576.576 0 00.026-.825.855.855 0 00-.622-.27l-.023.001a.475.475 0 01.133.1z" fill="#000"/><path d="M68.943 168.235a3.596 3.596 0 01-1.162-2.652c0-.869.315-1.746.949-2.436a4.368 4.368 0 013.223-1.415c1.057 0 2.122.384 2.961 1.157l.001.001a.499.499 0 01.028.706.498.498 0 01-.705.029 3.375 3.375 0 00-4.772.198 2.598 2.598 0 00.155 3.676 1.982 1.982 0 002.799-.117 1.487 1.487 0 00-.088-2.098 1.054 1.054 0 00-.267-.18 1.303 1.303 0 01.586 1.089c.001.317-.113.638-.347.891-.297.321-.707.49-1.114.489-.367 0-.736-.133-1.026-.401a1.767 1.767 0 01-.106-2.5 2.084 2.084 0 012.95-.124c.532.488.804 1.161.802 1.83.002.6-.216 1.206-.655 1.682a2.98 2.98 0 01-4.212.175zm2.395-2.261c-.003.006-.004.008-.004.011.001.007 0 .01.008.018a.503.503 0 01.148.474.59.59 0 00.08-.071.316.316 0 00.082-.213.305.305 0 00-.102-.228.142.142 0 00-.101-.041.153.153 0 00-.111.05zM86.048 71.974a5.66 5.66 0 01-4.124-1.777 4.629 4.629 0 01-1.263-3.181c0-1.229.488-2.46 1.452-3.37a3.806 3.806 0 015.383.154c.573.606.859 1.386.858 2.158a3.143 3.143 0 01-.985 2.289 2.604 2.604 0 01-1.797.714 2.607 2.607 0 01-1.903-.819 2.19 2.19 0 01-.599-1.506c0-.582.231-1.166.687-1.594a1.84 1.84 0 011.274-.508c.49-.002.984.196 1.348.581a1.585 1.585 0 01-.063 2.24 1.371 1.371 0 01-1.933-.056 1.2 1.2 0 01-.313-.645c.006.289.111.574.327.801a1.612 1.612 0 002.283.066c.449-.424.673-.991.674-1.563a2.135 2.135 0 00-.585-1.472 2.802 2.802 0 00-2.044-.879c-.692 0-1.382.252-1.926.765a3.628 3.628 0 00-1.138 2.644c.001.897.328 1.791.992 2.495a4.649 4.649 0 003.395 1.463c1.151 0 2.3-.421 3.204-1.274v.001a.5.5 0 11.686.726 5.646 5.646 0 01-3.887 1.547h-.003zm-.908-6.34a.502.502 0 01-.022.707.181.181 0 00-.061.139.19.19 0 00.052.132c.074.078.17.116.269.116a.377.377 0 00.251-.098.587.587 0 00.024-.828.853.853 0 00-.622-.268h-.021a.538.538 0 01.13.1z" fill="#000"/><path d="M79.443 76.285a2.976 2.976 0 01-2.018-.786 3.597 3.597 0 01-1.163-2.651 3.595 3.595 0 01.95-2.437 4.37 4.37 0 013.222-1.414 4.361 4.361 0 012.962 1.155.5.5 0 01-.678.737 3.35 3.35 0 00-2.284-.891c-.913 0-1.819.365-2.485 1.09a2.604 2.604 0 00.153 3.676c.382.349.86.521 1.341.522a1.976 1.976 0 001.458-.64 1.484 1.484 0 00-.088-2.098 1.085 1.085 0 00-.267-.181c.058.036.113.078.165.125.279.258.423.614.422.966a1.31 1.31 0 01-.347.891 1.517 1.517 0 01-1.114.488 1.512 1.512 0 01-1.027-.4 1.767 1.767 0 01-.105-2.5 2.08 2.08 0 011.538-.676c.503 0 1.013.183 1.412.552.532.488.804 1.16.803 1.829a2.477 2.477 0 01-.656 1.681 2.973 2.973 0 01-2.19.962h-.004zm.378-3.048c-.006.006-.006.009-.006.014.001.007.001.009.008.016a.5.5 0 01.149.474.521.521 0 00.079-.07.315.315 0 00.082-.213.308.308 0 00-.1-.229.146.146 0 00-.102-.041.15.15 0 00-.11.049zM89.483 70.376a.498.498 0 01-.02-.706.497.497 0 01.706-.019 4.655 4.655 0 003.204 1.273 4.659 4.659 0 003.395-1.463c.664-.705.99-1.599.992-2.496a3.627 3.627 0 00-1.138-2.642 2.795 2.795 0 00-1.927-.766 2.79 2.79 0 00-2.043.881 2.146 2.146 0 00.088 3.033 1.614 1.614 0 002.284-.066 1.19 1.19 0 00.326-.807 1.192 1.192 0 01-.313.652 1.372 1.372 0 01-.993.427 1.36 1.36 0 01-.938-.372 1.579 1.579 0 01-.498-1.152 1.57 1.57 0 01.433-1.086 1.852 1.852 0 012.623-.076 2.194 2.194 0 01.088 3.101c-.515.543-1.21.82-1.903.819a2.612 2.612 0 01-1.797-.713 3.14 3.14 0 01-.987-2.29 3.127 3.127 0 01.859-2.157 3.793 3.793 0 012.771-1.194 3.787 3.787 0 012.612 1.039 4.615 4.615 0 011.453 3.369 4.62 4.62 0 01-1.265 3.182 5.663 5.663 0 01-4.122 1.777 5.648 5.648 0 01-3.89-1.548zm4.284-4.622a.582.582 0 00.025.824.367.367 0 00.517-.014.19.19 0 00.054-.134.2.2 0 00-.061-.143.497.497 0 01-.017-.706.51.51 0 01.127-.097h-.023a.844.844 0 00-.622.27z" fill="#000"/><path d="M99.978 76.235a2.966 2.966 0 01-2.194-.961 2.481 2.481 0 01-.657-1.682 2.474 2.474 0 01.803-1.829c.4-.368.91-.553 1.413-.552a2.08 2.08 0 011.537.676c.313.338.467.771.467 1.197 0 .476-.195.954-.572 1.303a1.512 1.512 0 01-2.141-.089 1.307 1.307 0 01-.347-.89 1.3 1.3 0 01.424-.965c.051-.047.106-.089.164-.125a1.043 1.043 0 00-.269.181 1.474 1.474 0 00-.479 1.093c0 .36.128.717.393 1.005.391.425.92.638 1.458.638a1.97 1.97 0 001.339-.521c.558-.515.84-1.213.841-1.916a2.59 2.59 0 00-.687-1.76 3.368 3.368 0 00-2.485-1.091c-.818 0-1.635.294-2.284.892h.001a.5.5 0 11-.678-.736 4.374 4.374 0 016.184.258 3.603 3.603 0 01-.214 5.089 2.974 2.974 0 01-2.013.785h-.004zm-.594-3.053a.31.31 0 00-.014.439c.024.027.05.05.079.071a.501.501 0 01.146-.472c.008-.008.009-.015.01-.019-.001-.008-.002-.01-.005-.013a.144.144 0 00-.111-.049.157.157 0 00-.105.043zM89.758 73.497C73.36 86.069 75.477 90.134 75.477 90.134s13.946-16.763 28.061-.183c0 0 2.62-3.882-13.78-16.454z" fill="#000"/><path d="M89.758 73.497C73.36 86.069 75.477 90.134 75.477 90.134s13.946-16.763 28.061-.183c0 0 2.62-3.882-13.78-16.454h0z" stroke="#000" stroke-width=".455" stroke-linejoin="round"/><path d="M112.416 102.13s13.316 23.593 4.875 37.216c-7.151 11.538-22.75 2.763-20.638-6.338 0 0 1.95 9.751 11.537 9.101 0 0 10.366-.841 7.638-13.327-.206-.944-2.6-8.614-10.563-9.589 0 0 8.776-.488 7.151-17.063z" fill="#000"/><path d="M112.416 102.13s13.316 23.593 4.875 37.216c-7.151 11.538-22.75 2.763-20.638-6.338 0 0 1.95 9.751 11.537 9.101 0 0 10.366-.841 7.638-13.327-.206-.944-2.6-8.614-10.563-9.589 0 0 8.776-.488 7.151-17.063h0z" stroke="#000" stroke-width=".455" stroke-linejoin="round"/><path d="M67.226 102.13s-13.316 23.593-4.875 37.216c7.15 11.538 23.163 3.787 20.638-6.338 0 0-1.95 9.751-11.538 9.101 0 0-10.366-.841-7.638-13.327.207-.944 2.601-8.614 10.563-9.589 0 0-8.775-.488-7.15-17.063z" fill="#000"/><path d="M67.226 102.13s-13.316 23.593-4.875 37.216c7.15 11.538 23.163 3.787 20.638-6.338 0 0-1.95 9.751-11.538 9.101 0 0-10.366-.841-7.638-13.327.207-.944 2.601-8.614 10.563-9.589 0 0-8.775-.488-7.15-17.063h0z" stroke="#000" stroke-width=".455" stroke-linejoin="round"/><path d="M89.872 90.755s.975 12.464 7.801 9.864c-.001 0-2.925 3.785-.813 8.336 0 0-6.642.294-6.804 4.519h-.208c-.162-4.225-7.172-4.519-7.172-4.519 2.114-4.551-.812-8.336-.812-8.336 6.825 2.6 7.801-9.864 7.801-9.864h.207z" fill="#000"/><path d="M89.872 90.755s.975 12.464 7.801 9.864c-.001 0-2.925 3.785-.813 8.336 0 0-6.642.294-6.804 4.519h-.208c-.162-4.225-7.172-4.519-7.172-4.519 2.114-4.551-.812-8.336-.812-8.336 6.825 2.6 7.801-9.864 7.801-9.864h.207z" stroke="#000" stroke-width=".455" stroke-linejoin="round"/><path d="M74.56 107.109a1.189 1.189 0 11-2.378.002 1.189 1.189 0 012.378-.002z" fill="#000"/><path d="M74.56 107.109a1.189 1.189 0 11-2.378.002 1.189 1.189 0 012.378-.002h0z" stroke="#000" stroke-width=".455" stroke-linejoin="round"/><path d="M82.397 91.296a1.19 1.19 0 11-2.378 0 1.19 1.19 0 012.378 0z" fill="#000"/><path d="M82.397 91.296a1.19 1.19 0 11-2.378 0 1.19 1.19 0 012.378 0h0z" stroke="#000" stroke-width=".455" stroke-linejoin="round"/><path d="M99.327 91.344a1.19 1.19 0 11-2.38-.002 1.19 1.19 0 012.38.002z" fill="#000"/><path d="M99.327 91.344a1.19 1.19 0 11-2.38-.002 1.19 1.19 0 012.38.002h0z" stroke="#000" stroke-width=".455" stroke-linejoin="round"/><path d="M107.254 107.062a1.19 1.19 0 11-2.379 0 1.19 1.19 0 012.379 0z" fill="#000"/><path d="M107.254 107.062a1.19 1.19 0 11-2.379 0 1.19 1.19 0 012.379 0h0z" stroke="#000" stroke-width=".455" stroke-linejoin="round"/><path d="M75.437 133.003a1.19 1.19 0 01-2.38 0 1.19 1.19 0 012.38 0z" fill="#000"/><path d="M75.437 133.003a1.19 1.19 0 01-2.38 0 1.19 1.19 0 012.38 0h0z" stroke="#000" stroke-width=".455" stroke-linejoin="round"/><path d="M106.468 133.003a1.19 1.19 0 11-2.38 0 1.19 1.19 0 012.38 0z" fill="#000"/><path d="M106.468 133.003a1.19 1.19 0 11-2.38 0 1.19 1.19 0 012.38 0h0z" stroke="#000" stroke-width=".455" stroke-linejoin="round"/><path d="M82.391 118.43a.904.904 0 11-1.808.002.904.904 0 011.808-.002z" fill="#000"/><path d="M82.391 118.43a.904.904 0 11-1.808.002.904.904 0 011.808-.002h0z" stroke="#000" stroke-width=".346" stroke-linejoin="round"/><path d="M99.045 118.493a.905.905 0 11-1.81 0 .905.905 0 011.81 0z" fill="#000"/><path d="M99.045 118.493a.905.905 0 11-1.81 0 .905.905 0 011.81 0h0z" stroke="#000" stroke-width=".346" stroke-linejoin="round"/><path d="M82.465 110.398a1.197 1.197 0 11-2.395.001 1.197 1.197 0 012.395-.001z" fill="#000"/><path d="M82.465 110.398a1.197 1.197 0 11-2.395.001 1.197 1.197 0 012.395-.001h0z" stroke="#000" stroke-width=".346" stroke-linejoin="round"/><path d="M99.448 110.398a1.197 1.197 0 11-2.394.002 1.197 1.197 0 012.394-.002z" fill="#000"/><path d="M99.448 110.398a1.197 1.197 0 11-2.394.002 1.197 1.197 0 012.394-.002h0z" stroke="#000" stroke-width=".346" stroke-linejoin="round"/><path d="M90.765 115.193a.91.91 0 11-1.82-.001.91.91 0 011.82.001z" fill="#000"/><path d="M90.765 115.193a.91.91 0 11-1.82-.001.91.91 0 011.82.001h0z" stroke="#000" stroke-width=".263" stroke-linejoin="round"/><path d="M81.356 99.991a.91.91 0 11-1.82 0 .91.91 0 011.82 0z" fill="#000"/><path d="M81.356 99.991a.91.91 0 11-1.82 0 .91.91 0 011.82 0h0z" stroke="#000" stroke-width=".263" stroke-linejoin="round"/><path d="M100.12 99.854a.91.91 0 11-1.82 0 .91.91 0 011.82 0z" fill="#000"/><path d="M100.12 99.854a.91.91 0 11-1.82 0 .91.91 0 011.82 0h0z" stroke="#000" stroke-width=".263" stroke-linejoin="round"/><path d="M91.676 87.734a2.123 2.123 0 11-4.246 0 2.123 2.123 0 014.246 0z" fill="#000"/><path d="M91.676 87.734a2.123 2.123 0 11-4.246 0 2.123 2.123 0 014.246 0h0z" stroke="#000" stroke-width=".263" stroke-linejoin="round"/><path d="M56.422 105.668a4.635 4.635 0 01-2.877-4.291c0-.585.11-1.181.345-1.753a3.804 3.804 0 014.967-2.082 3.142 3.142 0 011.954 2.911c0 .399-.076.802-.234 1.193a2.618 2.618 0 01-2.424 1.625 2.595 2.595 0 01-.99-.195 2.194 2.194 0 01-1.363-2.031c-.001-.275.053-.56.164-.829a1.854 1.854 0 011.717-1.153c.235 0 .473.044.702.138.613.252.985.843.984 1.466 0 .199-.038.403-.118.601a1.367 1.367 0 01-1.265.847 1.38 1.38 0 01-.518-.101 1.196 1.196 0 01-.551-.46c.122.261.339.478.626.597a1.62 1.62 0 002.11-.883 2.145 2.145 0 00-1.173-2.8 2.81 2.81 0 00-3.663 1.536 3.638 3.638 0 001.987 4.739 4.669 4.669 0 006.089-2.551.5.5 0 11.926.377 5.67 5.67 0 01-5.249 3.523 5.69 5.69 0 01-2.146-.424zm1.048-5.482a.5.5 0 01.267.654.195.195 0 00.108.248.37.37 0 00.478-.197.584.584 0 00-.319-.764.821.821 0 00-.323-.065.88.88 0 00-.372.085.506.506 0 01.161.039z" fill="#000"/><path d="M55.447 112.505c-.31 0-.624-.049-.932-.15a3.602 3.602 0 01-2.476-3.421c0-.374.058-.752.18-1.125a4.379 4.379 0 014.157-3.009c.454 0 .916.071 1.37.221a.5.5 0 01-.314.95 3.376 3.376 0 00-4.262 2.151 2.627 2.627 0 00-.132.812 2.604 2.604 0 001.79 2.471 1.986 1.986 0 002.501-1.263 1.482 1.482 0 00-.947-1.873 1.052 1.052 0 00-.309-.054 1.314 1.314 0 011.095 1.292c0 .136-.021.274-.068.411a1.514 1.514 0 01-1.439 1.041c-.157 0-.318-.024-.474-.076a1.769 1.769 0 01-1.217-1.681 1.744 1.744 0 01.088-.551 2.091 2.091 0 012.637-1.333 2.486 2.486 0 011.707 2.36 2.45 2.45 0 01-.124.777 2.983 2.983 0 01-2.829 2.05h-.002zm.314-3.197l-.001.005c.001.005.005.016.016.019a.502.502 0 01.332.371.513.513 0 00.044-.098.314.314 0 00-.2-.395.219.219 0 00-.048-.008.152.152 0 00-.143.106zM115.77 102.569h.001a.5.5 0 01.924-.379 4.67 4.67 0 004.322 2.902 4.69 4.69 0 001.768-.349 3.64 3.64 0 002.257-3.366 3.643 3.643 0 00-.271-1.374 2.81 2.81 0 00-2.6-1.746c-.356 0-.714.067-1.063.211a2.145 2.145 0 00-1.334 1.986c0 .271.051.544.161.813a1.62 1.62 0 001.498 1.005 1.65 1.65 0 00.612-.121c.286-.118.501-.333.625-.593-.128.197-.317.36-.552.457a1.364 1.364 0 01-1.78-.746 1.585 1.585 0 01.863-2.068 1.857 1.857 0 012.423 1.017 2.196 2.196 0 01-1.203 2.859 2.616 2.616 0 01-3.41-1.43 3.142 3.142 0 011.717-4.104 3.788 3.788 0 011.443-.286 3.812 3.812 0 013.526 2.367 4.636 4.636 0 01-2.535 6.044 5.667 5.667 0 01-7.392-3.099zm5.812-2.443a.589.589 0 00-.364.541c0 .074.014.146.044.222a.376.376 0 00.48.2.198.198 0 00.12-.181.19.19 0 00-.014-.073.499.499 0 01.275-.651.502.502 0 01.154-.037.852.852 0 00-.695-.021z" fill="#000"/><path d="M121.309 110.456a2.487 2.487 0 011.582-3.138 2.091 2.091 0 012.637 1.333 1.774 1.774 0 01-1.129 2.233 1.513 1.513 0 01-1.912-.963 1.308 1.308 0 01.833-1.66c.065-.022.133-.037.199-.047-.103.002-.209.02-.314.055a1.484 1.484 0 00-1.022 1.409c0 .154.024.309.075.465a1.98 1.98 0 001.881 1.362c.205 0 .414-.031.619-.099a2.61 2.61 0 001.79-2.472 2.672 2.672 0 00-.131-.812 3.378 3.378 0 00-3.206-2.322c-.351 0-.706.055-1.057.171h.001a.5.5 0 11-.314-.95c.454-.15.915-.221 1.37-.221a4.382 4.382 0 014.156 3.009 3.602 3.602 0 01-2.295 4.546 2.977 2.977 0 01-3.763-1.899zm2.324-1.245a.31.31 0 00-.214.296c0 .03.004.062.017.098a.475.475 0 00.043.097.496.496 0 01.33-.369c.009-.002.016-.015.016-.021v-.004a.153.153 0 00-.144-.106.137.137 0 00-.048.009zM92.496 157.115l-5.698-.001 2.851-12.857z" fill="#000"/><path stroke="#000" stroke-width=".101" stroke-linecap="round" stroke-linejoin="round" d="M92.496 157.115l-5.698-.001 2.851-12.857z"/><path fill="#000" d="M91.217 131.636l-2.848-.001 1.427-6.43z"/><path stroke="#000" stroke-width=".05" stroke-linecap="round" stroke-linejoin="round" d="M91.217 131.636l-2.848-.001 1.427-6.43z"/><path fill="#000" d="M68.761 95.239l1.531-2.402 4.657 4.655z"/><path stroke="#000" stroke-width=".05" stroke-linecap="round" stroke-linejoin="round" d="M68.761 95.239l1.531-2.402 4.657 4.655z"/><path fill="#000" d="M110.803 95.185l-1.53-2.404-4.657 4.656z"/><path stroke="#000" stroke-width=".05" stroke-linecap="round" stroke-linejoin="round" d="M110.803 95.185l-1.53-2.404-4.657 4.656z"/><path fill="#000" d="M72.17 101.637l1.531-2.403 4.657 4.655z"/><path stroke="#000" stroke-width=".05" stroke-linecap="round" stroke-linejoin="round" d="M72.17 101.637l1.531-2.403 4.657 4.655z"/><path fill="#000" d="M107.485 101.637l-1.53-2.403-4.657 4.655z"/><path stroke="#000" stroke-width=".05" stroke-linecap="round" stroke-linejoin="round" d="M107.485 101.637l-1.53-2.403-4.657 4.655z"/><path fill="#000" d="M93.306 125.771l2.558-1.252-4.107-5.15z"/><path stroke="#000" stroke-width=".05" stroke-linecap="round" stroke-linejoin="round" d="M93.306 125.771l2.558-1.252-4.107-5.15z"/><path fill="#000" d="M86.409 125.79l-2.558-1.252 4.106-5.149z"/><path stroke="#000" stroke-width=".05" stroke-linecap="round" stroke-linejoin="round" d="M86.409 125.79l-2.558-1.252 4.106-5.149z"/><path fill="#000" d="M74.663 124.622l1.437 2.46-6.268 2.016z"/><path stroke="#000" stroke-width=".05" stroke-linecap="round" stroke-linejoin="round" d="M74.663 124.622l1.437 2.46-6.268 2.016z"/><path fill="#000" d="M105.087 124.749l-1.438 2.46 6.27 2.016z"/><path stroke="#000" stroke-width=".05" stroke-linecap="round" stroke-linejoin="round" d="M105.087 124.749l-1.438 2.46 6.27 2.016z"/><path fill="#000" d="M87.995 142.979v-3.637h3.637v3.637z"/><path stroke="#000" stroke-width=".024" stroke-linecap="round" stroke-linejoin="round" d="M87.995 142.979v-3.637h3.637v3.637z"/><path d="M90.357 69.305a.682.682 0 11-1.364 0 .682.682 0 011.364 0z" fill="#000"/><path d="M90.357 69.305a.682.682 0 11-1.364 0 .682.682 0 011.364 0h0z" stroke="#000" stroke-width=".197" stroke-linejoin="round"/><path fill="#000" d="M74.601 122.262l-.372-1.144.973-.707.972.707-.371 1.144z"/><path stroke="#000" stroke-width=".025" stroke-linejoin="round" d="M74.601 122.262l-.372-1.144.973-.707.972.707-.371 1.144z"/><path fill="#000" d="M71.678 122.937l-.372-1.144.973-.707.973.707-.371 1.144z"/><path stroke="#000" stroke-width=".025" stroke-linejoin="round" d="M71.678 122.937l-.372-1.144.973-.707.973.707-.371 1.144z"/><path fill="#000" d="M68.914 124.375l-.372-1.143.972-.708.973.708-.371 1.143z"/><path stroke="#000" stroke-width=".025" stroke-linejoin="round" d="M68.914 124.375l-.372-1.143.972-.708.973.708-.371 1.143z"/><path fill="#000" d="M104.733 122.1l.372-1.144-.973-.707-.972.707.371 1.144z"/><path stroke="#000" stroke-width=".025" stroke-linejoin="round" d="M104.733 122.1l.372-1.144-.973-.707-.972.707.371 1.144z"/><path fill="#000" d="M107.656 122.774l.372-1.143-.973-.707-.972.707.371 1.143z"/><path stroke="#000" stroke-width=".025" stroke-linejoin="round" d="M107.656 122.774l.372-1.143-.973-.707-.972.707.371 1.143z"/><path fill="#000" d="M110.421 124.212l.372-1.144-.973-.707-.973.707.371 1.144z"/><path stroke="#000" stroke-width=".025" stroke-linejoin="round" d="M110.421 124.212l.372-1.144-.973-.707-.973.707.371 1.144z"/><path d="M86.674 70.627a.682.682 0 11-1.365 0 .682.682 0 011.365 0z" fill="#000"/><path d="M86.674 70.627a.682.682 0 11-1.365 0 .682.682 0 011.365 0h0z" stroke="#000" stroke-width=".197" stroke-linejoin="round"/><path d="M94.085 70.605a.682.682 0 11-1.364 0 .682.682 0 011.364 0z" fill="#000"/><path d="M94.085 70.605a.682.682 0 11-1.364 0 .682.682 0 011.364 0h0z" stroke="#000" stroke-width=".197" stroke-linejoin="round"/><path d="M59.352 104.893a.681.681 0 11-1.363 0 .681.681 0 011.363 0z" fill="#000"/><path d="M59.352 104.893a.681.681 0 11-1.363 0 .681.681 0 011.363 0h0z" stroke="#000" stroke-width=".197" stroke-linejoin="round"/><path d="M121.873 104.8a.683.683 0 11-1.366-.002.683.683 0 011.366.002z" fill="#000"/><path d="M121.873 104.8a.683.683 0 11-1.366-.002.683.683 0 011.366.002h0z" stroke="#000" stroke-width=".197" stroke-linejoin="round"/><path d="M77.835 163.201a.684.684 0 01-1.366 0 .682.682 0 011.366 0z" fill="#000"/><path d="M77.835 163.201a.684.684 0 01-1.366 0 .682.682 0 011.366 0h0z" stroke="#000" stroke-width=".197" stroke-linejoin="round"/><path d="M103.347 163.212a.682.682 0 11-1.365.001.682.682 0 011.365-.001z" fill="#000"/><path d="M103.347 163.212a.682.682 0 11-1.365.001.682.682 0 011.365-.001h0z" stroke="#000" stroke-width=".197" stroke-linejoin="round"/><path fill="#000" d="M84.184 159.49l1.418-2.455 1.417 2.455z"/><path stroke="#000" stroke-width=".039" stroke-linejoin="round" d="M84.184 159.49l1.418-2.455 1.417 2.455z"/><path fill="#000" d="M92.536 159.469l1.417-2.455 1.418 2.455z"/><path stroke="#000" stroke-width=".039" stroke-linejoin="round" d="M92.536 159.469l1.417-2.455 1.418 2.455z"/><path fill="#000" d="M84.326 85.185l1.418 2.455 1.417-2.455z"/><path stroke="#000" stroke-width=".039" stroke-linejoin="round" d="M84.326 85.185l1.418 2.455 1.417-2.455z"/><path fill="#000" d="M92.055 85.305l1.419 2.455 1.417-2.455z"/><path stroke="#000" stroke-width=".039" stroke-linejoin="round" d="M92.055 85.305l1.419 2.455 1.417-2.455z"/><path fill="#000" d="M101.921 105.209l-1.782.506 2.034 3.767z"/><path stroke="#000" stroke-width=".033" stroke-linecap="round" stroke-linejoin="round" d="M101.921 105.209l-1.782.506 2.034 3.767z"/><path fill="#000" d="M103.882 110.255l.27 1.832 4-1.524z"/><path stroke="#000" stroke-width=".033" stroke-linecap="round" stroke-linejoin="round" d="M103.882 110.255l.27 1.832 4-1.524z"/><path fill="#000" d="M77.478 105.209l1.781.506-2.033 3.767z"/><path stroke="#000" stroke-width=".033" stroke-linecap="round" stroke-linejoin="round" d="M77.478 105.209l1.781.506-2.033 3.767z"/><path fill="#000" d="M75.326 110.255l-.27 1.832-3.999-1.524z"/><path stroke="#000" stroke-width=".033" stroke-linecap="round" stroke-linejoin="round" d="M75.326 110.255l-.27 1.832-3.999-1.524z"/><path fill="#000" d="M78.694 95.143l.27 1.832 3.999-1.525z"/><path stroke="#000" stroke-width=".033" stroke-linecap="round" stroke-linejoin="round" d="M78.694 95.143l.27 1.832 3.999-1.525z"/><path fill="#000" d="M72.194 136.097l.269 1.831 4-1.525z"/><path stroke="#000" stroke-width=".033" stroke-linecap="round" stroke-linejoin="round" d="M72.194 136.097l.269 1.831 4-1.525z"/><path fill="#000" d="M70.069 131.212l-1.78.506 2.033 3.767z"/><path stroke="#000" stroke-width=".033" stroke-linecap="round" stroke-linejoin="round" d="M70.069 131.212l-1.78.506 2.033 3.767z"/><path fill="#000" d="M109.492 130.562l1.78.506-2.033 3.768z"/><path stroke="#000" stroke-width=".033" stroke-linecap="round" stroke-linejoin="round" d="M109.492 130.562l1.78.506-2.033 3.768z"/><path fill="#000" d="M107.989 136.259l-.269 1.832-4-1.525z"/><path stroke="#000" stroke-width=".033" stroke-linecap="round" stroke-linejoin="round" d="M107.989 136.259l-.269 1.832-4-1.525z"/><path fill="#000" d="M100.514 95.143l-.269 1.832-3.999-1.525z"/><path stroke="#000" stroke-width=".033" stroke-linecap="round" stroke-linejoin="round" d="M100.514 95.143l-.269 1.832-3.999-1.525z"/><path fill="#000" d="M86.094 118.114l1.568-.987-3.012-3.042z"/><path stroke="#000" stroke-width=".033" stroke-linecap="round" stroke-linejoin="round" d="M86.094 118.114l1.568-.987-3.012-3.042z"/><path fill="#000" d="M93.693 118.255l-1.567-.987 3.011-3.042z"/><path stroke="#000" stroke-width=".033" stroke-linecap="round" stroke-linejoin="round" d="M93.693 118.255l-1.567-.987 3.011-3.042z"/><path d="M83.506 129.132a2.122 2.122 0 11-4.245 0 2.123 2.123 0 114.245 0z" fill="#000"/><path d="M83.506 129.132a2.122 2.122 0 11-4.245 0 2.123 2.123 0 114.245 0h0z" stroke="#000" stroke-width=".263" stroke-linejoin="round"/><path d="M99.897 129.277a2.122 2.122 0 11-4.245 0 2.123 2.123 0 114.245 0z" fill="#000"/><path d="M99.897 129.277a2.122 2.122 0 11-4.245 0 2.123 2.123 0 114.245 0h0z" stroke="#000" stroke-width=".263" stroke-linejoin="round"/><path d="M74.82 115.62a1.198 1.198 0 11-2.395-.001 1.198 1.198 0 012.395.001z" fill="#000"/><path d="M74.82 115.62a1.198 1.198 0 11-2.395-.001 1.198 1.198 0 012.395.001h0z" stroke="#000" stroke-width=".346" stroke-linejoin="round"/><path d="M107.732 115.62a1.198 1.198 0 11-2.395-.001 1.198 1.198 0 012.395.001z" fill="#000"/><path d="M107.732 115.62a1.198 1.198 0 11-2.395-.001 1.198 1.198 0 012.395.001h0z" stroke="#000" stroke-width=".346" stroke-linejoin="round"/></g></svg>