<svg xmlns="http://www.w3.org/2000/svg" viewBox="0 0 180 251"><g fill="none" fill-rule="evenodd"><path d="M179.082 235.776c0 7.828-6.345 14.173-14.173 14.173H14.674C6.846 249.949.5 243.604.5 235.776V14.673C.5 6.846 6.846.5 14.674.5h150.235c7.828 0 14.173 6.346 14.173 14.173v221.103z" fill="#F7F6F2"/><path d="M179.082 235.776c0 7.828-6.345 14.173-14.173 14.173H14.674C6.846 249.949.5 243.604.5 235.776V14.673C.5 6.846 6.846.5 14.674.5h150.235c7.828 0 14.173 6.346 14.173 14.173v221.103h0z" stroke="#000"/><path d="M13.255 43.021c-1.862 0-3.376 1.703-3.376 3.801 0 1.199.501 2.265 1.269 2.966.257.238.146.496-.116.334-.48-.291-1.02-.476-1.606-.476-1.797 0-3.256 1.642-3.256 3.666 0 2.025 1.459 3.668 3.256 3.668 1.197 0 2.247-.729 2.81-1.817.056-.107.098-.252.176-.252.109 0 .158.174.158.502 0 1.315-.504 2.85-1.252 4.615.325-.076 1.298-.271 1.937-.271s1.615.195 1.936.271c-.744-1.765-1.25-3.3-1.25-4.615 0-.328.048-.502.157-.502.078 0 .124.145.176.252.566 1.088 1.613 1.817 2.813 1.817 1.798 0 3.256-1.643 3.256-3.668 0-2.024-1.458-3.666-3.256-3.666-.585 0-1.129.185-1.608.476-.263.162-.374-.096-.117-.334.771-.701 1.269-1.767 1.269-2.966 0-2.098-1.511-3.801-3.376-3.801zM166.327 207.43c1.863 0 3.377-1.704 3.377-3.802 0-1.2-.503-2.264-1.266-2.967-.262-.238-.149-.495.116-.334.476.292 1.02.477 1.602.477 1.797 0 3.258-1.643 3.258-3.667s-1.461-3.666-3.258-3.666c-1.196 0-2.246.728-2.81 1.816-.055.107-.101.253-.177.253-.107 0-.157-.176-.157-.504 0-1.313.506-2.85 1.255-4.615-.324.076-1.303.272-1.94.272s-1.615-.196-1.934-.272c.744 1.765 1.251 3.302 1.251 4.615 0 .328-.051.504-.159.504-.076 0-.122-.146-.176-.253-.564-1.088-1.615-1.816-2.812-1.816-1.797 0-3.257 1.642-3.257 3.666s1.46 3.667 3.257 3.667c.583 0 1.127-.185 1.604-.477.265-.161.377.096.122.334-.771.703-1.272 1.767-1.272 2.967 0 2.098 1.514 3.802 3.376 3.802zM89.791 103.966c-4.659 0-8.44 4.258-8.44 9.502 0 3 1.251 5.66 3.172 7.416.647.594.369 1.238-.292.836-1.199-.729-2.552-1.192-4.015-1.192-4.493 0-8.141 4.106-8.141 9.165 0 5.06 3.648 9.166 8.141 9.166 2.997 0 5.618-1.822 7.028-4.54.137-.266.246-.63.444-.63.265 0 .39.436.39 1.254 0 3.289-1.262 7.126-3.127 11.541.805-.192 3.248-.678 4.84-.678 1.597 0 4.037.486 4.845.678-1.867-4.415-3.131-8.252-3.131-11.541 0-.818.128-1.254.394-1.254.197 0 .306.364.441.63 1.412 2.718 4.03 4.54 7.027 4.54 4.496 0 8.141-4.106 8.141-9.166 0-5.059-3.645-9.165-8.141-9.165-1.46 0-2.814.463-4.017 1.192-.656.402-.937-.242-.286-.836 1.918-1.756 3.168-4.416 3.168-7.416 0-5.244-3.781-9.502-8.441-9.502z" fill="#010000"/><path d="M18.731 36.466l-4.067-21.767-2.189-.026.004.015-.545-.003-4.057 21.781-1.705.001-.003 2.302h5.45l.003-2.303H10.05l.624-3.334 5.262-.008.624 3.342-1.667-.002-.004 2.303 5.45.002.003-2.303h-1.611zm-7.588-5.834l2.167-11.561 2.159 11.555-4.326.006zM160.852 213.984l4.067 21.766 2.188.026-.002-.015.544.004 4.056-21.781 1.705-.001.003-2.302h-5.449l-.004 2.303h1.572l-.624 3.334-5.26.007-.625-3.341 1.667.001.004-2.302-5.451-.002-.003 2.303h1.612zm7.588 5.834l-2.167 11.56-2.159-11.555 4.326-.005z" fill="#000"/></g></svg>