<svg xmlns="http://www.w3.org/2000/svg" viewBox="0 0 180 251"><g fill="none" fill-rule="evenodd"><path d="M179.084 235.776c0 7.828-6.346 14.173-14.174 14.173H14.673C6.846 249.949.5 243.604.5 235.776V14.674C.5 6.846 6.846.5 14.673.5H164.91c7.828 0 14.174 6.346 14.174 14.174v221.102z" fill="#F7F6F2"/><path d="M179.084 235.776c0 7.828-6.346 14.173-14.174 14.173H14.673C6.846 249.949.5 243.604.5 235.776V14.674C.5 6.846 6.846.5 14.673.5H164.91c7.828 0 14.174 6.346 14.174 14.174v221.102h0z" stroke="#000"/><path d="M17.23 43.119c-1.247-.386-3.185.295-3.898 3.123-.06.155-.122.151-.178-.006-1.028-2.865-2.722-3.491-3.913-3.117-1.764.57-3.194 2.673-3.063 5.357.035 4.685 4.227 7.044 7.058 11.524 2.83-4.48 7.068-6.832 7.081-11.537.245-2.713-1.274-4.785-3.087-5.344zM13.254 60.028L13.236 60l-.02.028h.038zM166.348 190.45c-2.83 4.479-7.069 6.832-7.082 11.537-.245 2.712 1.275 4.785 3.087 5.344 1.246.387 3.186-.296 3.899-3.123.06-.155.123-.15.178.006 1.029 2.865 2.722 3.49 3.911 3.117 1.766-.569 3.196-2.674 3.065-5.357-.035-4.685-4.228-7.045-7.058-11.524zM166.33 190.422l.018.028.019-.028h-.037zM89.781 146.485l-.048-.073-.048.073h.096zM99.729 104.214c-3.116-.969-7.974.735-9.755 7.803-.148.386-.304.379-.445-.014-2.569-7.16-6.802-8.725-9.78-7.789-4.409 1.422-7.981 6.68-7.654 13.389.088 11.714 10.564 17.613 17.638 28.809 7.086-11.196 17.681-17.079 17.71-28.845.613-6.779-3.182-11.957-7.714-13.353zM18.731 36.465l-4.067-21.767-2.189-.025.003.016-.545-.005-4.056 21.782H6.172l-.002 2.302h5.449l.003-2.302H10.05l.624-3.334 5.261-.008.624 3.341-1.667-.001-.004 2.302 5.451.002.003-2.302-1.611-.001zm-7.588-5.834l2.166-11.56 2.159 11.554-4.325.006zM160.851 213.984l4.068 21.767 2.188.025-.003-.015.545.004 4.057-21.781h1.704l.004-2.303h-5.451l-.002 2.303h1.572l-.625 3.333-5.261.008-.624-3.341 1.667.001.004-2.302-5.45-.002-.004 2.303h1.611zm7.588 5.834l-2.166 11.56-2.159-11.555 4.325-.005z" fill="#D33D43"/></g></svg>