<svg xmlns="http://www.w3.org/2000/svg" viewBox="0 0 180 251"><g fill="none" fill-rule="evenodd"><path d="M179.084 235.776c0 7.828-6.346 14.173-14.174 14.173H14.673C6.846 249.949.5 243.604.5 235.776V14.673C.5 6.846 6.846.5 14.673.5H164.91c7.828 0 14.174 6.346 14.174 14.173v221.103z" fill="#F7F6F2"/><path d="M179.084 235.776c0 7.828-6.346 14.173-14.174 14.173H14.673C6.846 249.949.5 243.604.5 235.776V14.673C.5 6.846 6.846.5 14.673.5H164.91c7.828 0 14.174 6.346 14.174 14.173v221.103h0z" stroke="#000"/><path d="M13.267 43.02c1.786 3.47 4.145 6.308 7.075 8.512-2.93 2.206-5.289 5.038-7.075 8.495-1.802-3.457-4.168-6.289-7.097-8.495 2.929-2.204 5.295-5.042 7.097-8.512zM166.337 190.421c1.788 3.47 4.147 6.308 7.077 8.513-2.93 2.206-5.289 5.038-7.077 8.495-1.801-3.457-4.167-6.289-7.097-8.495 2.93-2.205 5.296-5.043 7.097-8.513zM106.718 126.85c-7.328 5.33-13.223 12.181-17.691 20.541-4.503-8.36-10.417-15.211-17.742-20.541 7.325-5.307 13.239-12.166 17.742-20.561 4.468 8.395 10.363 15.254 17.691 20.561zM18.731 36.465l-4.067-21.767-2.189-.025.003.015-.545-.004-4.056 21.782H6.172l-.002 2.302h5.449l.003-2.302H10.05l.624-3.334 5.261-.008.624 3.34h-1.667l-.004 2.302 5.451.002.003-2.302-1.611-.001zm-7.588-5.834l2.166-11.56 2.159 11.554-4.325.006zM160.851 213.984l4.068 21.766 2.188.026-.003-.016.545.005 4.057-21.782h1.704l.004-2.302h-5.451l-.002 2.302h1.572l-.625 3.334-5.261.007-.624-3.34h1.667l.004-2.301-5.45-.002-.004 2.302 1.611.001zm7.588 5.834l-2.166 11.559-2.159-11.554 4.325-.005z" fill="#D33D43"/></g></svg>