<svg xmlns="http://www.w3.org/2000/svg" viewBox="0 0 181 251"><g fill="none" fill-rule="evenodd"><path d="M179.85 236.232c0 7.828-6.345 14.173-14.173 14.173H15.447c-7.828 0-14.173-6.345-14.173-14.173V15.131C1.274 7.303 7.619.957 15.447.957h150.23c7.828 0 14.173 6.346 14.173 14.174v221.101z" fill="#F7F6F2"/><path d="M179.85 236.232c0 7.828-6.345 14.173-14.173 14.173H15.447c-7.828 0-14.173-6.345-14.173-14.173V15.131C1.274 7.303 7.619.957 15.447.957h150.23c7.828 0 14.173 6.346 14.173 14.174v221.101h0z" stroke="#000"/><path d="M14.029 43.478c-1.863 0-3.376 1.703-3.376 3.801 0 1.2.5 2.264 1.268 2.967.26.237.148.494-.115.334-.48-.292-1.022-.477-1.607-.477-1.797 0-3.256 1.643-3.256 3.667 0 2.023 1.459 3.667 3.256 3.667 1.199 0 2.248-.729 2.811-1.817.055-.106.099-.253.178-.253.106 0 .157.176.157.503 0 1.315-.505 2.851-1.252 4.615.323-.076 1.299-.271 1.936-.271.639 0 1.615.195 1.937.271-.746-1.764-1.251-3.3-1.251-4.615 0-.327.05-.503.157-.503.077 0 .122.147.177.253.563 1.088 1.612 1.817 2.81 1.817 1.798 0 3.257-1.644 3.257-3.667 0-2.024-1.459-3.667-3.257-3.667-.584 0-1.126.185-1.606.477-.263.16-.374-.097-.115-.334.767-.703 1.268-1.767 1.268-2.967 0-2.098-1.513-3.801-3.377-3.801zM167.096 207.886c1.864 0 3.377-1.704 3.377-3.802 0-1.199-.501-2.264-1.267-2.967-.261-.237-.15-.494.114-.334.479.291 1.021.477 1.606.477 1.797 0 3.257-1.643 3.257-3.666 0-2.024-1.46-3.667-3.257-3.667-1.198 0-2.247.728-2.809 1.817-.057.106-.101.252-.179.252-.106 0-.156-.176-.156-.503 0-1.314.505-2.85 1.251-4.615-.322.076-1.299.27-1.937.27-.637 0-1.613-.194-1.936-.27.746 1.765 1.252 3.301 1.252 4.615 0 .327-.051.503-.159.503-.077 0-.123-.146-.176-.252-.563-1.089-1.612-1.817-2.811-1.817-1.798 0-3.257 1.643-3.257 3.667 0 2.023 1.459 3.666 3.257 3.666.585 0 1.126-.186 1.607-.477.263-.16.375.097.116.334-.769.703-1.269 1.768-1.269 2.967 0 2.098 1.513 3.802 3.376 3.802zM47.337 26.469c-4.659 0-8.44 4.258-8.44 9.504 0 2.999 1.251 5.66 3.169 7.417.648.593.371 1.237-.29.836-1.199-.73-2.552-1.193-4.014-1.193-4.494 0-8.142 4.107-8.142 9.166 0 5.061 3.648 9.168 8.142 9.168 2.996 0 5.618-1.822 7.026-4.542.138-.265.248-.631.444-.631.266 0 .391.438.391 1.257 0 3.287-1.262 7.126-3.127 11.538.806-.192 3.247-.678 4.841-.678 1.595 0 4.036.486 4.842.678-1.866-4.412-3.128-8.251-3.128-11.538 0-.819.125-1.257.391-1.257.196 0 .306.366.444.631 1.408 2.72 4.03 4.542 7.026 4.542 4.494 0 8.141-4.107 8.141-9.168 0-5.059-3.647-9.166-8.141-9.166-1.462 0-2.816.463-4.014 1.193-.661.401-.938-.243-.29-.836 1.918-1.757 3.169-4.418 3.169-7.417 0-5.246-3.781-9.504-8.44-9.504zM47.337 104.422c-4.659 0-8.44 4.256-8.44 9.5 0 2.998 1.251 5.658 3.169 7.413.648.594.371 1.238-.29.837-1.199-.729-2.552-1.192-4.014-1.192-4.494 0-8.142 4.103-8.142 9.161s3.648 9.164 8.142 9.164c2.996 0 5.618-1.821 7.026-4.539.138-.266.248-.631.444-.631.266 0 .391.437.391 1.256 0 3.285-1.262 7.129-3.127 11.551.806-.194 3.247-.68 4.841-.68 1.595 0 4.036.486 4.842.68-1.866-4.422-3.128-8.266-3.128-11.551 0-.819.125-1.256.391-1.256.196 0 .306.365.444.631 1.408 2.718 4.03 4.539 7.026 4.539 4.494 0 8.141-4.106 8.141-9.164s-3.647-9.161-8.141-9.161c-1.462 0-2.816.463-4.014 1.192-.661.401-.938-.243-.29-.837 1.918-1.755 3.169-4.415 3.169-7.413 0-5.244-3.781-9.5-8.44-9.5zM47.337 224.894c4.659 0 8.441-4.257 8.441-9.505 0-2.998-1.252-5.659-3.17-7.415-.648-.593-.371-1.239.29-.837 1.199.73 2.552 1.193 4.014 1.193 4.494 0 8.141-4.105 8.141-9.166 0-5.06-3.647-9.168-8.141-9.168-2.995 0-5.617 1.822-7.026 4.541-.138.266-.248.631-.444.631-.266 0-.391-.438-.391-1.256 0-3.286 1.262-7.126 3.127-11.538-.805.191-3.246.679-4.841.679-1.595 0-4.035-.488-4.841-.679 1.866 4.412 3.127 8.252 3.127 11.538 0 .818-.124 1.256-.391 1.256-.196 0-.306-.365-.444-.631-1.408-2.719-4.03-4.541-7.025-4.541-4.495 0-8.143 4.108-8.143 9.168 0 5.061 3.648 9.166 8.143 9.166 1.461 0 2.815-.463 4.013-1.193.661-.402.939.244.29.837-1.918 1.756-3.169 4.417-3.169 7.415 0 5.248 3.781 9.505 8.44 9.505zM133.788 26.47c-4.66 0-8.441 4.258-8.441 9.504 0 2.999 1.252 5.66 3.17 7.416.648.593.37 1.237-.289.836-1.2-.73-2.554-1.193-4.016-1.193-4.493 0-8.141 4.107-8.141 9.167s3.648 9.167 8.141 9.167c2.996 0 5.619-1.822 7.027-4.541.138-.266.248-.631.443-.631.267 0 .393.437.393 1.256 0 3.287-1.263 7.126-3.128 11.538.806-.192 3.247-.678 4.841-.678 1.594 0 4.035.486 4.841.678-1.866-4.412-3.127-8.251-3.127-11.538 0-.819.125-1.256.392-1.256.195 0 .306.365.444.631 1.407 2.719 4.03 4.541 7.025 4.541 4.494 0 8.142-4.107 8.142-9.167s-3.648-9.167-8.142-9.167c-1.461 0-2.816.463-4.015 1.193-.66.401-.937-.243-.289-.836 1.918-1.756 3.169-4.417 3.169-7.416 0-5.246-3.781-9.504-8.44-9.504zM133.788 104.422c-4.66 0-8.441 4.257-8.441 9.5 0 2.998 1.252 5.658 3.17 7.413.648.594.37 1.236-.289.837-1.2-.73-2.554-1.193-4.016-1.193-4.493 0-8.141 4.104-8.141 9.162 0 5.058 3.648 9.164 8.141 9.164 2.996 0 5.619-1.823 7.027-4.539.138-.267.248-.631.443-.631.267 0 .393.437.393 1.256 0 3.285-1.263 7.128-3.128 11.549.806-.192 3.247-.68 4.841-.68 1.594 0 4.035.488 4.841.68-1.866-4.421-3.127-8.264-3.127-11.549 0-.819.125-1.256.392-1.256.195 0 .306.364.444.631 1.407 2.716 4.03 4.539 7.025 4.539 4.494 0 8.142-4.106 8.142-9.164s-3.648-9.162-8.142-9.162c-1.461 0-2.816.463-4.015 1.193-.66.399-.937-.243-.289-.837 1.918-1.755 3.169-4.415 3.169-7.413 0-5.243-3.781-9.5-8.44-9.5zM133.788 224.894c4.659 0 8.441-4.257 8.441-9.505 0-2.998-1.252-5.659-3.17-7.415-.648-.593-.371-1.239.289-.837 1.2.73 2.554 1.193 4.015 1.193 4.494 0 8.142-4.105 8.142-9.166 0-5.06-3.648-9.168-8.142-9.168-2.995 0-5.617 1.822-7.025 4.541-.138.266-.249.631-.444.631-.267 0-.392-.438-.392-1.256 0-3.286 1.261-7.126 3.126-11.538-.805.191-3.246.679-4.84.679-1.595 0-4.035-.488-4.841-.679 1.866 4.412 3.128 8.252 3.128 11.538 0 .818-.125 1.256-.393 1.256-.195 0-.305-.365-.443-.631-1.408-2.719-4.03-4.541-7.025-4.541-4.495 0-8.143 4.108-8.143 9.168 0 5.061 3.648 9.166 8.143 9.166 1.46 0 2.815-.463 4.014-1.193.659-.402.938.244.289.837-1.918 1.756-3.17 4.417-3.17 7.415 0 5.248 3.783 9.505 8.441 9.505zM90.562 67.571c-4.66 0-8.44 4.257-8.44 9.5 0 2.998 1.251 5.659 3.169 7.414.647.593.37 1.237-.289.836-1.199-.73-2.553-1.193-4.015-1.193-4.493 0-8.14 4.106-8.14 9.164s3.647 9.164 8.14 9.164c2.995 0 5.617-1.822 7.025-4.54.138-.266.249-.631.445-.631.266 0 .391.438.391 1.256 0 3.286-1.262 7.129-3.127 11.55.805-.192 3.246-.68 4.841-.68 1.592 0 4.032.488 4.839.68-1.866-4.421-3.128-8.264-3.128-11.55 0-.818.125-1.256.392-1.256.194 0 .305.365.443.631 1.408 2.718 4.03 4.54 7.026 4.54 4.496 0 8.142-4.106 8.142-9.164s-3.646-9.164-8.142-9.164c-1.46 0-2.816.463-4.014 1.193-.66.401-.938-.243-.289-.836C97.749 82.73 99 80.069 99 77.071c0-5.243-3.782-9.5-8.438-9.5zM90.561 183.791c4.657 0 8.44-4.258 8.44-9.504 0-2.999-1.252-5.66-3.17-7.416-.649-.594-.371-1.238.289-.836 1.199.73 2.554 1.194 4.014 1.194 4.496 0 8.142-4.108 8.142-9.168s-3.646-9.167-8.142-9.167c-2.996 0-5.617 1.822-7.026 4.541-.138.265-.249.63-.443.63-.267 0-.392-.436-.392-1.255 0-3.287 1.262-7.126 3.127-11.538-.806.191-3.246.677-4.839.677-1.595 0-4.035-.486-4.84-.677 1.865 4.412 3.127 8.251 3.127 11.538 0 .819-.125 1.255-.391 1.255-.196 0-.307-.365-.444-.63-1.409-2.719-4.031-4.541-7.025-4.541-4.494 0-8.141 4.107-8.141 9.167s3.647 9.168 8.141 9.168c1.461 0 2.815-.464 4.014-1.194.659-.402.937.242.289.836-1.918 1.756-3.169 4.417-3.169 7.416 0 5.246 3.781 9.504 8.439 9.504z" fill="#010000"/><path d="M18.995 27.068a6.996 6.996 0 00-1.22-.954 5.95 5.95 0 00.539-.465 6.127 6.127 0 001.835-4.382 6.13 6.13 0 00-1.835-4.383 6.094 6.094 0 00-4.285-1.753c-1.655 0-3.17.658-4.285 1.753a6.133 6.133 0 00-1.834 4.383 6.13 6.13 0 001.834 4.382c.17.167.352.32.538.465-.438.274-.849.59-1.219.954a7.086 7.086 0 00-2.121 5.063 7.088 7.088 0 1014.173 0 7.073 7.073 0 00-2.12-5.063zm-7.792-8.407a4.02 4.02 0 012.824-1.141h.002a4.022 4.022 0 012.827 1.141c.705.698 1.108 1.608 1.109 2.606-.001.998-.404 1.908-1.109 2.605a4.023 4.023 0 01-2.827 1.142 4.019 4.019 0 01-2.826-1.142c-.704-.697-1.108-1.607-1.109-2.605.001-.998.405-1.908 1.109-2.606zm6.243 16.647a4.855 4.855 0 01-3.417 1.381 4.863 4.863 0 01-3.418-1.381c-.855-.846-1.349-1.957-1.351-3.177.002-1.221.496-2.332 1.351-3.178a4.861 4.861 0 013.416-1.382h.002a4.856 4.856 0 013.417 1.382c.857.846 1.352 1.957 1.353 3.178-.001 1.22-.496 2.331-1.353 3.177zM162.128 224.295c.37.363.781.68 1.22.953a6.617 6.617 0 00-.538.465 6.127 6.127 0 00-1.835 4.383 6.126 6.126 0 006.119 6.136 6.1 6.1 0 004.286-1.753 6.137 6.137 0 001.834-4.383c0-1.731-.72-3.292-1.834-4.383a6.631 6.631 0 00-.539-.465c.439-.273.85-.59 1.22-.953a7.085 7.085 0 002.12-5.063 7.087 7.087 0 10-14.173 0 7.077 7.077 0 002.12 5.063zm7.793 8.406a4.02 4.02 0 01-2.825 1.142h-.002a4.015 4.015 0 01-2.826-1.142c-.705-.697-1.108-1.607-1.109-2.605.001-.998.404-1.908 1.109-2.606a4.018 4.018 0 012.826-1.141 4.022 4.022 0 012.827 1.141c.704.698 1.108 1.608 1.109 2.606-.001.998-.405 1.908-1.109 2.605zm-6.244-16.646a4.858 4.858 0 013.417-1.381 4.86 4.86 0 013.418 1.381c.856.846 1.35 1.957 1.352 3.177-.002 1.221-.496 2.331-1.352 3.178a4.861 4.861 0 01-3.416 1.381h-.002a4.863 4.863 0 01-3.417-1.381c-.856-.847-1.351-1.957-1.352-3.178.001-1.22.496-2.331 1.352-3.177z" fill="#000"/></g></svg>