<svg xmlns="http://www.w3.org/2000/svg" viewBox="0 0 181 251"><g fill="none" fill-rule="evenodd"><path d="M179.855 236.228c0 7.828-6.346 14.173-14.174 14.173H15.446c-7.828 0-14.173-6.345-14.173-14.173V15.133C1.273 7.305 7.618.959 15.446.959h150.235c7.828 0 14.174 6.346 14.174 14.174v221.095z" fill="#F7F6F2"/><path d="M179.855 236.228c0 7.828-6.346 14.173-14.174 14.173H15.446c-7.828 0-14.173-6.345-14.173-14.173V15.133C1.273 7.305 7.618.959 15.446.959h150.235c7.828 0 14.174 6.346 14.174 14.174v221.095h0z" stroke="#000"/><path d="M14.04 43.48c1.787 3.47 4.145 6.308 7.076 8.512-2.931 2.207-5.289 5.038-7.076 8.495-1.802-3.457-4.167-6.288-7.098-8.495 2.931-2.204 5.296-5.042 7.098-8.512zM167.109 190.873c1.787 3.47 4.145 6.308 7.076 8.513-2.931 2.206-5.289 5.038-7.076 8.495-1.803-3.457-4.168-6.289-7.098-8.495 2.93-2.205 5.295-5.043 7.098-8.513zM47.361 26.472c4.469 8.675 10.365 15.77 17.691 21.283-7.326 5.517-13.222 12.595-17.691 21.237-4.503-8.642-10.417-15.72-17.741-21.237 7.324-5.513 13.238-12.608 17.741-21.283zM47.361 104.424c4.468 8.674 10.365 15.765 17.691 21.28-7.326 5.513-13.223 12.594-17.691 21.233-4.503-8.639-10.418-15.72-17.741-21.233 7.323-5.515 13.238-12.606 17.741-21.28zM47.361 182.369c4.469 8.675 10.365 15.769 17.691 21.282-7.326 5.518-13.222 12.596-17.691 21.238-4.503-8.642-10.417-15.72-17.741-21.238 7.324-5.513 13.238-12.607 17.741-21.282zM133.816 26.472c4.469 8.675 10.365 15.769 17.692 21.283-7.327 5.516-13.223 12.595-17.692 21.237-4.502-8.642-10.417-15.721-17.741-21.237 7.324-5.514 13.239-12.608 17.741-21.283zM133.816 104.424c4.469 8.672 10.365 15.765 17.692 21.278-7.327 5.515-13.223 12.596-17.692 21.235-4.502-8.639-10.417-15.72-17.741-21.235 7.324-5.513 13.239-12.606 17.741-21.278zM133.816 182.369c4.469 8.675 10.365 15.77 17.692 21.282-7.327 5.517-13.223 12.596-17.692 21.238-4.502-8.642-10.416-15.721-17.741-21.238 7.325-5.512 13.239-12.607 17.741-21.282zM90.588 67.574c4.469 8.675 10.365 15.769 17.691 21.283-7.326 5.517-13.222 12.595-17.691 21.235-4.502-8.64-10.416-15.718-17.741-21.235 7.325-5.514 13.239-12.608 17.741-21.283zM90.588 141.267c4.468 8.675 10.365 15.77 17.691 21.285-7.326 5.516-13.223 12.596-17.691 21.234-4.502-8.638-10.417-15.718-17.741-21.234 7.324-5.515 13.239-12.61 17.741-21.285zM18.995 27.069a7.077 7.077 0 00-1.22-.953c.187-.146.368-.298.538-.465a6.123 6.123 0 001.835-4.382 6.126 6.126 0 00-1.835-4.383 6.096 6.096 0 00-4.284-1.754 6.129 6.129 0 00-6.119 6.137 6.126 6.126 0 001.834 4.382c.17.167.351.319.538.465-.439.274-.85.59-1.22.953a7.087 7.087 0 00-2.12 5.063 7.09 7.09 0 007.087 7.095 7.069 7.069 0 004.966-2.031 7.077 7.077 0 002.12-5.064 7.075 7.075 0 00-2.12-5.063zm-7.792-8.406a4.02 4.02 0 012.824-1.141h.002a4.018 4.018 0 012.826 1.141c.705.698 1.108 1.608 1.109 2.606-.001.998-.404 1.907-1.109 2.606a4.023 4.023 0 01-2.826 1.141 4.023 4.023 0 01-2.826-1.141c-.704-.699-1.109-1.608-1.11-2.606.001-.998.406-1.908 1.11-2.606zm6.243 16.646a4.855 4.855 0 01-3.417 1.382 4.856 4.856 0 01-3.418-1.382c-.856-.846-1.35-1.956-1.352-3.177.002-1.22.496-2.331 1.352-3.177a4.862 4.862 0 013.416-1.382h.002c1.353 0 2.562.541 3.417 1.382.856.846 1.351 1.957 1.352 3.177-.001 1.221-.496 2.331-1.352 3.177zM162.133 224.291c.369.362.78.679 1.218.953a6.564 6.564 0 00-.537.464 6.128 6.128 0 00-1.836 4.383 6.126 6.126 0 001.836 4.383 6.096 6.096 0 004.284 1.754 6.129 6.129 0 006.119-6.137 6.13 6.13 0 00-1.834-4.383 6.26 6.26 0 00-.538-.464c.439-.274.85-.591 1.219-.953a7.088 7.088 0 002.121-5.063 7.09 7.09 0 00-7.087-7.095 7.065 7.065 0 00-4.965 2.031 7.079 7.079 0 00-2.122 5.064 7.076 7.076 0 002.122 5.063zm7.79 8.405a4.014 4.014 0 01-2.824 1.142h-.001a4.015 4.015 0 01-2.826-1.142c-.705-.697-1.108-1.607-1.109-2.605.001-.998.404-1.907 1.109-2.606a4.017 4.017 0 012.826-1.14 4.015 4.015 0 012.825 1.14c.706.699 1.11 1.608 1.111 2.606-.001.998-.405 1.908-1.111 2.605zm-6.242-16.645a4.857 4.857 0 013.417-1.382 4.857 4.857 0 013.417 1.382c.857.846 1.351 1.956 1.353 3.177-.002 1.22-.496 2.331-1.353 3.177a4.858 4.858 0 01-3.416 1.382h-.001a4.866 4.866 0 01-3.417-1.382c-.856-.846-1.351-1.957-1.353-3.177.002-1.221.497-2.331 1.353-3.177z" fill="#D33D43"/></g></svg>