<svg xmlns="http://www.w3.org/2000/svg" viewBox="0 0 181 251"><g fill="none" fill-rule="evenodd"><path d="M179.856 236.23c0 7.828-6.346 14.173-14.174 14.173H15.445c-7.828 0-14.174-6.345-14.174-14.173V15.133C1.271 7.305 7.617.959 15.445.959h150.237c7.828 0 14.174 6.346 14.174 14.174V236.23z" fill="#F7F6F2"/><path d="M179.856 236.23c0 7.828-6.346 14.173-14.174 14.173H15.445c-7.828 0-14.174-6.345-14.174-14.173V15.133C1.271 7.305 7.617.959 15.445.959h150.237c7.828 0 14.174 6.346 14.174 14.174V236.23h0z" stroke="#000"/><path d="M18.994 27.069a7.147 7.147 0 00-1.219-.953 6.21 6.21 0 00.537-.465 6.124 6.124 0 001.836-4.382 6.126 6.126 0 00-6.121-6.136 6.09 6.09 0 00-4.283 1.753 6.134 6.134 0 00-1.836 4.383c0 1.731.721 3.292 1.836 4.382.168.167.349.32.537.465-.44.274-.85.59-1.219.953a7.086 7.086 0 00-2.121 5.064c0 1.997.83 3.8 2.121 5.062a7.063 7.063 0 004.965 2.032 7.068 7.068 0 004.967-2.032 7.081 7.081 0 002.121-5.062 7.086 7.086 0 00-2.121-5.064zm-7.791-8.406a4.016 4.016 0 012.824-1.141 4.016 4.016 0 012.826 1.141c.705.697 1.109 1.608 1.109 2.606 0 .998-.404 1.908-1.109 2.605a4.013 4.013 0 01-2.826 1.142 4.012 4.012 0 01-2.824-1.142c-.705-.697-1.11-1.607-1.112-2.605.002-.998.407-1.909 1.112-2.606zm6.242 16.647a4.863 4.863 0 01-3.418 1.381 4.859 4.859 0 01-3.416-1.381c-.857-.847-1.352-1.957-1.354-3.177.002-1.221.497-2.332 1.354-3.178a4.852 4.852 0 013.416-1.382 4.86 4.86 0 013.418 1.382c.855.846 1.351 1.957 1.353 3.178-.002 1.22-.498 2.33-1.353 3.177zM162.131 224.293c.372.363.782.68 1.221.953a6.28 6.28 0 00-.537.465 6.128 6.128 0 00-1.836 4.383 6.126 6.126 0 001.836 4.383 6.087 6.087 0 004.283 1.753c1.655 0 3.17-.658 4.285-1.753a6.12 6.12 0 001.834-4.383 6.122 6.122 0 00-1.834-4.383 6.308 6.308 0 00-.539-.465c.44-.273.852-.59 1.221-.953a7.088 7.088 0 002.121-5.063c0-1.997-.832-3.8-2.121-5.063a7.071 7.071 0 00-4.967-2.031 7.084 7.084 0 00-7.086 7.094 7.078 7.078 0 002.119 5.063zm7.793 8.406a4.016 4.016 0 01-2.824 1.142h-.002a4.017 4.017 0 01-2.826-1.142 3.637 3.637 0 01-1.109-2.605c.002-.998.404-1.908 1.109-2.606a4.02 4.02 0 012.826-1.141 4.016 4.016 0 012.826 1.141c.705.698 1.11 1.608 1.11 2.606 0 .998-.405 1.908-1.11 2.605zm-6.244-16.646a4.863 4.863 0 013.418-1.381 4.86 4.86 0 013.418 1.381c.856.846 1.35 1.957 1.352 3.177-.002 1.221-.496 2.332-1.352 3.178a4.863 4.863 0 01-3.416 1.381h-.002a4.867 4.867 0 01-3.418-1.381c-.855-.846-1.351-1.957-1.351-3.178 0-1.22.496-2.331 1.351-3.177zM14.018 43.48c-.041.027-.07.041-.117.072-3.038 1.939-6.583 5.724-6.946 10.441-.173 2.244 1.262 3.798 3.117 3.832 1.184.022 2.137-.399 2.653-1.203.429-.668.538-1.699.608-1.222.25 1.816-.511 3.562-.922 5.087.459-.167 1.035-.251 1.613-.253h.01c.576.002 1.152.086 1.61.253-.411-1.525-1.17-3.271-.921-5.087.07-.477.179.554.607 1.222.515.804 1.468 1.225 2.652 1.203 1.855-.034 3.291-1.588 3.118-3.832-.364-4.717-3.908-8.502-6.943-10.441-.033-.025-.063-.04-.111-.072h-.028z" fill="#000"/><path d="M14.018 43.48c-.041.027-.07.041-.117.072-3.038 1.939-6.583 5.724-6.946 10.441-.173 2.244 1.262 3.798 3.117 3.832 1.184.022 2.137-.399 2.653-1.203.429-.668.538-1.699.608-1.222.25 1.816-.511 3.562-.922 5.087.459-.167 1.035-.251 1.613-.253h.01c.576.002 1.152.086 1.61.253-.411-1.525-1.17-3.271-.921-5.087.07-.477.179.554.607 1.222.515.804 1.468 1.225 2.652 1.203 1.855-.034 3.291-1.588 3.118-3.832-.364-4.717-3.908-8.502-6.943-10.441-.033-.025-.063-.04-.111-.072h-.028 0z" stroke="#000" stroke-width=".065" stroke-linejoin="round"/><path d="M167.091 207.883c-.042-.028-.071-.041-.118-.072-3.039-1.94-6.584-5.725-6.947-10.442-.172-2.244 1.264-3.797 3.117-3.832 1.186-.021 2.137.401 2.654 1.203.428.668.538 1.699.608 1.223.25-1.816-.512-3.563-.922-5.088.459.168 1.035.252 1.613.254h.01c.576-.002 1.152-.086 1.61-.254-.411 1.525-1.171 3.272-.921 5.088.069.476.178-.555.606-1.223.516-.802 1.469-1.224 2.652-1.203 1.856.035 3.291 1.588 3.119 3.832-.365 4.717-3.908 8.502-6.943 10.442-.033.025-.062.04-.111.072h-.027z" fill="#000"/><path d="M167.091 207.883c-.042-.028-.071-.041-.118-.072-3.039-1.94-6.584-5.725-6.947-10.442-.172-2.244 1.264-3.797 3.117-3.832 1.186-.021 2.137.401 2.654 1.203.428.668.538 1.699.608 1.223.25-1.816-.512-3.563-.922-5.088.459.168 1.035.252 1.613.254h.01c.576-.002 1.152-.086 1.61-.254-.411 1.525-1.171 3.272-.921 5.088.069.476.178-.555.606-1.223.516-.802 1.469-1.224 2.652-1.203 1.856.035 3.291 1.588 3.119 3.832-.365 4.717-3.908 8.502-6.943 10.442-.033.025-.062.04-.111.072h-.027 0z" stroke="#000" stroke-width=".065" stroke-linejoin="round"/><path d="M47.312 26.471c-.104.067-.176.103-.293.18-7.596 4.85-16.457 14.311-17.365 26.104-.433 5.61 3.155 9.495 7.792 9.58 2.961.054 5.342-.998 6.633-3.008 1.072-1.671 1.346-4.248 1.52-3.057.625 4.542-1.278 8.907-2.307 12.72 1.149-.417 2.59-.627 4.033-.631h.026c1.441.004 2.881.214 4.027.631-1.029-3.813-2.928-8.178-2.303-12.72.172-1.191.446 1.386 1.516 3.057 1.289 2.01 3.67 3.062 6.631 3.008 4.638-.085 8.226-3.97 7.795-9.58-.91-11.793-9.77-21.254-17.36-26.104-.082-.061-.154-.099-.273-.18h-.072z" fill="#000"/><path d="M47.312 26.471c-.104.067-.176.103-.293.18-7.596 4.85-16.457 14.311-17.365 26.104-.433 5.61 3.155 9.495 7.792 9.58 2.961.054 5.342-.998 6.633-3.008 1.072-1.671 1.346-4.248 1.52-3.057.625 4.542-1.278 8.907-2.307 12.72 1.149-.417 2.59-.627 4.033-.631h.026c1.441.004 2.881.214 4.027.631-1.029-3.813-2.928-8.178-2.303-12.72.172-1.191.446 1.386 1.516 3.057 1.289 2.01 3.67 3.062 6.631 3.008 4.638-.085 8.226-3.97 7.795-9.58-.91-11.793-9.77-21.254-17.36-26.104-.082-.061-.154-.099-.273-.18h-.072 0z" stroke="#000" stroke-width=".163" stroke-linejoin="round"/><path d="M133.768 26.471c-.101.067-.174.103-.293.18-7.596 4.85-16.455 14.311-17.363 26.104-.434 5.61 3.154 9.495 7.793 9.58 2.961.054 5.342-.998 6.631-3.008 1.072-1.671 1.345-4.248 1.519-3.057.625 4.542-1.275 8.907-2.304 12.72 1.146-.417 2.588-.627 4.033-.631h.023c1.444.004 2.881.214 4.028.631-1.028-3.813-2.926-8.178-2.303-12.72.174-1.191.447 1.386 1.517 3.057 1.29 2.01 3.67 3.062 6.631 3.008 4.639-.085 8.225-3.97 7.793-9.58-.908-11.793-9.769-21.254-17.357-26.104-.084-.061-.156-.099-.275-.18h-.073z" fill="#000"/><path d="M133.768 26.471c-.101.067-.174.103-.293.18-7.596 4.85-16.455 14.311-17.363 26.104-.434 5.61 3.154 9.495 7.793 9.58 2.961.054 5.342-.998 6.631-3.008 1.072-1.671 1.345-4.248 1.519-3.057.625 4.542-1.275 8.907-2.304 12.72 1.146-.417 2.588-.627 4.033-.631h.023c1.444.004 2.881.214 4.028.631-1.028-3.813-2.926-8.178-2.303-12.72.174-1.191.447 1.386 1.517 3.057 1.29 2.01 3.67 3.062 6.631 3.008 4.639-.085 8.225-3.97 7.793-9.58-.908-11.793-9.769-21.254-17.357-26.104-.084-.061-.156-.099-.275-.18h-.073 0z" stroke="#000" stroke-width=".163" stroke-linejoin="round"/><path d="M90.538 67.573c-.101.068-.174.104-.293.181-7.594 4.85-16.455 14.311-17.363 26.103-.432 5.61 3.156 9.495 7.793 9.581 2.961.053 5.342-.998 6.631-3.008 1.072-1.672 1.345-4.248 1.519-3.058.625 4.543-1.275 8.907-2.304 12.718 1.146-.416 2.587-.627 4.033-.63h.023c1.444.003 2.882.214 4.029.63-1.028-3.811-2.927-8.175-2.304-12.718.174-1.19.448 1.386 1.518 3.058 1.29 2.01 3.671 3.061 6.632 3.008 4.639-.086 8.224-3.971 7.793-9.581-.908-11.792-9.77-21.253-17.359-26.103-.084-.061-.156-.1-.275-.181h-.073z" fill="#000"/><path d="M90.538 67.573c-.101.068-.174.104-.293.181-7.594 4.85-16.455 14.311-17.363 26.103-.432 5.61 3.156 9.495 7.793 9.581 2.961.053 5.342-.998 6.631-3.008 1.072-1.672 1.345-4.248 1.519-3.058.625 4.543-1.275 8.907-2.304 12.718 1.146-.416 2.587-.627 4.033-.63h.023c1.444.003 2.882.214 4.029.63-1.028-3.811-2.927-8.175-2.304-12.718.174-1.19.448 1.386 1.518 3.058 1.29 2.01 3.671 3.061 6.632 3.008 4.639-.086 8.224-3.971 7.793-9.581-.908-11.792-9.77-21.253-17.359-26.103-.084-.061-.156-.1-.275-.181h-.073 0z" stroke="#000" stroke-width=".163" stroke-linejoin="round"/><path d="M47.312 104.423c-.104.067-.176.104-.293.18-7.596 4.849-16.457 14.308-17.365 26.1-.433 5.611 3.155 9.496 7.792 9.58 2.961.055 5.342-.998 6.633-3.008 1.072-1.67 1.346-4.248 1.52-3.056.625 4.541-1.278 8.906-2.307 12.72 1.149-.417 2.59-.626 4.033-.632h.026c1.441.006 2.881.215 4.027.632-1.029-3.814-2.928-8.179-2.303-12.72.172-1.192.446 1.386 1.516 3.056 1.289 2.01 3.67 3.063 6.631 3.008 4.638-.084 8.226-3.969 7.795-9.58-.91-11.792-9.77-21.251-17.36-26.1-.082-.061-.154-.099-.273-.18h-.072z" fill="#000"/><path d="M47.312 104.423c-.104.067-.176.104-.293.18-7.596 4.849-16.457 14.308-17.365 26.1-.433 5.611 3.155 9.496 7.792 9.58 2.961.055 5.342-.998 6.633-3.008 1.072-1.67 1.346-4.248 1.52-3.056.625 4.541-1.278 8.906-2.307 12.72 1.149-.417 2.59-.626 4.033-.632h.026c1.441.006 2.881.215 4.027.632-1.029-3.814-2.928-8.179-2.303-12.72.172-1.192.446 1.386 1.516 3.056 1.289 2.01 3.67 3.063 6.631 3.008 4.638-.084 8.226-3.969 7.795-9.58-.91-11.792-9.77-21.251-17.36-26.1-.082-.061-.154-.099-.273-.18h-.072 0z" stroke="#000" stroke-width=".163" stroke-linejoin="round"/><path d="M130.934 104.423c-.103.067-.176.104-.293.18-7.596 4.849-16.457 14.308-17.365 26.1-.432 5.611 3.156 9.495 7.793 9.58 2.961.054 5.342-.998 6.633-3.008 1.072-1.671 1.345-4.248 1.519-3.057.625 4.542-1.277 8.907-2.306 12.72 1.148-.416 2.589-.626 4.033-.631h.025c1.442.005 2.881.215 4.028.631-1.03-3.813-2.928-8.178-2.303-12.72.172-1.191.445 1.386 1.516 3.057 1.289 2.01 3.669 3.062 6.63 3.008 4.639-.085 8.227-3.969 7.795-9.58-.91-11.792-9.769-21.251-17.359-26.1-.082-.06-.154-.099-.274-.18h-.072z" fill="#000"/><path d="M130.934 104.423c-.103.067-.176.104-.293.18-7.596 4.849-16.457 14.308-17.365 26.1-.432 5.611 3.156 9.495 7.793 9.58 2.961.054 5.342-.998 6.633-3.008 1.072-1.671 1.345-4.248 1.519-3.057.625 4.542-1.277 8.907-2.306 12.72 1.148-.416 2.589-.626 4.033-.631h.025c1.442.005 2.881.215 4.028.631-1.03-3.813-2.928-8.178-2.303-12.72.172-1.191.445 1.386 1.516 3.057 1.289 2.01 3.669 3.062 6.63 3.008 4.639-.085 8.227-3.969 7.795-9.58-.91-11.792-9.769-21.251-17.359-26.1-.082-.06-.154-.099-.274-.18h-.072 0z" stroke="#000" stroke-width=".163" stroke-linejoin="round"/><path d="M90.538 183.789c-.101-.067-.174-.103-.293-.182-7.595-4.848-16.455-14.309-17.363-26.103-.434-5.609 3.154-9.494 7.793-9.579 2.961-.054 5.342.997 6.631 3.007 1.072 1.672 1.345 4.248 1.519 3.058.625-4.543-1.275-8.908-2.304-12.72 1.146.416 2.587.627 4.033.63h.023c1.444-.003 2.882-.214 4.029-.63-1.028 3.812-2.927 8.177-2.304 12.72.174 1.19.448-1.386 1.518-3.058 1.29-2.01 3.671-3.061 6.632-3.007 4.639.085 8.224 3.97 7.793 9.579-.908 11.794-9.77 21.255-17.359 26.103-.084.063-.156.1-.275.182h-.073z" fill="#000"/><path d="M90.538 183.789c-.101-.067-.174-.103-.293-.182-7.595-4.848-16.455-14.309-17.363-26.103-.434-5.609 3.154-9.494 7.793-9.579 2.961-.054 5.342.997 6.631 3.007 1.072 1.672 1.345 4.248 1.519 3.058.625-4.543-1.275-8.908-2.304-12.72 1.146.416 2.587.627 4.033.63h.023c1.444-.003 2.882-.214 4.029-.63-1.028 3.812-2.927 8.177-2.304 12.72.174 1.19.448-1.386 1.518-3.058 1.29-2.01 3.671-3.061 6.632-3.007 4.639.085 8.224 3.97 7.793 9.579-.908 11.794-9.77 21.255-17.359 26.103-.084.063-.156.1-.275.182h-.073 0z" stroke="#000" stroke-width=".163" stroke-linejoin="round"/><path d="M47.31 224.891c-.102-.067-.174-.104-.293-.18-7.596-4.85-16.455-14.311-17.363-26.105-.434-5.61 3.154-9.495 7.792-9.579 2.961-.054 5.342.998 6.631 3.007 1.073 1.671 1.346 4.248 1.52 3.058.625-4.542-1.276-8.907-2.305-12.721 1.147.417 2.588.627 4.033.632h.024c1.443-.005 2.881-.215 4.027-.632-1.027 3.814-2.926 8.179-2.303 12.721.174 1.19.448-1.387 1.518-3.058 1.289-2.009 3.67-3.061 6.631-3.007 4.638.084 8.224 3.969 7.793 9.579-.908 11.794-9.77 21.255-17.358 26.105-.084.061-.156.099-.275.18h-.072z" fill="#000"/><path d="M47.31 224.891c-.102-.067-.174-.104-.293-.18-7.596-4.85-16.455-14.311-17.363-26.105-.434-5.61 3.154-9.495 7.792-9.579 2.961-.054 5.342.998 6.631 3.007 1.073 1.671 1.346 4.248 1.52 3.058.625-4.542-1.276-8.907-2.305-12.721 1.147.417 2.588.627 4.033.632h.024c1.443-.005 2.881-.215 4.027-.632-1.027 3.814-2.926 8.179-2.303 12.721.174 1.19.448-1.387 1.518-3.058 1.289-2.009 3.67-3.061 6.631-3.007 4.638.084 8.224 3.969 7.793 9.579-.908 11.794-9.77 21.255-17.358 26.105-.084.061-.156.099-.275.18h-.072 0z" stroke="#000" stroke-width=".163" stroke-linejoin="round"/><path d="M133.768 224.891c-.101-.067-.174-.103-.293-.18-7.596-4.85-16.455-14.311-17.363-26.104-.434-5.611 3.154-9.496 7.793-9.58 2.961-.054 5.342.999 6.631 3.008 1.072 1.671 1.345 4.248 1.519 3.057.625-4.541-1.275-8.906-2.304-12.721 1.146.418 2.588.627 4.033.633h.023c1.444-.006 2.881-.215 4.028-.633-1.028 3.815-2.926 8.18-2.303 12.721.174 1.191.447-1.386 1.517-3.057 1.29-2.009 3.67-3.062 6.631-3.008 4.639.084 8.225 3.969 7.793 9.58-.908 11.793-9.769 21.254-17.357 26.104-.084.063-.156.1-.275.18h-.073z" fill="#000"/><path d="M133.768 224.891c-.101-.067-.174-.103-.293-.18-7.596-4.85-16.455-14.311-17.363-26.104-.434-5.611 3.154-9.496 7.793-9.58 2.961-.054 5.342.999 6.631 3.008 1.072 1.671 1.345 4.248 1.519 3.057.625-4.541-1.275-8.906-2.304-12.721 1.146.418 2.588.627 4.033.633h.023c1.444-.006 2.881-.215 4.028-.633-1.028 3.815-2.926 8.18-2.303 12.721.174 1.191.447-1.386 1.517-3.057 1.29-2.009 3.67-3.062 6.631-3.008 4.639.084 8.225 3.969 7.793 9.58-.908 11.793-9.769 21.254-17.357 26.104-.084.063-.156.1-.275.18h-.073 0z" stroke="#000" stroke-width=".163" stroke-linejoin="round"/></g></svg>