<svg xmlns="http://www.w3.org/2000/svg" viewBox="0 0 181 251"><g fill="none" fill-rule="evenodd"><path d="M179.855 236.23c0 7.828-6.346 14.173-14.174 14.173H15.446c-7.827 0-14.173-6.345-14.173-14.173V15.131C1.273 7.303 7.619.958 15.446.958h150.235c7.828 0 14.174 6.345 14.174 14.173V236.23z" fill="#F7F6F2"/><path d="M179.855 236.23c0 7.828-6.346 14.173-14.174 14.173H15.446c-7.827 0-14.173-6.345-14.173-14.173V15.131C1.273 7.303 7.619.958 15.446.958h150.235c7.828 0 14.174 6.345 14.174 14.173V236.23h0z" stroke="#000"/><path d="M167.119 190.905c-2.83 4.479-7.07 6.831-7.08 11.536-.245 2.712 1.275 4.785 3.085 5.343 1.246.387 3.186-.295 3.899-3.123.059-.154.121-.151.178.006 1.025 2.865 2.721 3.49 3.912 3.117 1.766-.569 3.194-2.673 3.064-5.357-.038-4.684-4.228-7.043-7.058-11.522zM167.099 190.876l.02.029.019-.029h-.039zM14.026 60.485l-.018-.027-.018.027h.036zM18.003 43.577c-1.247-.388-3.185.295-3.897 3.122-.06.155-.123.151-.178-.005-1.029-2.865-2.723-3.492-3.913-3.117-1.766.569-3.195 2.673-3.065 5.356.037 4.684 4.23 7.044 7.058 11.525 2.829-4.481 7.07-6.833 7.081-11.538.248-2.712-1.274-4.785-3.086-5.343zM151.487 211.251c-.091-11.71-10.568-17.607-17.645-28.806-7.076 11.199-17.67 17.079-17.703 28.839-.609 6.782 3.183 11.963 7.717 13.359 3.118.967 7.964-.736 9.747-7.806.145-.387.303-.379.446.014 2.567 7.162 6.804 8.726 9.779 7.792 4.414-1.423 7.988-6.682 7.659-13.392z" fill="#D33D43"/><path d="M133.795 182.371c.015.026.032.05.047.074.017-.024.034-.048.049-.074h-.096zM133.787 66.154c-.016-.025-.033-.049-.048-.075l-.049.075h.097zM143.724 23.883c-3.117-.968-7.964.736-9.746 7.805-.144.388-.303.379-.441-.014-2.573-7.162-6.804-8.726-9.785-7.791-4.407 1.423-7.981 6.682-7.657 13.391.09 11.711 10.566 17.608 17.644 28.805 7.077-11.197 17.677-17.077 17.703-28.838.615-6.78-3.182-11.962-7.718-13.358zM143.724 104.671c-3.117-.968-7.964.735-9.746 7.803-.144.388-.303.379-.441-.013-2.573-7.162-6.804-8.727-9.785-7.79-4.407 1.422-7.981 6.681-7.657 13.388.09 11.711 10.566 17.608 17.644 28.805 7.077-11.197 17.677-17.077 17.703-28.839.615-6.778-3.182-11.958-7.718-13.354zM133.787 146.938c-.016-.025-.033-.049-.048-.074a3.15 3.15 0 00-.049.074h.097zM62.197 208.417c-.09-11.713-10.57-17.609-17.645-28.808-7.075 11.198-17.673 17.079-17.702 28.841-.613 6.78 3.181 11.961 7.717 13.358 3.118.967 7.965-.737 9.744-7.806.15-.386.305-.379.447.014 2.569 7.163 6.804 8.727 9.782 7.792 4.41-1.424 7.984-6.682 7.657-13.391zM44.505 179.536l.047.073.048-.073h-.095zM54.435 23.884c-3.117-.969-7.964.735-9.743 7.805-.15.387-.306.378-.447-.015-2.569-7.162-6.804-8.726-9.782-7.79-4.41 1.422-7.983 6.681-7.657 13.39.088 11.712 10.567 17.609 17.645 28.807 7.074-11.198 17.672-17.078 17.702-28.841.612-6.779-3.182-11.96-7.718-13.356zM44.498 66.154l-.047-.073-.048.073h.095zM54.435 104.672c-3.117-.97-7.964.734-9.743 7.802-.15.387-.306.379-.447-.013-2.569-7.162-6.804-8.726-9.782-7.789-4.41 1.421-7.983 6.68-7.657 13.388.088 11.711 10.567 17.608 17.645 28.805 7.074-11.197 17.672-17.078 17.702-28.839.612-6.779-3.182-11.959-7.718-13.354zM44.498 146.938l-.047-.073-.048.073h.095zM108.258 170.15c-.085-11.711-10.565-17.609-17.639-28.807-7.08 11.198-17.677 17.078-17.706 28.84-.612 6.78 3.182 11.962 7.715 13.357 3.12.967 7.968-.735 9.749-7.806.149-.385.305-.378.445.014 2.57 7.163 6.805 8.728 9.784 7.792 4.408-1.422 7.981-6.681 7.652-13.39zM90.57 141.269l.049.074.048-.074h-.097zM100.498 64.986c-3.119-.968-7.965.735-9.744 7.805-.15.387-.307.379-.447-.014-2.57-7.163-6.806-8.727-9.783-7.791-4.41 1.423-7.983 6.681-7.657 13.392.088 11.71 10.567 17.607 17.645 28.806 7.072-11.199 17.669-17.079 17.702-28.841.61-6.78-3.187-11.961-7.716-13.357zM90.559 107.256c-.015-.024-.032-.047-.047-.072l-.047.072h.094zM18.995 27.067a7.039 7.039 0 00-1.22-.953c.188-.146.369-.298.539-.465a6.127 6.127 0 001.835-4.382 6.13 6.13 0 00-6.12-6.137 6.099 6.099 0 00-4.285 1.754 6.133 6.133 0 00-1.834 4.383 6.13 6.13 0 001.834 4.382c.17.167.352.319.538.465-.438.274-.849.59-1.219.953a7.088 7.088 0 00-2.121 5.063 7.09 7.09 0 007.087 7.095 7.065 7.065 0 004.966-2.031 7.077 7.077 0 002.12-5.064 7.075 7.075 0 00-2.12-5.063zm-7.792-8.406a4.02 4.02 0 012.824-1.141h.002a4.02 4.02 0 012.827 1.141c.705.698 1.108 1.608 1.109 2.606-.001.998-.404 1.907-1.109 2.606a4.025 4.025 0 01-2.827 1.141 4.023 4.023 0 01-2.826-1.141c-.704-.699-1.108-1.608-1.109-2.606.001-.998.405-1.908 1.109-2.606zm6.243 16.646a4.851 4.851 0 01-3.417 1.382 4.86 4.86 0 01-3.418-1.382c-.855-.845-1.349-1.956-1.351-3.177.002-1.22.496-2.331 1.351-3.177a4.865 4.865 0 013.416-1.382h.002a4.86 4.86 0 013.417 1.382c.857.846 1.352 1.957 1.353 3.177-.001 1.221-.496 2.332-1.353 3.177zM162.133 224.293c.369.362.78.679 1.218.953a6.564 6.564 0 00-.537.464 6.128 6.128 0 00-1.836 4.383 6.126 6.126 0 001.836 4.383 6.096 6.096 0 004.284 1.754 6.129 6.129 0 006.119-6.137 6.13 6.13 0 00-1.834-4.383 6.26 6.26 0 00-.538-.464c.439-.274.85-.591 1.219-.953a7.088 7.088 0 002.121-5.063 7.088 7.088 0 00-12.052-5.064 7.077 7.077 0 00-2.122 5.064 7.076 7.076 0 002.122 5.063zm7.79 8.405a4.014 4.014 0 01-2.824 1.142h-.001a4.015 4.015 0 01-2.826-1.142c-.705-.697-1.108-1.607-1.109-2.605.001-.998.404-1.907 1.109-2.606a4.017 4.017 0 012.826-1.14 4.015 4.015 0 012.825 1.14c.706.699 1.11 1.608 1.111 2.606-.001.998-.405 1.908-1.111 2.605zm-6.242-16.645a4.857 4.857 0 013.417-1.382 4.857 4.857 0 013.417 1.382c.857.846 1.351 1.956 1.353 3.177-.002 1.22-.496 2.331-1.353 3.177a4.858 4.858 0 01-3.416 1.382h-.001a4.866 4.866 0 01-3.417-1.382c-.856-.846-1.351-1.957-1.353-3.177.002-1.221.497-2.331 1.353-3.177z" fill="#D33D43"/></g></svg>