<svg xmlns="http://www.w3.org/2000/svg" viewBox="0 0 181 251"><g fill="none" fill-rule="evenodd"><path d="M179.627 235.776c0 7.828-6.345 14.173-14.173 14.173H15.217c-7.828 0-14.173-6.345-14.173-14.173V14.673C1.044 6.846 7.389.5 15.217.5h150.237c7.828 0 14.173 6.346 14.173 14.173v221.103z" fill="#F7F6F2"/><path d="M179.627 235.776c0 7.828-6.345 14.173-14.173 14.173H15.217c-7.828 0-14.173-6.345-14.173-14.173V14.673C1.044 6.846 7.389.5 15.217.5h150.237c7.828 0 14.173 6.346 14.173 14.173v221.103h0z" stroke="#000"/><path d="M13.811 43.02c1.785 3.47 4.144 6.308 7.075 8.511-2.931 2.207-5.29 5.039-7.075 8.496-1.803-3.457-4.167-6.289-7.099-8.496 2.932-2.203 5.296-5.041 7.099-8.511zM166.881 190.421c1.791 3.47 4.147 6.308 7.077 8.513-2.93 2.206-5.286 5.038-7.077 8.495-1.798-3.457-4.166-6.289-7.096-8.495 2.93-2.205 5.298-5.043 7.096-8.513zM47.131 26.012c4.47 8.675 10.366 15.769 17.693 21.283-7.327 5.517-13.223 12.595-17.693 21.237-4.501-8.642-10.416-15.72-17.741-21.237 7.325-5.514 13.24-12.608 17.741-21.283zM90.358 103.964c4.469 8.685 10.369 15.778 17.693 21.268-7.324 5.514-13.224 12.604-17.693 21.252-4.501-8.648-10.414-15.738-17.739-21.252 7.325-5.49 13.238-12.583 17.739-21.268zM47.13 181.917c4.47 8.675 10.366 15.77 17.693 21.283-7.327 5.517-13.223 12.596-17.693 21.237-4.5-8.641-10.415-15.72-17.74-21.237 7.325-5.513 13.24-12.608 17.74-21.283zM133.592 26.012c4.464 8.675 10.365 15.77 17.689 21.284-7.324 5.516-13.225 12.594-17.689 21.236-4.505-8.642-10.417-15.72-17.744-21.236 7.327-5.514 13.239-12.609 17.744-21.284zM133.592 181.917c4.463 8.676 10.364 15.77 17.688 21.283-7.324 5.517-13.225 12.596-17.688 21.237-4.505-8.641-10.417-15.72-17.745-21.237 7.328-5.513 13.24-12.607 17.745-21.283zM18.778 23.634c-1.312-1.622-3.192-2.676-5.287-2.675-1.309-.001-2.535.416-3.592 1.122l-.003-5.032h9.365v-2.376H7.656v.831h-.012l.007 9.733 2.251-.002c.757-1.087 2.402-1.899 3.589-1.901 1.368.002 2.622.675 3.579 1.846.951 1.17 1.566 2.828 1.565 4.683.001 1.855-.614 3.513-1.565 4.683-.957 1.172-2.211 1.844-3.579 1.846-1.012-.001-1.95-.367-2.767-1.028-.813-.661-1.49-1.624-1.909-2.78l-2.101.851c.558 1.537 1.468 2.859 2.635 3.81 1.166.95 2.601 1.524 4.142 1.523h.005c2.093 0 3.971-1.055 5.282-2.675 1.318-1.624 2.107-3.822 2.108-6.23-.001-2.407-.79-4.606-2.108-6.229zM161.893 226.815c1.311 1.621 3.193 2.675 5.286 2.674 1.31.001 2.537-.416 3.592-1.122l.003 5.032h-9.365v2.377h11.605v-.832h.012l-.006-9.733-2.251.002c-.757 1.088-2.402 1.899-3.59 1.9-1.368-.001-2.622-.673-3.578-1.845-.952-1.169-1.567-2.828-1.565-4.683-.002-1.855.613-3.513 1.565-4.683.956-1.172 2.21-1.843 3.578-1.845 1.013.001 1.95.367 2.767 1.027.813.661 1.49 1.624 1.91 2.78l2.102-.85c-.559-1.537-1.469-2.86-2.637-3.811-1.165-.95-2.601-1.523-4.142-1.522h-.004c-2.092 0-3.971 1.054-5.282 2.674-1.318 1.624-2.107 3.823-2.109 6.23.002 2.407.791 4.607 2.109 6.23z" fill="#D33D43"/></g></svg>