<svg xmlns="http://www.w3.org/2000/svg" viewBox="0 0 181 251"><g fill="none" fill-rule="evenodd"><path d="M179.626 235.776c0 7.828-6.345 14.173-14.173 14.173H15.217c-7.828 0-14.173-6.345-14.173-14.173V14.673C1.044 6.846 7.389.5 15.217.5h150.236c7.828 0 14.173 6.346 14.173 14.173v221.103z" fill="#F7F6F2"/><path d="M179.626 235.776c0 7.828-6.345 14.173-14.173 14.173H15.217c-7.828 0-14.173-6.345-14.173-14.173V14.673C1.044 6.846 7.389.5 15.217.5h150.236c7.828 0 14.173 6.346 14.173 14.173v221.103h0z" stroke="#000"/><path d="M13.799 43.02c-1.863 0-3.377 1.703-3.377 3.801 0 1.201.502 2.264 1.27 2.966.259.239.147.496-.116.335-.48-.291-1.022-.477-1.607-.477-1.797 0-3.255 1.642-3.255 3.668 0 2.023 1.458 3.666 3.255 3.666 1.199 0 2.248-.729 2.811-1.817.056-.106.099-.252.178-.252.107 0 .156.175.156.502 0 1.315-.504 2.851-1.251 4.615.323-.076 1.299-.27 1.936-.27.639 0 1.615.194 1.937.27-.745-1.764-1.251-3.3-1.251-4.615 0-.327.05-.502.157-.502.077 0 .122.146.177.252.563 1.088 1.612 1.817 2.811 1.817 1.797 0 3.256-1.643 3.256-3.666 0-2.026-1.459-3.668-3.256-3.668-.585 0-1.127.186-1.607.477-.263.161-.374-.096-.115-.335.767-.702 1.268-1.765 1.268-2.966 0-2.098-1.513-3.801-3.377-3.801zM166.871 207.43c1.863 0 3.376-1.704 3.376-3.802 0-1.2-.501-2.265-1.268-2.968-.26-.236-.147-.494.115-.334.48.293 1.022.478 1.606.478 1.798 0 3.258-1.644 3.258-3.667 0-2.024-1.46-3.666-3.258-3.666-1.198 0-2.246.728-2.81 1.816-.055.107-.099.252-.177.252-.107 0-.157-.175-.157-.502 0-1.314.505-2.85 1.251-4.615-.322.076-1.299.271-1.936.271-.638 0-1.614-.195-1.938-.271.746 1.765 1.253 3.301 1.253 4.615 0 .327-.052.502-.158.502-.078 0-.123-.145-.177-.252-.563-1.088-1.612-1.816-2.811-1.816-1.796 0-3.256 1.642-3.256 3.666 0 2.023 1.46 3.667 3.256 3.667.585 0 1.127-.185 1.606-.478.265-.16.375.098.117.334-.768.703-1.268 1.768-1.268 2.968 0 2.098 1.512 3.802 3.376 3.802zM47.108 26.012c-4.66 0-8.441 4.258-8.441 9.504 0 2.999 1.252 5.66 3.169 7.416.648.594.372 1.238-.289.836-1.2-.729-2.553-1.193-4.015-1.193-4.494 0-8.142 4.107-8.142 9.167 0 5.061 3.648 9.168 8.142 9.168 2.996 0 5.617-1.823 7.025-4.542.139-.265.25-.631.446-.631.265 0 .39.438.39 1.256 0 3.287-1.261 7.126-3.127 11.538.806-.191 3.247-.677 4.842-.677 1.594 0 4.035.486 4.841.677-1.866-4.412-3.128-8.251-3.128-11.538 0-.818.125-1.256.392-1.256.195 0 .305.366.443.631 1.408 2.719 4.031 4.542 7.026 4.542 4.494 0 8.142-4.107 8.142-9.168 0-5.06-3.648-9.167-8.142-9.167-1.462 0-2.816.464-4.014 1.193-.661.402-.939-.242-.29-.836 1.918-1.756 3.169-4.417 3.169-7.416 0-5.246-3.781-9.504-8.439-9.504zM47.107 224.437c4.659 0 8.442-4.258 8.442-9.503 0-3-1.253-5.662-3.171-7.417-.648-.593-.371-1.239.29-.837 1.199.73 2.552 1.193 4.014 1.193 4.494 0 8.142-4.106 8.142-9.166 0-5.06-3.648-9.168-8.142-9.168-2.995 0-5.617 1.822-7.025 4.541-.138.266-.249.631-.444.631-.267 0-.392-.438-.392-1.256 0-3.287 1.262-7.126 3.127-11.538-.805.192-3.246.679-4.841.679-1.595 0-4.035-.487-4.841-.679 1.866 4.412 3.127 8.251 3.127 11.538 0 .818-.124 1.256-.39 1.256-.196 0-.307-.365-.445-.631-1.408-2.719-4.03-4.541-7.026-4.541-4.494 0-8.142 4.108-8.142 9.168s3.648 9.166 8.142 9.166c1.462 0 2.816-.463 4.015-1.193.661-.402.938.244.289.837-1.917 1.755-3.169 4.417-3.169 7.417 0 5.245 3.781 9.503 8.44 9.503zM133.563 26.012c-4.659 0-8.439 4.258-8.439 9.504 0 2.999 1.25 5.66 3.169 7.416.647.594.371 1.238-.29.836-1.199-.729-2.553-1.193-4.014-1.193-4.494 0-8.142 4.107-8.142 9.167 0 5.061 3.648 9.168 8.142 9.168 2.994 0 5.617-1.823 7.024-4.542.139-.266.25-.631.446-.631.265 0 .391.438.391 1.256 0 3.287-1.263 7.126-3.128 11.538.806-.191 3.247-.677 4.841-.677 1.596 0 4.036.486 4.842.677-1.866-4.412-3.128-8.251-3.128-11.538 0-.818.125-1.256.392-1.256.196 0 .305.365.444.631 1.408 2.719 4.03 4.542 7.025 4.542 4.494 0 8.142-4.107 8.142-9.168 0-5.06-3.648-9.167-8.142-9.167-1.461 0-2.814.464-4.014 1.193-.661.402-.938-.242-.289-.836 1.917-1.756 3.168-4.417 3.168-7.416 0-5.246-3.781-9.504-8.44-9.504zM133.563 224.438c4.66 0 8.44-4.258 8.44-9.504 0-3-1.251-5.661-3.168-7.416-.648-.594-.372-1.239.289-.837 1.2.73 2.553 1.193 4.014 1.193 4.494 0 8.142-4.106 8.142-9.167 0-5.06-3.648-9.168-8.142-9.168-2.995 0-5.617 1.823-7.025 4.542-.139.266-.248.63-.444.63-.266 0-.392-.436-.392-1.256 0-3.286 1.263-7.125 3.128-11.537-.806.191-3.246.678-4.842.678-1.594 0-4.035-.487-4.841-.678 1.866 4.412 3.128 8.251 3.128 11.537 0 .82-.125 1.256-.391 1.256-.196 0-.306-.364-.445-.63-1.407-2.719-4.031-4.542-7.024-4.542-4.495 0-8.143 4.108-8.143 9.168 0 5.061 3.648 9.167 8.143 9.167 1.46 0 2.814-.463 4.013-1.193.661-.402.938.243.29.837-1.919 1.755-3.169 4.416-3.169 7.416 0 5.246 3.781 9.504 8.439 9.504zM90.339 103.965c-4.661 0-8.444 4.259-8.444 9.506 0 3 1.252 5.661 3.171 7.42.648.594.37 1.24-.29.838-1.199-.731-2.553-1.196-4.015-1.196-4.494 0-8.142 4.115-8.142 9.184 0 5.053 3.648 9.154 8.142 9.154 2.995 0 5.618-1.82 7.027-4.535.138-.266.249-.631.444-.631.267 0 .392.438.392 1.255 0 3.282-1.262 7.115-3.127 11.524.804-.191 3.247-.677 4.842-.677 1.591 0 4.03.486 4.835.677-1.866-4.409-3.127-8.242-3.127-11.524 0-.817.125-1.255.392-1.255.194 0 .305.365.443.631 1.408 2.715 4.031 4.535 7.026 4.535 4.495 0 8.143-4.101 8.143-9.154 0-5.069-3.648-9.184-8.143-9.184-1.461 0-2.816.465-4.015 1.196-.66.402-.937-.244-.289-.838 1.919-1.759 3.17-4.42 3.17-7.42 0-5.247-3.782-9.506-8.435-9.506z" fill="#010000"/><path d="M18.778 23.633c-1.313-1.621-3.193-2.676-5.287-2.674-1.31-.002-2.536.416-3.592 1.121l-.004-5.031h9.366v-2.376H7.656v.831h-.012l.007 9.732h2.25c.757-1.089 2.402-1.9 3.59-1.902 1.367.002 2.621.674 3.578 1.846.951 1.17 1.567 2.828 1.566 4.683.001 1.856-.615 3.513-1.566 4.683-.957 1.171-2.211 1.845-3.578 1.845-1.013 0-1.951-.365-2.767-1.028-.813-.66-1.49-1.623-1.909-2.779l-2.103.851c.56 1.536 1.47 2.86 2.637 3.811 1.165.949 2.601 1.523 4.142 1.522h.004c2.093 0 3.972-1.055 5.283-2.675 1.317-1.624 2.107-3.823 2.108-6.23-.001-2.406-.791-4.606-2.108-6.23zM161.892 226.815c1.312 1.621 3.193 2.675 5.286 2.675 1.31 0 2.537-.417 3.592-1.123l.004 5.031h-9.365v2.378h11.604v-.832h.013l-.007-9.733-2.251.002c-.757 1.088-2.402 1.9-3.59 1.9-1.367 0-2.621-.673-3.578-1.845-.951-1.168-1.566-2.828-1.565-4.682-.001-1.856.614-3.514 1.565-4.684.957-1.172 2.211-1.843 3.578-1.845 1.013.002 1.951.367 2.767 1.027.813.662 1.491 1.625 1.91 2.781l2.102-.851c-.559-1.537-1.469-2.86-2.637-3.811-1.165-.949-2.601-1.523-4.142-1.522h-.004c-2.092 0-3.971 1.055-5.282 2.674-1.318 1.624-2.107 3.823-2.108 6.231.001 2.406.79 4.606 2.108 6.229z" fill="#000"/></g></svg>