<svg xmlns="http://www.w3.org/2000/svg" viewBox="0 0 181 251"><g fill="none" fill-rule="evenodd"><path d="M179.627 235.776c0 7.828-6.346 14.173-14.174 14.173H15.216c-7.827 0-14.172-6.345-14.172-14.173V14.673C1.044 6.846 7.389.5 15.216.5h150.237c7.828 0 14.174 6.346 14.174 14.173v221.103z" fill="#F7F6F2"/><path d="M179.627 235.776c0 7.828-6.346 14.173-14.174 14.173H15.216c-7.827 0-14.172-6.345-14.172-14.173V14.673C1.044 6.846 7.389.5 15.216.5h150.237c7.828 0 14.174 6.346 14.174 14.173v221.103h0z" stroke="#000"/><path d="M18.777 23.633c-1.311-1.621-3.192-2.676-5.286-2.675-1.31-.001-2.536.417-3.592 1.122l-.004-5.031h9.365v-2.376H7.655v.831h-.012l.007 9.732 2.251-.001c.757-1.088 2.402-1.9 3.59-1.901 1.367.001 2.621.674 3.578 1.846.951 1.169 1.566 2.828 1.565 4.682.001 1.856-.614 3.514-1.565 4.684-.957 1.171-2.211 1.844-3.578 1.845-1.013-.001-1.951-.366-2.768-1.028-.812-.661-1.49-1.624-1.909-2.78l-2.102.852c.559 1.536 1.469 2.859 2.636 3.81 1.166.949 2.602 1.524 4.143 1.523h.004c2.092 0 3.971-1.056 5.282-2.675 1.318-1.624 2.107-3.823 2.108-6.231-.001-2.406-.79-4.605-2.108-6.229z" fill="#000"/><path d="M18.777 23.633c-1.311-1.621-3.192-2.676-5.286-2.675-1.31-.001-2.536.417-3.592 1.122l-.004-5.031h9.365v-2.376H7.655v.831h-.012l.007 9.732 2.251-.001c.757-1.088 2.402-1.9 3.59-1.901 1.367.001 2.621.674 3.578 1.846.951 1.169 1.566 2.828 1.565 4.682.001 1.856-.614 3.514-1.565 4.684-.957 1.171-2.211 1.844-3.578 1.845-1.013-.001-1.951-.366-2.768-1.028-.812-.661-1.49-1.624-1.909-2.78l-2.102.852c.559 1.536 1.469 2.859 2.636 3.81 1.166.949 2.602 1.524 4.143 1.523h.004c2.092 0 3.971-1.056 5.282-2.675 1.318-1.624 2.107-3.823 2.108-6.231-.001-2.406-.79-4.605-2.108-6.229h0z" stroke="#000"/><path d="M161.892 226.815c1.311 1.621 3.191 2.675 5.285 2.675 1.311 0 2.537-.417 3.594-1.123l.002 5.031h-9.365v2.378h11.605v-.832h.012l-.006-9.733-2.252.002c-.756 1.088-2.402 1.9-3.59 1.9-1.367 0-2.621-.673-3.578-1.845-.951-1.168-1.566-2.828-1.564-4.682-.002-1.856.613-3.514 1.564-4.684.957-1.172 2.211-1.843 3.578-1.845 1.014.002 1.952.367 2.768 1.027.814.662 1.49 1.625 1.91 2.781l2.102-.851c-.559-1.537-1.469-2.86-2.637-3.811-1.166-.949-2.602-1.523-4.143-1.522h-.004c-2.091 0-3.97 1.055-5.281 2.674-1.318 1.624-2.107 3.823-2.109 6.231.002 2.406.791 4.606 2.109 6.229z" fill="#000"/><path d="M161.892 226.815c1.311 1.621 3.191 2.675 5.285 2.675 1.311 0 2.537-.417 3.594-1.123l.002 5.031h-9.365v2.378h11.605v-.832h.012l-.006-9.733-2.252.002c-.756 1.088-2.402 1.9-3.59 1.9-1.367 0-2.621-.673-3.578-1.845-.951-1.168-1.566-2.828-1.564-4.682-.002-1.856.613-3.514 1.564-4.684.957-1.172 2.211-1.843 3.578-1.845 1.014.002 1.952.367 2.768 1.027.814.662 1.49 1.625 1.91 2.781l2.102-.851c-.559-1.537-1.469-2.86-2.637-3.811-1.166-.949-2.602-1.523-4.143-1.522h-.004c-2.091 0-3.97 1.055-5.281 2.674-1.318 1.624-2.107 3.823-2.109 6.231.002 2.406.791 4.606 2.109 6.229h0z" stroke="#000"/><path d="M13.79 43.02c-.041.026-.071.041-.118.072-3.038 1.939-6.583 5.724-6.946 10.441-.173 2.244 1.263 3.798 3.118 3.832 1.184.022 2.137-.399 2.653-1.203.428-.669.538-1.699.607-1.222.25 1.816-.511 3.562-.922 5.087.459-.167 1.035-.251 1.613-.253h.01c.576.002 1.153.086 1.611.253-.412-1.525-1.17-3.271-.921-5.087.069-.477.178.553.606 1.222.516.804 1.469 1.225 2.653 1.203 1.855-.034 3.29-1.588 3.118-3.832-.364-4.717-3.909-8.502-6.944-10.441-.033-.026-.062-.04-.11-.072h-.028z" fill="#000"/><path d="M13.79 43.02c-.041.026-.071.041-.118.072-3.038 1.939-6.583 5.724-6.946 10.441-.173 2.244 1.263 3.798 3.118 3.832 1.184.022 2.137-.399 2.653-1.203.428-.669.538-1.699.607-1.222.25 1.816-.511 3.562-.922 5.087.459-.167 1.035-.251 1.613-.253h.01c.576.002 1.153.086 1.611.253-.412-1.525-1.17-3.271-.921-5.087.069-.477.178.553.606 1.222.516.804 1.469 1.225 2.653 1.203 1.855-.034 3.29-1.588 3.118-3.832-.364-4.717-3.909-8.502-6.944-10.441-.033-.026-.062-.04-.11-.072h-.028 0z" stroke="#000" stroke-width=".065" stroke-linejoin="round"/><path d="M166.861 207.43c-.041-.028-.07-.041-.117-.073-3.037-1.939-6.582-5.724-6.946-10.441-.173-2.244 1.262-3.799 3.118-3.832 1.183-.021 2.136.398 2.652 1.203.43.668.539 1.699.607 1.223.25-1.817-.509-3.563-.921-5.088.458.166 1.035.25 1.613.252h.01c.576-.002 1.152-.086 1.611-.252-.412 1.525-1.17 3.271-.922 5.088.07.476.18-.555.607-1.223.516-.805 1.469-1.224 2.651-1.203 1.855.033 3.291 1.588 3.119 3.832-.363 4.717-3.908 8.502-6.943 10.441-.034.025-.063.04-.11.073h-.029z" fill="#000"/><path d="M166.861 207.43c-.041-.028-.07-.041-.117-.073-3.037-1.939-6.582-5.724-6.946-10.441-.173-2.244 1.262-3.799 3.118-3.832 1.183-.021 2.136.398 2.652 1.203.43.668.539 1.699.607 1.223.25-1.817-.509-3.563-.921-5.088.458.166 1.035.25 1.613.252h.01c.576-.002 1.152-.086 1.611-.252-.412 1.525-1.17 3.271-.922 5.088.07.476.18-.555.607-1.223.516-.805 1.469-1.224 2.651-1.203 1.855.033 3.291 1.588 3.119 3.832-.363 4.717-3.908 8.502-6.943 10.441-.034.025-.063.04-.11.073h-.029 0z" stroke="#000" stroke-width=".065" stroke-linejoin="round"/><path d="M47.082 26.012c-.102.067-.174.103-.293.181-7.595 4.849-16.456 14.31-17.365 26.104-.431 5.61 3.156 9.494 7.794 9.579 2.961.054 5.342-.998 6.632-3.007 1.072-1.672 1.346-4.248 1.52-3.057.625 4.541-1.278 8.906-2.307 12.719 1.148-.417 2.59-.627 4.034-.631h.024c1.442.004 2.882.214 4.027.631-1.027-3.813-2.926-8.178-2.303-12.719.174-1.191.447 1.385 1.517 3.057 1.289 2.009 3.671 3.061 6.631 3.007 4.638-.085 8.226-3.969 7.794-9.579-.908-11.794-9.77-21.255-17.359-26.104-.082-.062-.155-.1-.274-.181h-.072z" fill="#000"/><path d="M47.082 26.012c-.102.067-.174.103-.293.181-7.595 4.849-16.456 14.31-17.365 26.104-.431 5.61 3.156 9.494 7.794 9.579 2.961.054 5.342-.998 6.632-3.007 1.072-1.672 1.346-4.248 1.52-3.057.625 4.541-1.278 8.906-2.307 12.719 1.148-.417 2.59-.627 4.034-.631h.024c1.442.004 2.882.214 4.027.631-1.027-3.813-2.926-8.178-2.303-12.719.174-1.191.447 1.385 1.517 3.057 1.289 2.009 3.671 3.061 6.631 3.007 4.638-.085 8.226-3.969 7.794-9.579-.908-11.794-9.77-21.255-17.359-26.104-.082-.062-.155-.1-.274-.181h-.072 0z" stroke="#000" stroke-width=".163" stroke-linejoin="round"/><path d="M133.539 26.012c-.102.067-.174.103-.293.181-7.596 4.849-16.455 14.31-17.363 26.104-.434 5.61 3.154 9.494 7.792 9.579 2.961.054 5.342-.998 6.631-3.007 1.073-1.672 1.346-4.248 1.52-3.057.625 4.541-1.276 8.906-2.305 12.719 1.147-.417 2.588-.627 4.033-.631h.024c1.443.004 2.881.214 4.027.631-1.027-3.813-2.926-8.178-2.303-12.719.174-1.191.448 1.385 1.518 3.057 1.289 2.009 3.67 3.061 6.631 3.007 4.638-.085 8.226-3.969 7.793-9.579-.908-11.794-9.77-21.255-17.358-26.104-.084-.062-.156-.1-.275-.181h-.072z" fill="#000"/><path d="M133.539 26.012c-.102.067-.174.103-.293.181-7.596 4.849-16.455 14.31-17.363 26.104-.434 5.61 3.154 9.494 7.792 9.579 2.961.054 5.342-.998 6.631-3.007 1.073-1.672 1.346-4.248 1.52-3.057.625 4.541-1.276 8.906-2.305 12.719 1.147-.417 2.588-.627 4.033-.631h.024c1.443.004 2.881.214 4.027.631-1.027-3.813-2.926-8.178-2.303-12.719.174-1.191.448 1.385 1.518 3.057 1.289 2.009 3.67 3.061 6.631 3.007 4.638-.085 8.226-3.969 7.793-9.579-.908-11.794-9.77-21.255-17.358-26.104-.084-.062-.156-.1-.275-.181h-.072 0z" stroke="#000" stroke-width=".163" stroke-linejoin="round"/><path d="M90.31 103.965c-.102.067-.174.103-.293.181-7.595 4.848-16.456 14.309-17.364 26.104-.432 5.609 3.155 9.494 7.794 9.578 2.961.055 5.342-.997 6.631-3.006 1.072-1.671 1.345-4.248 1.519-3.058.625 4.542-1.275 8.907-2.304 12.72 1.146-.416 2.587-.627 4.033-.631h.023c1.444.004 2.881.215 4.028.631-1.028-3.813-2.926-8.178-2.303-12.72.174-1.19.447 1.387 1.517 3.058 1.289 2.009 3.67 3.061 6.631 3.006 4.639-.084 8.227-3.969 7.793-9.578-.908-11.795-9.769-21.256-17.357-26.104-.084-.063-.156-.1-.275-.181h-.073z" fill="#000"/><path d="M90.31 103.965c-.102.067-.174.103-.293.181-7.595 4.848-16.456 14.309-17.364 26.104-.432 5.609 3.155 9.494 7.794 9.578 2.961.055 5.342-.997 6.631-3.006 1.072-1.671 1.345-4.248 1.519-3.058.625 4.542-1.275 8.907-2.304 12.72 1.146-.416 2.587-.627 4.033-.631h.023c1.444.004 2.881.215 4.028.631-1.028-3.813-2.926-8.178-2.303-12.72.174-1.19.447 1.387 1.517 3.058 1.289 2.009 3.67 3.061 6.631 3.006 4.639-.084 8.227-3.969 7.793-9.578-.908-11.795-9.769-21.256-17.357-26.104-.084-.063-.156-.1-.275-.181h-.073 0z" stroke="#000" stroke-width=".163" stroke-linejoin="round"/><path d="M47.082 224.438c-.102-.069-.174-.104-.293-.182-7.595-4.849-16.456-14.31-17.365-26.104-.431-5.61 3.156-9.494 7.794-9.579 2.961-.053 5.342.997 6.632 3.007 1.072 1.672 1.346 4.248 1.52 3.058.625-4.542-1.278-8.908-2.307-12.72 1.148.416 2.59.627 4.034.631h.024c1.442-.004 2.882-.215 4.027-.631-1.027 3.812-2.926 8.178-2.303 12.72.174 1.19.447-1.386 1.517-3.058 1.289-2.01 3.671-3.06 6.631-3.007 4.638.085 8.226 3.969 7.794 9.579-.908 11.794-9.77 21.255-17.359 26.104-.082.062-.155.099-.274.182h-.072z" fill="#000"/><path d="M47.082 224.438c-.102-.069-.174-.104-.293-.182-7.595-4.849-16.456-14.31-17.365-26.104-.431-5.61 3.156-9.494 7.794-9.579 2.961-.053 5.342.997 6.632 3.007 1.072 1.672 1.346 4.248 1.52 3.058.625-4.542-1.278-8.908-2.307-12.72 1.148.416 2.59.627 4.034.631h.024c1.442-.004 2.882-.215 4.027-.631-1.027 3.812-2.926 8.178-2.303 12.72.174 1.19.447-1.386 1.517-3.058 1.289-2.01 3.671-3.06 6.631-3.007 4.638.085 8.226 3.969 7.794 9.579-.908 11.794-9.77 21.255-17.359 26.104-.082.062-.155.099-.274.182h-.072 0z" stroke="#000" stroke-width=".163" stroke-linejoin="round"/><path d="M133.539 224.438c-.102-.068-.174-.104-.293-.182-7.594-4.849-16.455-14.31-17.363-26.104-.432-5.61 3.154-9.494 7.792-9.579 2.961-.053 5.342.997 6.633 3.007 1.072 1.672 1.346 4.248 1.52 3.058.625-4.542-1.278-8.908-2.307-12.72 1.147.416 2.59.627 4.033.631h.024c1.443-.004 2.883-.215 4.027-.631-1.027 3.812-2.926 8.178-2.303 12.72.174 1.19.448-1.386 1.518-3.058 1.289-2.01 3.67-3.06 6.631-3.007 4.638.085 8.226 3.969 7.793 9.579-.908 11.794-9.77 21.255-17.358 26.104-.082.062-.156.099-.275.182h-.072z" fill="#000"/><path d="M133.539 224.438c-.102-.068-.174-.104-.293-.182-7.594-4.849-16.455-14.31-17.363-26.104-.432-5.61 3.154-9.494 7.792-9.579 2.961-.053 5.342.997 6.633 3.007 1.072 1.672 1.346 4.248 1.52 3.058.625-4.542-1.278-8.908-2.307-12.72 1.147.416 2.59.627 4.033.631h.024c1.443-.004 2.883-.215 4.027-.631-1.027 3.812-2.926 8.178-2.303 12.72.174 1.19.448-1.386 1.518-3.058 1.289-2.01 3.67-3.06 6.631-3.007 4.638.085 8.226 3.969 7.793 9.579-.908 11.794-9.77 21.255-17.358 26.104-.082.062-.156.099-.275.182h-.072 0z" stroke="#000" stroke-width=".163" stroke-linejoin="round"/></g></svg>