<svg xmlns="http://www.w3.org/2000/svg" viewBox="0 0 181 251"><g fill="none" fill-rule="evenodd"><path d="M179.627 235.776c0 7.828-6.345 14.173-14.173 14.173H15.217c-7.828 0-14.173-6.345-14.173-14.173V14.673C1.044 6.846 7.389.5 15.217.5h150.237c7.828 0 14.173 6.346 14.173 14.173v221.103z" fill="#F7F6F2"/><path d="M179.627 235.776c0 7.828-6.345 14.173-14.173 14.173H15.217c-7.828 0-14.173-6.345-14.173-14.173V14.673C1.044 6.846 7.389.5 15.217.5h150.237c7.828 0 14.173 6.346 14.173 14.173v221.103h0z" stroke="#000"/><path d="M13.797 60.027L13.779 60l-.019.027h.037zM17.774 43.119c-1.247-.386-3.185.294-3.898 3.122-.06.155-.122.152-.178-.005-1.028-2.866-2.722-3.492-3.913-3.117-1.765.57-3.194 2.673-3.064 5.357.035 4.684 4.228 7.043 7.058 11.524 2.83-4.481 7.069-6.833 7.081-11.538.246-2.712-1.273-4.784-3.086-5.343zM166.893 190.449c-2.832 4.48-7.07 6.834-7.082 11.537-.246 2.712 1.274 4.786 3.086 5.344 1.246.387 3.186-.295 3.898-3.123.061-.154.124-.15.178.006 1.03 2.865 2.723 3.49 3.913 3.117 1.765-.569 3.195-2.673 3.064-5.357-.035-4.683-4.228-7.044-7.057-11.524zM166.874 190.421c.005.01.012.019.019.028l.019-.028h-.038zM57.042 23.426c-3.118-.969-7.965.735-9.747 7.805-.147.387-.304.378-.445-.014-2.569-7.162-6.804-8.727-9.782-7.791-4.41 1.423-7.985 6.682-7.656 13.392.087 11.71 10.568 17.606 17.643 28.805 7.075-11.199 17.674-17.078 17.703-28.84.614-6.78-3.182-11.961-7.716-13.357zM47.102 65.696l-.047-.073c-.015.025-.032.049-.048.073h.095zM47.112 181.916l.047.073c.015-.025.032-.048.048-.073h-.095zM64.802 210.797c-.088-11.71-10.568-17.608-17.643-28.808-7.075 11.2-17.674 17.08-17.703 28.841-.614 6.781 3.182 11.963 7.716 13.358 3.118.968 7.965-.735 9.747-7.805.147-.387.304-.379.445.014 2.569 7.162 6.804 8.727 9.782 7.791 4.41-1.422 7.983-6.681 7.656-13.391zM143.499 23.426c-3.119-.969-7.965.736-9.746 7.805-.149.387-.305.378-.446-.014-2.57-7.162-6.804-8.727-9.782-7.791-4.411 1.423-7.985 6.682-7.657 13.392.088 11.71 10.568 17.606 17.643 28.805 7.076-11.199 17.674-17.079 17.705-28.84.612-6.78-3.184-11.961-7.717-13.357zM133.559 65.696l-.048-.073-.047.073h.095zM151.259 207.963c-.088-11.711-10.569-17.609-17.643-28.809-7.076 11.2-17.674 17.081-17.703 28.842-.614 6.78 3.182 11.961 7.716 13.358 3.118.966 7.964-.737 9.747-7.805.147-.388.303-.38.444.014 2.569 7.162 6.804 8.726 9.783 7.791 4.409-1.424 7.984-6.682 7.656-13.391zM133.569 179.082l.047.072.047-.072h-.094zM100.272 104.213c-3.117-.968-7.971.736-9.752 7.805-.148.386-.304.378-.445-.015-2.569-7.161-6.803-8.725-9.781-7.79-4.409 1.423-7.982 6.681-7.655 13.39.088 11.715 10.567 17.611 17.641 28.808 7.082-11.197 17.678-17.075 17.707-28.843.613-6.779-3.182-11.959-7.715-13.355zM90.327 146.484l-.047-.073a4.63 4.63 0 01-.048.073h.095zM18.778 23.634c-1.312-1.622-3.192-2.676-5.287-2.675-1.309-.001-2.535.416-3.592 1.122l-.003-5.032h9.365v-2.376H7.656v.831h-.012l.007 9.733 2.251-.001c.757-1.088 2.402-1.9 3.589-1.902 1.368.002 2.622.675 3.579 1.846.951 1.17 1.566 2.828 1.565 4.683.001 1.855-.614 3.513-1.565 4.683-.957 1.172-2.211 1.844-3.579 1.846-1.012-.001-1.95-.367-2.767-1.028-.813-.661-1.49-1.624-1.909-2.78l-2.101.851c.558 1.537 1.468 2.859 2.635 3.81 1.166.95 2.601 1.524 4.142 1.523h.005c2.093 0 3.971-1.055 5.282-2.675 1.318-1.624 2.107-3.822 2.108-6.23-.001-2.407-.79-4.606-2.108-6.229zM161.893 226.815c1.311 1.621 3.193 2.675 5.286 2.674 1.31.001 2.537-.416 3.592-1.122l.003 5.031h-9.365v2.378h11.605v-.832h.012l-.006-9.733-2.251.002c-.757 1.088-2.402 1.899-3.59 1.9-1.368-.001-2.622-.673-3.578-1.845-.952-1.169-1.567-2.828-1.565-4.683-.002-1.854.613-3.513 1.565-4.683.956-1.171 2.21-1.843 3.578-1.845 1.013.001 1.95.367 2.767 1.027.813.661 1.49 1.624 1.91 2.78l2.102-.85c-.559-1.537-1.469-2.86-2.637-3.811-1.165-.95-2.601-1.523-4.142-1.522h-.004c-2.092 0-3.971 1.054-5.282 2.675-1.318 1.623-2.107 3.822-2.109 6.229.002 2.407.791 4.607 2.109 6.23z" fill="#D33D43"/></g></svg>