<svg xmlns="http://www.w3.org/2000/svg" viewBox="0 0 180 251"><g fill="none" fill-rule="evenodd"><path d="M179.242 235.776c0 7.828-6.346 14.173-14.174 14.173H14.832c-7.828 0-14.174-6.345-14.174-14.173V14.674C.658 6.846 7.004.5 14.832.5h150.236c7.828 0 14.174 6.346 14.174 14.174v221.102z" fill="#F7F6F2"/><path d="M179.242 235.776c0 7.828-6.346 14.173-14.174 14.173H14.832c-7.828 0-14.174-6.345-14.174-14.173V14.674C.658 6.846 7.004.5 14.832.5h150.236c7.828 0 14.174 6.346 14.174 14.174v221.102h0z" stroke="#000"/><path d="M14.731 56.162c-.427-.669-.536-1.699-.605-1.223-.249 1.817.508 3.563.918 5.089-.923-.337-2.326-.337-3.249 0 .448-1.551 1.157-3.171.988-5.089-.076-.434-.187.523-.635 1.206-.573.871-1.601 1.25-2.619 1.222-1.478-.04-2.964-.954-3.173-2.562-.049-.371-.026-.835 0-1.205.331-4.686 3.995-8.8 7.064-10.579.056.011.07.066.141.066 3.026 1.94 6.56 5.726 6.922 10.445.173 2.245-.945 3.871-3.108 3.884-1.181.008-2.13-.45-2.644-1.254zM165.169 194.288c.426.668.536 1.699.604 1.221.248-1.816-.508-3.563-.918-5.088.924.338 2.326.338 3.248 0-.449 1.552-1.156 3.172-.988 5.088.076.435.187-.522.635-1.203.574-.872 1.603-1.252 2.621-1.224 1.476.04 2.963.954 3.172 2.562.048.372.025.836 0 1.206-.332 4.686-3.995 8.799-7.065 10.579-.056-.014-.07-.068-.141-.067-3.025-1.941-6.56-5.726-6.921-10.445-.172-2.244.945-3.871 3.109-3.883 1.18-.01 2.129.45 2.644 1.254zM173.558 219.598l.014.61-8.877 15.566-.234-.002-1.467-1.576 8.951-15.733z" fill="#000"/><path fill="#000" d="M164.619 235.774l-2.235.002-.011-24.041 2.236-.001.01 24.04z"/><path fill="#000" d="M166.107 214.072l-5.238.019-.006-2.392 5.234-.018.01 2.391zM173.572 217.818v2.39h-14.174v-2.39h14.174zM46.698 26.013c-.103.067-.175.103-.293.18-7.596 4.85-16.456 14.311-17.364 26.105-.433 5.609 3.155 9.494 7.793 9.579 2.961.054 5.341-.998 6.632-3.008 1.072-1.671 1.345-4.247 1.519-3.057.625 4.542-1.276 8.907-2.306 12.72 1.148-.417 2.589-.627 4.033-.631h.025c1.442.004 2.881.214 4.026.631-1.027-3.813-2.926-8.178-2.301-12.72.172-1.19.446 1.386 1.516 3.057 1.288 2.01 3.67 3.062 6.63 3.008 4.639-.085 8.227-3.97 7.794-9.579-.908-11.794-9.769-21.255-17.357-26.105-.083-.062-.156-.099-.275-.18h-.072z"/><path d="M46.698 26.013c-.103.067-.175.103-.293.18-7.596 4.85-16.456 14.311-17.364 26.105-.433 5.609 3.155 9.494 7.793 9.579 2.961.054 5.341-.998 6.632-3.008 1.072-1.671 1.345-4.247 1.519-3.057.625 4.542-1.276 8.907-2.306 12.72 1.148-.417 2.589-.627 4.033-.631h.025c1.442.004 2.881.214 4.026.631-1.027-3.813-2.926-8.178-2.301-12.72.172-1.19.446 1.386 1.516 3.057 1.288 2.01 3.67 3.062 6.63 3.008 4.639-.085 8.227-3.97 7.794-9.579-.908-11.794-9.769-21.255-17.357-26.105-.083-.062-.156-.099-.275-.18h-.072 0z" stroke="#000" stroke-width=".163" stroke-linejoin="round"/><path d="M133.154 26.013c-.102.067-.174.103-.293.18-7.596 4.85-16.455 14.311-17.363 26.105-.434 5.609 3.154 9.494 7.793 9.579 2.961.054 5.342-.998 6.631-3.008 1.072-1.671 1.345-4.247 1.519-3.057.625 4.542-1.275 8.907-2.305 12.72 1.147-.417 2.588-.627 4.034-.631h.023c1.443.004 2.881.214 4.027.631-1.027-3.813-2.925-8.178-2.302-12.72.173-1.19.447 1.386 1.517 3.057 1.287 2.01 3.67 3.062 6.629 3.008 4.639-.085 8.227-3.97 7.795-9.579-.908-11.794-9.77-21.255-17.357-26.105-.084-.062-.157-.099-.276-.18h-.072z" fill="#000"/><path d="M133.154 26.013c-.102.067-.174.103-.293.18-7.596 4.85-16.455 14.311-17.363 26.105-.434 5.609 3.154 9.494 7.793 9.579 2.961.054 5.342-.998 6.631-3.008 1.072-1.671 1.345-4.247 1.519-3.057.625 4.542-1.275 8.907-2.305 12.72 1.147-.417 2.588-.627 4.034-.631h.023c1.443.004 2.881.214 4.027.631-1.027-3.813-2.925-8.178-2.302-12.72.173-1.19.447 1.386 1.517 3.057 1.287 2.01 3.67 3.062 6.629 3.008 4.639-.085 8.227-3.97 7.795-9.579-.908-11.794-9.77-21.255-17.357-26.105-.084-.062-.157-.099-.276-.18h-.072 0z" stroke="#000" stroke-width=".163" stroke-linejoin="round"/><path d="M46.697 224.438c-.102-.068-.174-.104-.293-.181-7.595-4.85-16.456-14.311-17.364-26.105-.432-5.61 3.155-9.494 7.794-9.579 2.961-.053 5.341.998 6.632 3.008 1.072 1.671 1.345 4.247 1.519 3.057.625-4.541-1.277-8.906-2.307-12.72 1.148.417 2.59.627 4.034.632h.024c1.442-.005 2.882-.215 4.027-.632-1.027 3.814-2.926 8.179-2.302 12.72.173 1.19.446-1.386 1.516-3.057 1.289-2.01 3.671-3.061 6.631-3.008 4.639.085 8.227 3.969 7.794 9.579-.908 11.794-9.769 21.255-17.358 26.105-.082.061-.156.1-.275.181h-.072z" fill="#000"/><path d="M46.697 224.438c-.102-.068-.174-.104-.293-.181-7.595-4.85-16.456-14.311-17.364-26.105-.432-5.61 3.155-9.494 7.794-9.579 2.961-.053 5.341.998 6.632 3.008 1.072 1.671 1.345 4.247 1.519 3.057.625-4.541-1.277-8.906-2.307-12.72 1.148.417 2.59.627 4.034.632h.024c1.442-.005 2.882-.215 4.027-.632-1.027 3.814-2.926 8.179-2.302 12.72.173 1.19.446-1.386 1.516-3.057 1.289-2.01 3.671-3.061 6.631-3.008 4.639.085 8.227 3.969 7.794 9.579-.908 11.794-9.769 21.255-17.358 26.105-.082.061-.156.1-.275.181h-.072 0z" stroke="#000" stroke-width=".163" stroke-linejoin="round"/><path d="M133.154 224.438c-.102-.068-.174-.104-.293-.181-7.596-4.85-16.455-14.311-17.363-26.105-.434-5.61 3.154-9.494 7.793-9.579 2.961-.053 5.342.998 6.631 3.008 1.072 1.671 1.345 4.247 1.519 3.057.625-4.541-1.275-8.906-2.305-12.72 1.147.417 2.588.627 4.034.632h.023c1.443-.005 2.881-.215 4.027-.632-1.027 3.814-2.925 8.179-2.302 12.72.173 1.19.447-1.386 1.517-3.057 1.287-2.01 3.67-3.061 6.629-3.008 4.639.085 8.227 3.969 7.795 9.579-.908 11.794-9.77 21.255-17.357 26.105-.084.061-.157.1-.276.181h-.072z" fill="#000"/><path d="M133.154 224.438c-.102-.068-.174-.104-.293-.181-7.596-4.85-16.455-14.311-17.363-26.105-.434-5.61 3.154-9.494 7.793-9.579 2.961-.053 5.342.998 6.631 3.008 1.072 1.671 1.345 4.247 1.519 3.057.625-4.541-1.275-8.906-2.305-12.72 1.147.417 2.588.627 4.034.632h.023c1.443-.005 2.881-.215 4.027-.632-1.027 3.814-2.925 8.179-2.302 12.72.173 1.19.447-1.386 1.517-3.057 1.287-2.01 3.67-3.061 6.629-3.008 4.639.085 8.227 3.969 7.795 9.579-.908 11.794-9.77 21.255-17.357 26.105-.084.061-.157.1-.276.181h-.072 0z" stroke="#000" stroke-width=".163" stroke-linejoin="round"/><path fill="#000" d="M6.341 30.852l-.013-.611 8.876-15.566.234.002 1.468 1.576-8.952 15.733z"/><path fill="#000" d="M15.281 14.675l2.234-.001.011 24.04-2.235.002-.01-24.041z"/><path fill="#000" d="M13.793 36.377l5.237-.018.007 2.391-5.236.019-.008-2.392zM6.328 32.633v-2.392h14.173v2.392H6.328z"/></g></svg>