<svg xmlns="http://www.w3.org/2000/svg" viewBox="0 0 180 251"><g fill="none" fill-rule="evenodd"><path d="M179.24 235.776c0 7.828-6.345 14.173-14.173 14.173H14.832c-7.829 0-14.174-6.345-14.174-14.173V14.673C.658 6.846 7.003.5 14.832.5h150.235c7.828 0 14.173 6.346 14.173 14.173v221.103z" fill="#F7F6F2"/><path d="M179.24 235.776c0 7.828-6.345 14.173-14.173 14.173H14.832c-7.829 0-14.174-6.345-14.174-14.173V14.673C.658 6.846 7.003.5 14.832.5h150.235c7.828 0 14.173 6.346 14.173 14.173v221.103h0z" stroke="#000"/><path d="M13.414 43.02c-1.864 0-3.377 1.703-3.377 3.801 0 1.201.501 2.265 1.269 2.967.259.238.148.495-.116.334-.479-.291-1.021-.476-1.606-.476-1.797 0-3.256 1.642-3.256 3.666s1.459 3.667 3.256 3.667c1.198 0 2.248-.729 2.81-1.817.056-.105.1-.252.178-.252.107 0 .156.175.156.502 0 1.315-.504 2.852-1.251 4.615.323-.076 1.299-.27 1.937-.27.638 0 1.614.194 1.936.27-.745-1.763-1.251-3.3-1.251-4.615 0-.327.05-.502.158-.502.077 0 .121.147.176.252.564 1.088 1.612 1.817 2.811 1.817 1.798 0 3.257-1.643 3.257-3.667s-1.459-3.666-3.257-3.666c-.584 0-1.126.185-1.607.476-.262.161-.374-.096-.115-.334.768-.702 1.269-1.766 1.269-2.967 0-2.098-1.514-3.801-3.377-3.801zM166.485 207.43c1.863 0 3.376-1.704 3.376-3.803 0-1.199-.5-2.264-1.268-2.966-.259-.238-.147-.495.116-.335.479.292 1.021.477 1.606.477 1.797 0 3.257-1.643 3.257-3.666 0-2.024-1.46-3.666-3.257-3.666-1.198 0-2.247.728-2.811 1.816-.055.106-.099.252-.176.252-.108 0-.158-.175-.158-.502 0-1.314.505-2.851 1.25-4.616-.321.076-1.297.272-1.935.272-.639 0-1.613-.196-1.937-.272.746 1.765 1.252 3.302 1.252 4.616 0 .327-.051.502-.158.502-.078 0-.123-.146-.177-.252-.562-1.088-1.612-1.816-2.81-1.816-1.798 0-3.257 1.642-3.257 3.666 0 2.023 1.459 3.666 3.257 3.666.585 0 1.126-.185 1.606-.477.264-.16.374.097.117.335-.769.702-1.269 1.767-1.269 2.966 0 2.099 1.513 3.803 3.376 3.803zM46.722 26.012c-4.66 0-8.441 4.258-8.441 9.504 0 2.999 1.252 5.66 3.17 7.417.647.593.371 1.237-.289.836-1.201-.73-2.554-1.194-4.016-1.194-4.494 0-8.141 4.107-8.141 9.167 0 5.061 3.647 9.168 8.141 9.168 2.996 0 5.618-1.823 7.026-4.542.138-.265.25-.631.445-.631.265 0 .39.438.39 1.256 0 3.287-1.261 7.126-3.127 11.538.806-.191 3.248-.677 4.842-.677 1.594 0 4.035.486 4.841.677-1.866-4.412-3.128-8.251-3.128-11.538 0-.818.125-1.256.393-1.256.194 0 .305.366.442.631 1.408 2.719 4.031 4.542 7.026 4.542 4.495 0 8.142-4.107 8.142-9.168 0-5.06-3.647-9.167-8.142-9.167-1.461 0-2.816.464-4.014 1.194-.66.401-.939-.243-.29-.836 1.92-1.757 3.17-4.418 3.17-7.417 0-5.246-3.782-9.504-8.44-9.504zM46.721 224.289c4.659 0 8.442-4.258 8.442-9.502 0-3.001-1.251-5.662-3.171-7.418-.648-.592-.37-1.236.29-.837 1.199.731 2.553 1.195 4.014 1.195 4.495 0 8.142-4.108 8.142-9.167 0-5.061-3.647-9.167-8.142-9.167-2.995 0-5.617 1.822-7.025 4.541-.138.265-.249.629-.443.629-.268 0-.393-.436-.393-1.254 0-3.287 1.262-7.127 3.128-11.539-.806.192-3.247.679-4.842.679-1.594 0-4.035-.487-4.841-.679 1.867 4.412 3.127 8.252 3.127 11.539 0 .818-.124 1.254-.39 1.254-.195 0-.307-.364-.445-.629-1.408-2.719-4.03-4.541-7.026-4.541-4.494 0-8.141 4.106-8.141 9.167 0 5.059 3.647 9.167 8.141 9.167 1.462 0 2.817-.464 4.016-1.195.66-.399.937.245.289.837-1.918 1.756-3.17 4.417-3.17 7.418 0 5.244 3.781 9.502 8.44 9.502zM133.177 26.16c-4.659 0-8.439 4.258-8.439 9.504 0 2.998 1.25 5.66 3.169 7.416.648.594.371 1.238-.289.836-1.199-.729-2.554-1.192-4.015-1.192-4.494 0-8.142 4.106-8.142 9.167 0 5.059 3.648 9.167 8.142 9.167 2.994 0 5.617-1.823 7.025-4.542.139-.266.25-.631.445-.631.267 0 .392.437.392 1.257 0 3.286-1.262 7.126-3.128 11.538.805-.192 3.247-.679 4.84-.679 1.596 0 4.037.487 4.842.679-1.866-4.412-3.128-8.252-3.128-11.538 0-.82.125-1.257.393-1.257.195 0 .306.365.443.631 1.408 2.719 4.03 4.542 7.026 4.542 4.494 0 8.141-4.108 8.141-9.167 0-5.061-3.647-9.167-8.141-9.167-1.461 0-2.815.463-4.015 1.192-.659.402-.938-.242-.289-.836 1.917-1.756 3.17-4.418 3.17-7.416 0-5.246-3.783-9.504-8.442-9.504zM133.177 224.438c4.66 0 8.442-4.258 8.442-9.504 0-2.998-1.253-5.661-3.17-7.416-.648-.594-.37-1.239.289-.836 1.2.728 2.554 1.193 4.015 1.193 4.494 0 8.141-4.107 8.141-9.168 0-5.059-3.647-9.167-8.141-9.167-2.996 0-5.618 1.822-7.026 4.54-.137.266-.248.632-.443.632-.267 0-.393-.436-.393-1.257 0-3.286 1.263-7.125 3.128-11.537-.805.191-3.246.678-4.842.678-1.593 0-4.035-.487-4.841-.678 1.867 4.412 3.129 8.251 3.129 11.537 0 .821-.125 1.257-.392 1.257-.195 0-.306-.366-.443-.632-1.409-2.718-4.033-4.54-7.026-4.54-4.495 0-8.143 4.108-8.143 9.167 0 5.061 3.648 9.168 8.143 9.168 1.46 0 2.815-.465 4.014-1.193.66-.403.937.242.289.836-1.919 1.755-3.169 4.418-3.169 7.416 0 5.246 3.781 9.504 8.439 9.504z" fill="#010000"/><path d="M20.5 32.632V30.24h-2.978l-.007-15.566h-2.234v.001l-.077-.001L6.327 30.24v2.392h8.961l.002 3.739-1.497.006.007 2.391 5.237-.019-.008-2.392-1.504.006-.002-3.731H20.5zM8.946 30.24l6.337-11.134.004 11.134H8.946zM159.398 217.816v2.393h2.978l.006 15.567 2.236-.002h.076l8.877-15.565v-2.393h-8.961l-.002-3.738 1.497-.006-.008-2.39-5.236.017.008 2.393 1.505-.006.001 3.73h-2.977zm11.554 2.393l-6.336 11.135-.005-11.135h6.341z" fill="#000"/></g></svg>