<svg xmlns="http://www.w3.org/2000/svg" viewBox="0 0 180 251"><g fill="none" fill-rule="evenodd"><path d="M179.241 235.776c0 7.828-6.346 14.173-14.174 14.173H14.831c-7.827 0-14.173-6.345-14.173-14.173V14.673C.658 6.846 7.004.5 14.831.5h150.236c7.828 0 14.174 6.346 14.174 14.173v221.103z" fill="#F7F6F2"/><path d="M179.241 235.776c0 7.828-6.346 14.173-14.174 14.173H14.831c-7.827 0-14.173-6.345-14.173-14.173V14.673C.658 6.846 7.004.5 14.831.5h150.236c7.828 0 14.174 6.346 14.174 14.173v221.103h0z" stroke="#000"/><path d="M13.425 43.02c1.787 3.47 4.146 6.308 7.076 8.512-2.93 2.207-5.289 5.038-7.076 8.495-1.801-3.457-4.167-6.288-7.097-8.495 2.93-2.204 5.296-5.042 7.097-8.512zM166.495 190.421c1.787 3.47 4.146 6.308 7.076 8.513-2.93 2.206-5.289 5.038-7.076 8.495-1.803-3.457-4.168-6.289-7.098-8.495 2.93-2.205 5.295-5.043 7.098-8.513zM46.747 26.012c4.469 8.675 10.365 15.769 17.691 21.283-7.326 5.517-13.222 12.595-17.691 21.236-4.504-8.641-10.418-15.719-17.743-21.236 7.325-5.514 13.239-12.608 17.743-21.283zM46.747 181.917c4.469 8.675 10.364 15.769 17.691 21.282-7.327 5.518-13.222 12.596-17.691 21.238-4.504-8.642-10.418-15.72-17.743-21.238 7.325-5.513 13.239-12.607 17.743-21.282zM133.202 26.01c4.468 8.675 10.365 15.77 17.691 21.284-7.326 5.517-13.223 12.596-17.691 21.237-4.502-8.641-10.416-15.72-17.74-21.237 7.324-5.514 13.238-12.609 17.74-21.284zM133.202 181.917c4.468 8.675 10.363 15.77 17.691 21.282-7.328 5.517-13.223 12.596-17.691 21.238-4.502-8.642-10.416-15.721-17.742-21.238 7.326-5.512 13.24-12.607 17.742-21.282zM20.501 32.631v-2.392h-2.979l-.006-15.566-2.236.001h-.076L6.327 30.239v2.392h8.961l.002 3.74-1.496.005.006 2.392 5.237-.019-.008-2.392-1.505.005-.001-3.731h2.978zM8.946 30.239l6.336-11.133.005 11.133H8.946zM159.397 217.816v2.393h2.979l.005 15.567 2.237-.002h.076l8.877-15.565v-2.393h-8.961l-.002-3.739 1.496-.005-.006-2.391-5.236.018.008 2.392 1.504-.005.002 3.73h-2.979zm11.555 2.393l-6.336 11.134-.004-11.134h6.34z" fill="#D33D43"/></g></svg>