<svg xmlns="http://www.w3.org/2000/svg" viewBox="0 0 180 251"><g fill="none" fill-rule="evenodd"><path d="M179.241 235.776c0 7.828-6.346 14.173-14.174 14.173H14.831c-7.827 0-14.173-6.345-14.173-14.173V14.673C.658 6.846 7.004.5 14.831.5h150.236c7.828 0 14.174 6.346 14.174 14.173v221.103z" fill="#F7F6F2"/><path d="M179.241 235.776c0 7.828-6.346 14.173-14.174 14.173H14.831c-7.827 0-14.173-6.345-14.173-14.173V14.673C.658 6.846 7.004.5 14.831.5h150.236c7.828 0 14.174 6.346 14.174 14.173v221.103h0z" stroke="#000"/><path d="M17.387 43.119c-1.246-.387-3.185.294-3.898 3.122-.059.155-.121.152-.178-.005-1.027-2.866-2.72-3.491-3.912-3.117-1.766.569-3.194 2.672-3.064 5.357.036 4.683 4.228 7.043 7.058 11.522 2.83-4.479 7.069-6.832 7.082-11.536.244-2.712-1.274-4.784-3.088-5.343zM13.413 60.027l-.02-.029c-.006.01-.014.019-.019.029h.039zM166.506 190.451c-2.832 4.479-7.07 6.833-7.082 11.536-.246 2.712 1.274 4.785 3.086 5.343 1.248.387 3.188-.295 3.901-3.123.058-.154.121-.15.176.006 1.029 2.865 2.722 3.491 3.914 3.117 1.763-.568 3.193-2.673 3.062-5.356-.035-4.684-4.226-7.044-7.057-11.523zM166.487 190.422l.019.029.02-.029h-.039zM56.655 26.261c-3.117-.969-7.964.735-9.745 7.805-.148.386-.304.378-.446-.014-2.569-7.162-6.803-8.727-9.782-7.791-4.41 1.423-7.984 6.682-7.656 13.39.088 11.711 10.568 17.609 17.643 28.808C53.745 57.26 64.342 51.38 64.372 39.617c.613-6.779-3.182-11.961-7.717-13.356zM46.716 68.531c-.016-.024-.032-.047-.047-.072l-.047.072h.094zM64.417 210.798c-.088-11.711-10.569-17.608-17.644-28.807-7.076 11.199-17.675 17.078-17.704 28.84-.613 6.78 3.184 11.962 7.717 13.358 3.117.967 7.965-.736 9.746-7.806.148-.387.305-.379.445.014 2.57 7.163 6.804 8.727 9.782 7.792 4.411-1.423 7.984-6.681 7.658-13.391zM46.725 181.917c.016.025.033.049.048.074l.048-.074h-.096zM133.172 65.696l-.047-.073-.048.073h.095zM143.112 23.426c-3.117-.968-7.965.735-9.746 7.805-.149.387-.305.378-.446-.014-2.57-7.162-6.804-8.727-9.783-7.791-4.41 1.423-7.984 6.682-7.656 13.391.088 11.711 10.568 17.608 17.644 28.806 7.076-11.198 17.674-17.079 17.704-28.841.613-6.779-3.184-11.961-7.717-13.356zM150.874 210.799c-.088-11.712-10.569-17.609-17.644-28.808-7.076 11.199-17.675 17.078-17.704 28.84-.613 6.78 3.184 11.962 7.717 13.358 3.117.967 7.965-.736 9.746-7.806.148-.387.305-.379.445.014 2.57 7.163 6.805 8.728 9.783 7.792 4.411-1.423 7.983-6.681 7.657-13.39zM133.182 181.917l.048.074.048-.074h-.096zM20.501 32.631v-2.392h-2.979l-.006-15.566-2.236.001h-.076L6.327 30.239v2.392h8.961l.002 3.74-1.496.005.006 2.392 5.237-.019-.008-2.391-1.505.004-.001-3.731h2.978zM8.946 30.239l6.336-11.133.005 11.133H8.946zM159.397 217.817v2.392h2.979l.005 15.567 2.237-.002h.076l8.877-15.565v-2.392h-8.961l-.002-3.74 1.496-.005-.006-2.391-5.236.018.008 2.392 1.504-.005.002 3.731h-2.979zm11.555 2.392l-6.336 11.134-.004-11.134h6.34z" fill="#D33D43"/></g></svg>