<svg xmlns="http://www.w3.org/2000/svg" viewBox="0 0 180 251"><g fill="none" fill-rule="evenodd"><path d="M179.24 236.232c0 7.828-6.345 14.173-14.173 14.173H14.831c-7.828 0-14.173-6.345-14.173-14.173V15.13C.658 7.302 7.003.957 14.831.957h150.236c7.828 0 14.173 6.345 14.173 14.173v221.102z" fill="#F7F6F2"/><path d="M179.24 236.232c0 7.828-6.345 14.173-14.173 14.173H14.831c-7.828 0-14.173-6.345-14.173-14.173V15.13C.658 7.302 7.003.957 14.831.957h150.236c7.828 0 14.173 6.345 14.173 14.173v221.102h0z" stroke="#000"/><path d="M13.415 43.477c-1.865 0-3.377 1.703-3.377 3.802 0 1.199.501 2.264 1.268 2.966.259.238.148.495-.116.334-.479-.291-1.021-.477-1.605-.477-1.798 0-3.257 1.643-3.257 3.667s1.459 3.667 3.257 3.667c1.198 0 2.247-.728 2.809-1.816.056-.107.1-.253.178-.253.107 0 .157.175.157.503 0 1.314-.505 2.85-1.251 4.615.322-.076 1.298-.272 1.937-.272.637 0 1.613.196 1.936.272-.746-1.765-1.252-3.301-1.252-4.615 0-.328.05-.503.158-.503.078 0 .121.146.177.253.564 1.088 1.611 1.816 2.811 1.816 1.797 0 3.256-1.643 3.256-3.667s-1.459-3.667-3.256-3.667c-.585 0-1.127.186-1.607.477-.263.161-.375-.096-.116-.334.769-.702 1.269-1.767 1.269-2.966 0-2.099-1.513-3.802-3.376-3.802zM166.486 207.886c1.862 0 3.376-1.704 3.376-3.802 0-1.199-.501-2.264-1.268-2.967-.259-.237-.148-.494.116-.334.479.291 1.02.477 1.605.477 1.797 0 3.257-1.643 3.257-3.666 0-2.024-1.46-3.667-3.257-3.667-1.198 0-2.246.728-2.81 1.817-.055.106-.1.252-.177.252-.108 0-.158-.176-.158-.503 0-1.314.505-2.85 1.251-4.615-.322.076-1.298.27-1.935.27-.639 0-1.614-.194-1.938-.27.746 1.765 1.252 3.301 1.252 4.615 0 .327-.05.503-.157.503-.078 0-.123-.146-.177-.252-.563-1.089-1.613-1.817-2.811-1.817-1.797 0-3.256 1.643-3.256 3.667 0 2.023 1.459 3.666 3.256 3.666.585 0 1.127-.186 1.606-.477.264-.16.375.097.117.334-.768.703-1.269 1.768-1.269 2.967 0 2.098 1.513 3.802 3.377 3.802zM46.721 26.469c-4.66 0-8.441 4.258-8.441 9.504 0 2.999 1.251 5.66 3.17 7.416.647.594.371 1.238-.289.836-1.2-.729-2.554-1.192-4.015-1.192-4.494 0-8.141 4.106-8.141 9.166 0 5.06 3.647 9.168 8.141 9.168 2.995 0 5.617-1.822 7.026-4.542.137-.266.249-.631.443-.631.267 0 .392.438.392 1.256 0 3.288-1.262 7.127-3.128 11.539.806-.192 3.248-.678 4.842-.678 1.594 0 4.035.486 4.841.678-1.866-4.412-3.128-8.251-3.128-11.539 0-.818.125-1.256.392-1.256.195 0 .306.365.443.631 1.408 2.72 4.031 4.542 7.027 4.542 4.494 0 8.141-4.108 8.141-9.168s-3.647-9.166-8.141-9.166c-1.461 0-2.816.463-4.015 1.192-.66.402-.938-.242-.289-.836 1.918-1.756 3.169-4.417 3.169-7.416 0-5.246-3.781-9.504-8.44-9.504zM46.721 78.438c-4.66 0-8.441 4.256-8.441 9.5 0 2.998 1.251 5.658 3.17 7.413.647.593.371 1.237-.289.836-1.2-.729-2.554-1.192-4.015-1.192-4.494 0-8.141 4.105-8.141 9.163s3.647 9.164 8.141 9.164c2.995 0 5.617-1.822 7.026-4.54.137-.266.249-.631.443-.631.267 0 .392.437.392 1.256 0 3.286-1.262 7.129-3.128 11.551.806-.193 3.248-.68 4.842-.68 1.594 0 4.035.487 4.841.68-1.866-4.422-3.128-8.265-3.128-11.551 0-.819.125-1.256.392-1.256.195 0 .306.365.443.631 1.408 2.718 4.031 4.54 7.027 4.54 4.494 0 8.141-4.106 8.141-9.164s-3.647-9.163-8.141-9.163c-1.461 0-2.816.463-4.015 1.192-.66.401-.938-.243-.289-.836 1.918-1.755 3.169-4.415 3.169-7.413 0-5.244-3.781-9.5-8.44-9.5zM46.72 224.894c4.66 0 8.442-4.257 8.442-9.503 0-3-1.252-5.661-3.17-7.417-.649-.593-.371-1.239.289-.837 1.199.73 2.554 1.193 4.015 1.193 4.494 0 8.141-4.106 8.141-9.166 0-5.06-3.647-9.168-8.141-9.168-2.996 0-5.618 1.822-7.026 4.541-.138.266-.249.631-.444.631-.267 0-.392-.438-.392-1.256 0-3.287 1.262-7.126 3.128-11.538-.806.191-3.247.679-4.842.679-1.594 0-4.035-.488-4.841-.679 1.867 4.412 3.128 8.251 3.128 11.538 0 .818-.125 1.256-.392 1.256-.194 0-.306-.365-.443-.631-1.409-2.719-4.031-4.541-7.026-4.541-4.494 0-8.141 4.108-8.141 9.168s3.647 9.166 8.141 9.166c1.461 0 2.815-.463 4.015-1.193.66-.402.937.244.289.837-1.919 1.756-3.169 4.417-3.169 7.417 0 5.246 3.781 9.503 8.439 9.503zM46.721 172.926c4.661 0 8.442-4.258 8.442-9.504 0-3-1.252-5.66-3.17-7.416-.649-.594-.371-1.238.289-.837 1.199.729 2.553 1.193 4.014 1.193 4.495 0 8.142-4.106 8.142-9.167 0-5.06-3.647-9.168-8.142-9.168-2.995 0-5.617 1.823-7.025 4.542-.138.265-.249.63-.443.63-.268 0-.393-.436-.393-1.256 0-3.286 1.262-7.125 3.128-11.537-.806.192-3.247.678-4.842.678-1.594 0-4.035-.486-4.841-.678 1.867 4.412 3.128 8.251 3.128 11.537 0 .82-.125 1.256-.392 1.256-.194 0-.305-.365-.444-.63-1.408-2.719-4.03-4.542-7.025-4.542-4.494 0-8.142 4.108-8.142 9.168 0 5.061 3.648 9.167 8.142 9.167 1.461 0 2.816-.464 4.015-1.193.66-.401.937.243.289.837-1.918 1.756-3.169 4.416-3.169 7.416 0 5.246 3.781 9.504 8.439 9.504zM133.177 26.469c-4.659 0-8.44 4.258-8.44 9.504 0 2.999 1.251 5.66 3.17 7.416.647.594.37 1.238-.29.836-1.199-.729-2.553-1.192-4.015-1.192-4.494 0-8.141 4.106-8.141 9.166 0 5.06 3.647 9.168 8.141 9.168 2.995 0 5.618-1.822 7.026-4.542.138-.266.249-.631.444-.631.267 0 .391.438.391 1.256 0 3.288-1.261 7.127-3.127 11.539.806-.192 3.247-.678 4.841-.678 1.595 0 4.036.486 4.841.678-1.866-4.412-3.128-8.251-3.128-11.539 0-.818.125-1.256.393-1.256.195 0 .305.365.443.631 1.408 2.72 4.031 4.542 7.026 4.542 4.494 0 8.142-4.108 8.142-9.168s-3.648-9.166-8.142-9.166c-1.461 0-2.815.463-4.015 1.192-.659.402-.938-.242-.289-.836 1.919-1.756 3.17-4.417 3.17-7.416 0-5.246-3.782-9.504-8.441-9.504zM133.177 78.438c-4.659 0-8.44 4.256-8.44 9.5 0 2.998 1.251 5.658 3.17 7.413.647.593.37 1.237-.29.836-1.199-.729-2.553-1.192-4.015-1.192-4.494 0-8.141 4.105-8.141 9.163s3.647 9.164 8.141 9.164c2.995 0 5.618-1.822 7.026-4.54.138-.266.249-.63.444-.63.267 0 .391.437.391 1.255 0 3.286-1.261 7.129-3.127 11.551.806-.193 3.247-.68 4.841-.68 1.595 0 4.036.487 4.841.68-1.866-4.422-3.128-8.265-3.128-11.551 0-.818.125-1.255.393-1.255.195 0 .305.364.443.63 1.408 2.718 4.031 4.54 7.026 4.54 4.494 0 8.142-4.106 8.142-9.164s-3.648-9.163-8.142-9.163c-1.461 0-2.815.463-4.015 1.192-.659.401-.938-.243-.289-.836 1.919-1.755 3.17-4.415 3.17-7.413 0-5.244-3.782-9.5-8.441-9.5zM133.177 224.894c4.659 0 8.441-4.257 8.441-9.503 0-3-1.251-5.661-3.17-7.417-.648-.593-.37-1.239.289-.837 1.2.73 2.554 1.193 4.016 1.193 4.493 0 8.141-4.106 8.141-9.166 0-5.06-3.648-9.168-8.141-9.168-2.996 0-5.619 1.822-7.026 4.541-.139.266-.249.631-.444.631-.267 0-.393-.438-.393-1.256 0-3.287 1.263-7.126 3.128-11.538-.805.191-3.246.679-4.841.679-1.594 0-4.035-.488-4.841-.679 1.867 4.412 3.127 8.251 3.127 11.538 0 .818-.123 1.256-.391 1.256-.195 0-.306-.365-.444-.631-1.408-2.719-4.031-4.541-7.025-4.541-4.495 0-8.142 4.108-8.142 9.168s3.647 9.166 8.142 9.166c1.461 0 2.815-.463 4.014-1.193.66-.402.938.244.29.837-1.919 1.756-3.17 4.417-3.17 7.417 0 5.246 3.781 9.503 8.44 9.503zM133.177 172.926c4.659 0 8.441-4.258 8.441-9.504 0-3-1.251-5.66-3.17-7.416-.648-.594-.37-1.238.289-.837 1.2.729 2.554 1.193 4.016 1.193 4.493 0 8.141-4.106 8.141-9.167 0-5.06-3.648-9.168-8.141-9.168-2.996 0-5.619 1.823-7.026 4.542-.139.265-.249.63-.444.63-.267 0-.393-.436-.393-1.256 0-3.286 1.263-7.125 3.128-11.537-.805.192-3.246.678-4.841.678-1.594 0-4.035-.486-4.841-.678 1.867 4.412 3.127 8.251 3.127 11.537 0 .82-.123 1.256-.391 1.256-.195 0-.306-.365-.444-.63-1.408-2.719-4.031-4.542-7.025-4.542-4.495 0-8.142 4.108-8.142 9.168 0 5.061 3.647 9.167 8.142 9.167 1.461 0 2.815-.464 4.014-1.193.66-.401.938.243.29.837-1.919 1.756-3.17 4.416-3.17 7.416 0 5.246 3.781 9.504 8.44 9.504zM89.951 104.422c-4.66 0-8.442 4.26-8.442 9.509 0 3.001 1.251 5.663 3.17 7.421.649.594.371 1.238-.289.836-1.199-.729-2.554-1.193-4.015-1.193-4.495 0-8.142 4.109-8.142 9.171 0 5.056 3.647 9.158 8.142 9.158 2.996 0 5.618-1.82 7.026-4.536.138-.266.249-.63.444-.63.267 0 .392.437.392 1.254 0 3.283-1.263 7.119-3.128 11.53.806-.194 3.247-.68 4.842-.68 1.593 0 4.033.486 4.839.68-1.867-4.411-3.128-8.247-3.128-11.53 0-.817.125-1.254.392-1.254.195 0 .305.364.444.63 1.408 2.716 4.03 4.536 7.025 4.536 4.495 0 8.143-4.102 8.143-9.158 0-5.062-3.648-9.171-8.143-9.171-1.461 0-2.815.464-4.015 1.193-.659.402-.937-.242-.289-.836 1.918-1.758 3.17-4.42 3.17-7.421 0-5.249-3.782-9.509-8.438-9.509z" fill="#010000"/><path d="M20.305 22.505c-.128-1.936-.774-3.681-1.858-4.997-1.205-1.473-2.971-2.378-4.969-2.378h-.02a6.287 6.287 0 00-2.901.691c-1.299.671-2.318 1.786-3 3.129-.682 1.345-1.037 2.921-1.039 4.58.002 2.189.605 4.222 1.791 5.744a6.438 6.438 0 002.196 1.813c.86.429 1.837.659 2.888.659l.075-.001a6.165 6.165 0 002.895-.735 6.552 6.552 0 001.9-1.569c-.068 1.605-.324 3.525-1.058 4.932-.382.739-.872 1.338-1.537 1.772-.668.43-1.536.715-2.753.718-.886-.002-1.581-.209-2.157-.512-.86-.454-1.464-1.153-1.849-1.751a5.8 5.8 0 01-.503-.964c-.01-.022-.015-.037-.018-.045l-.025.011-2.036.793c.033.089.416 1.232 1.427 2.423a6.997 6.997 0 002.038 1.653 6.601 6.601 0 003.123.754h.013c1.535 0 2.832-.382 3.869-1.056a6.51 6.51 0 001.887-1.898c.723-1.098 1.14-2.34 1.396-3.549.255-1.211.347-2.397.385-3.409.026-.706.035-1.394.035-2.042 0-2.383-.166-4.431-.195-4.766zm-3.438 5.158a4.508 4.508 0 01-1.47 1.296 4.137 4.137 0 01-1.95.489l-.054.001c-.761-.001-1.417-.163-1.981-.444-.849-.424-1.518-1.123-1.997-2.061-.477-.935-.75-2.109-.748-3.414-.002-1.744.502-3.298 1.337-4.377a4.46 4.46 0 011.488-1.262 4.223 4.223 0 011.966-.463c1.417.006 2.543.594 3.378 1.599.831 1.006 1.348 2.463 1.349 4.195.002 1.75-.494 3.337-1.318 4.441zM159.592 228.858c.128 1.935.775 3.68 1.859 4.997 1.205 1.472 2.97 2.377 4.968 2.377h.021a6.283 6.283 0 002.9-.691c1.299-.671 2.319-1.785 3-3.129.683-1.344 1.038-2.921 1.04-4.58-.002-2.188-.605-4.222-1.792-5.744a6.42 6.42 0 00-2.195-1.812 6.41 6.41 0 00-2.889-.659h-.075a6.176 6.176 0 00-2.894.735 6.588 6.588 0 00-1.901 1.569c.069-1.604.325-3.524 1.059-4.932.382-.739.872-1.339 1.537-1.771.668-.431 1.536-.716 2.753-.718.886.001 1.581.208 2.156.512.861.453 1.464 1.152 1.85 1.751a5.858 5.858 0 01.503.964c.01.021.014.037.017.045l.026-.011 2.036-.793c-.033-.089-.416-1.233-1.428-2.423a6.989 6.989 0 00-2.037-1.653 6.601 6.601 0 00-3.123-.754h-.014c-1.534 0-2.832.382-3.869 1.055a6.525 6.525 0 00-1.887 1.899c-.722 1.097-1.139 2.34-1.395 3.549-.255 1.211-.348 2.396-.385 3.408a55.64 55.64 0 00-.035 2.043c0 2.383.166 4.43.194 4.766zm3.439-5.159c.414-.553.904-.99 1.47-1.296a4.16 4.16 0 011.95-.489h.053c.762 0 1.418.162 1.982.443.849.424 1.517 1.123 1.997 2.061.477.936.75 2.109.748 3.414.002 1.744-.503 3.299-1.338 4.377a4.482 4.482 0 01-1.487 1.263 4.226 4.226 0 01-1.966.463c-1.417-.006-2.543-.595-3.379-1.6-.83-1.006-1.347-2.462-1.349-4.194-.001-1.75.495-3.337 1.319-4.442z" fill="#000"/></g></svg>