<svg xmlns="http://www.w3.org/2000/svg" viewBox="0 0 180 251"><g fill="none" fill-rule="evenodd"><path d="M179.241 236.23c0 7.828-6.346 14.173-14.174 14.173H14.831c-7.827 0-14.173-6.345-14.173-14.173V15.131C.658 7.303 7.004.958 14.831.958h150.236c7.828 0 14.174 6.345 14.174 14.173V236.23z" fill="#F7F6F2"/><path d="M179.241 236.23c0 7.828-6.346 14.173-14.174 14.173H14.831c-7.827 0-14.173-6.345-14.173-14.173V15.131C.658 7.303 7.004.958 14.831.958h150.236c7.828 0 14.174 6.345 14.174 14.173V236.23h0z" stroke="#000"/><path d="M13.425 43.478c1.787 3.47 4.146 6.308 7.076 8.512-2.93 2.207-5.289 5.038-7.076 8.495-1.801-3.457-4.167-6.288-7.097-8.495 2.93-2.204 5.296-5.042 7.097-8.512zM166.495 190.875c1.787 3.47 4.146 6.308 7.076 8.513-2.93 2.206-5.289 5.038-7.076 8.495-1.803-3.457-4.168-6.289-7.098-8.495 2.93-2.205 5.295-5.043 7.098-8.513zM46.747 26.47c4.469 8.675 10.365 15.77 17.691 21.283-7.326 5.517-13.222 12.595-17.691 21.237-4.504-8.642-10.418-15.72-17.743-21.237 7.325-5.513 13.239-12.608 17.743-21.283zM46.746 78.438c4.468 8.676 10.365 15.771 17.692 21.285-7.327 5.516-13.224 12.595-17.692 21.232-4.503-8.637-10.417-15.716-17.742-21.232 7.325-5.514 13.239-12.609 17.742-21.285zM46.747 130.403c4.469 8.674 10.364 15.77 17.691 21.283-7.327 5.516-13.222 12.596-17.691 21.237-4.504-8.641-10.418-15.721-17.743-21.237 7.325-5.513 13.239-12.609 17.743-21.283zM46.747 182.371c4.469 8.674 10.365 15.769 17.691 21.282-7.326 5.518-13.222 12.597-17.691 21.238-4.504-8.641-10.418-15.72-17.743-21.238 7.325-5.513 13.239-12.608 17.743-21.282zM133.202 26.469c4.468 8.675 10.365 15.77 17.691 21.284-7.326 5.516-13.223 12.594-17.691 21.236-4.502-8.642-10.416-15.72-17.74-21.236 7.324-5.514 13.238-12.609 17.74-21.284zM133.202 78.438c4.468 8.674 10.365 15.77 17.691 21.284-7.326 5.516-13.223 12.595-17.691 21.232-4.502-8.637-10.418-15.716-17.74-21.232 7.322-5.514 13.238-12.61 17.74-21.284zM133.202 130.402c4.468 8.675 10.365 15.77 17.691 21.283-7.326 5.517-13.223 12.596-17.691 21.238-4.502-8.642-10.416-15.721-17.74-21.238 7.324-5.513 13.238-12.608 17.74-21.283zM133.202 182.371c4.468 8.674 10.365 15.769 17.691 21.282-7.326 5.518-13.223 12.597-17.691 21.238-4.502-8.641-10.416-15.72-17.74-21.238 7.324-5.513 13.238-12.608 17.74-21.282zM89.973 104.422c4.471 8.684 10.366 15.784 17.692 21.292-7.326 5.513-13.221 12.588-17.692 21.224-4.502-8.636-10.416-15.711-17.74-21.224 7.324-5.508 13.238-12.608 17.74-21.292zM20.305 22.505c-.127-1.936-.775-3.68-1.857-4.997-1.205-1.472-2.973-2.378-4.971-2.378h-.019a6.285 6.285 0 00-2.901.692c-1.299.671-2.318 1.785-3 3.128-.681 1.345-1.037 2.922-1.039 4.58.002 2.189.606 4.223 1.791 5.744a6.436 6.436 0 002.195 1.814 6.441 6.441 0 002.889.658h.074a6.191 6.191 0 002.897-.736 6.578 6.578 0 001.9-1.568c-.068 1.605-.326 3.524-1.058 4.932-.383.739-.873 1.337-1.539 1.771-.666.431-1.536.716-2.752.718-.887-.001-1.58-.209-2.157-.512-.859-.454-1.463-1.153-1.849-1.751a6.086 6.086 0 01-.414-.753 3.808 3.808 0 01-.106-.256l-.025.011-2.037.793c.033.089.416 1.233 1.427 2.423a6.967 6.967 0 002.038 1.653c.859.456 1.91.755 3.123.754h.013c1.534 0 2.832-.382 3.869-1.056a6.51 6.51 0 001.887-1.898c.723-1.098 1.141-2.34 1.397-3.549.254-1.211.347-2.397.385-3.409a59.611 59.611 0 00-.161-6.808zm-3.439 5.158a4.475 4.475 0 01-1.469 1.296 4.142 4.142 0 01-1.949.49h-.055c-.762-.001-1.416-.163-1.982-.444-.848-.424-1.518-1.123-1.996-2.06-.477-.936-.75-2.109-.748-3.415-.002-1.743.503-3.298 1.337-4.377a4.467 4.467 0 011.487-1.262 4.23 4.23 0 011.967-.463c1.416.006 2.543.595 3.379 1.599.83 1.007 1.347 2.463 1.349 4.195 0 1.75-.494 3.337-1.32 4.441zM159.592 228.855c.127 1.935.776 3.68 1.858 4.997 1.205 1.472 2.972 2.378 4.97 2.378h.02a6.288 6.288 0 002.901-.692c1.298-.671 2.318-1.785 3-3.129.681-1.344 1.037-2.921 1.038-4.579-.001-2.188-.605-4.223-1.791-5.744a6.412 6.412 0 00-2.195-1.813 6.426 6.426 0 00-2.889-.659h-.074a6.176 6.176 0 00-2.896.736 6.569 6.569 0 00-1.901 1.568c.069-1.605.327-3.524 1.059-4.932.383-.739.873-1.337 1.539-1.771.666-.431 1.535-.716 2.752-.718.887.001 1.58.209 2.156.512.86.453 1.463 1.153 1.85 1.751.193.298.328.567.414.753a5.392 5.392 0 01.105.256l.026-.011 2.037-.792c-.033-.09-.416-1.234-1.428-2.424a6.976 6.976 0 00-2.037-1.653 6.604 6.604 0 00-3.123-.754h-.014c-1.533 0-2.832.382-3.869 1.057a6.479 6.479 0 00-1.886 1.897c-.723 1.098-1.141 2.34-1.397 3.549-.254 1.211-.348 2.397-.385 3.409a57.862 57.862 0 00-.035 2.042c0 2.383.166 4.431.195 4.766zm3.44-5.159a4.51 4.51 0 011.469-1.296 4.153 4.153 0 011.949-.489h.054c.762 0 1.416.162 1.983.445.848.422 1.517 1.122 1.996 2.059.477.936.75 2.109.748 3.415.002 1.743-.504 3.298-1.338 4.377a4.464 4.464 0 01-1.486 1.262 4.243 4.243 0 01-1.967.464c-1.416-.007-2.543-.596-3.379-1.6-.83-1.007-1.347-2.463-1.349-4.195 0-1.75.494-3.337 1.32-4.442z" fill="#D33D43"/></g></svg>