<svg xmlns="http://www.w3.org/2000/svg" viewBox="0 0 180 251"><g fill="none" fill-rule="evenodd"><path d="M179.241 236.231c0 7.829-6.346 14.174-14.174 14.174H14.831c-7.827 0-14.173-6.345-14.173-14.174V15.13C.658 7.302 7.004.957 14.831.957h150.236c7.828 0 14.174 6.345 14.174 14.173v221.101z" fill="#F7F6F2"/><path d="M179.241 236.231c0 7.829-6.346 14.174-14.174 14.174H14.831c-7.827 0-14.173-6.345-14.173-14.174V15.13C.658 7.302 7.004.957 14.831.957h150.236c7.828 0 14.174 6.345 14.174 14.173v221.101h0z" stroke="#000"/><path d="M17.388 43.576c-1.247-.387-3.186.294-3.899 3.122-.06.155-.121.151-.178-.005-1.029-2.865-2.722-3.491-3.914-3.117-1.762.569-3.193 2.673-3.06 5.356.033 4.684 4.224 7.044 7.056 11.523 2.831-4.479 7.069-6.832 7.082-11.536.244-2.712-1.274-4.785-3.087-5.343zM13.413 60.484l-.02-.029c-.006.01-.014.019-.019.029h.039zM166.508 190.908c-2.833 4.477-7.072 6.83-7.084 11.535-.244 2.711 1.272 4.783 3.086 5.343 1.248.387 3.19-.296 3.903-3.123.058-.155.121-.151.178.005 1.025 2.866 2.722 3.491 3.912 3.118 1.767-.57 3.195-2.674 3.06-5.357-.031-4.685-4.224-7.044-7.055-11.521z" fill="#D33D43"/><path d="M166.487 190.877l.021.031.02-.031h-.041zM56.655 23.883c-3.117-.968-7.965.735-9.746 7.805-.149.387-.303.378-.443-.014-2.571-7.162-6.805-8.727-9.784-7.791-4.41 1.422-7.984 6.681-7.657 13.391.088 11.71 10.566 17.607 17.644 28.804 7.078-11.197 17.673-17.077 17.703-28.838.613-6.78-3.182-11.96-7.717-13.357zM46.717 66.153c-.015-.025-.033-.049-.048-.075-.016.026-.034.05-.049.075h.097zM46.717 119.066l-.048-.075c-.016.025-.034.05-.049.075h.097z" fill="#D33D43"/><path d="M56.655 76.796c-3.117-.968-7.965.736-9.746 7.806-.149.386-.303.377-.445-.014-2.569-7.163-6.803-8.728-9.782-7.792-4.41 1.422-7.984 6.681-7.657 13.391.087 11.711 10.566 17.607 17.644 28.804 7.078-11.196 17.673-17.078 17.703-28.837.613-6.781-3.182-11.961-7.717-13.358zM46.725 182.372l.047.072.047-.072h-.094z" fill="#D33D43"/><path d="M64.417 211.253c-.088-11.713-10.569-17.609-17.645-28.809-7.074 11.2-17.674 17.081-17.703 28.842-.612 6.781 3.183 11.961 7.717 13.358 3.119.967 7.967-.737 9.746-7.805.147-.389.305-.379.447.014 2.568 7.162 6.804 8.726 9.781 7.791 4.41-1.422 7.985-6.682 7.657-13.391zM46.725 129.46l.047.072.047-.072h-.094zM64.417 158.34c-.088-11.713-10.569-17.609-17.645-28.808-7.074 11.199-17.674 17.078-17.703 28.841-.612 6.781 3.183 11.96 7.717 13.358 3.119.967 7.967-.737 9.746-7.806.146-.387.305-.378.447.013 2.568 7.165 6.804 8.729 9.781 7.793 4.41-1.423 7.985-6.681 7.657-13.391zM133.174 66.153c-.015-.025-.033-.049-.048-.075-.016.026-.034.05-.049.075h.097zM143.112 23.882c-3.117-.967-7.965.737-9.746 7.807-.145.386-.303.377-.447-.015-2.567-7.162-6.805-8.727-9.78-7.792-4.412 1.423-7.986 6.682-7.658 13.392.092 11.71 10.566 17.607 17.645 28.804 7.078-11.197 17.669-17.077 17.703-28.837.611-6.781-3.182-11.961-7.717-13.359zM133.174 119.067l-.048-.075c-.016.025-.034.05-.049.075h.097zM143.112 76.796c-3.117-.968-7.965.736-9.746 7.806-.145.387-.303.377-.447-.014-2.567-7.163-6.805-8.727-9.78-7.792-4.412 1.422-7.986 6.681-7.658 13.391.092 11.711 10.566 17.608 17.645 28.805 7.078-11.196 17.669-17.078 17.703-28.838.611-6.78-3.182-11.961-7.717-13.358zM133.18 182.372c.016.026.034.05.049.075l.049-.075h-.098zM150.874 211.253c-.092-11.711-10.567-17.607-17.645-28.806-7.076 11.199-17.676 17.079-17.703 28.839-.615 6.781 3.182 11.96 7.719 13.358 3.115.968 7.963-.737 9.746-7.805.144-.389.301-.379.439.014 2.573 7.162 6.805 8.727 9.786 7.791 4.408-1.422 7.98-6.682 7.658-13.391zM150.874 158.34c-.092-11.711-10.567-17.607-17.645-28.805-7.076 11.198-17.676 17.077-17.703 28.838-.615 6.781 3.182 11.96 7.719 13.358 3.115.967 7.963-.737 9.746-7.805.144-.388.301-.379.439.012 2.573 7.165 6.805 8.729 9.786 7.793 4.408-1.423 7.98-6.681 7.658-13.391zM133.18 129.46c.016.025.034.05.049.075l.049-.075h-.098zM89.94 146.941l-.047-.073-.047.073h.094zM99.883 104.67c-3.117-.968-7.968.735-9.748 7.805-.15.386-.304.378-.447-.014-2.568-7.163-6.803-8.727-9.779-7.791-4.41 1.422-7.985 6.68-7.655 13.39.088 11.713 10.568 17.61 17.639 28.808 7.08-11.198 17.676-17.078 17.707-28.841.61-6.781-3.185-11.961-7.717-13.357zM20.305 22.505c-.127-1.937-.775-3.681-1.857-4.998-1.205-1.472-2.973-2.377-4.971-2.377h-.019a6.284 6.284 0 00-2.901.691c-1.299.671-2.318 1.785-3 3.128-.681 1.345-1.037 2.922-1.039 4.58.002 2.189.606 4.222 1.791 5.744a6.436 6.436 0 002.195 1.814 6.441 6.441 0 002.889.658h.074a6.191 6.191 0 002.897-.736 6.578 6.578 0 001.9-1.568c-.068 1.605-.326 3.524-1.058 4.932-.383.739-.873 1.338-1.539 1.771-.666.431-1.536.716-2.752.718-.887-.001-1.58-.209-2.157-.512-.859-.453-1.463-1.153-1.849-1.751a6.086 6.086 0 01-.414-.753 3.808 3.808 0 01-.106-.256l-.025.011-2.037.793c.033.089.416 1.232 1.427 2.423a6.967 6.967 0 002.038 1.653c.859.456 1.91.755 3.123.754h.013c1.534 0 2.832-.382 3.869-1.056a6.498 6.498 0 001.887-1.898c.723-1.098 1.141-2.34 1.397-3.549.254-1.211.347-2.397.385-3.409a59.546 59.546 0 00-.161-6.807zm-3.439 5.157a4.49 4.49 0 01-1.469 1.297 4.153 4.153 0 01-1.949.489h-.055c-.762-.001-1.416-.163-1.982-.444-.848-.424-1.518-1.123-1.996-2.06-.477-.936-.75-2.109-.748-3.415-.002-1.743.503-3.298 1.337-4.377a4.467 4.467 0 011.487-1.262 4.23 4.23 0 011.967-.463c1.416.006 2.543.595 3.379 1.599.83 1.007 1.347 2.463 1.349 4.195 0 1.75-.494 3.337-1.32 4.441zM159.592 228.856c.127 1.936.774 3.681 1.858 4.998 1.205 1.472 2.97 2.377 4.969 2.377h.021a6.293 6.293 0 002.901-.691c1.298-.671 2.318-1.785 3-3.129.681-1.343 1.037-2.921 1.038-4.579-.001-2.188-.605-4.223-1.791-5.744a6.427 6.427 0 00-2.195-1.814 6.438 6.438 0 00-2.889-.658h-.076a6.168 6.168 0 00-2.894.736 6.569 6.569 0 00-1.901 1.568c.069-1.604.325-3.524 1.059-4.932.383-.739.873-1.337 1.537-1.771.668-.431 1.537-.716 2.754-.718.885.001 1.58.209 2.156.512.86.453 1.463 1.153 1.85 1.751a6.026 6.026 0 01.502.964c.01.021.015.037.017.045l.026-.011 2.037-.792c-.033-.09-.416-1.234-1.428-2.424a6.989 6.989 0 00-2.037-1.653 6.604 6.604 0 00-3.123-.754h-.014c-1.535 0-2.832.382-3.869 1.056a6.494 6.494 0 00-1.886 1.898c-.723 1.098-1.141 2.34-1.397 3.549-.254 1.211-.348 2.397-.385 3.409a57.903 57.903 0 00-.035 2.042c0 2.383.166 4.431.195 4.765zm3.438-5.158c.414-.552.904-.99 1.471-1.296a4.153 4.153 0 011.949-.489h.054c.762 0 1.416.162 1.981.445.85.422 1.518 1.122 1.998 2.059.477.936.75 2.109.748 3.415.002 1.743-.504 3.298-1.338 4.377a4.47 4.47 0 01-1.488 1.262 4.234 4.234 0 01-1.965.464c-1.418-.007-2.543-.596-3.379-1.6-.83-1.007-1.347-2.463-1.349-4.195-.002-1.75.494-3.337 1.318-4.442z" fill="#D33D43"/></g></svg>