<svg xmlns="http://www.w3.org/2000/svg" viewBox="0 0 180 251"><g fill="none" fill-rule="evenodd"><path d="M179.242 236.23c0 7.828-6.346 14.173-14.174 14.173H14.832c-7.828 0-14.174-6.345-14.174-14.173V15.133C.658 7.305 7.004.959 14.832.959h150.236c7.828 0 14.174 6.346 14.174 14.174V236.23z" fill="#F7F6F2"/><path d="M179.242 236.23c0 7.828-6.346 14.173-14.174 14.173H14.832c-7.828 0-14.174-6.345-14.174-14.173V15.133C.658 7.305 7.004.959 14.832.959h150.236c7.828 0 14.174 6.346 14.174 14.174V236.23h0z" stroke="#000"/><path d="M20.305 22.508c-.127-1.936-.774-3.681-1.857-4.997-1.205-1.473-2.972-2.378-4.97-2.378h-.019a6.291 6.291 0 00-2.902.691c-1.299.671-2.318 1.785-2.999 3.129-.682 1.345-1.038 2.921-1.039 4.579.001 2.19.605 4.223 1.791 5.744a6.432 6.432 0 002.194 1.814 6.431 6.431 0 002.889.658h.075a6.172 6.172 0 002.896-.735 6.598 6.598 0 001.9-1.569c-.068 1.605-.325 3.525-1.058 4.932-.383.739-.872 1.338-1.538 1.771-.667.431-1.535.716-2.752.718-.887-.001-1.581-.208-2.158-.511-.859-.453-1.463-1.154-1.849-1.751a5.926 5.926 0 01-.502-.964.33.33 0 01-.018-.045l-.025.011-2.036.792c.032.089.416 1.233 1.427 2.423a6.978 6.978 0 002.037 1.654c.86.456 1.91.755 3.124.754h.012c1.534 0 2.833-.382 3.87-1.057a6.503 6.503 0 001.886-1.897c.723-1.098 1.141-2.34 1.397-3.549.255-1.211.347-2.398.385-3.409a59.611 59.611 0 00-.161-6.808zm-3.438 5.158c-.413.554-.903.99-1.469 1.296a4.137 4.137 0 01-1.95.489h-.055c-.762 0-1.416-.162-1.981-.444-.849-.423-1.518-1.122-1.997-2.06-.477-.935-.749-2.109-.748-3.415-.001-1.743.503-3.298 1.338-4.377a4.455 4.455 0 011.487-1.261 4.227 4.227 0 011.967-.463c1.416.006 2.543.595 3.378 1.599.83 1.006 1.348 2.462 1.349 4.195.001 1.75-.494 3.337-1.319 4.441zM159.593 228.856c.127 1.935.776 3.68 1.858 4.997 1.205 1.472 2.972 2.377 4.971 2.377h.019a6.28 6.28 0 002.9-.691c1.299-.671 2.319-1.785 3-3.129.682-1.345 1.038-2.921 1.039-4.58-.001-2.188-.605-4.222-1.791-5.744a6.42 6.42 0 00-2.195-1.812 6.412 6.412 0 00-2.889-.659h-.074a6.187 6.187 0 00-2.896.735 6.602 6.602 0 00-1.901 1.569c.069-1.605.327-3.524 1.059-4.932.383-.739.873-1.339 1.539-1.771.666-.431 1.535-.716 2.752-.718.887.001 1.58.208 2.156.512.86.453 1.463 1.152 1.85 1.751.193.298.328.566.414.753a4.808 4.808 0 01.105.256l.026-.011 2.037-.793c-.033-.089-.416-1.233-1.428-2.423a6.976 6.976 0 00-2.037-1.653 6.604 6.604 0 00-3.123-.754h-.014c-1.533 0-2.832.382-3.869 1.055a6.525 6.525 0 00-1.887 1.899c-.722 1.098-1.14 2.34-1.396 3.549-.254 1.211-.348 2.396-.385 3.408a57.958 57.958 0 00-.035 2.043c0 2.383.166 4.431.195 4.766zm3.44-5.159c.412-.553.902-.99 1.469-1.296a4.15 4.15 0 011.949-.489h.054c.762 0 1.417.162 1.983.443.848.424 1.517 1.124 1.996 2.061.477.936.75 2.109.748 3.414.002 1.744-.504 3.299-1.338 4.377a4.479 4.479 0 01-1.486 1.263 4.23 4.23 0 01-1.967.463c-1.416-.006-2.543-.595-3.379-1.6-.83-1.006-1.348-2.462-1.35-4.194 0-1.75.495-3.337 1.321-4.442zM13.405 43.479c-.041.027-.07.041-.117.072-3.038 1.939-6.583 5.725-6.947 10.441-.172 2.244 1.263 3.798 3.119 3.832 1.183.022 2.136-.399 2.652-1.203.429-.668.538-1.699.607-1.223.25 1.817-.51 3.563-.922 5.088.459-.167 1.036-.251 1.614-.253h.009c.578.002 1.153.086 1.611.253-.411-1.525-1.17-3.271-.921-5.088.069-.476.179.555.606 1.223.516.804 1.469 1.225 2.653 1.203 1.855-.034 3.291-1.588 3.118-3.832-.363-4.716-3.908-8.502-6.943-10.441-.034-.025-.063-.04-.111-.072h-.028z" fill="#000"/><path d="M13.405 43.479c-.041.027-.07.041-.117.072-3.038 1.939-6.583 5.725-6.947 10.441-.172 2.244 1.263 3.798 3.119 3.832 1.183.022 2.136-.399 2.652-1.203.429-.668.538-1.699.607-1.223.25 1.817-.51 3.563-.922 5.088.459-.167 1.036-.251 1.614-.253h.009c.578.002 1.153.086 1.611.253-.411-1.525-1.17-3.271-.921-5.088.069-.476.179.555.606 1.223.516.804 1.469 1.225 2.653 1.203 1.855-.034 3.291-1.588 3.118-3.832-.363-4.716-3.908-8.502-6.943-10.441-.034-.025-.063-.04-.111-.072h-.028 0z" stroke="#000" stroke-width=".065" stroke-linejoin="round"/><path d="M166.476 207.883c-.041-.027-.07-.041-.117-.072-3.039-1.94-6.584-5.724-6.947-10.442-.172-2.244 1.263-3.797 3.119-3.832 1.183-.021 2.137.401 2.652 1.203.428.669.537 1.699.608 1.223.25-1.816-.512-3.563-.922-5.088.459.168 1.035.252 1.613.254h.01c.576-.002 1.152-.086 1.609-.254-.41 1.525-1.17 3.272-.92 5.088.069.476.178-.554.606-1.223.515-.802 1.468-1.224 2.652-1.203 1.855.035 3.291 1.588 3.119 3.832-.363 4.718-3.908 8.502-6.943 10.442-.033.025-.063.041-.111.072h-.028z" fill="#000"/><path d="M166.476 207.883c-.041-.027-.07-.041-.117-.072-3.039-1.94-6.584-5.724-6.947-10.442-.172-2.244 1.263-3.797 3.119-3.832 1.183-.021 2.137.401 2.652 1.203.428.669.537 1.699.608 1.223.25-1.816-.512-3.563-.922-5.088.459.168 1.035.252 1.613.254h.01c.576-.002 1.152-.086 1.609-.254-.41 1.525-1.17 3.272-.92 5.088.069.476.178-.554.606-1.223.515-.802 1.468-1.224 2.652-1.203 1.855.035 3.291 1.588 3.119 3.832-.363 4.718-3.908 8.502-6.943 10.442-.033.025-.063.041-.111.072h-.028 0z" stroke="#000" stroke-width=".065" stroke-linejoin="round"/><path d="M46.697 26.472c-.102.066-.174.102-.293.18-7.595 4.849-16.456 14.31-17.364 26.104-.432 5.61 3.155 9.495 7.794 9.579 2.961.055 5.341-.997 6.632-3.007 1.072-1.672 1.345-4.248 1.519-3.057.625 4.542-1.277 8.907-2.307 12.72 1.148-.417 2.59-.627 4.034-.632h.024c1.442.005 2.882.215 4.027.632-1.027-3.813-2.926-8.178-2.302-12.72.173-1.191.446 1.385 1.516 3.057 1.289 2.01 3.671 3.062 6.631 3.007 4.639-.084 8.227-3.969 7.794-9.579-.908-11.794-9.769-21.255-17.358-26.104-.082-.062-.156-.099-.275-.18h-.072z" fill="#000"/><path d="M46.697 26.472c-.102.066-.174.102-.293.18-7.595 4.849-16.456 14.31-17.364 26.104-.432 5.61 3.155 9.495 7.794 9.579 2.961.055 5.341-.997 6.632-3.007 1.072-1.672 1.345-4.248 1.519-3.057.625 4.542-1.277 8.907-2.307 12.72 1.148-.417 2.59-.627 4.034-.632h.024c1.442.005 2.882.215 4.027.632-1.027-3.813-2.926-8.178-2.302-12.72.173-1.191.446 1.385 1.516 3.057 1.289 2.01 3.671 3.062 6.631 3.007 4.639-.084 8.227-3.969 7.794-9.579-.908-11.794-9.769-21.255-17.358-26.104-.082-.062-.156-.099-.275-.18h-.072 0z" stroke="#000" stroke-width=".163" stroke-linejoin="round"/><path d="M133.154 26.472c-.102.066-.174.102-.293.18-7.596 4.849-16.457 14.31-17.365 26.104-.432 5.61 3.156 9.495 7.795 9.579 2.961.055 5.342-.997 6.631-3.007 1.072-1.672 1.345-4.248 1.519-3.057.625 4.542-1.277 8.907-2.307 12.72 1.149-.417 2.59-.627 4.036-.632h.023c1.441.005 2.881.215 4.027.632-1.027-3.813-2.925-8.178-2.302-12.72.173-1.191.445 1.385 1.515 3.057 1.289 2.01 3.672 3.062 6.631 3.007 4.639-.084 8.227-3.969 7.795-9.579-.908-11.794-9.77-21.255-17.359-26.104-.082-.062-.155-.099-.274-.18h-.072z" fill="#000"/><path d="M133.154 26.472c-.102.066-.174.102-.293.18-7.596 4.849-16.457 14.31-17.365 26.104-.432 5.61 3.156 9.495 7.795 9.579 2.961.055 5.342-.997 6.631-3.007 1.072-1.672 1.345-4.248 1.519-3.057.625 4.542-1.277 8.907-2.307 12.72 1.149-.417 2.59-.627 4.036-.632h.023c1.441.005 2.881.215 4.027.632-1.027-3.813-2.925-8.178-2.302-12.72.173-1.191.445 1.385 1.515 3.057 1.289 2.01 3.672 3.062 6.631 3.007 4.639-.084 8.227-3.969 7.795-9.579-.908-11.794-9.77-21.255-17.359-26.104-.082-.062-.155-.099-.274-.18h-.072 0z" stroke="#000" stroke-width=".163" stroke-linejoin="round"/><path d="M46.697 78.44c-.102.067-.174.103-.293.18-7.595 4.85-16.456 14.311-17.364 26.104-.432 5.609 3.155 9.493 7.794 9.577 2.961.055 5.341-.998 6.632-3.005 1.072-1.672 1.345-4.249 1.519-3.059.625 4.541-1.277 8.905-2.307 12.719 1.148-.418 2.59-.627 4.034-.633h.024c1.442.006 2.882.215 4.027.633-1.027-3.814-2.926-8.178-2.302-12.719.173-1.19.446 1.387 1.516 3.059 1.289 2.007 3.671 3.06 6.631 3.005 4.639-.084 8.227-3.968 7.794-9.577-.908-11.793-9.769-21.254-17.358-26.104-.082-.061-.156-.098-.275-.18h-.072z" fill="#000"/><path d="M46.697 78.44c-.102.067-.174.103-.293.18-7.595 4.85-16.456 14.311-17.364 26.104-.432 5.609 3.155 9.493 7.794 9.577 2.961.055 5.341-.998 6.632-3.005 1.072-1.672 1.345-4.249 1.519-3.059.625 4.541-1.277 8.905-2.307 12.719 1.148-.418 2.59-.627 4.034-.633h.024c1.442.006 2.882.215 4.027.633-1.027-3.814-2.926-8.178-2.302-12.719.173-1.19.446 1.387 1.516 3.059 1.289 2.007 3.671 3.06 6.631 3.005 4.639-.084 8.227-3.968 7.794-9.577-.908-11.793-9.769-21.254-17.358-26.104-.082-.061-.156-.098-.275-.18h-.072 0z" stroke="#000" stroke-width=".163" stroke-linejoin="round"/><path d="M133.154 78.44c-.102.067-.174.103-.293.18-7.596 4.85-16.457 14.311-17.365 26.104-.432 5.609 3.156 9.493 7.795 9.577 2.961.055 5.342-.998 6.631-3.005 1.072-1.672 1.345-4.249 1.519-3.059.625 4.541-1.277 8.905-2.307 12.719 1.149-.418 2.59-.627 4.036-.633h.023c1.441.006 2.881.215 4.027.633-1.027-3.814-2.925-8.178-2.302-12.719.173-1.19.445 1.387 1.515 3.059 1.289 2.007 3.672 3.06 6.631 3.005 4.639-.084 8.227-3.968 7.795-9.577-.908-11.793-9.77-21.254-17.359-26.104-.082-.061-.155-.098-.274-.18h-.072z" fill="#000"/><path d="M133.154 78.44c-.102.067-.174.103-.293.18-7.596 4.85-16.457 14.311-17.365 26.104-.432 5.609 3.156 9.493 7.795 9.577 2.961.055 5.342-.998 6.631-3.005 1.072-1.672 1.345-4.249 1.519-3.059.625 4.541-1.277 8.905-2.307 12.719 1.149-.418 2.59-.627 4.036-.633h.023c1.441.006 2.881.215 4.027.633-1.027-3.814-2.925-8.178-2.302-12.719.173-1.19.445 1.387 1.515 3.059 1.289 2.007 3.672 3.06 6.631 3.005 4.639-.084 8.227-3.968 7.795-9.577-.908-11.793-9.77-21.254-17.359-26.104-.082-.061-.155-.098-.274-.18h-.072 0z" stroke="#000" stroke-width=".163" stroke-linejoin="round"/><path d="M89.925 104.423c-.101.067-.173.104-.292.18-7.595 4.849-16.457 14.308-17.365 26.1-.431 5.611 3.155 9.495 7.794 9.58 2.961.054 5.342-.998 6.632-3.008 1.072-1.671 1.346-4.248 1.52-3.056.625 4.541-1.278 8.906-2.307 12.719 1.147-.416 2.59-.626 4.034-.631h.023c1.444.005 2.883.215 4.028.631-1.028-3.813-2.926-8.178-2.303-12.719.174-1.192.447 1.385 1.518 3.056 1.289 2.01 3.67 3.062 6.63 3.008 4.639-.085 8.227-3.969 7.793-9.58-.908-11.792-9.769-21.251-17.358-26.1-.082-.06-.155-.099-.274-.18h-.073z" fill="#000"/><path d="M89.925 104.423c-.101.067-.173.104-.292.18-7.595 4.849-16.457 14.308-17.365 26.1-.431 5.611 3.155 9.495 7.794 9.58 2.961.054 5.342-.998 6.632-3.008 1.072-1.671 1.346-4.248 1.52-3.056.625 4.541-1.278 8.906-2.307 12.719 1.147-.416 2.59-.626 4.034-.631h.023c1.444.005 2.883.215 4.028.631-1.028-3.813-2.926-8.178-2.303-12.719.174-1.192.447 1.385 1.518 3.056 1.289 2.01 3.67 3.062 6.63 3.008 4.639-.085 8.227-3.969 7.793-9.58-.908-11.792-9.769-21.251-17.358-26.1-.082-.06-.155-.099-.274-.18h-.073 0z" stroke="#000" stroke-width=".163" stroke-linejoin="round"/><path d="M46.697 172.924c-.102-.069-.174-.104-.293-.182-7.595-4.849-16.456-14.31-17.364-26.103-.432-5.612 3.155-9.494 7.794-9.58 2.961-.053 5.341.998 6.632 3.007 1.072 1.672 1.345 4.248 1.519 3.057.625-4.541-1.277-8.906-2.307-12.719 1.148.416 2.59.627 4.034.631h.024c1.442-.004 2.882-.215 4.027-.631-1.027 3.813-2.926 8.178-2.302 12.719.173 1.191.446-1.385 1.516-3.057 1.289-2.009 3.671-3.06 6.631-3.007 4.639.086 8.227 3.968 7.794 9.58-.908 11.793-9.769 21.254-17.358 26.103-.082.063-.156.1-.275.182h-.072z" fill="#000"/><path d="M46.697 172.924c-.102-.069-.174-.104-.293-.182-7.595-4.849-16.456-14.31-17.364-26.103-.432-5.612 3.155-9.494 7.794-9.58 2.961-.053 5.341.998 6.632 3.007 1.072 1.672 1.345 4.248 1.519 3.057.625-4.541-1.277-8.906-2.307-12.719 1.148.416 2.59.627 4.034.631h.024c1.442-.004 2.882-.215 4.027-.631-1.027 3.813-2.926 8.178-2.302 12.719.173 1.191.446-1.385 1.516-3.057 1.289-2.009 3.671-3.06 6.631-3.007 4.639.086 8.227 3.968 7.794 9.58-.908 11.793-9.769 21.254-17.358 26.103-.082.063-.156.1-.275.182h-.072 0z" stroke="#000" stroke-width=".163" stroke-linejoin="round"/><path d="M133.154 172.924c-.102-.069-.174-.104-.293-.182-7.594-4.849-16.455-14.31-17.363-26.103-.432-5.612 3.154-9.494 7.793-9.58 2.961-.053 5.342.998 6.632 3.007 1.073 1.672 1.346 4.248 1.52 3.057.625-4.541-1.277-8.906-2.307-12.719 1.147.416 2.59.627 4.034.631h.023c1.443-.004 2.883-.215 4.027-.631-1.027 3.813-2.925 8.178-2.302 12.719.173 1.191.447-1.385 1.517-3.057 1.289-2.009 3.67-3.06 6.631-3.007 4.639.086 8.227 3.968 7.793 9.58-.908 11.793-9.77 21.254-17.357 26.103-.082.063-.157.1-.276.182h-.072z" fill="#000"/><path d="M133.154 172.924c-.102-.069-.174-.104-.293-.182-7.594-4.849-16.455-14.31-17.363-26.103-.432-5.612 3.154-9.494 7.793-9.58 2.961-.053 5.342.998 6.632 3.007 1.073 1.672 1.346 4.248 1.52 3.057.625-4.541-1.277-8.906-2.307-12.719 1.147.416 2.59.627 4.034.631h.023c1.443-.004 2.883-.215 4.027-.631-1.027 3.813-2.925 8.178-2.302 12.719.173 1.191.447-1.385 1.517-3.057 1.289-2.009 3.67-3.06 6.631-3.007 4.639.086 8.227 3.968 7.793 9.58-.908 11.793-9.77 21.254-17.357 26.103-.082.063-.157.1-.276.182h-.072 0z" stroke="#000" stroke-width=".163" stroke-linejoin="round"/><path d="M46.697 224.892c-.102-.068-.174-.103-.293-.181-7.595-4.85-16.456-14.311-17.364-26.104-.432-5.611 3.155-9.495 7.794-9.58 2.961-.053 5.341.999 6.632 3.008 1.072 1.672 1.345 4.248 1.519 3.057.625-4.541-1.277-8.906-2.307-12.72 1.148.417 2.59.627 4.034.632h.024c1.442-.005 2.882-.215 4.027-.632-1.027 3.814-2.926 8.179-2.302 12.72.173 1.191.446-1.385 1.516-3.057 1.289-2.009 3.671-3.061 6.631-3.008 4.639.085 8.227 3.969 7.794 9.58-.908 11.793-9.769 21.254-17.358 26.104-.082.063-.156.1-.275.181h-.072z" fill="#000"/><path d="M46.697 224.892c-.102-.068-.174-.103-.293-.181-7.595-4.85-16.456-14.311-17.364-26.104-.432-5.611 3.155-9.495 7.794-9.58 2.961-.053 5.341.999 6.632 3.008 1.072 1.672 1.345 4.248 1.519 3.057.625-4.541-1.277-8.906-2.307-12.72 1.148.417 2.59.627 4.034.632h.024c1.442-.005 2.882-.215 4.027-.632-1.027 3.814-2.926 8.179-2.302 12.72.173 1.191.446-1.385 1.516-3.057 1.289-2.009 3.671-3.061 6.631-3.008 4.639.085 8.227 3.969 7.794 9.58-.908 11.793-9.769 21.254-17.358 26.104-.082.063-.156.1-.275.181h-.072 0z" stroke="#000" stroke-width=".163" stroke-linejoin="round"/><path d="M133.154 224.892c-.102-.068-.174-.104-.293-.181-7.594-4.85-16.455-14.311-17.363-26.104-.432-5.611 3.154-9.495 7.793-9.58 2.961-.053 5.342.999 6.632 3.008 1.073 1.672 1.346 4.248 1.52 3.057.625-4.541-1.277-8.906-2.307-12.72 1.147.417 2.59.627 4.034.632h.023c1.443-.005 2.883-.215 4.027-.632-1.027 3.814-2.925 8.179-2.302 12.72.173 1.191.447-1.385 1.517-3.057 1.289-2.009 3.67-3.061 6.631-3.008 4.639.085 8.227 3.969 7.793 9.58-.908 11.793-9.77 21.254-17.357 26.104-.082.063-.157.1-.276.181h-.072z" fill="#000"/><path d="M133.154 224.892c-.102-.068-.174-.104-.293-.181-7.594-4.85-16.455-14.311-17.363-26.104-.432-5.611 3.154-9.495 7.793-9.58 2.961-.053 5.342.999 6.632 3.008 1.073 1.672 1.346 4.248 1.52 3.057.625-4.541-1.277-8.906-2.307-12.72 1.147.417 2.59.627 4.034.632h.023c1.443-.005 2.883-.215 4.027-.632-1.027 3.814-2.925 8.179-2.302 12.72.173 1.191.447-1.385 1.517-3.057 1.289-2.009 3.67-3.061 6.631-3.008 4.639.085 8.227 3.969 7.793 9.58-.908 11.793-9.77 21.254-17.357 26.104-.082.063-.157.1-.276.181h-.072 0z" stroke="#000" stroke-width=".163" stroke-linejoin="round"/></g></svg>