<svg xmlns="http://www.w3.org/2000/svg" viewBox="0 0 180 251"><g fill="none" fill-rule="evenodd"><path d="M179.47 236.231c0 7.829-6.346 14.174-14.174 14.174H15.06c-7.828 0-14.174-6.345-14.174-14.174V15.13C.886 7.302 7.232.957 15.06.957h150.236c7.828 0 14.174 6.345 14.174 14.173v221.101z" fill="#F7F6F2"/><path d="M179.47 236.231c0 7.829-6.346 14.174-14.174 14.174H15.06c-7.828 0-14.174-6.345-14.174-14.174V15.13C.886 7.302 7.232.957 15.06.957h150.236c7.828 0 14.174 6.345 14.174 14.173v221.101h0z" stroke="#000"/><path d="M13.64 60.484l-.018-.028a.275.275 0 00-.019.028h.037zM17.616 43.576c-1.247-.387-3.186.294-3.898 3.122-.06.155-.122.151-.178-.006-1.029-2.865-2.722-3.49-3.913-3.116-1.765.569-3.194 2.673-3.063 5.356.035 4.684 4.228 7.044 7.058 11.524 2.83-4.48 7.069-6.832 7.08-11.537.246-2.712-1.273-4.785-3.086-5.343zM166.714 190.877l.019.029a.298.298 0 00.02-.029h-.039zM166.733 190.906c-2.83 4.48-7.069 6.832-7.082 11.537-.244 2.712 1.274 4.785 3.086 5.343 1.248.387 3.188-.295 3.901-3.123.058-.154.121-.15.178.006 1.027 2.865 2.72 3.49 3.912 3.117 1.765-.569 3.193-2.674 3.062-5.357-.035-4.683-4.227-7.043-7.057-11.523zM56.883 23.883c-3.117-.969-7.964.736-9.746 7.805-.148.387-.304.378-.445-.015-2.57-7.162-6.804-8.726-9.782-7.79-4.41 1.422-7.984 6.681-7.657 13.391.088 11.71 10.568 17.608 17.643 28.806C53.972 54.882 64.57 49.002 64.6 37.24c.613-6.779-3.183-11.961-7.717-13.357zM46.943 66.153l-.047-.073-.047.073h.094zM64.644 211.253c-.088-11.711-10.568-17.607-17.643-28.807-7.076 11.199-17.674 17.08-17.704 28.84-.613 6.781 3.184 11.962 7.717 13.358 3.118.968 7.965-.735 9.746-7.805.148-.387.305-.379.445.014 2.57 7.162 6.804 8.727 9.783 7.791 4.41-1.422 7.984-6.681 7.656-13.391zM46.953 182.373l.048.073.047-.073h-.095zM133.401 146.941c-.015-.026-.032-.049-.047-.075-.016.026-.033.049-.048.075h.095zM143.341 104.671c-3.117-.969-7.965.735-9.746 7.803-.149.387-.305.379-.445-.013-2.571-7.163-6.804-8.727-9.784-7.79-4.41 1.422-7.983 6.68-7.656 13.389.088 11.714 10.568 17.609 17.644 28.806 7.076-11.197 17.674-17.077 17.704-28.841.613-6.779-3.184-11.959-7.717-13.354zM133.401 66.154l-.047-.074c-.016.025-.033.049-.048.074h.095zM143.341 23.883c-3.117-.968-7.965.736-9.746 7.805-.149.387-.305.379-.445-.014-2.571-7.162-6.805-8.727-9.783-7.791-4.41 1.423-7.983 6.682-7.657 13.391.088 11.71 10.568 17.607 17.644 28.806 7.076-11.198 17.674-17.078 17.704-28.84.613-6.779-3.183-11.961-7.717-13.357zM151.102 211.253c-.088-11.711-10.568-17.607-17.643-28.807-7.076 11.199-17.675 17.08-17.704 28.84-.613 6.781 3.183 11.962 7.717 13.358 3.117.968 7.964-.735 9.746-7.805.147-.387.305-.379.445.014 2.57 7.162 6.803 8.727 9.782 7.791 4.411-1.422 7.984-6.681 7.657-13.391zM133.411 182.373l.048.073.047-.073h-.095zM56.883 104.671c-3.117-.969-7.965.734-9.746 7.803-.148.387-.304.379-.446-.013-2.569-7.163-6.803-8.727-9.782-7.79-4.41 1.422-7.983 6.68-7.656 13.389.088 11.714 10.568 17.609 17.643 28.807 7.076-11.198 17.674-17.078 17.704-28.841.613-6.78-3.184-11.96-7.717-13.355zM46.944 146.941l-.048-.074-.047.074h.095zM100.114 57.898c-3.117-.969-7.97.736-9.752 7.805-.148.387-.304.379-.445-.014-2.568-7.162-6.803-8.726-9.78-7.791-4.409 1.423-7.983 6.682-7.655 13.391.087 11.711 10.565 17.608 17.639 28.806 7.083-11.198 17.678-17.079 17.708-28.84.613-6.78-3.182-11.96-7.715-13.357zM90.169 100.169l-.048-.074c-.015.025-.032.049-.048.074h.096zM6.558 15.13v1.442h-.002v2.452l2.226-.002-.002-1.486h9.345c-1.448 2.657-5.352 10.628-6.764 21.688l2.238-.001c.83-6.523 2.253-11.627 3.879-15.41a49.756 49.756 0 012.125-4.375c.276-.501.501-.883.655-1.136.161-.265.432-.705.471-.766V15.13H6.558zM173.798 236.231v-1.442h.002v-2.452l-2.227.002.002 1.486h-9.345c1.449-2.656 5.353-10.628 6.765-21.688l-2.238.001c-.83 6.523-2.253 11.627-3.879 15.41a49.756 49.756 0 01-2.125 4.375c-.277.501-.502.883-.655 1.136-.161.265-.433.705-.472.766v2.406h14.172z" fill="#D33D43"/></g></svg>