<svg xmlns="http://www.w3.org/2000/svg" viewBox="0 0 180 251"><g fill="none" fill-rule="evenodd"><path d="M179.47 236.23c0 7.828-6.346 14.173-14.174 14.173H15.059c-7.827 0-14.173-6.345-14.173-14.173V15.132C.886 7.304 7.232.959 15.059.959h150.237c7.828 0 14.174 6.345 14.174 14.173V236.23z" fill="#F7F6F2"/><path d="M6.557 15.132v1.443h-.002v2.452l2.226-.002-.001-1.486h9.345c-1.449 2.657-5.353 10.628-6.766 21.688l2.239-.001c.831-6.522 2.253-11.627 3.879-15.41a49.57 49.57 0 012.126-4.375c.276-.501.501-.883.654-1.136.161-.265.433-.705.472-.766v-2.407H6.557zM13.633 43.479c-.042.027-.071.041-.118.072-3.038 1.94-6.583 5.725-6.946 10.441-.173 2.244 1.263 3.798 3.118 3.832 1.184.022 2.136-.399 2.653-1.203.428-.668.538-1.699.607-1.223.25 1.817-.511 3.563-.922 5.088.459-.167 1.035-.251 1.613-.253h.01c.577.002 1.152.086 1.61.253-.411-1.525-1.17-3.271-.921-5.088.07-.476.179.555.607 1.223.516.804 1.469 1.225 2.652 1.203 1.856-.034 3.291-1.588 3.118-3.832-.363-4.716-3.908-8.501-6.943-10.441-.033-.025-.062-.04-.11-.072h-.028z" fill="#000"/><path d="M13.633 43.479c-.042.027-.071.041-.118.072-3.038 1.94-6.583 5.725-6.946 10.441-.173 2.244 1.263 3.798 3.118 3.832 1.184.022 2.136-.399 2.653-1.203.428-.668.538-1.699.607-1.223.25 1.817-.511 3.563-.922 5.088.459-.167 1.035-.251 1.613-.253h.01c.577.002 1.152.086 1.61.253-.411-1.525-1.17-3.271-.921-5.088.07-.476.179.555.607 1.223.516.804 1.469 1.225 2.652 1.203 1.856-.034 3.291-1.588 3.118-3.832-.363-4.716-3.908-8.501-6.943-10.441-.033-.025-.062-.04-.11-.072h-.028 0z" stroke="#000" stroke-width=".065" stroke-linejoin="round"/><path d="M179.47 236.23c0 7.828-6.346 14.173-14.174 14.173H15.059c-7.827 0-14.173-6.345-14.173-14.173V15.132C.886 7.304 7.232.959 15.059.959h150.237c7.828 0 14.174 6.345 14.174 14.173V236.23h0z" stroke="#000"/><path d="M173.798 236.23v-1.442h.002v-2.453l-2.227.002.002 1.486h-9.345c1.449-2.656 5.353-10.627 6.765-21.687h-2.238c-.83 6.523-2.252 11.627-3.879 15.41a49.615 49.615 0 01-2.125 4.375 36.547 36.547 0 01-1.127 1.902v2.407h14.172zM166.704 207.882c-.041-.027-.07-.041-.117-.072-3.039-1.94-6.584-5.725-6.947-10.442-.172-2.244 1.263-3.797 3.119-3.832 1.183-.021 2.137.401 2.652 1.203.428.668.537 1.699.608 1.223.25-1.816-.512-3.562-.922-5.088.459.168 1.035.252 1.613.254h.01c.576-.002 1.152-.086 1.609-.254-.41 1.526-1.17 3.272-.92 5.088.069.476.178-.555.606-1.223.515-.802 1.468-1.224 2.652-1.203 1.856.035 3.291 1.588 3.119 3.832-.363 4.717-3.908 8.502-6.943 10.442-.033.025-.063.041-.111.072h-.028z" fill="#000"/><path d="M166.704 207.882c-.041-.027-.07-.041-.117-.072-3.039-1.94-6.584-5.725-6.947-10.442-.172-2.244 1.263-3.797 3.119-3.832 1.183-.021 2.137.401 2.652 1.203.428.668.537 1.699.608 1.223.25-1.816-.512-3.562-.922-5.088.459.168 1.035.252 1.613.254h.01c.576-.002 1.152-.086 1.609-.254-.41 1.526-1.17 3.272-.92 5.088.069.476.178-.555.606-1.223.515-.802 1.468-1.224 2.652-1.203 1.856.035 3.291 1.588 3.119 3.832-.363 4.717-3.908 8.502-6.943 10.442-.033.025-.063.041-.111.072h-.028 0z" stroke="#000" stroke-width=".065" stroke-linejoin="round"/><path d="M46.925 26.471c-.102.067-.174.103-.293.181-7.596 4.849-16.456 14.309-17.364 26.103-.432 5.611 3.155 9.496 7.794 9.58 2.961.054 5.341-.997 6.63-3.007 1.073-1.672 1.346-4.248 1.52-3.058.625 4.542-1.276 8.907-2.306 12.721 1.148-.417 2.589-.627 4.035-.632h.023c1.442.005 2.881.215 4.027.632-1.027-3.814-2.925-8.179-2.302-12.721.173-1.19.446 1.386 1.516 3.058 1.289 2.01 3.671 3.061 6.631 3.007 4.639-.084 8.226-3.969 7.794-9.58-.908-11.794-9.77-21.254-17.358-26.103-.083-.063-.156-.1-.275-.181h-.072z" fill="#000"/><path d="M46.925 26.471c-.102.067-.174.103-.293.181-7.596 4.849-16.456 14.309-17.364 26.103-.432 5.611 3.155 9.496 7.794 9.58 2.961.054 5.341-.997 6.63-3.007 1.073-1.672 1.346-4.248 1.52-3.058.625 4.542-1.276 8.907-2.306 12.721 1.148-.417 2.589-.627 4.035-.632h.023c1.442.005 2.881.215 4.027.632-1.027-3.814-2.925-8.179-2.302-12.721.173-1.19.446 1.386 1.516 3.058 1.289 2.01 3.671 3.061 6.631 3.007 4.639-.084 8.226-3.969 7.794-9.58-.908-11.794-9.77-21.254-17.358-26.103-.083-.063-.156-.1-.275-.181h-.072 0z" stroke="#000" stroke-width=".163" stroke-linejoin="round"/><path d="M133.382 26.471c-.102.067-.174.103-.293.181-7.596 4.849-16.455 14.309-17.363 26.103-.434 5.611 3.154 9.496 7.793 9.58 2.961.054 5.341-.997 6.631-3.007 1.072-1.672 1.345-4.248 1.519-3.058.625 4.542-1.275 8.907-2.305 12.721 1.147-.417 2.588-.627 4.034-.632h.023c1.443.005 2.881.215 4.027.632-1.027-3.814-2.925-8.179-2.302-12.721.173-1.19.447 1.386 1.517 3.058 1.289 2.01 3.67 3.061 6.631 3.007 4.639-.084 8.225-3.969 7.793-9.58-.908-11.794-9.77-21.254-17.357-26.103-.084-.063-.157-.1-.276-.181h-.072z" fill="#000"/><path d="M133.382 26.471c-.102.067-.174.103-.293.181-7.596 4.849-16.455 14.309-17.363 26.103-.434 5.611 3.154 9.496 7.793 9.58 2.961.054 5.341-.997 6.631-3.007 1.072-1.672 1.345-4.248 1.519-3.058.625 4.542-1.275 8.907-2.305 12.721 1.147-.417 2.588-.627 4.034-.632h.023c1.443.005 2.881.215 4.027.632-1.027-3.814-2.925-8.179-2.302-12.721.173-1.19.447 1.386 1.517 3.058 1.289 2.01 3.67 3.061 6.631 3.007 4.639-.084 8.225-3.969 7.793-9.58-.908-11.794-9.77-21.254-17.357-26.103-.084-.063-.157-.1-.276-.181h-.072 0z" stroke="#000" stroke-width=".163" stroke-linejoin="round"/><path d="M90.153 57.652c-.101.067-.173.103-.293.181-7.595 4.849-16.457 14.31-17.365 26.104-.431 5.61 3.156 9.495 7.795 9.579 2.961.054 5.342-.997 6.631-3.007 1.072-1.672 1.346-4.248 1.52-3.058.625 4.542-1.276 8.907-2.305 12.721 1.146-.417 2.588-.626 4.033-.632h.023c1.444.006 2.881.215 4.028.632-1.028-3.814-2.926-8.179-2.303-12.721.174-1.19.447 1.386 1.518 3.058 1.289 2.01 3.67 3.061 6.631 3.007 4.638-.084 8.224-3.969 7.792-9.579-.908-11.794-9.769-21.255-17.357-26.104-.084-.062-.156-.099-.275-.181h-.073z" fill="#000"/><path d="M90.153 57.652c-.101.067-.173.103-.293.181-7.595 4.849-16.457 14.31-17.365 26.104-.431 5.61 3.156 9.495 7.795 9.579 2.961.054 5.342-.997 6.631-3.007 1.072-1.672 1.346-4.248 1.52-3.058.625 4.542-1.276 8.907-2.305 12.721 1.146-.417 2.588-.626 4.033-.632h.023c1.444.006 2.881.215 4.028.632-1.028-3.814-2.926-8.179-2.303-12.721.174-1.19.447 1.386 1.518 3.058 1.289 2.01 3.67 3.061 6.631 3.007 4.638-.084 8.224-3.969 7.792-9.579-.908-11.794-9.769-21.255-17.357-26.104-.084-.062-.156-.099-.275-.181h-.073 0z" stroke="#000" stroke-width=".163" stroke-linejoin="round"/><path d="M46.925 104.423c-.102.067-.174.104-.293.18-7.596 4.849-16.456 14.308-17.364 26.099-.432 5.612 3.155 9.496 7.794 9.58 2.961.055 5.341-.998 6.63-3.007 1.073-1.672 1.346-4.249 1.52-3.057.625 4.541-1.276 8.906-2.306 12.72 1.148-.417 2.589-.626 4.035-.632h.023c1.442.006 2.881.215 4.027.632-1.027-3.814-2.925-8.179-2.302-12.72.173-1.192.446 1.385 1.516 3.057 1.289 2.009 3.671 3.062 6.631 3.007 4.639-.084 8.226-3.968 7.794-9.58-.908-11.791-9.77-21.25-17.358-26.099-.083-.06-.156-.099-.275-.18h-.072z" fill="#000"/><path d="M46.925 104.423c-.102.067-.174.104-.293.18-7.596 4.849-16.456 14.308-17.364 26.099-.432 5.612 3.155 9.496 7.794 9.58 2.961.055 5.341-.998 6.63-3.007 1.073-1.672 1.346-4.249 1.52-3.057.625 4.541-1.276 8.906-2.306 12.72 1.148-.417 2.589-.626 4.035-.632h.023c1.442.006 2.881.215 4.027.632-1.027-3.814-2.925-8.179-2.302-12.72.173-1.192.446 1.385 1.516 3.057 1.289 2.009 3.671 3.062 6.631 3.007 4.639-.084 8.226-3.968 7.794-9.58-.908-11.791-9.77-21.25-17.358-26.099-.083-.06-.156-.099-.275-.18h-.072 0z" stroke="#000" stroke-width=".163" stroke-linejoin="round"/><path d="M133.382 104.423c-.102.067-.174.102-.293.18-7.596 4.849-16.455 14.308-17.363 26.099-.434 5.612 3.154 9.496 7.793 9.58 2.961.055 5.341-.998 6.631-3.007 1.072-1.67 1.345-4.249 1.519-3.057.625 4.541-1.275 8.906-2.305 12.72 1.147-.417 2.588-.626 4.034-.632h.023c1.443.006 2.881.215 4.027.632-1.027-3.814-2.925-8.179-2.302-12.72.173-1.192.447 1.387 1.517 3.057 1.289 2.009 3.67 3.062 6.631 3.007 4.639-.084 8.225-3.968 7.793-9.58-.908-11.791-9.77-21.25-17.357-26.099-.084-.062-.157-.099-.276-.18h-.072z" fill="#000"/><path d="M133.382 104.423c-.102.067-.174.102-.293.18-7.596 4.849-16.455 14.308-17.363 26.099-.434 5.612 3.154 9.496 7.793 9.58 2.961.055 5.341-.998 6.631-3.007 1.072-1.67 1.345-4.249 1.519-3.057.625 4.541-1.275 8.906-2.305 12.72 1.147-.417 2.588-.626 4.034-.632h.023c1.443.006 2.881.215 4.027.632-1.027-3.814-2.925-8.179-2.302-12.72.173-1.192.447 1.387 1.517 3.057 1.289 2.009 3.67 3.062 6.631 3.007 4.639-.084 8.225-3.968 7.793-9.58-.908-11.791-9.77-21.25-17.357-26.099-.084-.062-.157-.099-.276-.18h-.072 0z" stroke="#000" stroke-width=".163" stroke-linejoin="round"/><path d="M46.925 224.892c-.102-.067-.174-.104-.293-.182-7.596-4.848-16.456-14.309-17.364-26.104-.432-5.609 3.155-9.494 7.794-9.578 2.961-.054 5.341.997 6.63 3.006 1.073 1.672 1.346 4.248 1.52 3.059.625-4.543-1.276-8.908-2.306-12.721 1.148.416 2.589.627 4.035.631h.023c1.442-.004 2.881-.215 4.027-.631-1.027 3.813-2.925 8.178-2.302 12.721.173 1.189.446-1.387 1.516-3.059 1.289-2.009 3.671-3.06 6.631-3.006 4.639.084 8.226 3.969 7.794 9.578-.908 11.795-9.77 21.256-17.358 26.104-.083.062-.156.1-.275.182h-.072z" fill="#000"/><path d="M46.925 224.892c-.102-.067-.174-.104-.293-.182-7.596-4.848-16.456-14.309-17.364-26.104-.432-5.609 3.155-9.494 7.794-9.578 2.961-.054 5.341.997 6.63 3.006 1.073 1.672 1.346 4.248 1.52 3.059.625-4.543-1.276-8.908-2.306-12.721 1.148.416 2.589.627 4.035.631h.023c1.442-.004 2.881-.215 4.027-.631-1.027 3.813-2.925 8.178-2.302 12.721.173 1.189.446-1.387 1.516-3.059 1.289-2.009 3.671-3.06 6.631-3.006 4.639.084 8.226 3.969 7.794 9.578-.908 11.795-9.77 21.256-17.358 26.104-.083.062-.156.1-.275.182h-.072 0z" stroke="#000" stroke-width=".163" stroke-linejoin="round"/><path d="M133.382 224.892c-.102-.069-.174-.104-.293-.182-7.596-4.85-16.455-14.31-17.363-26.104-.432-5.609 3.154-9.494 7.793-9.58 2.961-.052 5.341.999 6.631 3.008 1.072 1.672 1.345 4.248 1.519 3.059.625-4.543-1.275-8.908-2.305-12.721 1.147.416 2.588.627 4.034.631h.023c1.443-.004 2.881-.215 4.029-.631-1.029 3.813-2.927 8.178-2.304 12.721.173 1.189.449-1.387 1.517-3.059 1.289-2.009 3.67-3.06 6.631-3.008 4.639.086 8.225 3.971 7.793 9.58-.908 11.794-9.77 21.254-17.357 26.104-.084.062-.157.1-.276.182h-.072z" fill="#000"/><path d="M133.382 224.892c-.102-.069-.174-.104-.293-.182-7.596-4.85-16.455-14.31-17.363-26.104-.432-5.609 3.154-9.494 7.793-9.58 2.961-.052 5.341.999 6.631 3.008 1.072 1.672 1.345 4.248 1.519 3.059.625-4.543-1.275-8.908-2.305-12.721 1.147.416 2.588.627 4.034.631h.023c1.443-.004 2.881-.215 4.029-.631-1.029 3.813-2.927 8.178-2.304 12.721.173 1.189.449-1.387 1.517-3.059 1.289-2.009 3.67-3.06 6.631-3.008 4.639.086 8.225 3.971 7.793 9.58-.908 11.794-9.77 21.254-17.357 26.104-.084.062-.157.1-.276.182h-.072 0z" stroke="#000" stroke-width=".163" stroke-linejoin="round"/></g></svg>