<svg xmlns="http://www.w3.org/2000/svg" viewBox="0 0 180 251"><g fill="none" fill-rule="evenodd"><path d="M179.176 236.232c0 7.828-6.344 14.173-14.173 14.173H14.768c-7.828 0-14.174-6.345-14.174-14.173V15.131C.594 7.303 6.94.957 14.768.957h150.235c7.829 0 14.173 6.346 14.173 14.174v221.101z" fill="#F7F6F2"/><path d="M179.176 236.232c0 7.828-6.344 14.173-14.173 14.173H14.768c-7.828 0-14.174-6.345-14.174-14.173V15.131C.594 7.303 6.94.957 14.768.957h150.235c7.829 0 14.173 6.346 14.173 14.174v221.101h0z" stroke="#000"/><path d="M13.351 43.478c-1.864 0-3.377 1.703-3.377 3.8 0 1.201.5 2.265 1.268 2.967.26.238.148.495-.115.335-.48-.292-1.022-.477-1.607-.477-1.797 0-3.256 1.642-3.256 3.667 0 2.023 1.459 3.667 3.256 3.667 1.198 0 2.248-.73 2.811-1.818.055-.105.099-.252.177-.252.107 0 .157.176.157.503 0 1.315-.504 2.851-1.251 4.615.322-.076 1.298-.271 1.937-.271.637 0 1.613.195 1.936.271-.746-1.764-1.251-3.3-1.251-4.615 0-.327.05-.503.157-.503.077 0 .122.147.177.252.563 1.088 1.612 1.818 2.81 1.818 1.798 0 3.257-1.644 3.257-3.667 0-2.025-1.459-3.667-3.257-3.667-.584 0-1.126.185-1.606.477-.263.16-.374-.097-.115-.335.767-.702 1.268-1.766 1.268-2.967 0-2.097-1.514-3.8-3.376-3.8zM166.421 207.886c1.864 0 3.376-1.704 3.376-3.802 0-1.199-.5-2.264-1.267-2.967-.26-.237-.148-.494.115-.334.48.292 1.022.477 1.607.477 1.796 0 3.256-1.643 3.256-3.666 0-2.024-1.46-3.666-3.256-3.666-1.199 0-2.248.727-2.811 1.816-.056.106-.1.252-.177.252-.107 0-.157-.176-.157-.502 0-1.315.505-2.85 1.25-4.617-.321.077-1.298.274-1.936.274-.638 0-1.613-.197-1.936-.274.745 1.767 1.252 3.302 1.252 4.617 0 .326-.052.502-.158.502-.078 0-.123-.146-.177-.252-.563-1.089-1.612-1.816-2.811-1.816-1.797 0-3.256 1.642-3.256 3.666 0 2.023 1.459 3.666 3.256 3.666.585 0 1.126-.185 1.607-.477.263-.16.374.097.116.334-.769.703-1.269 1.768-1.269 2.967 0 2.098 1.513 3.802 3.376 3.802zM46.658 26.469c-4.659 0-8.441 4.259-8.441 9.504 0 2.999 1.252 5.66 3.17 7.417.648.593.371 1.237-.289.836-1.2-.73-2.554-1.193-4.015-1.193-4.495 0-8.142 4.107-8.142 9.166 0 5.061 3.647 9.168 8.142 9.168 2.996 0 5.618-1.823 7.025-4.542.139-.265.249-.63.444-.63.267 0 .392.437.392 1.256 0 3.287-1.262 7.126-3.127 11.538.806-.192 3.247-.678 4.841-.678 1.595 0 4.035.486 4.841.678-1.866-4.412-3.127-8.251-3.127-11.538 0-.819.125-1.256.392-1.256.195 0 .306.365.443.63 1.408 2.719 4.03 4.542 7.026 4.542 4.494 0 8.142-4.107 8.142-9.168 0-5.059-3.648-9.166-8.142-9.166-1.462 0-2.816.463-4.015 1.193-.66.401-.938-.243-.289-.836 1.918-1.757 3.169-4.418 3.169-7.417 0-5.245-3.781-9.504-8.44-9.504zM46.659 104.422c-4.66 0-8.442 4.255-8.442 9.496 0 2.999 1.252 5.662 3.17 7.42.648.595.371 1.239-.289.837-1.2-.73-2.554-1.193-4.015-1.193-4.494 0-8.142 4.108-8.142 9.167 0 5.055 3.648 9.16 8.142 9.16 2.996 0 5.618-1.822 7.025-4.538.139-.266.25-.63.445-.63.266 0 .391.436.391 1.255 0 3.283-1.262 7.125-3.127 11.544.806-.192 3.247-.679 4.842-.679 1.594 0 4.034.487 4.841.679-1.867-4.419-3.128-8.261-3.128-11.544 0-.819.125-1.255.392-1.255.195 0 .306.364.443.63 1.408 2.716 4.03 4.538 7.026 4.538 4.494 0 8.142-4.105 8.142-9.16 0-5.059-3.648-9.167-8.142-9.167-1.462 0-2.816.463-4.015 1.193-.66.402-.938-.242-.289-.837 1.919-1.758 3.169-4.421 3.169-7.42 0-5.241-3.781-9.496-8.439-9.496zM46.658 224.894c4.659 0 8.441-4.257 8.441-9.505 0-2.998-1.251-5.659-3.17-7.415-.648-.594-.371-1.24.289-.837 1.2.73 2.553 1.193 4.015 1.193 4.494 0 8.142-4.106 8.142-9.166 0-5.06-3.648-9.168-8.142-9.168-2.995 0-5.617 1.822-7.026 4.541-.137.266-.248.631-.443.631-.267 0-.392-.438-.392-1.256 0-3.287 1.261-7.126 3.127-11.538-.806.19-3.247.679-4.841.679-1.595 0-4.035-.489-4.841-.679 1.866 4.412 3.127 8.251 3.127 11.538 0 .818-.124 1.256-.391 1.256-.195 0-.306-.365-.444-.631-1.408-2.719-4.03-4.541-7.026-4.541-4.494 0-8.142 4.108-8.142 9.168s3.648 9.166 8.142 9.166c1.461 0 2.816-.463 4.015-1.193.66-.403.938.243.289.837-1.918 1.756-3.169 4.417-3.169 7.415 0 5.248 3.781 9.505 8.44 9.505zM133.114 26.47c-4.659 0-8.441 4.258-8.441 9.504 0 2.999 1.251 5.66 3.17 7.416.648.594.371 1.237-.289.836-1.2-.73-2.553-1.193-4.014-1.193-4.495 0-8.142 4.107-8.142 9.166 0 5.061 3.647 9.168 8.142 9.168 2.994 0 5.617-1.822 7.025-4.541.138-.266.249-.631.444-.631.266 0 .392.437.392 1.256 0 3.287-1.263 7.126-3.128 11.538.806-.192 3.247-.678 4.841-.678 1.596 0 4.036.486 4.843.678-1.867-4.412-3.129-8.251-3.129-11.538 0-.819.126-1.256.392-1.256.195 0 .306.365.443.631 1.408 2.719 4.03 4.541 7.026 4.541 4.495 0 8.142-4.107 8.142-9.168 0-5.059-3.647-9.166-8.142-9.166-1.461 0-2.815.463-4.014 1.193-.661.401-.938-.242-.29-.836 1.918-1.756 3.169-4.417 3.169-7.416 0-5.246-3.78-9.504-8.44-9.504zM133.114 104.422c-4.659 0-8.441 4.255-8.441 9.496 0 2.999 1.251 5.662 3.17 7.42.648.594.371 1.237-.289.837-1.2-.731-2.553-1.195-4.014-1.195-4.495 0-8.142 4.11-8.142 9.167 0 5.056 3.647 9.161 8.142 9.161 2.994 0 5.617-1.822 7.025-4.538.138-.266.249-.63.444-.63.266 0 .392.437.392 1.255 0 3.285-1.263 7.125-3.128 11.545.806-.192 3.247-.68 4.841-.68 1.596 0 4.036.488 4.843.68-1.867-4.42-3.129-8.26-3.129-11.545 0-.818.126-1.255.392-1.255.195 0 .306.364.444.63 1.407 2.716 4.029 4.538 7.025 4.538 4.495 0 8.142-4.105 8.142-9.161 0-5.057-3.647-9.167-8.142-9.167-1.461 0-2.815.464-4.014 1.195-.661.4-.938-.243-.29-.837 1.918-1.758 3.169-4.421 3.169-7.42 0-5.241-3.78-9.496-8.44-9.496zM133.113 224.894c4.661 0 8.442-4.257 8.442-9.505 0-2.998-1.252-5.659-3.17-7.415-.648-.594-.371-1.24.29-.837 1.2.73 2.553 1.193 4.014 1.193 4.495 0 8.142-4.106 8.142-9.166 0-5.06-3.647-9.168-8.142-9.168-2.996 0-5.617 1.822-7.025 4.541-.138.266-.249.631-.444.631-.266 0-.392-.438-.392-1.256 0-3.287 1.262-7.126 3.128-11.538-.806.191-3.247.679-4.843.679-1.594 0-4.034-.488-4.84-.679 1.866 4.412 3.128 8.251 3.128 11.538 0 .818-.125 1.256-.392 1.256-.195 0-.306-.365-.444-.631-1.408-2.719-4.03-4.541-7.025-4.541-4.495 0-8.142 4.108-8.142 9.168s3.647 9.166 8.142 9.166c1.461 0 2.815-.463 4.014-1.193.66-.403.938.243.289.837-1.919 1.756-3.169 4.417-3.169 7.415 0 5.248 3.782 9.505 8.439 9.505zM89.888 57.651c-4.66 0-8.442 4.256-8.442 9.5 0 2.999 1.252 5.658 3.171 7.414.647.593.37 1.236-.289.835-1.2-.729-2.554-1.192-4.016-1.192-4.494 0-8.143 4.105-8.143 9.163s3.649 9.164 8.143 9.164c2.995 0 5.618-1.822 7.026-4.54.139-.265.249-.63.444-.63.267 0 .392.437.392 1.256 0 3.285-1.261 7.128-3.127 11.55.805-.192 3.247-.68 4.841-.68 1.593 0 4.031.488 4.838.68-1.866-4.422-3.128-8.265-3.128-11.55 0-.819.126-1.256.392-1.256.194 0 .306.365.444.63 1.406 2.718 4.029 4.54 7.026 4.54 4.495 0 8.142-4.106 8.142-9.164s-3.647-9.163-8.142-9.163c-1.461 0-2.816.463-4.015 1.192-.66.401-.938-.242-.289-.835 1.918-1.756 3.17-4.415 3.17-7.414 0-5.244-3.782-9.5-8.438-9.5z" fill="#010000"/><path d="M6.265 15.131v1.441h-.002v2.453l2.227-.001-.002-1.487h9.345c-1.449 2.656-5.353 10.627-6.765 21.688l2.238-.001c.83-6.523 2.253-11.626 3.879-15.41a49.715 49.715 0 012.125-4.374c.276-.502.501-.884.655-1.137.162-.266.432-.705.471-.766v-2.406H6.265zM173.505 236.232v-1.442h.002v-2.452l-2.226.002.002 1.486h-9.345c1.448-2.657 5.353-10.628 6.765-21.688l-2.239.001c-.83 6.522-2.253 11.627-3.878 15.41a50.192 50.192 0 01-2.125 4.375c-.277.501-.501.883-.656 1.136-.161.265-.431.705-.47.766v2.406h14.17z" fill="#000"/></g></svg>