<svg xmlns="http://www.w3.org/2000/svg" viewBox="0 0 180 251"><g fill="none" fill-rule="evenodd"><path d="M179.469 236.228c0 7.828-6.345 14.173-14.174 14.173H15.06c-7.828 0-14.174-6.345-14.174-14.173V15.133C.886 7.305 7.232.959 15.06.959h150.235c7.829 0 14.174 6.346 14.174 14.174v221.095z" fill="#F7F6F2"/><path d="M179.469 236.228c0 7.828-6.345 14.173-14.174 14.173H15.06c-7.828 0-14.174-6.345-14.174-14.173V15.133C.886 7.305 7.232.959 15.06.959h150.235c7.829 0 14.174 6.346 14.174 14.174v221.095h0z" stroke="#000"/><path d="M13.654 43.48c1.787 3.47 4.145 6.308 7.076 8.512-2.931 2.207-5.289 5.038-7.076 8.495-1.802-3.457-4.168-6.288-7.098-8.495 2.93-2.204 5.296-5.042 7.098-8.512zM166.723 190.873c1.787 3.47 4.147 6.308 7.076 8.513-2.929 2.206-5.289 5.038-7.076 8.495-1.803-3.457-4.168-6.289-7.097-8.495 2.929-2.205 5.294-5.043 7.097-8.513zM46.974 26.471c4.469 8.675 10.366 15.77 17.692 21.283-7.326 5.517-13.223 12.595-17.692 21.237-4.502-8.642-10.416-15.72-17.741-21.237 7.325-5.513 13.239-12.608 17.741-21.283zM46.975 104.424c4.467 8.674 10.364 15.769 17.691 21.274-7.327 5.514-13.224 12.596-17.691 21.239-4.503-8.643-10.418-15.725-17.742-21.239 7.324-5.505 13.239-12.6 17.742-21.274zM46.975 182.369c4.468 8.675 10.364 15.769 17.691 21.282-7.327 5.518-13.223 12.596-17.691 21.238-4.503-8.642-10.417-15.72-17.742-21.238 7.325-5.513 13.239-12.607 17.742-21.282zM133.43 26.471c4.469 8.675 10.365 15.77 17.692 21.283-7.327 5.517-13.223 12.595-17.692 21.237-4.502-8.642-10.416-15.72-17.74-21.237 7.324-5.513 13.238-12.608 17.74-21.283zM133.43 104.424c4.469 8.676 10.365 15.769 17.692 21.274-7.327 5.512-13.223 12.596-17.692 21.239-4.502-8.643-10.416-15.727-17.74-21.239 7.324-5.505 13.238-12.598 17.74-21.274zM133.43 182.369c4.469 8.675 10.365 15.77 17.692 21.282-7.327 5.517-13.223 12.596-17.692 21.238-4.502-8.642-10.416-15.721-17.74-21.238 7.324-5.512 13.238-12.607 17.74-21.282zM90.202 57.652c4.47 8.675 10.365 15.77 17.691 21.284-7.326 5.516-13.221 12.594-17.691 21.236-4.502-8.642-10.416-15.72-17.741-21.236 7.325-5.514 13.239-12.609 17.741-21.284zM6.558 15.132v1.443h-.002v2.452l2.226-.002-.002-1.486h9.345c-1.448 2.656-5.352 10.628-6.764 21.688l2.238-.001c.83-6.523 2.253-11.627 3.879-15.41a49.615 49.615 0 012.125-4.375c.276-.501.501-.883.655-1.136.161-.265.432-.705.471-.766v-2.407H6.558zM173.797 236.228v-1.443h.002v-2.452l-2.226.002.002 1.486h-9.346c1.449-2.656 5.354-10.628 6.766-21.688l-2.238.001c-.831 6.523-2.253 11.627-3.879 15.41a50.192 50.192 0 01-2.125 4.375 35.85 35.85 0 01-1.127 1.902v2.407h14.171z" fill="#D33D43"/></g></svg>