<svg xmlns="http://www.w3.org/2000/svg" viewBox="0 0 180 251"><g fill="none" fill-rule="evenodd"><path d="M179.084 236.233c0 7.827-6.346 14.172-14.174 14.172H14.673C6.846 250.405.5 244.06.5 236.233V15.13C.5 7.302 6.846.957 14.673.957H164.91c7.828 0 14.174 6.345 14.174 14.173v221.103z" fill="#F7F6F2"/><path d="M179.084 236.233c0 7.827-6.346 14.172-14.174 14.172H14.673C6.846 250.405.5 244.06.5 236.233V15.13C.5 7.302 6.846.957 14.673.957H164.91c7.828 0 14.174 6.345 14.174 14.173v221.103h0z" stroke="#000"/><path d="M17.23 43.576c-1.247-.387-3.185.295-3.898 3.122-.06.155-.122.152-.178-.005-1.028-2.865-2.722-3.491-3.913-3.117-1.764.569-3.194 2.673-3.063 5.356.035 4.685 4.227 7.045 7.058 11.524 2.83-4.479 7.068-6.832 7.081-11.537.245-2.712-1.274-4.785-3.087-5.343zM13.254 60.484l-.018-.028-.02.028h.038zM166.33 190.878l.018.028.019-.028h-.037zM166.348 190.906c-2.83 4.481-7.069 6.832-7.082 11.537-.245 2.713 1.275 4.786 3.087 5.344 1.246.387 3.186-.295 3.899-3.123.06-.154.123-.15.178.006 1.029 2.865 2.722 3.49 3.911 3.117 1.766-.569 3.196-2.674 3.065-5.357-.035-4.684-4.228-7.043-7.058-11.524zM46.558 66.154l-.047-.073-.048.073h.095zM56.498 23.883c-3.118-.968-7.965.736-9.746 7.805-.148.387-.305.379-.446-.014-2.569-7.162-6.803-8.726-9.782-7.791-4.41 1.423-7.984 6.682-7.657 13.391.088 11.711 10.569 17.608 17.644 28.807 7.076-11.199 17.674-17.079 17.704-28.841.613-6.779-3.183-11.961-7.717-13.357zM46.568 182.375l.047.073.048-.073h-.095z" fill="#D33D43"/><path d="M64.259 211.254c-.088-11.711-10.568-17.607-17.644-28.806-7.075 11.199-17.674 17.078-17.703 28.839-.613 6.781 3.183 11.962 7.717 13.358 3.117.968 7.964-.735 9.746-7.805.148-.387.304-.379.445.014 2.569 7.162 6.804 8.727 9.783 7.791 4.409-1.422 7.983-6.681 7.656-13.391zM133.015 145.524c-.015-.026-.032-.049-.048-.075-.015.026-.032.049-.047.075h.095zM142.954 103.254c-3.117-.969-7.964.735-9.745 7.803-.149.387-.305.378-.446-.014-2.57-7.162-6.803-8.725-9.783-7.789-4.41 1.422-7.984 6.679-7.656 13.387.088 11.716 10.568 17.613 17.643 28.808 7.077-11.195 17.674-17.077 17.704-28.841.614-6.779-3.183-11.959-7.717-13.354zM142.955 23.883c-3.118-.968-7.966.736-9.747 7.805-.148.387-.304.379-.445-.014-2.57-7.162-6.804-8.726-9.783-7.791-4.41 1.423-7.984 6.682-7.656 13.391.088 11.71 10.568 17.607 17.643 28.806 7.077-11.198 17.673-17.078 17.704-28.84.613-6.779-3.183-11.961-7.716-13.357zM133.015 66.154c-.015-.025-.032-.049-.048-.074l-.047.074h.095zM133.025 182.375l.047.072.047-.072h-.094zM150.716 211.254c-.087-11.711-10.568-17.608-17.644-28.807-7.074 11.199-17.674 17.079-17.703 28.84-.614 6.781 3.183 11.962 7.717 13.358 3.117.968 7.964-.735 9.746-7.805.148-.387.304-.379.445.014 2.57 7.162 6.803 8.727 9.783 7.791 4.41-1.422 7.983-6.681 7.656-13.391zM46.558 145.524l-.047-.074-.048.074h.095zM56.498 103.254c-3.118-.969-7.965.735-9.746 7.803-.148.387-.305.378-.446-.013-2.569-7.163-6.803-8.726-9.782-7.79-4.41 1.422-7.984 6.679-7.657 13.389.088 11.716 10.568 17.611 17.644 28.807 7.075-11.195 17.674-17.076 17.704-28.842.613-6.779-3.184-11.959-7.717-13.354zM18.519 24.449a6.592 6.592 0 00-2.235-1.892 6.402 6.402 0 00-2.941-.689h-.076a6.2 6.2 0 00-2.949.768c-.581.322-1.1.737-1.561 1.219a24.92 24.92 0 01.486-2.285c.049-.181.088-.318.115-.409l.029-.097.007-.021.002-.002v-.002l.01-.029.006-.026.002-.006a5.93 5.93 0 01.913-1.736c.319-.417.726-.82 1.237-1.128.511-.309 1.129-.531 1.924-.576.111-.006.218-.008.323-.008 1.412.004 2.339.502 2.952.986.304.243.523.485.66.656.067.086.115.154.144.194l.024.04.002.003.544-.387 1.304-.895c-.053-.09-.477-.818-1.391-1.55-.909-.732-2.333-1.451-4.239-1.447-.14 0-.284.004-.432.012a6.12 6.12 0 00-2.946.917c-1.203.753-1.969 1.802-2.44 2.649a7.962 7.962 0 00-.664 1.55c-.113.36-1.157 3.746-1.159 8.375 0 .851.044 1.749.127 2.672.096 2.108.758 4.013 1.9 5.435 1.226 1.539 3.025 2.485 5.058 2.485h.023a6.246 6.246 0 002.951-.723c1.324-.699 2.363-1.864 3.056-3.267.696-1.405 1.056-3.052 1.058-4.785-.002-2.286-.616-4.41-1.824-6.001zm-1.726 10.574a4.606 4.606 0 01-1.513 1.318 4.223 4.223 0 01-2.002.484c-1.443-.007-2.59-.622-3.441-1.671-.746-.928-1.245-2.225-1.351-3.762l.011-.001c-.01-.094-.013-.182-.021-.275-.005-.114-.012-.226-.012-.343-.002-1.829.501-3.486 1.342-4.64a4.648 4.648 0 011.496-1.354 4.136 4.136 0 011.986-.511h.055c.776.001 1.442.17 2.018.464.863.443 1.545 1.173 2.033 2.152.485.977.763 2.204.763 3.566.001 1.823-.514 3.446-1.364 4.573zM161.064 226.912a6.584 6.584 0 002.235 1.893 6.402 6.402 0 002.941.689h.076a6.188 6.188 0 002.949-.768c.58-.322 1.1-.738 1.561-1.218a24.84 24.84 0 01-.601 2.693l-.029.098a.185.185 0 00-.007.019c0 .002-.002.002-.002.002v.002l-.01.03-.006.027-.001.005v.001a5.984 5.984 0 01-.913 1.735c-.32.417-.727.82-1.238 1.128-.511.309-1.129.531-1.924.576a5.949 5.949 0 01-.323.008c-1.411-.004-2.339-.502-2.952-.986a4.174 4.174 0 01-.66-.656 4.558 4.558 0 01-.143-.194l-.025-.04-.002-.003-.544.387-1.304.894c.053.091.478.819 1.391 1.551.91.733 2.333 1.451 4.239 1.448.14 0 .284-.004.433-.013a6.12 6.12 0 002.945-.917c1.203-.752 1.97-1.803 2.44-2.649a7.868 7.868 0 00.664-1.55c.113-.36 1.158-3.746 1.16-8.375 0-.85-.044-1.748-.127-2.672-.097-2.108-.759-4.012-1.901-5.436-1.226-1.539-3.025-2.484-5.058-2.484h-.023a6.276 6.276 0 00-2.952.722c-1.322.7-2.361 1.866-3.054 3.268-.696 1.404-1.057 3.053-1.059 4.785.002 2.285.615 4.41 1.824 6zm1.727-10.572a4.584 4.584 0 011.512-1.319 4.209 4.209 0 012.002-.484c1.443.006 2.59.621 3.441 1.67.746.93 1.245 2.227 1.351 3.764h-.011c.009.093.013.181.021.275.004.113.013.227.013.344.002 1.828-.503 3.484-1.343 4.639a4.638 4.638 0 01-1.496 1.354 4.136 4.136 0 01-1.986.511h-.055a4.37 4.37 0 01-2.018-.464c-.863-.442-1.545-1.173-2.033-2.151-.486-.979-.763-2.205-.763-3.567-.001-1.822.514-3.445 1.365-4.572z" fill="#D33D43"/></g></svg>