<svg xmlns="http://www.w3.org/2000/svg" viewBox="0 0 180 251"><g fill="none" fill-rule="evenodd"><path d="M179.082 236.232c0 7.828-6.345 14.173-14.173 14.173H14.673C6.846 250.405.5 244.06.5 236.232V15.131C.5 7.303 6.846.957 14.673.957h150.236c7.828 0 14.173 6.346 14.173 14.174v221.101z" fill="#F7F6F2"/><path d="M179.082 236.232c0 7.828-6.345 14.173-14.173 14.173H14.673C6.846 250.405.5 244.06.5 236.232V15.131C.5 7.303 6.846.957 14.673.957h150.236c7.828 0 14.173 6.346 14.173 14.174v221.101h0z" stroke="#000"/><path d="M13.256 43.478c-1.863 0-3.377 1.702-3.377 3.801 0 1.2.501 2.264 1.269 2.966.259.238.148.495-.116.335-.48-.292-1.021-.477-1.606-.477-1.797 0-3.256 1.642-3.256 3.667 0 2.023 1.459 3.667 3.256 3.667 1.198 0 2.248-.729 2.81-1.817.056-.107.1-.253.178-.253.107 0 .157.175.157.503 0 1.315-.505 2.851-1.252 4.615.323-.076 1.299-.271 1.937-.271.638 0 1.614.195 1.936.271-.745-1.764-1.251-3.3-1.251-4.615 0-.328.05-.503.158-.503.077 0 .122.146.177.253.563 1.088 1.612 1.817 2.81 1.817 1.798 0 3.257-1.644 3.257-3.667 0-2.025-1.459-3.667-3.257-3.667-.584 0-1.126.185-1.606.477-.264.16-.374-.097-.116-.335.768-.702 1.269-1.766 1.269-2.966 0-2.099-1.514-3.801-3.377-3.801zM166.327 207.886c1.863 0 3.376-1.704 3.376-3.802 0-1.198-.5-2.264-1.267-2.967-.26-.237-.148-.494.115-.334.479.293 1.021.477 1.606.477 1.797 0 3.257-1.643 3.257-3.666 0-2.024-1.46-3.666-3.257-3.666-1.198 0-2.247.728-2.81 1.816-.056.106-.1.252-.177.252-.107 0-.157-.175-.157-.503 0-1.313.505-2.85 1.25-4.616-.322.077-1.298.273-1.936.273-.638 0-1.613-.196-1.936-.273.745 1.766 1.252 3.303 1.252 4.616 0 .328-.052.503-.158.503-.079 0-.124-.146-.177-.252-.563-1.088-1.613-1.816-2.811-1.816-1.798 0-3.257 1.642-3.257 3.666 0 2.023 1.459 3.666 3.257 3.666.585 0 1.126-.184 1.607-.477.263-.16.374.097.116.334-.769.703-1.269 1.769-1.269 2.967 0 2.098 1.513 3.802 3.376 3.802zM46.565 26.573c-4.661 0-8.442 4.258-8.442 9.504 0 2.999 1.252 5.66 3.17 7.417.647.593.371 1.237-.289.836-1.2-.729-2.554-1.193-4.016-1.193-4.493 0-8.141 4.107-8.141 9.167s3.648 9.168 8.141 9.168c2.996 0 5.619-1.823 7.026-4.542.139-.266.25-.631.444-.631.267 0 .392.437.392 1.256 0 3.287-1.262 7.126-3.127 11.538.805-.192 3.247-.678 4.842-.678 1.593 0 4.035.486 4.84.678-1.866-4.412-3.127-8.251-3.127-11.538 0-.819.125-1.256.392-1.256.194 0 .306.365.443.631 1.408 2.719 4.03 4.542 7.026 4.542 4.494 0 8.141-4.108 8.141-9.168s-3.647-9.167-8.141-9.167c-1.462 0-2.817.464-4.015 1.193-.66.401-.938-.243-.289-.836 1.918-1.757 3.169-4.418 3.169-7.417 0-5.246-3.781-9.504-8.439-9.504zM46.565 104.474c-4.661 0-8.442 4.253-8.442 9.492 0 3 1.252 5.668 3.17 7.428.647.593.371 1.24-.289.837-1.2-.731-2.554-1.195-4.016-1.195-4.493 0-8.141 4.115-8.141 9.172 0 5.054 3.648 9.157 8.141 9.157 2.996 0 5.619-1.82 7.026-4.537.139-.265.25-.63.444-.63.267 0 .392.437.392 1.255 0 3.283-1.262 7.123-3.127 11.54.805-.192 3.247-.679 4.842-.679 1.593 0 4.035.487 4.84.679-1.866-4.417-3.127-8.257-3.127-11.54 0-.818.125-1.255.392-1.255.194 0 .306.365.443.63 1.408 2.717 4.03 4.537 7.026 4.537 4.494 0 8.141-4.103 8.141-9.157 0-5.057-3.647-9.172-8.141-9.172-1.462 0-2.817.464-4.015 1.195-.66.403-.938-.244-.289-.837 1.918-1.76 3.169-4.428 3.169-7.428 0-5.239-3.781-9.492-8.439-9.492zM46.564 224.894c4.659 0 8.441-4.258 8.441-9.505 0-2.998-1.252-5.659-3.17-7.415-.648-.593-.371-1.238.289-.837 1.199.73 2.553 1.193 4.015 1.193 4.494 0 8.141-4.105 8.141-9.166 0-5.06-3.647-9.168-8.141-9.168-2.995 0-5.618 1.822-7.026 4.541-.137.266-.249.632-.443.632-.267 0-.392-.439-.392-1.257 0-3.286 1.261-7.125 3.127-11.538-.805.193-3.247.679-4.841.679-1.595 0-4.036-.486-4.841-.679 1.866 4.413 3.127 8.252 3.127 11.538 0 .818-.124 1.257-.392 1.257-.194 0-.305-.366-.443-.632-1.408-2.719-4.031-4.541-7.026-4.541-4.494 0-8.142 4.108-8.142 9.168 0 5.061 3.648 9.166 8.142 9.166 1.461 0 2.816-.463 4.015-1.193.66-.401.937.244.289.837-1.918 1.756-3.169 4.417-3.169 7.415 0 5.247 3.781 9.505 8.44 9.505zM133.02 26.47c-4.66 0-8.441 4.258-8.441 9.503 0 2.999 1.251 5.66 3.169 7.417.648.593.371 1.237-.288.836-1.2-.73-2.554-1.193-4.016-1.193-4.494 0-8.141 4.107-8.141 9.167s3.647 9.167 8.141 9.167c2.996 0 5.619-1.822 7.026-4.541.138-.266.249-.631.444-.631.267 0 .393.437.393 1.256 0 3.287-1.264 7.126-3.129 11.538.806-.191 3.247-.678 4.842-.678 1.594 0 4.035.487 4.841.678-1.866-4.412-3.128-8.251-3.128-11.538 0-.819.125-1.256.392-1.256.194 0 .307.365.443.631 1.408 2.719 4.03 4.541 7.027 4.541 4.494 0 8.14-4.107 8.14-9.167s-3.646-9.167-8.14-9.167c-1.461 0-2.816.463-4.015 1.193-.661.401-.937-.243-.289-.836 1.918-1.757 3.169-4.418 3.169-7.417 0-5.245-3.781-9.503-8.44-9.503zM133.02 104.422c-4.66 0-8.441 4.253-8.441 9.492 0 2.999 1.251 5.666 3.169 7.426.648.595.371 1.239-.288.839-1.2-.733-2.554-1.197-4.016-1.197-4.494 0-8.141 4.116-8.141 9.173 0 5.054 3.647 9.157 8.141 9.157 2.996 0 5.619-1.82 7.026-4.536.138-.266.249-.629.444-.629.267 0 .393.436.393 1.253 0 3.284-1.264 7.124-3.129 11.542.806-.194 3.247-.68 4.842-.68 1.594 0 4.035.486 4.841.68-1.866-4.418-3.128-8.258-3.128-11.542 0-.817.125-1.253.392-1.253.194 0 .307.363.443.629 1.408 2.716 4.03 4.536 7.027 4.536 4.494 0 8.14-4.103 8.14-9.157 0-5.057-3.646-9.173-8.14-9.173-1.461 0-2.816.464-4.015 1.197-.661.4-.937-.244-.289-.839 1.918-1.76 3.169-4.427 3.169-7.426 0-5.239-3.781-9.492-8.44-9.492zM133.019 224.894c4.66 0 8.442-4.257 8.442-9.505 0-2.998-1.252-5.659-3.17-7.414-.648-.594-.372-1.24.289-.838 1.2.73 2.554 1.194 4.015 1.194 4.494 0 8.14-4.106 8.14-9.167 0-5.06-3.646-9.168-8.14-9.168-2.997 0-5.618 1.822-7.027 4.541-.136.266-.249.631-.443.631-.267 0-.392-.438-.392-1.256 0-3.286 1.262-7.126 3.127-11.538-.805.193-3.246.679-4.841.679-1.594 0-4.035-.486-4.841-.679 1.866 4.412 3.129 8.252 3.129 11.538 0 .818-.126 1.256-.393 1.256-.195 0-.306-.365-.443-.631-1.408-2.719-4.031-4.541-7.026-4.541-4.495 0-8.142 4.108-8.142 9.168 0 5.061 3.647 9.167 8.142 9.167 1.461 0 2.815-.464 4.015-1.194.659-.402.938.244.288.838-1.918 1.755-3.169 4.416-3.169 7.414 0 5.248 3.781 9.505 8.44 9.505z" fill="#010000"/><path d="M18.52 24.449a6.605 6.605 0 00-2.236-1.892 6.405 6.405 0 00-2.941-.689l-.075.001a6.178 6.178 0 00-2.95.768c-.581.321-1.1.736-1.561 1.218a24.932 24.932 0 01.486-2.285 20.125 20.125 0 01.144-.505l.008-.022.001-.002v-.002l.01-.029.006-.026.002-.005v-.001c.023-.083.296-.936.912-1.736a4.55 4.55 0 011.238-1.128 4.074 4.074 0 011.924-.576c.112-.006.218-.008.323-.008 1.412.004 2.339.502 2.952.987.304.243.523.484.66.655.067.086.115.154.144.195l.024.039.003.003.543-.387 1.304-.895c-.053-.09-.477-.818-1.391-1.55-.909-.732-2.332-1.45-4.239-1.446-.14 0-.285.003-.432.012a6.099 6.099 0 00-2.945.916c-1.203.753-1.971 1.802-2.441 2.649a7.962 7.962 0 00-.664 1.55c-.113.36-1.157 3.747-1.16 8.376 0 .85.044 1.748.128 2.672.096 2.108.758 4.012 1.899 5.435 1.227 1.539 3.026 2.484 5.06 2.484h.021a6.25 6.25 0 002.953-.722c1.323-.7 2.362-1.864 3.055-3.267.696-1.405 1.057-3.052 1.058-4.786-.001-2.286-.615-4.41-1.823-6.001zm-1.727 10.575a4.61 4.61 0 01-1.514 1.318 4.218 4.218 0 01-2.002.484c-1.442-.007-2.589-.622-3.44-1.671-.746-.929-1.245-2.225-1.351-3.762l.011-.002c-.01-.093-.013-.182-.021-.274-.004-.115-.013-.227-.013-.345-.002-1.828.503-3.485 1.343-4.638a4.64 4.64 0 011.496-1.355 4.133 4.133 0 011.986-.51l.055-.001a4.394 4.394 0 012.018.464c.864.443 1.545 1.173 2.033 2.152.486.977.762 2.204.762 3.566.002 1.822-.512 3.447-1.363 4.574zM161.064 226.913a6.595 6.595 0 002.235 1.893 6.4 6.4 0 002.94.688h.076a6.2 6.2 0 002.95-.768 6.613 6.613 0 001.56-1.218 25.052 25.052 0 01-.485 2.284 18.403 18.403 0 01-.145.507l-.006.02-.002.002v.002l-.01.03-.007.026-.002.005v.001a5.9 5.9 0 01-.912 1.735 4.5 4.5 0 01-1.237 1.128c-.511.309-1.129.531-1.924.576a5.973 5.973 0 01-.323.008c-1.412-.004-2.339-.502-2.952-.986a4.219 4.219 0 01-.66-.656c-.067-.085-.115-.154-.143-.194l-.026-.04-.002-.003-.544.388-1.303.894c.052.09.477.819 1.391 1.55.909.733 2.332 1.451 4.239 1.447.14 0 .284-.003.432-.012a6.116 6.116 0 002.945-.916c1.204-.753 1.97-1.803 2.44-2.65a7.929 7.929 0 00.665-1.549c.112-.361 1.157-3.747 1.159-8.376 0-.85-.044-1.748-.128-2.672-.095-2.108-.757-4.012-1.899-5.435-1.227-1.54-3.026-2.484-5.059-2.484h-.022a6.253 6.253 0 00-2.951.721c-1.324.701-2.363 1.866-3.056 3.268-.695 1.405-1.057 3.053-1.058 4.785.001 2.286.616 4.41 1.824 6.001zm1.726-10.573a4.609 4.609 0 011.513-1.319 4.223 4.223 0 012.002-.484c1.443.007 2.59.621 3.44 1.671.746.929 1.245 2.226 1.352 3.763l-.011.001c.01.092.012.181.021.274.004.114.012.227.012.344.002 1.828-.502 3.485-1.342 4.639-.421.579-.921 1.036-1.497 1.354a4.14 4.14 0 01-1.985.511l-.056.001a4.378 4.378 0 01-2.017-.465c-.864-.442-1.545-1.173-2.033-2.151-.486-.978-.763-2.204-.763-3.567-.001-1.822.514-3.445 1.364-4.572z" fill="#000"/></g></svg>