<svg xmlns="http://www.w3.org/2000/svg" viewBox="0 0 180 251"><g fill="none" fill-rule="evenodd"><path d="M179.083 236.23c0 7.829-6.346 14.174-14.174 14.174H14.673C6.846 250.404.5 244.059.5 236.23V15.132C.5 7.304 6.846.958 14.673.958h150.236c7.828 0 14.174 6.346 14.174 14.174V236.23z" fill="#F7F6F2"/><path d="M179.083 236.23c0 7.829-6.346 14.174-14.174 14.174H14.673C6.846 250.404.5 244.059.5 236.23V15.132C.5 7.304 6.846.958 14.673.958h150.236c7.828 0 14.174 6.346 14.174 14.174V236.23h0z" stroke="#000"/><path d="M18.519 24.451a6.573 6.573 0 00-2.235-1.892 6.39 6.39 0 00-2.941-.689h-.076a6.189 6.189 0 00-2.949.769c-.581.321-1.1.736-1.561 1.218a25.086 25.086 0 01.486-2.285c.049-.181.088-.318.115-.409l.029-.097.007-.021.002-.002v-.002l.01-.029.006-.027.002-.005a5.93 5.93 0 01.913-1.736c.319-.417.726-.82 1.237-1.128a4.074 4.074 0 011.924-.576c.111-.006.218-.008.323-.008 1.412.004 2.339.502 2.952.987.304.242.523.484.661.655.067.086.115.154.143.194a.775.775 0 01.024.04l.002.003.544-.387 1.304-.895c-.053-.09-.477-.818-1.391-1.55-.909-.732-2.333-1.451-4.239-1.447-.14 0-.284.004-.432.013a6.11 6.11 0 00-2.946.916c-1.203.752-1.969 1.802-2.44 2.649a7.962 7.962 0 00-.664 1.55c-.113.36-1.157 3.746-1.159 8.376 0 .849.044 1.748.127 2.671.096 2.108.758 4.012 1.9 5.435 1.226 1.539 3.025 2.485 5.058 2.485h.023a6.246 6.246 0 002.951-.723c1.324-.699 2.363-1.864 3.057-3.267.695-1.405 1.055-3.052 1.057-4.785-.002-2.286-.616-4.41-1.824-6.001zm-1.726 10.573a4.612 4.612 0 01-1.513 1.32 4.235 4.235 0 01-2.002.483c-1.443-.007-2.59-.622-3.441-1.671-.746-.928-1.245-2.225-1.351-3.762l.011-.001c-.01-.093-.013-.182-.021-.275-.005-.114-.012-.226-.012-.343-.002-1.829.501-3.486 1.342-4.639a4.64 4.64 0 011.496-1.355 4.136 4.136 0 011.986-.511h.055c.776.001 1.442.17 2.018.464.863.443 1.545 1.173 2.033 2.152.485.977.763 2.204.763 3.566.001 1.823-.514 3.445-1.364 4.572zM161.064 226.912a6.614 6.614 0 002.234 1.893 6.407 6.407 0 002.941.687h.077a6.199 6.199 0 002.949-.767 6.617 6.617 0 001.56-1.219 24.22 24.22 0 01-.127.707c-.13.678-.261 1.215-.357 1.578l-.115.408-.03.098-.007.021-.002.002v.002l-.01.03-.006.025-.002.006a5.955 5.955 0 01-.912 1.736c-.32.416-.727.819-1.238 1.127-.512.309-1.129.531-1.924.576a5.987 5.987 0 01-.322.008c-1.412-.004-2.34-.502-2.953-.986a4.373 4.373 0 01-.661-.654 3.643 3.643 0 01-.142-.196l-.026-.039-.002-.004-.543.389-1.304.894c.053.09.478.819 1.39 1.549.91.733 2.334 1.451 4.241 1.447.138 0 .283-.003.431-.011a6.131 6.131 0 002.946-.916c1.203-.754 1.97-1.803 2.439-2.651a7.832 7.832 0 00.664-1.548c.113-.362 1.158-3.748 1.16-8.377 0-.85-.043-1.748-.127-2.672-.095-2.108-.757-4.012-1.9-5.434-1.227-1.541-3.026-2.484-5.059-2.484h-.021a6.249 6.249 0 00-2.953.72c-1.323.702-2.362 1.866-3.055 3.268-.695 1.406-1.057 3.053-1.059 4.785.002 2.287.616 4.41 1.825 6.002zm1.726-10.574a4.587 4.587 0 011.514-1.318 4.215 4.215 0 012.002-.485c1.441.008 2.59.621 3.439 1.672.746.928 1.246 2.225 1.352 3.762l-.012.002c.01.092.014.181.022.273.004.115.013.227.013.344.002 1.828-.504 3.486-1.343 4.639-.42.58-.92 1.037-1.497 1.355a4.142 4.142 0 01-1.984.51l-.057.002a4.403 4.403 0 01-2.017-.465c-.864-.443-1.545-1.174-2.033-2.152-.487-.977-.762-2.204-.762-3.567-.002-1.822.514-3.445 1.363-4.572zM13.247 43.479c-.041.026-.071.041-.117.072-3.039 1.939-6.583 5.724-6.947 10.441-.173 2.244 1.263 3.798 3.118 3.832 1.184.022 2.137-.399 2.653-1.203.428-.669.538-1.699.607-1.223.25 1.817-.511 3.563-.922 5.088.459-.167 1.035-.251 1.614-.253h.009c.577.002 1.153.086 1.611.253-.411-1.525-1.17-3.271-.921-5.088.069-.476.178.554.606 1.223.516.804 1.469 1.225 2.653 1.203 1.855-.034 3.291-1.588 3.118-3.832-.365-4.717-3.909-8.502-6.944-10.441-.033-.026-.062-.04-.11-.072h-.028z" fill="#000"/><path d="M13.247 43.479c-.041.026-.071.041-.117.072-3.039 1.939-6.583 5.724-6.947 10.441-.173 2.244 1.263 3.798 3.118 3.832 1.184.022 2.137-.399 2.653-1.203.428-.669.538-1.699.607-1.223.25 1.817-.511 3.563-.922 5.088.459-.167 1.035-.251 1.614-.253h.009c.577.002 1.153.086 1.611.253-.411-1.525-1.17-3.271-.921-5.088.069-.476.178.554.606 1.223.516.804 1.469 1.225 2.653 1.203 1.855-.034 3.291-1.588 3.118-3.832-.365-4.717-3.909-8.502-6.944-10.441-.033-.026-.062-.04-.11-.072h-.028 0z" stroke="#000" stroke-width=".065" stroke-linejoin="round"/><path d="M166.317 207.885c-.041-.028-.07-.041-.117-.072-3.039-1.94-6.584-5.725-6.947-10.442-.172-2.244 1.264-3.799 3.119-3.832 1.184-.021 2.137.399 2.653 1.203.427.668.537 1.7.607 1.223.25-1.817-.512-3.563-.922-5.088.459.166 1.035.25 1.613.252h.01c.576-.002 1.153-.086 1.61-.252-.411 1.525-1.17 3.271-.92 5.088.068.477.177-.555.605-1.223.516-.804 1.469-1.224 2.654-1.203 1.856.033 3.291 1.588 3.118 3.832-.364 4.717-3.909 8.502-6.944 10.442-.033.023-.062.039-.111.072h-.028z" fill="#000"/><path d="M166.317 207.885c-.041-.028-.07-.041-.117-.072-3.039-1.94-6.584-5.725-6.947-10.442-.172-2.244 1.264-3.799 3.119-3.832 1.184-.021 2.137.399 2.653 1.203.427.668.537 1.7.607 1.223.25-1.817-.512-3.563-.922-5.088.459.166 1.035.25 1.613.252h.01c.576-.002 1.153-.086 1.61-.252-.411 1.525-1.17 3.271-.92 5.088.068.477.177-.555.605-1.223.516-.804 1.469-1.224 2.654-1.203 1.856.033 3.291 1.588 3.118 3.832-.364 4.717-3.909 8.502-6.944 10.442-.033.023-.062.039-.111.072h-.028 0z" stroke="#000" stroke-width=".065" stroke-linejoin="round"/><path d="M46.539 26.471c-.102.066-.175.102-.293.18-7.595 4.849-16.456 14.31-17.364 26.104-.432 5.61 3.155 9.495 7.793 9.579 2.961.055 5.342-.997 6.633-3.007 1.072-1.672 1.345-4.248 1.519-3.057.625 4.542-1.277 8.907-2.306 12.72 1.147-.417 2.59-.627 4.033-.631h.024c1.443.004 2.882.214 4.028.631-1.029-3.813-2.927-8.178-2.303-12.72.173-1.191.446 1.385 1.516 3.057 1.289 2.01 3.67 3.062 6.631 3.007 4.639-.084 8.226-3.969 7.794-9.579-.909-11.794-9.769-21.255-17.358-26.104-.082-.062-.155-.099-.275-.18h-.072z" fill="#000"/><path d="M46.539 26.471c-.102.066-.175.102-.293.18-7.595 4.849-16.456 14.31-17.364 26.104-.432 5.61 3.155 9.495 7.793 9.579 2.961.055 5.342-.997 6.633-3.007 1.072-1.672 1.345-4.248 1.519-3.057.625 4.542-1.277 8.907-2.306 12.72 1.147-.417 2.59-.627 4.033-.631h.024c1.443.004 2.882.214 4.028.631-1.029-3.813-2.927-8.178-2.303-12.72.173-1.191.446 1.385 1.516 3.057 1.289 2.01 3.67 3.062 6.631 3.007 4.639-.084 8.226-3.969 7.794-9.579-.909-11.794-9.769-21.255-17.358-26.104-.082-.062-.155-.099-.275-.18h-.072 0z" stroke="#000" stroke-width=".163" stroke-linejoin="round"/><path d="M132.995 26.47c-.101.067-.174.103-.293.181-7.595 4.849-16.455 14.31-17.363 26.104-.434 5.61 3.154 9.494 7.793 9.579 2.961.054 5.342-.998 6.631-3.007 1.072-1.672 1.345-4.248 1.519-3.057.625 4.541-1.275 8.906-2.304 12.719 1.146-.417 2.588-.627 4.033-.632h.023c1.444.005 2.881.215 4.028.632-1.028-3.813-2.926-8.178-2.303-12.719.174-1.191.447 1.385 1.518 3.057 1.289 2.009 3.669 3.061 6.63 3.007 4.639-.085 8.225-3.969 7.793-9.579-.908-11.794-9.769-21.255-17.357-26.104-.084-.062-.156-.099-.275-.181h-.073z" fill="#000"/><path d="M132.995 26.47c-.101.067-.174.103-.293.181-7.595 4.849-16.455 14.31-17.363 26.104-.434 5.61 3.154 9.494 7.793 9.579 2.961.054 5.342-.998 6.631-3.007 1.072-1.672 1.345-4.248 1.519-3.057.625 4.541-1.275 8.906-2.304 12.719 1.146-.417 2.588-.627 4.033-.632h.023c1.444.005 2.881.215 4.028.632-1.028-3.813-2.926-8.178-2.303-12.719.174-1.191.447 1.385 1.518 3.057 1.289 2.009 3.669 3.061 6.63 3.007 4.639-.085 8.225-3.969 7.793-9.579-.908-11.794-9.769-21.255-17.357-26.104-.084-.062-.156-.099-.275-.181h-.073 0z" stroke="#000" stroke-width=".163" stroke-linejoin="round"/><path d="M46.54 104.423c-.103.067-.176.103-.293.18-7.596 4.849-16.456 14.308-17.365 26.102-.432 5.609 3.156 9.494 7.793 9.578 2.961.055 5.342-.996 6.633-3.006 1.072-1.672 1.345-4.248 1.519-3.058.625 4.543-1.277 8.908-2.306 12.72 1.148-.416 2.59-.626 4.033-.63h.025c1.442.004 2.881.214 4.028.63-1.03-3.812-2.928-8.177-2.303-12.72.172-1.19.445 1.386 1.515 3.058 1.289 2.01 3.67 3.061 6.631 3.006 4.639-.084 8.227-3.969 7.795-9.578-.91-11.794-9.769-21.253-17.359-26.102-.082-.062-.154-.099-.274-.18h-.072z" fill="#000"/><path d="M46.54 104.423c-.103.067-.176.103-.293.18-7.596 4.849-16.456 14.308-17.365 26.102-.432 5.609 3.156 9.494 7.793 9.578 2.961.055 5.342-.996 6.633-3.006 1.072-1.672 1.345-4.248 1.519-3.058.625 4.543-1.277 8.908-2.306 12.72 1.148-.416 2.59-.626 4.033-.63h.025c1.442.004 2.881.214 4.028.63-1.03-3.812-2.928-8.177-2.303-12.72.172-1.19.445 1.386 1.515 3.058 1.289 2.01 3.67 3.061 6.631 3.006 4.639-.084 8.227-3.969 7.795-9.578-.91-11.794-9.769-21.253-17.359-26.102-.082-.062-.154-.099-.274-.18h-.072 0z" stroke="#000" stroke-width=".163" stroke-linejoin="round"/><path d="M132.995 104.423c-.101.067-.174.104-.293.18-7.595 4.849-16.455 14.308-17.363 26.102-.434 5.609 3.154 9.494 7.793 9.578 2.961.055 5.342-.998 6.631-3.006 1.072-1.672 1.345-4.248 1.519-3.058.625 4.541-1.275 8.906-2.304 12.72 1.146-.417 2.588-.626 4.033-.632h.023c1.444.006 2.881.215 4.028.632-1.028-3.814-2.926-8.179-2.303-12.72.174-1.19.447 1.386 1.518 3.058 1.289 2.008 3.669 3.061 6.63 3.006 4.639-.084 8.225-3.969 7.793-9.578-.908-11.794-9.769-21.253-17.357-26.102-.084-.06-.156-.099-.275-.18h-.073z" fill="#000"/><path d="M132.995 104.423c-.101.067-.174.104-.293.18-7.595 4.849-16.455 14.308-17.363 26.102-.434 5.609 3.154 9.494 7.793 9.578 2.961.055 5.342-.998 6.631-3.006 1.072-1.672 1.345-4.248 1.519-3.058.625 4.541-1.275 8.906-2.304 12.72 1.146-.417 2.588-.626 4.033-.632h.023c1.444.006 2.881.215 4.028.632-1.028-3.814-2.926-8.179-2.303-12.72.174-1.19.447 1.386 1.518 3.058 1.289 2.008 3.669 3.061 6.63 3.006 4.639-.084 8.225-3.969 7.793-9.578-.908-11.794-9.769-21.253-17.357-26.102-.084-.06-.156-.099-.275-.18h-.073 0z" stroke="#000" stroke-width=".163" stroke-linejoin="round"/><path d="M46.539 224.893c-.102-.069-.175-.104-.293-.182-7.596-4.85-16.456-14.311-17.364-26.104-.433-5.611 3.155-9.494 7.793-9.58 2.961-.052 5.342.999 6.632 3.008 1.072 1.672 1.345 4.248 1.519 3.057.625-4.541-1.276-8.906-2.305-12.719 1.147.416 2.588.627 4.033.631h.024c1.443-.004 2.881-.215 4.028-.631-1.029 3.813-2.927 8.178-2.303 12.719.173 1.191.446-1.385 1.516-3.057 1.289-2.009 3.67-3.06 6.631-3.008 4.639.086 8.226 3.969 7.794 9.58-.909 11.793-9.769 21.254-17.358 26.104-.083.063-.155.1-.275.182h-.072z" fill="#000"/><path d="M46.539 224.893c-.102-.069-.175-.104-.293-.182-7.596-4.85-16.456-14.311-17.364-26.104-.433-5.611 3.155-9.494 7.793-9.58 2.961-.052 5.342.999 6.632 3.008 1.072 1.672 1.345 4.248 1.519 3.057.625-4.541-1.276-8.906-2.305-12.719 1.147.416 2.588.627 4.033.631h.024c1.443-.004 2.881-.215 4.028-.631-1.029 3.813-2.927 8.178-2.303 12.719.173 1.191.446-1.385 1.516-3.057 1.289-2.009 3.67-3.06 6.631-3.008 4.639.086 8.226 3.969 7.794 9.58-.909 11.793-9.769 21.254-17.358 26.104-.083.063-.155.1-.275.182h-.072 0z" stroke="#000" stroke-width=".163" stroke-linejoin="round"/><path d="M132.995 224.893c-.101-.067-.174-.104-.293-.182-7.595-4.848-16.455-14.309-17.363-26.104-.434-5.609 3.154-9.494 7.793-9.578 2.961-.054 5.342.997 6.631 3.006 1.072 1.672 1.345 4.248 1.519 3.059.625-4.543-1.275-8.908-2.304-12.721 1.146.416 2.588.627 4.033.631h.023c1.444-.004 2.881-.215 4.028-.631-1.028 3.813-2.926 8.178-2.303 12.721.174 1.189.447-1.387 1.518-3.059 1.289-2.009 3.669-3.06 6.63-3.006 4.639.084 8.225 3.969 7.793 9.578-.908 11.795-9.769 21.256-17.357 26.104-.084.063-.156.1-.275.182h-.073z" fill="#000"/><path d="M132.995 224.893c-.101-.067-.174-.104-.293-.182-7.595-4.848-16.455-14.309-17.363-26.104-.434-5.609 3.154-9.494 7.793-9.578 2.961-.054 5.342.997 6.631 3.006 1.072 1.672 1.345 4.248 1.519 3.059.625-4.543-1.275-8.908-2.304-12.721 1.146.416 2.588.627 4.033.631h.023c1.444-.004 2.881-.215 4.028-.631-1.028 3.813-2.926 8.178-2.303 12.721.174 1.189.447-1.387 1.518-3.059 1.289-2.009 3.669-3.06 6.63-3.006 4.639.084 8.225 3.969 7.793 9.578-.908 11.795-9.769 21.256-17.357 26.104-.084.063-.156.1-.275.182h-.073 0z" stroke="#000" stroke-width=".163" stroke-linejoin="round"/></g></svg>