<svg xmlns="http://www.w3.org/2000/svg" viewBox="0 0 180 251"><g fill="none" fill-rule="evenodd"><path d="M179.084 236.231c0 7.828-6.346 14.173-14.174 14.173H14.673C6.846 250.404.5 244.059.5 236.231v-221.1C.5 7.304 6.846.958 14.673.958H164.91c7.828 0 14.174 6.346 14.174 14.173v221.1z" fill="#F7F6F2"/><path d="M179.084 236.231c0 7.828-6.346 14.173-14.174 14.173H14.673C6.846 250.404.5 244.059.5 236.231v-221.1C.5 7.304 6.846.958 14.673.958H164.91c7.828 0 14.174 6.346 14.174 14.173v221.1h0z" stroke="#000"/><path d="M13.268 43.479c1.786 3.469 4.145 6.308 7.075 8.511-2.93 2.207-5.289 5.039-7.075 8.496-1.803-3.457-4.168-6.289-7.098-8.496 2.93-2.203 5.295-5.042 7.098-8.511zM166.339 190.876c1.786 3.47 4.145 6.308 7.075 8.513-2.93 2.206-5.289 5.038-7.075 8.495-1.802-3.457-4.169-6.289-7.098-8.495 2.929-2.205 5.296-5.043 7.098-8.513zM46.588 26.47c4.469 8.675 10.366 15.77 17.692 21.283-7.326 5.517-13.223 12.595-17.692 21.237-4.502-8.642-10.416-15.72-17.741-21.237 7.325-5.513 13.239-12.608 17.741-21.283zM46.588 104.423c4.468 8.679 10.365 15.775 17.692 21.273-7.327 5.513-13.224 12.599-17.692 21.243-4.502-8.644-10.417-15.73-17.741-21.243 7.324-5.498 13.239-12.594 17.741-21.273zM46.588 182.372c4.469 8.675 10.365 15.769 17.692 21.282-7.327 5.518-13.223 12.597-17.692 21.238-4.502-8.641-10.416-15.72-17.741-21.238 7.325-5.513 13.239-12.607 17.741-21.282zM133.045 26.47c4.469 8.675 10.365 15.77 17.691 21.283-7.326 5.517-13.222 12.595-17.691 21.237-4.502-8.642-10.416-15.72-17.741-21.237 7.325-5.513 13.239-12.608 17.741-21.283zM133.045 104.422c4.468 8.68 10.364 15.774 17.691 21.272-7.327 5.515-13.223 12.6-17.691 21.245-4.502-8.645-10.416-15.73-17.742-21.245 7.326-5.498 13.24-12.592 17.742-21.272zM133.045 182.372c4.468 8.675 10.364 15.77 17.691 21.283-7.327 5.517-13.223 12.595-17.691 21.237-4.502-8.642-10.416-15.72-17.742-21.237 7.326-5.513 13.24-12.608 17.742-21.283zM18.519 24.45a6.592 6.592 0 00-2.235-1.892 6.39 6.39 0 00-2.941-.689h-.076a6.188 6.188 0 00-2.949.768c-.581.322-1.1.737-1.561 1.219a25.023 25.023 0 01.486-2.285c.049-.181.088-.318.115-.409l.029-.097.007-.021.002-.002v-.002l.01-.029.006-.027.002-.005a5.93 5.93 0 01.913-1.736c.319-.417.726-.82 1.237-1.128.511-.309 1.129-.531 1.924-.576.111-.006.218-.008.323-.008 1.412.004 2.339.502 2.952.986.304.243.523.484.66.656.067.086.115.154.144.194a.775.775 0 01.024.04l.002.003.544-.388 1.304-.894c-.053-.09-.477-.818-1.391-1.55-.909-.732-2.333-1.451-4.239-1.447-.14 0-.284.004-.432.012a6.12 6.12 0 00-2.946.917c-1.203.753-1.969 1.802-2.44 2.649a7.962 7.962 0 00-.664 1.55c-.113.36-1.157 3.746-1.159 8.375 0 .85.044 1.749.127 2.672.096 2.108.758 4.012 1.9 5.435 1.226 1.539 3.025 2.485 5.058 2.485h.023a6.246 6.246 0 002.951-.723c1.324-.699 2.363-1.864 3.056-3.267.696-1.405 1.056-3.052 1.058-4.785-.002-2.286-.616-4.41-1.824-6.001zm-1.726 10.574a4.606 4.606 0 01-1.513 1.318 4.223 4.223 0 01-2.002.484c-1.443-.007-2.59-.622-3.441-1.671-.746-.928-1.245-2.225-1.351-3.762l.011-.001c-.01-.094-.013-.182-.021-.275-.005-.114-.012-.226-.012-.343-.002-1.829.501-3.486 1.342-4.64a4.648 4.648 0 011.496-1.354 4.136 4.136 0 011.986-.511h.055c.776.001 1.442.17 2.018.464.863.443 1.545 1.173 2.033 2.152.485.977.763 2.204.763 3.566.001 1.823-.514 3.446-1.364 4.573zM161.064 226.911a6.606 6.606 0 002.235 1.893 6.401 6.401 0 002.941.688h.076a6.187 6.187 0 002.949-.767c.58-.323 1.1-.738 1.561-1.219a24.932 24.932 0 01-.486 2.285c-.049.181-.088.318-.115.408l-.029.098-.007.02-.002.002v.002l-.01.03-.006.026-.001.006a5.97 5.97 0 01-.913 1.736c-.32.416-.727.82-1.238 1.127-.511.309-1.129.531-1.924.576a5.949 5.949 0 01-.323.008c-1.411-.004-2.339-.502-2.952-.986a4.219 4.219 0 01-.66-.655 3.893 3.893 0 01-.143-.195l-.025-.039-.002-.004-.544.388-1.304.894c.053.091.478.819 1.391 1.55.91.733 2.333 1.451 4.239 1.448.14 0 .284-.004.433-.012a6.131 6.131 0 002.945-.917c1.203-.753 1.97-1.803 2.44-2.65a7.87 7.87 0 00.664-1.549c.113-.361 1.158-3.746 1.16-8.376 0-.85-.044-1.748-.127-2.671-.097-2.109-.759-4.013-1.901-5.436-1.226-1.539-3.025-2.484-5.058-2.484h-.023a6.264 6.264 0 00-2.952.722c-1.322.7-2.361 1.865-3.054 3.267-.696 1.405-1.057 3.053-1.059 4.785.002 2.286.615 4.41 1.824 6.001zm1.727-10.573a4.581 4.581 0 011.512-1.318 4.22 4.22 0 012.002-.485c1.443.007 2.59.622 3.441 1.671.746.929 1.245 2.226 1.351 3.763l-.011.001c.009.093.013.181.021.274.004.114.013.227.013.344.002 1.828-.503 3.485-1.343 4.639a4.63 4.63 0 01-1.496 1.355 4.147 4.147 0 01-1.986.511h-.055c-.776-.001-1.441-.17-2.018-.464-.863-.443-1.545-1.174-2.033-2.152-.486-.978-.763-2.205-.763-3.567-.001-1.822.514-3.445 1.365-4.572z" fill="#D33D43"/></g></svg>