<svg xmlns="http://www.w3.org/2000/svg" viewBox="0 0 181 251"><g fill="none" fill-rule="evenodd"><path d="M179.627 236.23c0 7.828-6.345 14.173-14.173 14.173H15.217c-7.828 0-14.173-6.345-14.173-14.173V15.131C1.044 7.303 7.389.958 15.217.958h150.237c7.828 0 14.173 6.345 14.173 14.173V236.23z" fill="#F7F6F2"/><path d="M179.627 236.23c0 7.828-6.345 14.173-14.173 14.173H15.217c-7.828 0-14.173-6.345-14.173-14.173V15.131C1.044 7.303 7.389.958 15.217.958h150.237c7.828 0 14.173 6.345 14.173 14.173V236.23h0z" stroke="#000"/><path d="M13.811 43.478c1.786 3.47 4.145 6.309 7.075 8.512-2.93 2.207-5.289 5.039-7.075 8.496-1.803-3.457-4.168-6.289-7.097-8.496 2.929-2.203 5.294-5.042 7.097-8.512zM166.883 190.875c1.786 3.47 4.145 6.308 7.075 8.513-2.93 2.206-5.289 5.038-7.075 8.495-1.802-3.457-4.169-6.289-7.098-8.495 2.929-2.205 5.296-5.043 7.098-8.513zM47.133 26.469c4.468 8.675 10.365 15.77 17.691 21.284-7.326 5.516-13.223 12.595-17.691 21.236-4.504-8.641-10.418-15.72-17.743-21.236 7.325-5.514 13.239-12.609 17.743-21.284zM47.131 78.438c4.469 8.676 10.366 15.771 17.693 21.285-7.327 5.516-13.224 12.595-17.693 21.233-4.502-8.638-10.416-15.717-17.741-21.233 7.325-5.514 13.239-12.609 17.741-21.285zM47.133 130.403c4.468 8.674 10.364 15.77 17.691 21.284-7.327 5.516-13.223 12.595-17.691 21.236-4.504-8.641-10.418-15.72-17.743-21.236 7.325-5.514 13.239-12.61 17.743-21.284zM47.133 182.37c4.468 8.675 10.364 15.77 17.691 21.283-7.327 5.517-13.223 12.597-17.691 21.238-4.504-8.641-10.418-15.721-17.743-21.238 7.325-5.513 13.239-12.608 17.743-21.283zM133.589 26.469c4.469 8.675 10.365 15.77 17.692 21.284-7.327 5.516-13.223 12.594-17.692 21.236-4.502-8.642-10.417-15.72-17.741-21.236 7.324-5.514 13.239-12.609 17.741-21.284zM133.588 78.44c4.469 8.675 10.366 15.77 17.692 21.283-7.326 5.516-13.223 12.595-17.692 21.234-4.501-8.639-10.418-15.718-17.742-21.234 7.324-5.513 13.241-12.608 17.742-21.283zM133.588 130.404c4.469 8.674 10.366 15.769 17.692 21.283-7.326 5.517-13.223 12.595-17.692 21.237-4.501-8.642-10.416-15.72-17.741-21.237 7.325-5.514 13.24-12.609 17.741-21.283zM133.589 182.37c4.468 8.675 10.365 15.77 17.692 21.283-7.327 5.517-13.224 12.597-17.692 21.238-4.502-8.641-10.417-15.721-17.741-21.238 7.324-5.513 13.239-12.608 17.741-21.283zM90.36 54.816c4.47 8.675 10.365 15.77 17.691 21.284-7.326 5.516-13.221 12.594-17.691 21.236-4.502-8.642-10.417-15.72-17.741-21.236 7.324-5.514 13.239-12.609 17.741-21.284zM90.36 154.025c4.47 8.673 10.365 15.769 17.691 21.283-7.326 5.516-13.221 12.595-17.691 21.236-4.502-8.641-10.417-15.72-17.741-21.236 7.324-5.514 13.239-12.61 17.741-21.283zM6.714 39.189V15.131h2.18v24.058h-2.18zM13.454 37.908a4.675 4.675 0 01-1.302-3.261V19.71a4.678 4.678 0 011.302-3.262 4.255 4.255 0 013.065-1.317c1.185 0 2.272.497 3.067 1.317a4.68 4.68 0 011.3 3.262v14.937a4.678 4.678 0 01-1.3 3.261 4.259 4.259 0 01-3.067 1.317 4.25 4.25 0 01-3.065-1.317zm1.497-19.723a2.175 2.175 0 00-.618 1.525v14.937c.001.587.225 1.116.618 1.525a2.17 2.17 0 001.568.666c.625 0 1.176-.261 1.568-.666a2.18 2.18 0 00.619-1.525V19.71a2.176 2.176 0 00-.619-1.525 2.167 2.167 0 00-1.568-.666c-.625 0-1.177.26-1.568.666zM173.958 212.171v24.059h-2.182v-24.059h2.182zM167.217 213.452a4.685 4.685 0 011.303 3.262v14.936a4.684 4.684 0 01-1.303 3.263 4.26 4.26 0 01-3.066 1.317 4.256 4.256 0 01-3.064-1.317 4.684 4.684 0 01-1.303-3.263v-14.936c0-1.281.508-2.445 1.303-3.262a4.252 4.252 0 013.064-1.316c1.186 0 2.273.496 3.066 1.316zm-1.496 19.724c.393-.408.617-.938.617-1.526v-14.936c0-.588-.224-1.116-.617-1.526a2.172 2.172 0 00-1.57-.665c-.623 0-1.176.26-1.568.665-.393.41-.616.938-.618 1.526v14.936c.002.588.225 1.118.618 1.526.392.405.945.666 1.568.666.627 0 1.178-.261 1.57-.666z" fill="#D33D43"/></g></svg>