<svg xmlns="http://www.w3.org/2000/svg" viewBox="0 0 181 251"><g fill="none" fill-rule="evenodd"><path d="M179.627 236.231c0 7.829-6.345 14.174-14.173 14.174H15.217c-7.828 0-14.173-6.345-14.173-14.174V15.13C1.044 7.302 7.389.957 15.217.957h150.237c7.828 0 14.173 6.345 14.173 14.173v221.101z" fill="#F7F6F2"/><path d="M179.627 236.231c0 7.829-6.345 14.174-14.173 14.174H15.217c-7.828 0-14.173-6.345-14.173-14.174V15.13C1.044 7.302 7.389.957 15.217.957h150.237c7.828 0 14.173 6.345 14.173 14.173v221.101h0z" stroke="#000"/><path d="M13.798 60.484a.48.48 0 00-.019-.029l-.02.029h.039zM17.774 43.576c-1.247-.387-3.187.294-3.899 3.122-.06.155-.122.151-.178-.006-1.029-2.865-2.723-3.49-3.913-3.116-1.763.569-3.195 2.672-3.062 5.356.034 4.684 4.226 7.044 7.057 11.523 2.831-4.479 7.067-6.832 7.082-11.536.244-2.712-1.274-4.785-3.087-5.343zM166.875 190.877c.006.011.013.02.02.03l.02-.03h-.04zM166.895 190.907c-2.833 4.478-7.073 6.831-7.084 11.536-.244 2.71 1.272 4.784 3.087 5.343 1.247.387 3.188-.295 3.9-3.123.06-.154.122-.151.179.004 1.026 2.866 2.722 3.492 3.912 3.119 1.768-.57 3.195-2.674 3.06-5.357-.032-4.684-4.223-7.044-7.054-11.522zM47.103 68.988a4.508 4.508 0 00-.047-.072l-.047.072h.094zM57.041 26.717c-3.118-.968-7.964.736-9.744 7.805-.15.387-.305.379-.446-.014-2.57-7.162-6.805-8.727-9.782-7.791-4.41 1.423-7.984 6.682-7.658 13.391.091 11.711 10.572 17.608 17.645 28.808 7.074-11.2 17.673-17.08 17.702-28.842.613-6.779-3.181-11.961-7.717-13.357zM57.041 77.741c-3.118-.969-7.964.736-9.744 7.805-.15.387-.305.378-.446-.014-2.57-7.161-6.805-8.726-9.782-7.791-4.41 1.423-7.984 6.682-7.658 13.391.091 11.711 10.572 17.608 17.645 28.807 7.074-11.199 17.673-17.079 17.702-28.841.613-6.779-3.181-11.961-7.717-13.357z" fill="#D33D43"/><path d="M47.103 120.011l-.047-.072-.047.072h.094zM47.111 179.538l.047.072.047-.072h-.094zM64.802 208.419c-.088-11.711-10.568-17.608-17.644-28.809-7.074 11.201-17.673 17.082-17.702 28.842-.613 6.779 3.181 11.961 7.717 13.358 3.117.967 7.964-.737 9.744-7.805.15-.387.305-.379.446.014 2.569 7.162 6.805 8.726 9.782 7.791 4.41-1.423 7.984-6.682 7.657-13.391zM64.802 157.396c-.088-11.711-10.568-17.609-17.644-28.809-7.074 11.2-17.673 17.08-17.702 28.842-.613 6.781 3.181 11.961 7.717 13.357 3.117.969 7.964-.736 9.744-7.806.15-.386.305-.378.446.015 2.569 7.162 6.805 8.727 9.782 7.791 4.41-1.423 7.984-6.681 7.657-13.39zM47.111 128.515l.047.072.047-.072h-.094zM100.276 55.064c-3.117-.969-7.971.735-9.754 7.805-.148.386-.306.378-.445-.014-2.573-7.162-6.803-8.726-9.783-7.791-4.411 1.422-7.981 6.681-7.655 13.391.088 11.711 10.568 17.608 17.641 28.807 7.081-11.199 17.68-17.079 17.707-28.841.615-6.78-3.182-11.961-7.711-13.357zM90.327 97.335l-.047-.073-.047.073h.094zM108.031 182.904c-.085-11.714-10.567-17.612-17.646-28.805-7.073 11.193-17.671 17.074-17.701 28.839-.612 6.782 3.184 11.963 7.716 13.36 3.116.968 7.962-.736 9.743-7.808.149-.385.305-.378.446.015 2.575 7.163 6.811 8.728 9.786 7.793 4.411-1.423 7.985-6.682 7.656-13.394z" fill="#D33D43"/><path d="M90.339 154.026l.046.073.047-.073h-.093zM133.559 68.988c-.015-.025-.032-.049-.049-.075-.015.026-.032.05-.048.075h.097zM143.497 26.717c-3.118-.968-7.965.736-9.746 7.805-.145.387-.303.379-.445-.014-2.569-7.162-6.801-8.726-9.78-7.791-4.413 1.423-7.987 6.682-7.658 13.392.091 11.709 10.566 17.606 17.642 28.804 7.079-11.198 17.671-17.077 17.704-28.838.615-6.78-3.182-11.962-7.717-13.358zM143.497 77.741c-3.118-.968-7.965.736-9.746 7.805-.145.387-.303.378-.445-.013-2.569-7.163-6.801-8.728-9.78-7.792-4.413 1.423-7.987 6.681-7.658 13.391.091 11.711 10.566 17.608 17.642 28.805 7.079-11.197 17.671-17.078 17.704-28.839.615-6.78-3.182-11.961-7.717-13.357zM133.559 120.011c-.015-.025-.032-.049-.049-.074-.015.025-.032.049-.048.074h.097zM151.26 208.419c-.091-11.71-10.567-17.607-17.644-28.807-7.078 11.2-17.677 17.081-17.703 28.84-.616 6.781 3.182 11.961 7.716 13.358 3.118.967 7.965-.737 9.748-7.805.144-.388.302-.379.441.014 2.572 7.162 6.804 8.726 9.784 7.791 4.408-1.423 7.981-6.682 7.658-13.391zM133.568 179.538l.048.074.049-.074h-.097zM133.567 128.515l.049.074.048-.074h-.097zM151.259 157.396c-.09-11.71-10.566-17.608-17.643-28.807-7.078 11.199-17.678 17.08-17.703 28.84-.616 6.781 3.181 11.962 7.716 13.357 3.118.968 7.964-.735 9.747-7.805.144-.386.302-.378.441.014 2.572 7.162 6.804 8.728 9.784 7.791 4.408-1.422 7.982-6.681 7.658-13.39zM6.714 39.188V15.13h2.18v24.058h-2.18zM13.454 37.907a4.675 4.675 0 01-1.302-3.261V19.709a4.678 4.678 0 011.302-3.262 4.255 4.255 0 013.065-1.317c1.185 0 2.272.497 3.067 1.317a4.68 4.68 0 011.3 3.262v14.937a4.678 4.678 0 01-1.3 3.261 4.259 4.259 0 01-3.067 1.317 4.25 4.25 0 01-3.065-1.317zm1.497-19.723a2.175 2.175 0 00-.618 1.525v14.937c.001.588.225 1.116.618 1.525a2.17 2.17 0 001.568.666c.625 0 1.176-.261 1.568-.666.393-.409.618-.937.619-1.525V19.709a2.176 2.176 0 00-.619-1.525 2.167 2.167 0 00-1.568-.666c-.625 0-1.177.26-1.568.666zM173.958 212.173v24.058h-2.182v-24.058h2.182zM167.217 213.454a4.684 4.684 0 011.302 3.262v14.936a4.683 4.683 0 01-1.302 3.263 4.258 4.258 0 01-3.066 1.316 4.26 4.26 0 01-3.065-1.316 4.683 4.683 0 01-1.302-3.263v-14.936a4.684 4.684 0 011.302-3.262 4.256 4.256 0 013.065-1.316c1.186 0 2.273.496 3.066 1.316zm-1.497 19.724c.393-.408.617-.938.618-1.526v-14.936a2.177 2.177 0 00-.618-1.525 2.166 2.166 0 00-1.569-.666 2.17 2.17 0 00-1.568.666 2.177 2.177 0 00-.618 1.525v14.936c.001.588.225 1.118.618 1.526.392.405.944.666 1.568.666a2.17 2.17 0 001.569-.666z" fill="#D33D43"/></g></svg>