<svg xmlns="http://www.w3.org/2000/svg" viewBox="0 0 181 251"><g fill="none" fill-rule="evenodd"><path d="M179.627 236.228c0 7.827-6.345 14.172-14.173 14.172H15.217c-7.828 0-14.173-6.345-14.173-14.172V15.134C1.044 7.306 7.389.961 15.217.961h150.237c7.828 0 14.173 6.345 14.173 14.173v221.094z" fill="#F7F6F2"/><path d="M179.627 236.228c0 7.827-6.345 14.172-14.173 14.172H15.217c-7.828 0-14.173-6.345-14.173-14.172V15.134C1.044 7.306 7.389.961 15.217.961h150.237c7.828 0 14.173 6.345 14.173 14.173v221.094h0z" stroke="#000"/><path fill="#000" d="M6.714 39.192V15.133h2.18v24.059h-2.18zM13.454 37.911a4.678 4.678 0 01-1.302-3.262V19.712a4.673 4.673 0 011.302-3.261 4.252 4.252 0 013.065-1.318 4.26 4.26 0 013.067 1.318 4.676 4.676 0 011.3 3.261v14.937a4.68 4.68 0 01-1.3 3.262 4.263 4.263 0 01-3.067 1.317 4.255 4.255 0 01-3.065-1.317zm1.497-19.724a2.179 2.179 0 00-.618 1.525v14.937c.001.588.225 1.117.618 1.525.391.406.943.666 1.568.666.625 0 1.176-.26 1.568-.666.393-.408.618-.937.619-1.525V19.712a2.18 2.18 0 00-.619-1.525 2.175 2.175 0 00-1.568-.666c-.625 0-1.177.262-1.568.666zM173.958 212.169v24.059h-2.182v-24.059h2.182zM167.217 213.45a4.681 4.681 0 011.301 3.262v14.936a4.675 4.675 0 01-1.301 3.261 4.253 4.253 0 01-3.066 1.319 4.258 4.258 0 01-3.066-1.319 4.675 4.675 0 01-1.301-3.261v-14.936a4.681 4.681 0 011.301-3.262 4.261 4.261 0 013.066-1.318c1.186 0 2.273.498 3.066 1.318zm-1.498 19.723c.393-.408.618-.938.619-1.525v-14.936a2.176 2.176 0 00-.619-1.525 2.16 2.16 0 00-1.568-.666c-.625 0-1.176.259-1.568.666a2.17 2.17 0 00-.618 1.525v14.936c0 .587.225 1.117.618 1.525.392.405.943.666 1.568.666.625 0 1.178-.261 1.568-.666zM13.791 43.481c-.041.027-.071.041-.118.072-3.038 1.94-6.583 5.725-6.946 10.442-.173 2.244 1.263 3.798 3.118 3.832 1.184.021 2.137-.4 2.653-1.203.428-.668.538-1.7.607-1.223.25 1.816-.511 3.562-.922 5.088.459-.167 1.035-.251 1.613-.253h.01c.577.002 1.153.086 1.611.253-.412-1.526-1.17-3.272-.921-5.088.069-.477.178.555.606 1.223.516.803 1.469 1.224 2.652 1.203 1.856-.034 3.291-1.588 3.119-3.832-.364-4.717-3.909-8.502-6.944-10.442-.033-.024-.062-.04-.11-.072h-.028z"/><path d="M13.791 43.481c-.041.027-.071.041-.118.072-3.038 1.94-6.583 5.725-6.946 10.442-.173 2.244 1.263 3.798 3.118 3.832 1.184.021 2.137-.4 2.653-1.203.428-.668.538-1.7.607-1.223.25 1.816-.511 3.562-.922 5.088.459-.167 1.035-.251 1.613-.253h.01c.577.002 1.153.086 1.611.253-.412-1.526-1.17-3.272-.921-5.088.069-.477.178.555.606 1.223.516.803 1.469 1.224 2.652 1.203 1.856-.034 3.291-1.588 3.119-3.832-.364-4.717-3.909-8.502-6.944-10.442-.033-.024-.062-.04-.11-.072h-.028 0z" stroke="#000" stroke-linejoin="round"/><path d="M166.862 207.881c-.041-.027-.07-.042-.117-.072-3.039-1.941-6.584-5.725-6.948-10.442-.171-2.244 1.264-3.798 3.12-3.832 1.183-.021 2.136.4 2.652 1.203.428.668.537 1.7.607 1.223.25-1.816-.511-3.563-.922-5.088.46.167 1.036.251 1.614.253h.01c.576-.002 1.152-.086 1.609-.253-.41 1.525-1.17 3.272-.92 5.088.068.477.178-.555.605-1.223.516-.803 1.469-1.224 2.653-1.203 1.855.034 3.291 1.588 3.119 3.832-.363 4.717-3.908 8.501-6.943 10.442-.034.024-.063.04-.112.072h-.027z" fill="#000"/><path d="M166.862 207.881c-.041-.027-.07-.042-.117-.072-3.039-1.941-6.584-5.725-6.948-10.442-.171-2.244 1.264-3.798 3.12-3.832 1.183-.021 2.136.4 2.652 1.203.428.668.537 1.7.607 1.223.25-1.816-.511-3.563-.922-5.088.46.167 1.036.251 1.614.253h.01c.576-.002 1.152-.086 1.609-.253-.41 1.525-1.17 3.272-.92 5.088.068.477.178-.555.605-1.223.516-.803 1.469-1.224 2.653-1.203 1.855.034 3.291 1.588 3.119 3.832-.363 4.717-3.908 8.501-6.943 10.442-.034.024-.063.04-.112.072h-.027 0z" stroke="#000" stroke-linejoin="round"/><path d="M47.083 26.472c-.102.068-.174.104-.293.181-7.595 4.85-16.456 14.31-17.365 26.103-.431 5.611 3.156 9.496 7.794 9.581 2.961.053 5.342-.999 6.632-3.008 1.072-1.671 1.346-4.248 1.52-3.058.625 4.542-1.278 8.907-2.307 12.721 1.148-.417 2.59-.627 4.034-.632h.024c1.442.005 2.882.215 4.027.632-1.027-3.814-2.926-8.179-2.303-12.721.174-1.19.447 1.387 1.517 3.058 1.289 2.009 3.671 3.061 6.631 3.008 4.638-.085 8.226-3.97 7.794-9.581-.909-11.793-9.77-21.253-17.359-26.103-.082-.062-.155-.1-.274-.181h-.072z" fill="#000"/><path d="M47.083 26.472c-.102.068-.174.104-.293.181-7.595 4.85-16.456 14.31-17.365 26.103-.431 5.611 3.156 9.496 7.794 9.581 2.961.053 5.342-.999 6.632-3.008 1.072-1.671 1.346-4.248 1.52-3.058.625 4.542-1.278 8.907-2.307 12.721 1.148-.417 2.59-.627 4.034-.632h.024c1.442.005 2.882.215 4.027.632-1.027-3.814-2.926-8.179-2.303-12.721.174-1.19.447 1.387 1.517 3.058 1.289 2.009 3.671 3.061 6.631 3.008 4.638-.085 8.226-3.97 7.794-9.581-.909-11.793-9.77-21.253-17.359-26.103-.082-.062-.155-.1-.274-.181h-.072 0z" stroke="#000" stroke-linejoin="round"/><path d="M91.729 54.819c-.101.067-.174.103-.293.181-7.595 4.849-16.457 14.31-17.365 26.103-.432 5.61 3.155 9.495 7.794 9.58 2.961.054 5.343-.998 6.632-3.008 1.072-1.671 1.345-4.248 1.519-3.057.625 4.542-1.277 8.907-2.306 12.72 1.148-.416 2.589-.627 4.035-.631h.023c1.442.004 2.881.215 4.027.631-1.027-3.813-2.925-8.178-2.302-12.72.174-1.191.445 1.386 1.515 3.057 1.289 2.01 3.672 3.062 6.631 3.008 4.639-.085 8.227-3.97 7.795-9.58C108.526 69.31 99.665 59.849 92.075 55c-.082-.062-.155-.1-.274-.181h-.072z" fill="#000"/><path d="M91.729 54.819c-.101.067-.174.103-.293.181-7.595 4.849-16.457 14.31-17.365 26.103-.432 5.61 3.155 9.495 7.794 9.58 2.961.054 5.343-.998 6.632-3.008 1.072-1.671 1.345-4.248 1.519-3.057.625 4.542-1.277 8.907-2.306 12.72 1.148-.416 2.589-.627 4.035-.631h.023c1.442.004 2.881.215 4.027.631-1.027-3.813-2.925-8.178-2.302-12.72.174-1.191.445 1.386 1.515 3.057 1.289 2.01 3.672 3.062 6.631 3.008 4.639-.085 8.227-3.97 7.795-9.58C108.526 69.31 99.665 59.849 92.075 55c-.082-.062-.155-.1-.274-.181h-.072 0z" stroke="#000" stroke-linejoin="round"/><path d="M134.958 26.472c-.102.068-.174.104-.293.181-7.596 4.85-16.457 14.31-17.366 26.103-.431 5.611 3.157 9.496 7.795 9.581 2.961.053 5.342-.999 6.631-3.008 1.072-1.671 1.346-4.248 1.52-3.058.625 4.542-1.278 8.907-2.307 12.721 1.149-.417 2.59-.627 4.035-.632h.024c1.441.005 2.881.215 4.027.632-1.027-3.814-2.926-8.179-2.303-12.721.174-1.19.446 1.387 1.516 3.058 1.289 2.009 3.672 3.061 6.631 3.008 4.638-.085 8.226-3.97 7.795-9.581-.909-11.793-9.77-21.253-17.36-26.103-.082-.062-.154-.1-.273-.181h-.072z" fill="#000"/><path d="M134.958 26.472c-.102.068-.174.104-.293.181-7.596 4.85-16.457 14.31-17.366 26.103-.431 5.611 3.157 9.496 7.795 9.581 2.961.053 5.342-.999 6.631-3.008 1.072-1.671 1.346-4.248 1.52-3.058.625 4.542-1.278 8.907-2.307 12.721 1.149-.417 2.59-.627 4.035-.632h.024c1.441.005 2.881.215 4.027.632-1.027-3.814-2.926-8.179-2.303-12.721.174-1.19.446 1.387 1.516 3.058 1.289 2.009 3.672 3.061 6.631 3.008 4.638-.085 8.226-3.97 7.795-9.581-.909-11.793-9.77-21.253-17.36-26.103-.082-.062-.154-.1-.273-.181h-.072 0z" stroke="#000" stroke-linejoin="round"/><path d="M47.083 78.441c-.102.067-.174.103-.293.181-7.595 4.849-16.456 14.31-17.365 26.102-.431 5.609 3.156 9.493 7.794 9.577 2.961.055 5.342-.998 6.632-3.007 1.072-1.67 1.346-4.247 1.52-3.056.625 4.54-1.278 8.904-2.307 12.717 1.148-.418 2.59-.627 4.034-.633h.024c1.442.006 2.882.215 4.027.633-1.027-3.813-2.926-8.177-2.303-12.717.174-1.191.447 1.386 1.517 3.056 1.289 2.009 3.671 3.062 6.631 3.007 4.638-.084 8.226-3.968 7.794-9.577-.909-11.792-9.77-21.253-17.359-26.102-.082-.063-.155-.1-.274-.181h-.072z" fill="#000"/><path d="M47.083 78.441c-.102.067-.174.103-.293.181-7.595 4.849-16.456 14.31-17.365 26.102-.431 5.609 3.156 9.493 7.794 9.577 2.961.055 5.342-.998 6.632-3.007 1.072-1.67 1.346-4.247 1.52-3.056.625 4.54-1.278 8.904-2.307 12.717 1.148-.418 2.59-.627 4.034-.633h.024c1.442.006 2.882.215 4.027.633-1.027-3.813-2.926-8.177-2.303-12.717.174-1.191.447 1.386 1.517 3.056 1.289 2.009 3.671 3.062 6.631 3.007 4.638-.084 8.226-3.968 7.794-9.577-.909-11.792-9.77-21.253-17.359-26.102-.082-.063-.155-.1-.274-.181h-.072 0z" stroke="#000" stroke-linejoin="round"/><path d="M133.54 78.441c-.102.067-.174.103-.293.181-7.596 4.849-16.457 14.31-17.366 26.103-.431 5.608 3.157 9.492 7.795 9.576 2.961.055 5.342-.998 6.631-3.007 1.072-1.67 1.346-4.247 1.52-3.056.625 4.54-1.278 8.904-2.307 12.717 1.149-.418 2.59-.627 4.035-.633h.024c1.441.006 2.881.215 4.027.633-1.027-3.813-2.926-8.177-2.303-12.717.174-1.191.446 1.386 1.516 3.056 1.289 2.009 3.672 3.062 6.631 3.007 4.639-.084 8.226-3.968 7.795-9.576-.908-11.793-9.77-21.254-17.36-26.103-.082-.062-.154-.1-.273-.181h-.072z" fill="#000"/><path d="M133.54 78.441c-.102.067-.174.103-.293.181-7.596 4.849-16.457 14.31-17.366 26.103-.431 5.608 3.157 9.492 7.795 9.576 2.961.055 5.342-.998 6.631-3.007 1.072-1.67 1.346-4.247 1.52-3.056.625 4.54-1.278 8.904-2.307 12.717 1.149-.418 2.59-.627 4.035-.633h.024c1.441.006 2.881.215 4.027.633-1.027-3.813-2.926-8.177-2.303-12.717.174-1.191.446 1.386 1.516 3.056 1.289 2.009 3.672 3.062 6.631 3.007 4.639-.084 8.226-3.968 7.795-9.576-.908-11.793-9.77-21.254-17.36-26.103-.082-.062-.154-.1-.273-.181h-.072 0z" stroke="#000" stroke-linejoin="round"/><path d="M47.083 224.889c-.102-.068-.174-.104-.293-.181-7.595-4.85-16.456-14.311-17.365-26.103-.431-5.612 3.156-9.496 7.794-9.58 2.961-.055 5.342.997 6.632 3.007 1.072 1.671 1.346 4.248 1.52 3.057.625-4.541-1.278-8.906-2.307-12.721 1.148.418 2.59.627 4.034.633h.024c1.442-.006 2.882-.215 4.027-.633-1.027 3.815-2.926 8.18-2.303 12.721.174 1.191.447-1.386 1.517-3.057 1.289-2.01 3.671-3.062 6.631-3.007 4.638.084 8.226 3.968 7.794 9.58-.909 11.792-9.77 21.253-17.359 26.103-.082.062-.155.1-.274.181h-.072z" fill="#000"/><path d="M47.083 224.889c-.102-.068-.174-.104-.293-.181-7.595-4.85-16.456-14.311-17.365-26.103-.431-5.612 3.156-9.496 7.794-9.58 2.961-.055 5.342.997 6.632 3.007 1.072 1.671 1.346 4.248 1.52 3.057.625-4.541-1.278-8.906-2.307-12.721 1.148.418 2.59.627 4.034.633h.024c1.442-.006 2.882-.215 4.027-.633-1.027 3.815-2.926 8.18-2.303 12.721.174 1.191.447-1.386 1.517-3.057 1.289-2.01 3.671-3.062 6.631-3.007 4.638.084 8.226 3.968 7.794 9.58-.909 11.792-9.77 21.253-17.359 26.103-.082.062-.155.1-.274.181h-.072 0z" stroke="#000" stroke-linejoin="round"/><path d="M133.54 224.889c-.102-.068-.174-.104-.293-.181-7.594-4.85-16.455-14.311-17.364-26.103-.431-5.612 3.155-9.496 7.793-9.58 2.961-.055 5.342.997 6.633 3.007 1.072 1.671 1.346 4.248 1.52 3.057.625-4.541-1.278-8.906-2.307-12.721 1.147.418 2.59.627 4.033.633h.024c1.443-.006 2.883-.215 4.027-.633-1.027 3.815-2.926 8.18-2.303 12.721.174 1.191.448-1.386 1.518-3.057 1.289-2.01 3.67-3.062 6.631-3.007 4.638.084 8.226 3.968 7.793 9.58-.908 11.792-9.77 21.253-17.358 26.103-.082.062-.156.1-.275.181h-.072z" fill="#000"/><path d="M133.54 224.889c-.102-.068-.174-.104-.293-.181-7.594-4.85-16.455-14.311-17.364-26.103-.431-5.612 3.155-9.496 7.793-9.58 2.961-.055 5.342.997 6.633 3.007 1.072 1.671 1.346 4.248 1.52 3.057.625-4.541-1.278-8.906-2.307-12.721 1.147.418 2.59.627 4.033.633h.024c1.443-.006 2.883-.215 4.027-.633-1.027 3.815-2.926 8.18-2.303 12.721.174 1.191.448-1.386 1.518-3.057 1.289-2.01 3.67-3.062 6.631-3.007 4.638.084 8.226 3.968 7.793 9.58-.908 11.792-9.77 21.253-17.358 26.103-.082.062-.156.1-.275.181h-.072 0z" stroke="#000" stroke-linejoin="round"/><path d="M47.083 172.92c-.102-.067-.174-.103-.293-.181-7.595-4.849-16.456-14.31-17.365-26.103-.431-5.611 3.156-9.496 7.794-9.58 2.961-.055 5.342.998 6.632 3.008 1.072 1.67 1.346 4.248 1.52 3.056.625-4.541-1.278-8.906-2.307-12.72 1.148.418 2.59.626 4.034.632h.024c1.442-.006 2.882-.214 4.027-.632-1.027 3.814-2.926 8.179-2.303 12.72.174 1.192.447-1.386 1.517-3.056 1.289-2.01 3.671-3.063 6.631-3.008 4.638.084 8.226 3.969 7.794 9.58-.909 11.793-9.77 21.254-17.359 26.103-.082.062-.155.1-.274.181h-.072z" fill="#000"/><path d="M47.083 172.92c-.102-.067-.174-.103-.293-.181-7.595-4.849-16.456-14.31-17.365-26.103-.431-5.611 3.156-9.496 7.794-9.58 2.961-.055 5.342.998 6.632 3.008 1.072 1.67 1.346 4.248 1.52 3.056.625-4.541-1.278-8.906-2.307-12.72 1.148.418 2.59.626 4.034.632h.024c1.442-.006 2.882-.214 4.027-.632-1.027 3.814-2.926 8.179-2.303 12.72.174 1.192.447-1.386 1.517-3.056 1.289-2.01 3.671-3.063 6.631-3.008 4.638.084 8.226 3.969 7.794 9.58-.909 11.793-9.77 21.254-17.359 26.103-.082.062-.155.1-.274.181h-.072 0z" stroke="#000" stroke-linejoin="round"/><path d="M90.311 196.542c-.101-.068-.174-.104-.293-.182-7.595-4.849-16.456-14.31-17.364-26.103-.432-5.61 3.155-9.495 7.794-9.58 2.961-.054 5.342.998 6.633 3.008 1.072 1.671 1.345 4.248 1.519 3.057.625-4.542-1.277-8.907-2.306-12.72 1.146.416 2.589.626 4.033.631h.023c1.444-.005 2.883-.215 4.028-.631-1.028 3.813-2.926 8.178-2.303 12.72.174 1.191.447-1.386 1.517-3.057 1.289-2.01 3.67-3.062 6.631-3.008 4.639.085 8.227 3.97 7.793 9.58-.908 11.793-9.769 21.254-17.357 26.103-.082.063-.156.1-.276.182h-.072z" fill="#000"/><path d="M90.311 196.542c-.101-.068-.174-.104-.293-.182-7.595-4.849-16.456-14.31-17.364-26.103-.432-5.61 3.155-9.495 7.794-9.58 2.961-.054 5.342.998 6.633 3.008 1.072 1.671 1.345 4.248 1.519 3.057.625-4.542-1.277-8.907-2.306-12.72 1.146.416 2.589.626 4.033.631h.023c1.444-.005 2.883-.215 4.028-.631-1.028 3.813-2.926 8.178-2.303 12.72.174 1.191.447-1.386 1.517-3.057 1.289-2.01 3.67-3.062 6.631-3.008 4.639.085 8.227 3.97 7.793 9.58-.908 11.793-9.769 21.254-17.357 26.103-.082.063-.156.1-.276.182h-.072 0z" stroke="#000" stroke-linejoin="round"/><path d="M133.54 172.92c-.102-.067-.174-.103-.293-.181-7.594-4.849-16.455-14.31-17.364-26.103-.431-5.611 3.155-9.496 7.793-9.58 2.961-.055 5.342.998 6.633 3.008 1.072 1.67 1.346 4.248 1.52 3.056.625-4.541-1.278-8.906-2.307-12.72 1.147.418 2.59.626 4.033.632h.024c1.443-.006 2.883-.214 4.027-.632-1.027 3.814-2.926 8.179-2.303 12.72.174 1.192.448-1.386 1.518-3.056 1.289-2.01 3.67-3.063 6.631-3.008 4.638.084 8.226 3.969 7.793 9.58-.908 11.793-9.77 21.254-17.358 26.103-.082.062-.156.1-.275.181h-.072z" fill="#000"/><path d="M133.54 172.92c-.102-.067-.174-.103-.293-.181-7.594-4.849-16.455-14.31-17.364-26.103-.431-5.611 3.155-9.496 7.793-9.58 2.961-.055 5.342.998 6.633 3.008 1.072 1.67 1.346 4.248 1.52 3.056.625-4.541-1.278-8.906-2.307-12.72 1.147.418 2.59.626 4.033.632h.024c1.443-.006 2.883-.214 4.027-.632-1.027 3.814-2.926 8.179-2.303 12.72.174 1.192.448-1.386 1.518-3.056 1.289-2.01 3.67-3.063 6.631-3.008 4.638.084 8.226 3.969 7.793 9.58-.908 11.793-9.77 21.254-17.358 26.103-.082.062-.156.1-.275.181h-.072 0z" stroke="#000" stroke-linejoin="round"/></g></svg>