<svg xmlns="http://www.w3.org/2000/svg" viewBox="0 0 181 251"><g fill="none" fill-rule="evenodd"><path d="M179.626 236.232c0 7.828-6.345 14.173-14.173 14.173H15.216c-7.827 0-14.172-6.345-14.172-14.173V15.13C1.044 7.302 7.389.957 15.216.957h150.237c7.828 0 14.173 6.345 14.173 14.173v221.102z" fill="#F7F6F2"/><path d="M179.626 236.232c0 7.828-6.345 14.173-14.173 14.173H15.216c-7.827 0-14.172-6.345-14.172-14.173V15.13C1.044 7.302 7.389.957 15.216.957h150.237c7.828 0 14.173 6.345 14.173 14.173v221.102h0z" stroke="#000"/><path d="M13.8 43.477c-1.864 0-3.377 1.703-3.377 3.801 0 1.2.501 2.265 1.269 2.967.259.238.147.495-.115.335-.481-.292-1.023-.478-1.607-.478-1.798 0-3.256 1.643-3.256 3.667s1.458 3.667 3.256 3.667c1.199 0 2.247-.728 2.81-1.817.056-.106.1-.252.178-.252.107 0 .157.175.157.503 0 1.314-.505 2.85-1.252 4.615.323-.076 1.299-.271 1.937-.271.638 0 1.614.195 1.937.271-.746-1.765-1.252-3.301-1.252-4.615 0-.328.05-.503.157-.503.078 0 .122.146.178.252.562 1.089 1.612 1.817 2.81 1.817 1.797 0 3.256-1.643 3.256-3.667s-1.459-3.667-3.256-3.667c-.585 0-1.127.186-1.607.478-.263.16-.374-.097-.115-.335.768-.702 1.268-1.767 1.268-2.967 0-2.098-1.512-3.801-3.376-3.801zM166.871 207.886c1.863 0 3.377-1.704 3.377-3.802 0-1.199-.501-2.264-1.269-2.967-.26-.237-.147-.494.115-.334.48.292 1.022.477 1.607.477 1.797 0 3.257-1.643 3.257-3.667 0-2.023-1.46-3.665-3.257-3.665-1.199 0-2.247.727-2.811 1.816-.055.106-.099.252-.177.252-.107 0-.157-.176-.157-.503 0-1.314.505-2.85 1.251-4.616-.322.076-1.299.271-1.936.271-.638 0-1.614-.195-1.937-.271.745 1.766 1.252 3.302 1.252 4.616 0 .327-.051.503-.158.503-.077 0-.123-.146-.177-.252-.563-1.089-1.613-1.816-2.811-1.816-1.797 0-3.256 1.642-3.256 3.665 0 2.024 1.459 3.667 3.256 3.667.586 0 1.127-.185 1.607-.477.264-.16.375.097.116.334-.768.703-1.268 1.768-1.268 2.967 0 2.098 1.512 3.802 3.376 3.802zM46.398 26.469c-4.66 0-8.441 4.258-8.441 9.504 0 2.999 1.252 5.66 3.17 7.416.648.594.371 1.238-.29.836-1.199-.729-2.552-1.192-4.014-1.192-4.494 0-8.142 4.106-8.142 9.166 0 5.06 3.648 9.168 8.142 9.168 2.995 0 5.617-1.822 7.025-4.542.138-.266.249-.631.444-.631.267 0 .392.438.392 1.256 0 3.288-1.262 7.127-3.128 11.539.806-.192 3.247-.678 4.842-.678 1.595 0 4.035.486 4.841.678-1.866-4.412-3.128-8.251-3.128-11.539 0-.818.125-1.256.392-1.256.195 0 .305.365.444.631 1.408 2.72 4.03 4.542 7.025 4.542 4.495 0 8.143-4.108 8.143-9.168s-3.648-9.166-8.143-9.166c-1.461 0-2.815.463-4.014 1.192-.661.402-.938-.242-.289-.836 1.917-1.756 3.168-4.417 3.168-7.416 0-5.246-3.781-9.504-8.439-9.504zM47.107 78.438c-4.659 0-8.44 4.257-8.44 9.503 0 2.999 1.251 5.66 3.169 7.416.648.593.371 1.237-.29.836-1.199-.73-2.552-1.193-4.014-1.193-4.494 0-8.142 4.106-8.142 9.166 0 5.06 3.648 9.167 8.142 9.167 2.995 0 5.617-1.823 7.025-4.541.139-.266.249-.631.445-.631.266 0 .391.437.391 1.256 0 3.287-1.261 7.126-3.127 11.541.805-.193 3.246-.68 4.841-.68 1.595 0 4.035.487 4.841.68-1.866-4.415-3.127-8.254-3.127-11.541 0-.819.124-1.256.391-1.256.196 0 .306.365.444.631 1.408 2.718 4.03 4.541 7.025 4.541 4.495 0 8.143-4.107 8.143-9.167S61.176 95 56.681 95c-1.461 0-2.815.463-4.013 1.193-.661.401-.939-.243-.29-.836 1.918-1.756 3.169-4.417 3.169-7.416 0-5.246-3.781-9.503-8.44-9.503zM47.107 224.894c4.659 0 8.44-4.257 8.44-9.503 0-3-1.251-5.661-3.169-7.417-.648-.593-.371-1.239.29-.837 1.199.73 2.552 1.193 4.014 1.193 4.494 0 8.142-4.106 8.142-9.166 0-5.06-3.648-9.168-8.142-9.168-2.996 0-5.618 1.822-7.026 4.541-.138.266-.248.631-.444.631-.266 0-.391-.438-.391-1.256 0-3.287 1.262-7.126 3.127-11.538-.806.191-3.247.679-4.841.679-1.595 0-4.036-.488-4.842-.679 1.867 4.412 3.128 8.251 3.128 11.538 0 .818-.125 1.256-.391 1.256-.196 0-.306-.365-.444-.631-1.408-2.719-4.03-4.541-7.026-4.541-4.494 0-8.142 4.108-8.142 9.168s3.648 9.166 8.142 9.166c1.462 0 2.816-.463 4.014-1.193.661-.402.938.244.29.837-1.918 1.756-3.169 4.417-3.169 7.417 0 5.246 3.781 9.503 8.44 9.503zM47.107 172.926c4.659 0 8.44-4.258 8.44-9.504 0-3-1.251-5.66-3.169-7.416-.648-.594-.371-1.238.29-.837 1.199.729 2.552 1.193 4.014 1.193 4.494 0 8.142-4.106 8.142-9.167 0-5.06-3.648-9.168-8.142-9.168-2.996 0-5.618 1.823-7.026 4.542-.138.265-.248.63-.444.63-.266 0-.391-.436-.391-1.256 0-3.286 1.262-7.125 3.127-11.537-.806.192-3.247.678-4.841.678-1.595 0-4.036-.486-4.842-.678 1.867 4.412 3.128 8.251 3.128 11.537 0 .82-.125 1.256-.391 1.256-.196 0-.306-.365-.444-.63-1.408-2.719-4.03-4.542-7.026-4.542-4.494 0-8.142 4.108-8.142 9.168 0 5.061 3.648 9.167 8.142 9.167 1.462 0 2.816-.464 4.014-1.193.661-.401.938.243.29.837-1.918 1.756-3.169 4.416-3.169 7.416 0 5.246 3.781 9.504 8.44 9.504zM133.563 26.469c-4.659 0-8.44 4.258-8.44 9.504 0 2.999 1.251 5.66 3.17 7.416.647.594.37 1.238-.29.836-1.2-.729-2.553-1.192-4.015-1.192-4.494 0-8.142 4.106-8.142 9.166 0 5.06 3.648 9.168 8.142 9.168 2.995 0 5.617-1.822 7.025-4.542.139-.266.249-.631.445-.631.266 0 .391.438.391 1.257 0 3.287-1.262 7.126-3.127 11.538.806-.192 3.246-.678 4.841-.678 1.595 0 4.035.486 4.841.678-1.866-4.412-3.128-8.251-3.128-11.538 0-.819.125-1.257.393-1.257.195 0 .305.365.443.631 1.408 2.72 4.031 4.542 7.025 4.542 4.495 0 8.143-4.108 8.143-9.168s-3.648-9.166-8.143-9.166c-1.461 0-2.814.463-4.014 1.192-.66.402-.938-.242-.289-.836 1.918-1.756 3.169-4.417 3.169-7.416 0-5.246-3.782-9.504-8.44-9.504zM133.563 78.438c-4.659 0-8.44 4.257-8.44 9.503 0 2.999 1.251 5.66 3.17 7.416.647.593.37 1.237-.29.836-1.2-.73-2.553-1.193-4.015-1.193-4.494 0-8.142 4.106-8.142 9.166 0 5.06 3.648 9.167 8.142 9.167 2.995 0 5.617-1.823 7.025-4.541.139-.266.249-.631.445-.631.266 0 .391.437.391 1.256 0 3.287-1.262 7.126-3.127 11.541.806-.193 3.246-.68 4.841-.68 1.595 0 4.035.487 4.841.68-1.866-4.415-3.128-8.254-3.128-11.541 0-.819.125-1.256.393-1.256.195 0 .305.365.443.631 1.408 2.718 4.031 4.541 7.025 4.541 4.495 0 8.143-4.107 8.143-9.167S147.632 95 143.137 95c-1.461 0-2.814.463-4.014 1.193-.66.401-.938-.243-.289-.836 1.918-1.756 3.169-4.417 3.169-7.416 0-5.246-3.782-9.503-8.44-9.503zM133.563 224.894c4.659 0 8.44-4.257 8.44-9.503 0-3-1.251-5.661-3.169-7.417-.648-.593-.371-1.239.289-.837 1.2.73 2.553 1.193 4.015 1.193 4.494 0 8.142-4.106 8.142-9.166 0-5.06-3.648-9.168-8.142-9.168-2.995 0-5.618 1.822-7.025 4.541-.139.266-.249.631-.444.631-.267 0-.393-.438-.393-1.256 0-3.287 1.263-7.126 3.128-11.538-.806.191-3.246.679-4.841.679-1.595 0-4.035-.488-4.842-.679 1.866 4.412 3.128 8.251 3.128 11.538 0 .818-.124 1.256-.391 1.256-.196 0-.306-.365-.444-.631-1.408-2.719-4.031-4.541-7.025-4.541-4.495 0-8.143 4.108-8.143 9.168s3.648 9.166 8.143 9.166c1.461 0 2.814-.463 4.014-1.193.66-.402.938.244.29.837-1.919 1.756-3.17 4.417-3.17 7.417 0 5.246 3.781 9.503 8.44 9.503zM133.563 172.926c4.659 0 8.44-4.258 8.44-9.504 0-3-1.251-5.66-3.169-7.416-.648-.594-.371-1.238.289-.837 1.2.729 2.553 1.193 4.015 1.193 4.494 0 8.142-4.106 8.142-9.167 0-5.06-3.648-9.168-8.142-9.168-2.995 0-5.618 1.823-7.025 4.542-.139.265-.249.63-.444.63-.267 0-.393-.436-.393-1.256 0-3.286 1.263-7.125 3.128-11.537-.806.192-3.246.678-4.841.678-1.595 0-4.035-.486-4.842-.678 1.866 4.412 3.128 8.251 3.128 11.537 0 .82-.124 1.256-.391 1.256-.196 0-.306-.365-.444-.63-1.408-2.719-4.031-4.542-7.025-4.542-4.495 0-8.143 4.108-8.143 9.168 0 5.061 3.648 9.167 8.143 9.167 1.461 0 2.814-.464 4.014-1.193.66-.401.938.243.29.837-1.919 1.756-3.17 4.416-3.17 7.416 0 5.246 3.781 9.504 8.44 9.504zM90.335 54.815c-4.66 0-8.441 4.258-8.441 9.503 0 2.999 1.251 5.66 3.17 7.416.647.594.37 1.237-.289.836-1.199-.729-2.554-1.192-4.015-1.192-4.494 0-8.141 4.106-8.141 9.165 0 5.061 3.647 9.167 8.141 9.167 2.995 0 5.618-1.822 7.026-4.541.137-.266.248-.63.443-.63.268 0 .393.437.393 1.256 0 3.286-1.262 7.126-3.128 11.54.805-.192 3.247-.679 4.841-.679 1.594 0 4.036.487 4.84.679-1.866-4.414-3.128-8.254-3.128-11.54 0-.819.125-1.256.393-1.256.195 0 .306.364.443.63 1.409 2.719 4.031 4.541 7.026 4.541 4.495 0 8.142-4.106 8.142-9.167 0-5.059-3.647-9.165-8.142-9.165-1.461 0-2.816.463-4.014 1.192-.66.401-.938-.242-.29-.836 1.919-1.756 3.17-4.417 3.17-7.416 0-5.245-3.781-9.503-8.44-9.503zM90.335 196.547c4.66 0 8.441-4.258 8.441-9.504 0-2.999-1.252-5.66-3.17-7.416-.647-.593-.37-1.238.289-.836 1.199.73 2.554 1.193 4.015 1.193 4.494 0 8.141-4.107 8.141-9.166 0-5.06-3.647-9.168-8.141-9.168-2.995 0-5.617 1.822-7.026 4.541-.137.265-.248.631-.444.631-.267 0-.392-.437-.392-1.256 0-3.287 1.263-7.127 3.128-11.539-.805.192-3.247.678-4.841.678-1.595 0-4.036-.486-4.842-.678 1.867 4.412 3.129 8.252 3.129 11.539 0 .819-.125 1.256-.393 1.256-.195 0-.306-.366-.443-.631-1.408-2.719-4.031-4.541-7.026-4.541-4.494 0-8.142 4.108-8.142 9.168 0 5.059 3.648 9.166 8.142 9.166 1.461 0 2.816-.463 4.014-1.193.66-.402.939.243.29.836-1.919 1.756-3.17 4.417-3.17 7.416 0 5.246 3.781 9.504 8.441 9.504z" fill="#010000"/><path fill="#000" d="M6.712 39.189V15.13h2.182v24.059H6.712zM13.453 37.907a4.68 4.68 0 01-1.302-3.261V19.709a4.682 4.682 0 011.302-3.262 4.259 4.259 0 013.066-1.317c1.185 0 2.272.497 3.066 1.317a4.686 4.686 0 011.301 3.262v14.937a4.683 4.683 0 01-1.301 3.261 4.256 4.256 0 01-3.066 1.318 4.256 4.256 0 01-3.066-1.318zm1.497-19.723a2.175 2.175 0 00-.618 1.525v14.937c.001.588.225 1.116.618 1.525.392.405.943.666 1.569.666.624 0 1.176-.261 1.568-.666.393-.409.617-.937.619-1.525V19.709a2.18 2.18 0 00-.619-1.525 2.173 2.173 0 00-1.568-.666c-.626 0-1.177.261-1.569.666zM173.958 212.174v24.058h-2.182v-24.058h2.182zM167.217 213.455a4.682 4.682 0 011.302 3.262v14.935a4.677 4.677 0 01-1.302 3.262 4.26 4.26 0 01-3.066 1.318 4.257 4.257 0 01-3.065-1.318 4.677 4.677 0 01-1.302-3.262v-14.935a4.682 4.682 0 011.302-3.262 4.257 4.257 0 013.065-1.318 4.26 4.26 0 013.066 1.318zm-1.497 19.723c.393-.408.617-.938.619-1.526v-14.935a2.185 2.185 0 00-.619-1.526 2.168 2.168 0 00-1.569-.666 2.17 2.17 0 00-1.568.666 2.185 2.185 0 00-.619 1.526v14.935c.002.588.226 1.118.619 1.526.392.405.944.666 1.568.666.626 0 1.177-.261 1.569-.666z"/></g></svg>