<svg xmlns="http://www.w3.org/2000/svg" viewBox="0 0 181 251"><g fill="none" fill-rule="evenodd"><path d="M179.854 235.776c0 7.828-6.346 14.173-14.174 14.173H15.446c-7.827 0-14.173-6.345-14.173-14.173V14.673C1.273 6.846 7.619.5 15.446.5H165.68c7.828 0 14.174 6.346 14.174 14.173v221.103z" fill="#F7F6F2"/><path d="M179.854 235.776c0 7.828-6.346 14.173-14.174 14.173H15.446c-7.827 0-14.173-6.345-14.173-14.173V14.673C1.273 6.846 7.619.5 15.446.5H165.68c7.828 0 14.174 6.346 14.174 14.173v221.103h0z" stroke="#000"/><path d="M14.041 43.02c1.786 3.47 4.145 6.308 7.075 8.512-2.93 2.207-5.289 5.038-7.075 8.495-1.803-3.457-4.168-6.288-7.098-8.495 2.93-2.204 5.295-5.042 7.098-8.512zM167.109 190.421c1.786 3.47 4.145 6.308 7.075 8.513-2.93 2.206-5.289 5.038-7.075 8.495-1.802-3.457-4.169-6.289-7.098-8.495 2.929-2.205 5.296-5.043 7.098-8.513zM90.588 26.012c4.467 8.675 10.364 15.769 17.69 21.283-7.326 5.517-13.223 12.595-17.69 21.236-4.501-8.641-10.415-15.719-17.74-21.236 7.325-5.514 13.239-12.608 17.74-21.283zM90.588 103.964c4.467 8.681 10.364 15.777 17.69 21.274-7.326 5.515-13.223 12.601-17.69 21.246-4.501-8.645-10.416-15.731-17.74-21.246 7.324-5.497 13.239-12.593 17.74-21.274zM90.588 181.917c4.467 8.675 10.364 15.77 17.69 21.282-7.326 5.517-13.223 12.596-17.69 21.238-4.501-8.642-10.415-15.721-17.74-21.238 7.325-5.512 13.239-12.607 17.74-21.282zM15.086 22.462l5.877-5.249h.02v-.018l.005-.004-.005-.008v-2.51l-13.531.001.007 1.812v2.256h2.079V17.2l7.913.009-7.768 7.195 1.119 1.66c.847-.782 1.911-1.245 3.079-1.246 1.369.001 2.743.64 3.642 1.679.897 1.042 1.448 2.467 1.449 4.055-.001 1.587-.552 3.012-1.449 4.053-.899 1.04-2.273 1.678-3.642 1.679-1.371-.001-2.601-.639-3.5-1.679a6.036 6.036 0 01-1.327-2.779l-2.112.436c.68 3.717 3.528 6.505 6.939 6.506 3.917-.001 7.234-3.679 7.234-8.216 0-4.064-2.661-7.428-6.029-8.09zM166.041 227.986l-5.877 5.248h-.02v.018l-.007.006.007.008-.001 2.51 13.531-.002-.007-1.812v-2.257h-2.078v1.543l-7.914-.01 7.769-7.195-1.119-1.658c-.848.781-1.911 1.244-3.079 1.244-1.37 0-2.743-.639-3.642-1.678-.897-1.042-1.449-2.467-1.449-4.054 0-1.587.552-3.012 1.449-4.053.899-1.04 2.272-1.679 3.642-1.68 1.37.001 2.6.64 3.499 1.68a6.022 6.022 0 011.327 2.778l2.112-.435c-.68-3.717-3.527-6.505-6.938-6.506-3.917.001-7.236 3.678-7.236 8.216 0 4.063 2.662 7.427 6.031 8.089z" fill="#D33D43"/></g></svg>