<svg xmlns="http://www.w3.org/2000/svg" viewBox="0 0 181 251"><g fill="none" fill-rule="evenodd"><path d="M179.856 235.776c0 7.828-6.346 14.173-14.174 14.173H15.445c-7.828 0-14.174-6.345-14.174-14.173V14.674C1.271 6.846 7.617.5 15.445.5h150.237c7.828 0 14.174 6.346 14.174 14.174v221.102z" fill="#F7F6F2"/><path d="M179.856 235.776c0 7.828-6.346 14.173-14.174 14.173H15.445c-7.828 0-14.174-6.345-14.174-14.173V14.674C1.271 6.846 7.617.5 15.445.5h150.237c7.828 0 14.174 6.346 14.174 14.174v221.102h0z" stroke="#000"/><path d="M15.085 22.462l5.877-5.248h.019v-.018l.006-.005-.006-.007v-2.51H7.451l.007 1.812v2.257h2.079v-1.542l7.913.009-7.769 7.195 1.119 1.659c.848-.781 1.912-1.245 3.079-1.245 1.37 0 2.744.64 3.642 1.679.897 1.041 1.449 2.467 1.449 4.054 0 1.587-.552 3.012-1.449 4.053-.898 1.04-2.272 1.679-3.642 1.679s-2.6-.639-3.5-1.679a6.036 6.036 0 01-1.327-2.779l-2.111.437c.68 3.717 3.527 6.504 6.938 6.506 3.917-.002 7.235-3.679 7.235-8.217 0-4.063-2.661-7.428-6.029-8.09zM166.042 227.988l-5.877 5.248h-.02v.018l-.006.005.006.008v2.509h13.531l-.007-1.812v-2.257h-2.078v1.542l-7.915-.009 7.77-7.195-1.119-1.658c-.848.78-1.912 1.243-3.08 1.244-1.369-.001-2.743-.64-3.641-1.679-.898-1.041-1.449-2.467-1.449-4.054 0-1.586.551-3.012 1.449-4.053.898-1.039 2.272-1.679 3.641-1.679 1.371 0 2.601.64 3.5 1.679a6.03 6.03 0 011.326 2.779l2.113-.436c-.68-3.717-3.527-6.505-6.939-6.506-3.916.001-7.235 3.678-7.235 8.216 0 4.063 2.662 7.427 6.03 8.09zM170.327 224.386v.001zM167.091 207.43c-.042-.027-.071-.041-.118-.073-3.039-1.939-6.584-5.723-6.947-10.441-.172-2.244 1.264-3.798 3.119-3.832 1.184-.021 2.137.4 2.652 1.203.428.669.538 1.699.608 1.223.25-1.817-.512-3.563-.922-5.088.459.167 1.035.251 1.613.253h.01c.576-.002 1.152-.086 1.61-.253-.411 1.525-1.171 3.271-.921 5.088.069.476.178-.554.606-1.223.516-.803 1.469-1.224 2.652-1.203 1.856.034 3.291 1.588 3.119 3.832-.363 4.718-3.908 8.502-6.943 10.441-.033.025-.062.04-.111.073h-.027z" fill="#000"/><path d="M167.091 207.43c-.042-.027-.071-.041-.118-.073-3.039-1.939-6.584-5.723-6.947-10.441-.172-2.244 1.264-3.798 3.119-3.832 1.184-.021 2.137.4 2.652 1.203.428.669.538 1.699.608 1.223.25-1.817-.512-3.563-.922-5.088.459.167 1.035.251 1.613.253h.01c.576-.002 1.152-.086 1.61-.253-.411 1.525-1.171 3.271-.921 5.088.069.476.178-.554.606-1.223.516-.803 1.469-1.224 2.652-1.203 1.856.034 3.291 1.588 3.119 3.832-.363 4.718-3.908 8.502-6.943 10.441-.033.025-.062.04-.111.073h-.027 0z" stroke="#000" stroke-width=".065" stroke-linejoin="round"/><path d="M14.018 43.02c-.041.027-.07.042-.117.072-3.038 1.94-6.583 5.725-6.946 10.441-.173 2.244 1.262 3.798 3.117 3.832 1.184.022 2.137-.399 2.653-1.203.429-.668.538-1.699.608-1.222.25 1.816-.511 3.562-.922 5.087.459-.167 1.035-.251 1.613-.253h.01c.577.002 1.152.086 1.61.253-.411-1.525-1.17-3.271-.921-5.087.07-.477.179.554.607 1.222.515.804 1.468 1.225 2.652 1.203 1.855-.034 3.291-1.588 3.118-3.832-.364-4.716-3.908-8.501-6.943-10.441-.033-.024-.063-.039-.111-.072h-.028z" fill="#000"/><path d="M14.018 43.02c-.041.027-.07.042-.117.072-3.038 1.94-6.583 5.725-6.946 10.441-.173 2.244 1.262 3.798 3.117 3.832 1.184.022 2.137-.399 2.653-1.203.429-.668.538-1.699.608-1.222.25 1.816-.511 3.562-.922 5.087.459-.167 1.035-.251 1.613-.253h.01c.577.002 1.152.086 1.61.253-.411-1.525-1.17-3.271-.921-5.087.07-.477.179.554.607 1.222.515.804 1.468 1.225 2.652 1.203 1.855-.034 3.291-1.588 3.118-3.832-.364-4.716-3.908-8.501-6.943-10.441-.033-.024-.063-.039-.111-.072h-.028 0z" stroke="#000" stroke-width=".065" stroke-linejoin="round"/><path d="M90.538 26.012c-.101.067-.174.103-.293.181-7.594 4.849-16.455 14.31-17.363 26.104-.432 5.61 3.154 9.494 7.793 9.579 2.961.054 5.342-.998 6.631-3.007 1.072-1.672 1.345-4.248 1.519-3.057.625 4.541-1.275 8.906-2.304 12.719 1.146-.417 2.587-.627 4.033-.631h.023c1.444.004 2.882.214 4.029.631-1.028-3.813-2.927-8.178-2.304-12.719.174-1.191.448 1.385 1.518 3.057 1.29 2.009 3.671 3.061 6.632 3.007 4.639-.085 8.224-3.969 7.793-9.579-.908-11.794-9.77-21.255-17.359-26.104-.084-.062-.156-.099-.275-.181h-.073z" fill="#000"/><path d="M90.538 26.012c-.101.067-.174.103-.293.181-7.594 4.849-16.455 14.31-17.363 26.104-.432 5.61 3.154 9.494 7.793 9.579 2.961.054 5.342-.998 6.631-3.007 1.072-1.672 1.345-4.248 1.519-3.057.625 4.541-1.275 8.906-2.304 12.719 1.146-.417 2.587-.627 4.033-.631h.023c1.444.004 2.882.214 4.029.631-1.028-3.813-2.927-8.178-2.304-12.719.174-1.191.448 1.385 1.518 3.057 1.29 2.009 3.671 3.061 6.632 3.007 4.639-.085 8.224-3.969 7.793-9.579-.908-11.794-9.77-21.255-17.359-26.104-.084-.062-.156-.099-.275-.181h-.073 0z" stroke="#000" stroke-width=".163" stroke-linejoin="round"/><path d="M90.538 103.965c-.101.067-.174.103-.293.181-7.594 4.849-16.455 14.31-17.363 26.103-.432 5.611 3.154 9.495 7.793 9.58 2.961.054 5.342-.998 6.631-3.008 1.072-1.67 1.345-4.248 1.519-3.056.625 4.541-1.275 8.906-2.304 12.719 1.146-.416 2.587-.627 4.033-.631h.023c1.444.004 2.882.215 4.029.631-1.028-3.813-2.927-8.178-2.304-12.719.174-1.192.448 1.386 1.518 3.056 1.29 2.01 3.671 3.062 6.632 3.008 4.639-.085 8.224-3.969 7.793-9.58-.908-11.793-9.77-21.254-17.359-26.103-.084-.063-.156-.1-.275-.181h-.073z" fill="#000"/><path d="M90.538 103.965c-.101.067-.174.103-.293.181-7.594 4.849-16.455 14.31-17.363 26.103-.432 5.611 3.154 9.495 7.793 9.58 2.961.054 5.342-.998 6.631-3.008 1.072-1.67 1.345-4.248 1.519-3.056.625 4.541-1.275 8.906-2.304 12.719 1.146-.416 2.587-.627 4.033-.631h.023c1.444.004 2.882.215 4.029.631-1.028-3.813-2.927-8.178-2.304-12.719.174-1.192.448 1.386 1.518 3.056 1.29 2.01 3.671 3.062 6.632 3.008 4.639-.085 8.224-3.969 7.793-9.58-.908-11.793-9.77-21.254-17.359-26.103-.084-.063-.156-.1-.275-.181h-.073 0z" stroke="#000" stroke-width=".163" stroke-linejoin="round"/><path d="M90.538 224.437c-.101-.067-.174-.103-.293-.18-7.594-4.85-16.455-14.311-17.363-26.104-.432-5.611 3.154-9.496 7.793-9.58 2.961-.054 5.342.998 6.631 3.008 1.072 1.671 1.345 4.248 1.519 3.057.625-4.541-1.275-8.906-2.304-12.721 1.146.418 2.587.627 4.033.633h.023c1.444-.006 2.882-.215 4.029-.633-1.028 3.815-2.927 8.18-2.304 12.721.174 1.191.448-1.386 1.518-3.057 1.29-2.01 3.671-3.062 6.632-3.008 4.639.084 8.224 3.969 7.793 9.58-.908 11.793-9.77 21.254-17.359 26.104-.084.062-.156.1-.275.18h-.073z" fill="#000"/><path d="M90.538 224.437c-.101-.067-.174-.103-.293-.18-7.594-4.85-16.455-14.311-17.363-26.104-.432-5.611 3.154-9.496 7.793-9.58 2.961-.054 5.342.998 6.631 3.008 1.072 1.671 1.345 4.248 1.519 3.057.625-4.541-1.275-8.906-2.304-12.721 1.146.418 2.587.627 4.033.633h.023c1.444-.006 2.882-.215 4.029-.633-1.028 3.815-2.927 8.18-2.304 12.721.174 1.191.448-1.386 1.518-3.057 1.29-2.01 3.671-3.062 6.632-3.008 4.639.084 8.224 3.969 7.793 9.58-.908 11.793-9.77 21.254-17.359 26.104-.084.062-.156.1-.275.18h-.073 0z" stroke="#000" stroke-width=".163" stroke-linejoin="round"/></g></svg>