<svg xmlns="http://www.w3.org/2000/svg" viewBox="0 0 181 251">
  <g fill="none" fill-rule="evenodd">
    <path d="M179.854 235.776c0 7.828-6.345 14.173-14.173 14.173H15.445c-7.828 0-14.173-6.345-14.173-14.173V14.673C1.272 6.846 7.617.5 15.445.5h150.236c7.828 0 14.173 6.346 14.173 14.173v221.103z" fill="#F7F6F2"/>
    <path d="M179.854 235.776c0 7.828-6.345 14.173-14.173 14.173H15.445c-7.828 0-14.173-6.345-14.173-14.173V14.673C1.272 6.846 7.617.5 15.445.5h150.236c7.828 0 14.173 6.346 14.173 14.173v221.103h0z" stroke="#000"/>
    <path d="M14.027 43.02c-1.861 0-3.375 1.703-3.375 3.801 0 1.201.5 2.264 1.269 2.966.258.239.146.496-.115.335-.482-.291-1.025-.477-1.609-.477-1.797 0-3.256 1.642-3.256 3.668 0 2.023 1.459 3.666 3.256 3.666 1.201 0 2.249-.729 2.811-1.817.056-.106.1-.252.179-.252.107 0 .155.175.155.502 0 1.315-.504 2.851-1.25 4.615.323-.076 1.299-.27 1.935-.27.639 0 1.616.194 1.937.27-.746-1.764-1.251-3.3-1.251-4.615 0-.327.051-.502.158-.502.078 0 .121.146.177.252.564 1.088 1.613 1.817 2.809 1.817 1.798 0 3.257-1.643 3.257-3.666 0-2.026-1.459-3.668-3.257-3.668-.583 0-1.125.186-1.605.477-.264.161-.375-.096-.115-.335.765-.702 1.268-1.765 1.268-2.966 0-2.098-1.512-3.801-3.378-3.801zM167.095 207.43c1.865 0 3.375-1.704 3.375-3.803 0-1.198-.499-2.264-1.266-2.966-.257-.237-.146-.494.114-.335.48.293 1.023.478 1.61.478 1.794 0 3.257-1.643 3.257-3.666 0-2.025-1.463-3.667-3.257-3.667-1.2 0-2.248.728-2.81 1.816-.055.107-.101.252-.181.252-.108 0-.153-.175-.153-.502 0-1.314.505-2.849 1.247-4.616-.323.077-1.295.272-1.936.272-.634 0-1.612-.195-1.935-.272.743 1.767 1.253 3.302 1.253 4.616 0 .327-.051.502-.158.502-.081 0-.122-.145-.176-.252-.568-1.088-1.616-1.816-2.811-1.816-1.8 0-3.256 1.642-3.256 3.667 0 2.023 1.456 3.666 3.256 3.666.582 0 1.124-.185 1.607-.478.263-.159.375.098.115.335-.77.702-1.27 1.768-1.27 2.966 0 2.099 1.511 3.803 3.375 3.803zM90.563 26.012c-4.66 0-8.441 4.258-8.441 9.504 0 2.999 1.253 5.66 3.172 7.416.647.594.369 1.238-.29.837-1.2-.73-2.554-1.194-4.017-1.194-4.492 0-8.14 4.107-8.14 9.167 0 5.061 3.648 9.168 8.14 9.168 2.997 0 5.618-1.823 7.028-4.542.137-.265.247-.631.444-.631.266 0 .391.438.391 1.256 0 3.287-1.263 7.127-3.127 11.538.804-.191 3.248-.677 4.84-.677 1.592 0 4.037.486 4.84.677-1.866-4.411-3.125-8.251-3.125-11.538 0-.818.122-1.256.389-1.256.195 0 .305.366.445.631 1.406 2.719 4.03 4.542 7.028 4.542 4.49 0 8.14-4.107 8.14-9.168 0-5.06-3.65-9.167-8.14-9.167-1.466 0-2.819.464-4.018 1.194-.661.401-.937-.243-.29-.837 1.918-1.756 3.173-4.417 3.173-7.416 0-5.246-3.782-9.504-8.442-9.504zM90.563 103.965c-4.66 0-8.441 4.254-8.441 9.496 0 2.998 1.253 5.662 3.172 7.42.647.594.369 1.238-.29.838-1.2-.731-2.554-1.196-4.017-1.196-4.492 0-8.14 4.111-8.14 9.168 0 5.057 3.648 9.161 8.14 9.161 2.997 0 5.618-1.821 7.028-4.537.137-.266.247-.63.444-.63.266 0 .391.436.391 1.253 0 3.286-1.263 7.127-3.127 11.546.804-.191 3.248-.679 4.84-.679 1.592 0 4.037.488 4.84.679-1.866-4.419-3.125-8.26-3.125-11.546 0-.817.122-1.253.389-1.253.195 0 .305.364.445.63 1.406 2.716 4.03 4.537 7.028 4.537 4.49 0 8.14-4.104 8.14-9.161 0-5.057-3.65-9.168-8.14-9.168-1.466 0-2.819.465-4.018 1.196-.661.4-.937-.244-.29-.838 1.918-1.758 3.173-4.422 3.173-7.42 0-5.242-3.782-9.496-8.442-9.496zM90.563 224.438c4.661 0 8.442-4.258 8.442-9.504 0-2.998-1.255-5.661-3.173-7.416-.647-.594-.371-1.239.29-.836 1.2.728 2.552 1.193 4.018 1.193 4.49 0 8.14-4.107 8.14-9.168 0-5.059-3.65-9.167-8.14-9.167-2.997 0-5.621 1.822-7.028 4.541-.14.266-.25.631-.445.631-.267 0-.389-.436-.389-1.257 0-3.285 1.26-7.125 3.124-11.537-.802.191-3.247.679-4.839.679-1.593 0-4.036-.488-4.841-.679 1.866 4.412 3.128 8.252 3.128 11.537 0 .821-.125 1.257-.391 1.257-.197 0-.307-.365-.443-.631-1.41-2.719-4.032-4.541-7.028-4.541-4.493 0-8.141 4.108-8.141 9.167 0 5.061 3.648 9.168 8.141 9.168 1.462 0 2.816-.465 4.016-1.193.659-.403.937.242.29.836-1.919 1.755-3.171 4.418-3.171 7.416 0 5.246 3.781 9.504 8.44 9.504z" fill="#010000"/>
    <path d="M15.084 22.461l5.877-5.248h.02v-.018l.005-.005-.005-.006v-2.511l-13.53.001.007 1.812v2.256h2.078v-1.541l7.913.008-7.768 7.195 1.12 1.659c.847-.78 1.91-1.245 3.078-1.245 1.37 0 2.743.641 3.643 1.68.896 1.041 1.448 2.467 1.449 4.053-.001 1.588-.553 3.012-1.449 4.054-.9 1.04-2.273 1.678-3.643 1.678-1.37 0-2.601-.638-3.5-1.678a6.024 6.024 0 01-1.326-2.779l-2.113.436c.68 3.717 3.529 6.504 6.939 6.506 3.917-.002 7.234-3.678 7.235-8.217-.001-4.063-2.662-7.428-6.03-8.09zM10.801 26.063H10.8zM166.042 227.986l-5.877 5.248h-.02v.018l-.006.006.006.008v2.51h13.53l-.006-1.813v-2.258h-2.079v1.543l-7.914-.01 7.769-7.195-1.119-1.658c-.848.781-1.911 1.244-3.079 1.244-1.369 0-2.744-.639-3.642-1.678-.897-1.041-1.449-2.467-1.449-4.054 0-1.586.552-3.012 1.449-4.053.898-1.039 2.273-1.679 3.642-1.68 1.37.001 2.6.641 3.5 1.68a6.024 6.024 0 011.326 2.779l2.112-.436c-.68-3.717-3.527-6.505-6.938-6.506-3.917.001-7.235 3.678-7.235 8.216 0 4.063 2.661 7.427 6.03 8.089z" fill="#000"/>
  </g>
</svg>
