<svg xmlns="http://www.w3.org/2000/svg" viewBox="0 0 181 251"><g fill="none" fill-rule="evenodd"><path d="M179.855 235.776c0 7.828-6.346 14.173-14.174 14.173H15.445c-7.827 0-14.173-6.345-14.173-14.173V14.674C1.272 6.846 7.618.5 15.445.5h150.236c7.828 0 14.174 6.346 14.174 14.174v221.102z" fill="#F7F6F2"/><path d="M179.855 235.776c0 7.828-6.346 14.173-14.174 14.173H15.445c-7.827 0-14.173-6.345-14.173-14.173V14.674C1.272 6.846 7.618.5 15.445.5h150.236c7.828 0 14.174 6.346 14.174 14.174v221.102h0z" stroke="#000"/><path d="M18.001 43.119c-1.247-.386-3.185.295-3.898 3.122-.059.156-.122.152-.178-.005-1.028-2.865-2.721-3.491-3.913-3.117-1.764.57-3.194 2.673-3.063 5.357.035 4.684 4.228 7.043 7.058 11.524 2.83-4.481 7.069-6.833 7.081-11.538.246-2.712-1.273-4.784-3.087-5.343zM14.025 60.027L14.007 60l-.019.027h.037zM167.101 190.422l.019.028c.006-.01.013-.018.018-.028h-.037zM167.12 190.45c-2.83 4.48-7.07 6.833-7.082 11.537-.245 2.712 1.274 4.786 3.087 5.344 1.246.387 3.185-.295 3.898-3.123.06-.154.123-.15.178.006 1.028 2.865 2.721 3.49 3.912 3.117 1.766-.569 3.194-2.673 3.063-5.357-.034-4.684-4.227-7.044-7.056-11.524zM108.26 210.798c-.088-11.711-10.568-17.607-17.648-28.806-7.075 11.199-17.671 17.078-17.701 28.839-.613 6.781 3.182 11.963 7.716 13.359 3.117.967 7.963-.737 9.744-7.806.149-.387.305-.379.445.014 2.572 7.162 6.809 8.727 9.787 7.792 4.41-1.423 7.984-6.682 7.657-13.392z" fill="#D33D43"/><path d="M90.565 181.918l.047.074c.016-.025.033-.049.048-.074h-.095zM90.557 68.531l-.048-.073-.048.073h.096zM100.5 26.261c-3.117-.969-7.969.735-9.75 7.805-.148.386-.305.378-.445-.014-2.571-7.163-6.804-8.727-9.782-7.791-4.41 1.423-7.983 6.681-7.656 13.39.088 11.711 10.566 17.608 17.642 28.807 7.079-11.199 17.677-17.079 17.707-28.841.613-6.779-3.183-11.961-7.716-13.356zM90.557 146.484a4.63 4.63 0 01-.048-.073 4.63 4.63 0 01-.048.073h.096zM100.5 104.214c-3.117-.969-7.969.735-9.75 7.804-.148.386-.305.378-.445-.014-2.571-7.162-6.804-8.727-9.782-7.79-4.41 1.422-7.983 6.68-7.656 13.39.088 11.712 10.566 17.61 17.642 28.807 7.079-11.197 17.677-17.079 17.707-28.842.613-6.78-3.183-11.96-7.716-13.355zM15.085 22.462l5.877-5.248h.02v-.018l.005-.005-.005-.007v-2.511l-13.531.001.007 1.812v2.257h2.079v-1.542l7.913.009-7.768 7.195 1.119 1.659c.847-.781 1.911-1.244 3.079-1.244 1.369 0 2.743.639 3.642 1.678.897 1.041 1.448 2.467 1.449 4.054-.001 1.587-.552 3.012-1.449 4.053-.899 1.04-2.273 1.678-3.642 1.679-1.371-.001-2.601-.639-3.5-1.679a6.03 6.03 0 01-1.327-2.779l-2.112.436c.68 3.717 3.528 6.505 6.939 6.506 3.917-.001 7.234-3.678 7.234-8.216 0-4.064-2.661-7.428-6.029-8.09zM10.801 26.064H10.8zM166.042 227.987l-5.877 5.248h-.02v.018l-.007.006.007.007-.001 2.51 13.531-.002-.007-1.812v-2.256h-2.079v1.542l-7.913-.009 7.769-7.195-1.119-1.658c-.848.78-1.911 1.244-3.079 1.244-1.37 0-2.743-.64-3.642-1.679-.897-1.042-1.449-2.467-1.449-4.053 0-1.588.552-3.012 1.449-4.053.899-1.041 2.272-1.68 3.642-1.68s2.6.639 3.499 1.68a6.019 6.019 0 011.327 2.777l2.112-.435c-.68-3.717-3.527-6.504-6.938-6.506-3.917.002-7.236 3.678-7.236 8.217 0 4.062 2.662 7.427 6.031 8.089z" fill="#D33D43"/></g></svg>