<svg xmlns="http://www.w3.org/2000/svg" viewBox="0 0 180 251"><g fill="none" fill-rule="evenodd"><path d="M179.47 235.776c0 7.828-6.346 14.173-14.174 14.173H15.06c-7.828 0-14.174-6.345-14.174-14.173V14.673C.886 6.846 7.232.5 15.06.5h150.236c7.828 0 14.174 6.346 14.174 14.173v221.103z" fill="#F7F6F2"/><path d="M179.47 235.776c0 7.828-6.346 14.173-14.174 14.173H15.06c-7.828 0-14.174-6.345-14.174-14.173V14.673C.886 6.846 7.232.5 15.06.5h150.236c7.828 0 14.174 6.346 14.174 14.173v221.103h0z" stroke="#000"/><path d="M17.616 43.119c-1.247-.387-3.186.294-3.898 3.122-.06.155-.122.152-.178-.005-1.028-2.866-2.722-3.492-3.913-3.117-1.765.569-3.194 2.672-3.063 5.357.035 4.684 4.228 7.043 7.058 11.523 2.83-4.48 7.069-6.832 7.081-11.537.245-2.712-1.274-4.784-3.087-5.343zM13.641 60.027l-.019-.028-.019.028h.038zM166.734 190.449c-2.83 4.479-7.069 6.832-7.082 11.537-.245 2.712 1.275 4.786 3.087 5.344 1.246.387 3.186-.295 3.899-3.123.059-.154.123-.15.178.006 1.028 2.864 2.721 3.49 3.912 3.117 1.765-.569 3.195-2.674 3.063-5.357-.034-4.684-4.227-7.045-7.057-11.524zM166.716 190.421l.018.028.019-.028h-.037zM90.179 181.917c.015.025.032.049.048.074.015-.025.032-.049.048-.074h-.096z" fill="#D33D43"/><path d="M107.873 210.797c-.087-11.71-10.565-17.607-17.646-28.806-7.076 11.199-17.671 17.078-17.701 28.839-.612 6.781 3.183 11.963 7.715 13.359 3.117.967 7.963-.737 9.744-7.806.149-.387.305-.379.446.014 2.571 7.162 6.809 8.727 9.788 7.792 4.409-1.423 7.981-6.682 7.654-13.392zM90.169 68.531l-.048-.073c-.015.025-.032.048-.048.073h.096zM100.114 26.261c-3.117-.969-7.97.735-9.752 7.805-.148.386-.304.378-.445-.015-2.568-7.162-6.803-8.727-9.78-7.79-4.409 1.422-7.983 6.681-7.655 13.39.087 11.711 10.565 17.608 17.639 28.807 7.083-11.199 17.679-17.079 17.708-28.841.613-6.779-3.181-11.961-7.715-13.356zM20.708 34.996l-2.276-.01-.009 1.449h-9.56c.05-.333.195-.756.462-1.239.489-.89 1.352-1.937 2.387-2.972 1.036-1.039 2.242-2.078 3.416-3.024l.005-.003.009-.007c1.42-1.183 2.632-2.056 3.617-3.099.49-.521.92-1.094 1.242-1.758a6.404 6.404 0 00.607-2.236c.017-.173.025-.359.025-.561a8.083 8.083 0 00-.253-1.971c-.281-1.092-.848-2.323-1.929-3.291-1.079-.973-2.652-1.608-4.676-1.601-1.625-.003-2.959.42-3.978 1.107a6.224 6.224 0 00-1.769 1.829c-.639 1.007-.951 2.055-1.116 2.896a9.289 9.289 0 00-.175 1.767l1.974-.053.303-.004v-.016c-.006-.177.041-1.621.665-2.858.309-.622.741-1.189 1.367-1.609.628-.42 1.473-.722 2.729-.726 1.058.001 1.832.208 2.418.506.873.45 1.386 1.12 1.722 1.881.331.753.443 1.588.441 2.143 0 .132-.006.247-.015.337a4.019 4.019 0 01-.379 1.42c-.291.603-.766 1.155-1.485 1.802-.715.642-1.656 1.359-2.761 2.276-1.621 1.306-3.321 2.793-4.668 4.326-.674.769-1.262 1.549-1.705 2.352-.415.758-.707 1.546-.765 2.385h-.009l-.007.144V36.587l-.006 2.181h14.155v-1.001l-.003-2.771zM159.648 215.451l2.275.01.01-1.447h9.559c-.05.333-.194.756-.462 1.238-.489.891-1.351 1.938-2.386 2.973-1.036 1.039-2.243 2.078-3.416 3.023l-.006.002-.009.008c-1.419 1.183-2.632 2.057-3.616 3.099-.49.522-.92 1.094-1.242 1.758a6.382 6.382 0 00-.608 2.237 6.025 6.025 0 00-.025.56c.001.561.066 1.239.254 1.972.281 1.091.847 2.322 1.928 3.291 1.079.973 2.653 1.607 4.676 1.601 1.626.002 2.96-.42 3.978-1.108a6.202 6.202 0 001.769-1.83c.639-1.006.951-2.054 1.115-2.895a9.13 9.13 0 00.177-1.694l-.001-.072-1.973.053-.304.004.001.015c.006.178-.042 1.621-.665 2.858-.311.623-.742 1.189-1.367 1.61-.629.42-1.473.722-2.73.725-1.057 0-1.831-.208-2.419-.506-.873-.45-1.385-1.12-1.72-1.88a5.55 5.55 0 01-.442-2.144c0-.132.007-.247.015-.338a4.015 4.015 0 01.38-1.42c.291-.601.765-1.154 1.484-1.8.715-.643 1.656-1.36 2.762-2.277 1.621-1.305 3.32-2.794 4.668-4.326.674-.769 1.261-1.549 1.705-2.351.415-.758.707-1.546.764-2.386h.009l.008-.144V213.861l.006-2.18h-14.156v1.001l.004 2.769z" fill="#D33D43"/></g></svg>