<svg xmlns="http://www.w3.org/2000/svg" viewBox="0 0 180 251"><g fill="none" fill-rule="evenodd"><path d="M179.468 235.776c0 7.828-6.345 14.173-14.174 14.173H15.06c-7.828 0-14.174-6.345-14.174-14.173V14.673C.886 6.846 7.232.5 15.06.5h150.234c7.829 0 14.174 6.346 14.174 14.173v221.103z" fill="#F7F6F2"/><path d="M179.468 235.776c0 7.828-6.345 14.173-14.174 14.173H15.06c-7.828 0-14.174-6.345-14.174-14.173V14.673C.886 6.846 7.232.5 15.06.5h150.234c7.829 0 14.174 6.346 14.174 14.173v221.103h0z" stroke="#000"/><path d="M13.642 43.02c-1.861 0-3.375 1.703-3.375 3.801 0 1.201.5 2.264 1.268 2.967.258.238.146.495-.116.334-.48-.291-1.023-.476-1.607-.476-1.797 0-3.256 1.642-3.256 3.666s1.459 3.667 3.256 3.667c1.199 0 2.248-.729 2.811-1.817.054-.106.099-.253.177-.253.108 0 .157.176.157.503 0 1.316-.504 2.852-1.25 4.615.322-.076 1.296-.27 1.935-.27s1.615.194 1.936.27c-.746-1.763-1.25-3.299-1.25-4.615 0-.327.05-.503.158-.503.078 0 .121.147.176.253.564 1.088 1.613 1.817 2.81 1.817 1.797 0 3.256-1.643 3.256-3.667s-1.459-3.666-3.256-3.666c-.584 0-1.127.185-1.605.476-.264.161-.375-.096-.115-.334.765-.703 1.267-1.766 1.267-2.967 0-2.098-1.512-3.801-3.377-3.801zM166.711 207.43c1.865 0 3.376-1.704 3.376-3.802 0-1.2-.501-2.265-1.267-2.967-.258-.237-.147-.495.113-.335.481.291 1.024.478 1.61.478 1.794 0 3.257-1.644 3.257-3.667 0-2.024-1.463-3.667-3.257-3.667-1.2 0-2.247.729-2.811 1.816-.055.107-.1.253-.18.253-.107 0-.156-.175-.156-.503 0-1.313.508-2.85 1.25-4.614-.322.075-1.295.27-1.935.27-.635 0-1.612-.195-1.936-.27.744 1.764 1.252 3.301 1.252 4.614 0 .328-.051.503-.156.503-.082 0-.123-.146-.178-.253-.566-1.087-1.615-1.816-2.811-1.816-1.798 0-3.255 1.643-3.255 3.667 0 2.023 1.457 3.667 3.255 3.667.582 0 1.125-.187 1.606-.478.265-.16.377.098.117.335-.769.702-1.269 1.767-1.269 2.967 0 2.098 1.511 3.802 3.375 3.802zM90.179 26.012c-4.66 0-8.441 4.258-8.441 9.504 0 2.999 1.252 5.66 3.172 7.417.648.593.369 1.237-.289.836-1.202-.73-2.555-1.193-4.016-1.193-4.494 0-8.144 4.106-8.144 9.166 0 5.061 3.65 9.168 8.144 9.168 2.994 0 5.619-1.822 7.025-4.542.139-.265.25-.631.444-.631.267 0 .392.438.392 1.256 0 3.287-1.263 7.127-3.129 11.538.807-.191 3.25-.677 4.842-.677 1.592 0 4.033.486 4.84.677-1.865-4.411-3.131-8.251-3.131-11.538 0-.818.129-1.256.395-1.256.195 0 .304.366.441.631 1.41 2.72 4.031 4.542 7.028 4.542 4.496 0 8.142-4.107 8.142-9.168 0-5.06-3.646-9.166-8.142-9.166-1.459 0-2.815.463-4.012 1.193-.662.401-.942-.243-.291-.836 1.916-1.757 3.168-4.418 3.168-7.417 0-5.246-3.781-9.504-8.438-9.504zM90.179 224.438c4.657 0 8.438-4.258 8.438-9.506 0-2.998-1.252-5.659-3.168-7.414-.651-.594-.371-1.24.291-.837 1.197.729 2.553 1.193 4.012 1.193 4.496 0 8.142-4.106 8.142-9.167 0-5.06-3.646-9.168-8.142-9.168-2.997 0-5.616 1.822-7.028 4.541-.137.266-.246.631-.441.631-.266 0-.395-.436-.395-1.256 0-3.286 1.266-7.125 3.131-11.537-.807.191-3.248.678-4.84.678-1.593 0-4.035-.487-4.842-.678 1.868 4.412 3.129 8.251 3.129 11.537 0 .82-.125 1.256-.392 1.256-.194 0-.305-.365-.442-.631-1.408-2.719-4.033-4.541-7.027-4.541-4.494 0-8.144 4.108-8.144 9.168 0 5.061 3.65 9.167 8.144 9.167 1.461 0 2.814-.464 4.016-1.193.658-.403.937.243.289.837-1.92 1.755-3.172 4.416-3.172 7.414 0 5.248 3.781 9.506 8.441 9.506z" fill="#010000"/><path d="M20.707 34.996l-2.276-.01-.008 1.449-9.56-.001c.049-.332.193-.754.463-1.238.488-.891 1.349-1.936 2.386-2.973 1.036-1.038 2.241-2.076 3.416-3.022l.004-.004.01-.007c1.42-1.182 2.631-2.057 3.617-3.098.489-.522.92-1.094 1.243-1.76a6.44 6.44 0 00.63-2.796c0-.561-.066-1.239-.254-1.971-.279-1.092-.845-2.323-1.927-3.291-1.08-.973-2.653-1.608-4.676-1.601-1.625-.003-2.961.419-3.979 1.107a6.262 6.262 0 00-1.769 1.829c-.639 1.006-.951 2.055-1.115 2.895a9.297 9.297 0 00-.176 1.695v.073l1.975-.053.302-.004v-.016c-.006-.177.041-1.621.666-2.859.309-.621.74-1.188 1.367-1.61.627-.417 1.473-.72 2.729-.724 1.059.002 1.832.207 2.418.506.873.449 1.387 1.121 1.721 1.881.332.752.443 1.588.441 2.143a4.068 4.068 0 01-.393 1.757c-.291.602-.765 1.155-1.486 1.803-.715.642-1.654 1.359-2.762 2.275-1.619 1.305-3.32 2.793-4.666 4.326-.675.769-1.261 1.549-1.705 2.352-.416.758-.707 1.546-.765 2.385H6.57l-.008.144v.002l-.002.006-.006 2.182h14.157v-1l-.004-2.772zM159.628 215.451l2.276.01.01-1.447h9.56c-.051.334-.195.756-.463 1.238-.488.891-1.351 1.938-2.386 2.973-1.036 1.039-2.243 2.078-3.416 3.023l-.006.002-.008.008c-1.42 1.183-2.633 2.057-3.617 3.099-.491.522-.92 1.094-1.242 1.758a6.382 6.382 0 00-.608 2.237 6.025 6.025 0 00-.025.56 8.09 8.09 0 00.254 1.972c.281 1.091.847 2.322 1.929 3.292 1.078.972 2.653 1.607 4.676 1.6 1.625.002 2.959-.421 3.979-1.108a6.195 6.195 0 001.767-1.83c.641-1.006.951-2.053 1.117-2.895a9.274 9.274 0 00.176-1.693c0-.039 0-.064-.002-.072l-1.972.052-.303.004v.016c.006.178-.043 1.62-.666 2.857-.309.624-.74 1.189-1.367 1.61-.629.42-1.473.723-2.729.726-1.059-.001-1.832-.209-2.418-.507-.873-.45-1.387-1.12-1.723-1.879a5.57 5.57 0 01-.441-2.145c0-.132.008-.246.016-.338a3.995 3.995 0 01.379-1.42c.291-.601.765-1.154 1.486-1.8.713-.643 1.654-1.36 2.76-2.276 1.621-1.306 3.32-2.795 4.668-4.326.673-.77 1.261-1.549 1.705-2.352.416-.757.707-1.546.765-2.386h.008l.008-.144V213.861l.006-2.18h-14.154v1.001l.001 2.769z" fill="#000"/></g></svg>