<svg xmlns="http://www.w3.org/2000/svg" viewBox="0 0 180 251"><g fill="none" fill-rule="evenodd"><path d="M179.469 235.776c0 7.828-6.345 14.173-14.173 14.173H15.06c-7.827 0-14.173-6.345-14.173-14.173V14.673C.887 6.846 7.233.5 15.06.5h150.236c7.828 0 14.173 6.346 14.173 14.173v221.103z" fill="#F7F6F2"/><path d="M179.469 235.776c0 7.828-6.345 14.173-14.173 14.173H15.06c-7.827 0-14.173-6.345-14.173-14.173V14.673C.887 6.846 7.233.5 15.06.5h150.236c7.828 0 14.173 6.346 14.173 14.173v221.103h0z" stroke="#000"/><path d="M90.154 26.012c-.102.067-.174.103-.293.181-7.595 4.849-16.456 14.31-17.364 26.104-.432 5.61 3.155 9.494 7.793 9.579 2.961.054 5.342-.998 6.632-3.007 1.072-1.672 1.346-4.248 1.519-3.057.625 4.541-1.276 8.906-2.305 12.719 1.147-.417 2.589-.627 4.033-.631h.024c1.443.004 2.881.214 4.028.631-1.029-3.813-2.927-8.178-2.303-12.719.173-1.191.446 1.385 1.517 3.057 1.289 2.009 3.67 3.061 6.631 3.007 4.638-.085 8.225-3.969 7.793-9.579-.909-11.794-9.769-21.255-17.358-26.104-.083-.062-.155-.099-.274-.181h-.073z" fill="#000"/><path d="M90.154 26.012c-.102.067-.174.103-.293.181-7.595 4.849-16.456 14.31-17.364 26.104-.432 5.61 3.155 9.494 7.793 9.579 2.961.054 5.342-.998 6.632-3.007 1.072-1.672 1.346-4.248 1.519-3.057.625 4.541-1.276 8.906-2.305 12.719 1.147-.417 2.589-.627 4.033-.631h.024c1.443.004 2.881.214 4.028.631-1.029-3.813-2.927-8.178-2.303-12.719.173-1.191.446 1.385 1.517 3.057 1.289 2.009 3.67 3.061 6.631 3.007 4.638-.085 8.225-3.969 7.793-9.579-.909-11.794-9.769-21.255-17.358-26.104-.083-.062-.155-.099-.274-.181h-.073 0z" stroke="#000" stroke-width=".163" stroke-linejoin="round"/><path d="M90.154 224.438c-.102-.068-.174-.104-.293-.181-7.595-4.85-16.456-14.311-17.364-26.104-.432-5.61 3.155-9.495 7.793-9.58 2.961-.053 5.342.998 6.632 3.008 1.072 1.671 1.346 4.248 1.519 3.058.625-4.542-1.276-8.907-2.305-12.721 1.147.417 2.589.627 4.033.632h.024c1.443-.005 2.881-.215 4.028-.632-1.029 3.814-2.927 8.179-2.303 12.721.173 1.19.446-1.387 1.517-3.058 1.289-2.01 3.67-3.061 6.631-3.008 4.638.085 8.225 3.97 7.793 9.58-.909 11.793-9.769 21.254-17.358 26.104-.083.062-.155.1-.274.181h-.073z" fill="#000"/><path d="M90.154 224.438c-.102-.068-.174-.104-.293-.181-7.595-4.85-16.456-14.311-17.364-26.104-.432-5.61 3.155-9.495 7.793-9.58 2.961-.053 5.342.998 6.632 3.008 1.072 1.671 1.346 4.248 1.519 3.058.625-4.542-1.276-8.907-2.305-12.721 1.147.417 2.589.627 4.033.632h.024c1.443-.005 2.881-.215 4.028-.632-1.029 3.814-2.927 8.179-2.303 12.721.173 1.19.446-1.387 1.517-3.058 1.289-2.01 3.67-3.061 6.631-3.008 4.638.085 8.225 3.97 7.793 9.58-.909 11.793-9.769 21.254-17.358 26.104-.083.062-.155.1-.274.181h-.073 0z" stroke="#000" stroke-width=".163" stroke-linejoin="round"/><path d="M13.634 43.02c-.041.027-.07.042-.117.072-3.038 1.94-6.583 5.725-6.947 10.441-.172 2.244 1.263 3.798 3.118 3.832 1.184.022 2.136-.399 2.653-1.203.429-.668.538-1.699.607-1.222.25 1.816-.51 3.562-.921 5.087.459-.167 1.035-.251 1.613-.253h.01c.576.002 1.152.086 1.61.253-.411-1.525-1.17-3.271-.921-5.087.069-.477.179.554.606 1.222.516.804 1.469 1.225 2.653 1.203 1.855-.034 3.291-1.588 3.118-3.832-.364-4.716-3.908-8.501-6.943-10.441-.034-.024-.063-.039-.111-.072h-.028z" fill="#000"/><path d="M13.634 43.02c-.041.027-.07.042-.117.072-3.038 1.94-6.583 5.725-6.947 10.441-.172 2.244 1.263 3.798 3.118 3.832 1.184.022 2.136-.399 2.653-1.203.429-.668.538-1.699.607-1.222.25 1.816-.51 3.562-.921 5.087.459-.167 1.035-.251 1.613-.253h.01c.576.002 1.152.086 1.61.253-.411-1.525-1.17-3.271-.921-5.087.069-.477.179.554.606 1.222.516.804 1.469 1.225 2.653 1.203 1.855-.034 3.291-1.588 3.118-3.832-.364-4.716-3.908-8.501-6.943-10.441-.034-.024-.063-.039-.111-.072h-.028 0z" stroke="#000" stroke-width=".065" stroke-linejoin="round"/><path d="M166.704 207.43c-.041-.027-.07-.041-.117-.073-3.038-1.939-6.583-5.723-6.946-10.441-.173-2.244 1.262-3.798 3.117-3.832 1.184-.021 2.137.4 2.653 1.203.429.669.538 1.699.608 1.223.25-1.817-.511-3.563-.922-5.088.459.167 1.035.251 1.613.253h.01c.576-.002 1.152-.086 1.61-.253-.411 1.525-1.17 3.271-.921 5.088.07.476.179-.554.607-1.223.515-.803 1.468-1.224 2.652-1.203 1.856.034 3.291 1.588 3.118 3.832-.364 4.718-3.908 8.502-6.943 10.441-.033.026-.063.04-.11.073h-.029z" fill="#000"/><path d="M166.704 207.43c-.041-.027-.07-.041-.117-.073-3.038-1.939-6.583-5.723-6.946-10.441-.173-2.244 1.262-3.798 3.117-3.832 1.184-.021 2.137.4 2.653 1.203.429.669.538 1.699.608 1.223.25-1.817-.511-3.563-.922-5.088.459.167 1.035.251 1.613.253h.01c.576-.002 1.152-.086 1.61-.253-.411 1.525-1.17 3.271-.921 5.088.07.476.179-.554.607-1.223.515-.803 1.468-1.224 2.652-1.203 1.856.034 3.291 1.588 3.118 3.832-.364 4.718-3.908 8.502-6.943 10.441-.033.026-.063.04-.11.073h-.029 0z" stroke="#000" stroke-width=".065" stroke-linejoin="round"/><path d="M20.726 34.997l-2.279-.01-.008 1.449-9.573-.001c.05-.333.195-.755.463-1.238.489-.891 1.353-1.937 2.39-2.973 1.037-1.038 2.244-2.077 3.421-3.023l.005-.003.009-.007c1.421-1.183 2.634-2.057 3.621-3.099.49-.522.921-1.094 1.244-1.759.324-.664.531-1.41.607-2.235.017-.173.026-.359.026-.561a8.126 8.126 0 00-.254-1.971c-.282-1.092-.849-2.323-1.932-3.292-1.08-.973-2.655-1.608-4.682-1.6-1.627-.003-2.963.419-3.982 1.107A6.21 6.21 0 008.03 17.61c-.639 1.006-.952 2.054-1.117 2.895a9.23 9.23 0 00-.177 1.694l.001.073 1.976-.053.305-.004-.001-.016c-.006-.177.042-1.62.667-2.858.309-.622.742-1.188 1.368-1.609.629-.419 1.474-.722 2.732-.726 1.06.002 1.834.208 2.422.507.874.449 1.388 1.12 1.724 1.88.332.753.443 1.588.441 2.144a4.046 4.046 0 01-.394 1.757c-.291.602-.767 1.155-1.488 1.802-.715.642-1.657 1.359-2.764 2.275-1.622 1.306-3.325 2.794-4.673 4.326-.675.77-1.264 1.549-1.707 2.353-.416.757-.708 1.546-.767 2.385H6.57l-.007.144v.002l-.001.006-.006 2.182H20.73v-1.001l-.004-2.771zM159.63 215.452l2.279.01.009-1.447h9.572c-.05.332-.195.755-.464 1.238-.488.891-1.352 1.937-2.389 2.973-1.037 1.039-2.244 2.077-3.42 3.022l-.005.003-.009.008c-1.422 1.182-2.636 2.056-3.622 3.098-.489.522-.921 1.094-1.243 1.759a6.42 6.42 0 00-.633 2.797c.001.561.067 1.238.254 1.971.28 1.092.848 2.322 1.932 3.291 1.079.972 2.654 1.607 4.681 1.601 1.627.002 2.963-.419 3.983-1.107a6.234 6.234 0 001.771-1.83c.64-1.006.952-2.055 1.116-2.895a9.174 9.174 0 00.178-1.695l-.001-.072-1.976.053-.304.004v.015c.006.178-.041 1.621-.666 2.86-.311.621-.742 1.187-1.369 1.609-.629.419-1.475.721-2.732.725-1.06-.001-1.835-.208-2.422-.506-.875-.45-1.387-1.121-1.723-1.881a5.565 5.565 0 01-.442-2.143c0-.133.006-.248.015-.338a4.03 4.03 0 01.379-1.42c.292-.601.767-1.154 1.487-1.801.716-.643 1.658-1.36 2.765-2.277 1.623-1.304 3.325-2.793 4.674-4.326.675-.767 1.262-1.549 1.707-2.351.416-.758.708-1.545.766-2.385h.008l.008-.145v-.008l.006-2.181h-14.173v1.001l.003 2.77z" fill="#000"/></g></svg>