<svg xmlns="http://www.w3.org/2000/svg" viewBox="0 0 180 251"><g fill="none" fill-rule="evenodd"><path d="M179.47 235.776c0 7.828-6.346 14.173-14.174 14.173H15.06c-7.828 0-14.174-6.345-14.174-14.173V14.674C.886 6.846 7.232.5 15.06.5h150.236c7.828 0 14.174 6.346 14.174 14.174v221.102z" fill="#F7F6F2"/><path d="M179.47 235.776c0 7.828-6.346 14.173-14.174 14.173H15.06c-7.828 0-14.174-6.345-14.174-14.173V14.674C.886 6.846 7.232.5 15.06.5h150.236c7.828 0 14.174 6.346 14.174 14.174v221.102h0z" stroke="#000"/><path d="M13.654 43.02c1.786 3.47 4.144 6.308 7.075 8.511-2.931 2.207-5.289 5.039-7.075 8.496-1.802-3.457-4.168-6.289-7.098-8.496 2.93-2.203 5.296-5.041 7.098-8.511zM166.724 190.421c1.787 3.47 4.146 6.308 7.076 8.513-2.93 2.206-5.289 5.038-7.076 8.495-1.803-3.457-4.168-6.289-7.098-8.495 2.93-2.205 5.295-5.043 7.098-8.513zM90.202 26.012c4.469 8.675 10.365 15.769 17.692 21.283-7.327 5.517-13.223 12.595-17.692 21.237-4.502-8.642-10.416-15.72-17.741-21.237 7.325-5.514 13.239-12.608 17.741-21.283zM90.202 181.917c4.469 8.675 10.364 15.77 17.692 21.282-7.328 5.517-13.223 12.596-17.692 21.238-4.502-8.642-10.416-15.721-17.741-21.238 7.325-5.512 13.239-12.607 17.741-21.282zM20.708 34.996l-2.276-.01-.009 1.449h-9.56c.05-.333.195-.756.462-1.239.489-.89 1.352-1.937 2.387-2.972 1.036-1.039 2.242-2.078 3.416-3.024l.005-.003.009-.007c1.42-1.183 2.632-2.056 3.617-3.099.49-.522.92-1.094 1.242-1.758a6.404 6.404 0 00.607-2.236c.017-.173.025-.359.025-.561a8.083 8.083 0 00-.253-1.971c-.281-1.092-.848-2.323-1.929-3.291-1.079-.973-2.652-1.608-4.676-1.601-1.625-.003-2.959.42-3.978 1.107a6.224 6.224 0 00-1.769 1.829c-.639 1.007-.951 2.055-1.116 2.896a9.289 9.289 0 00-.175 1.767l1.974-.053.303-.004v-.016c-.006-.177.041-1.621.665-2.858.309-.622.741-1.189 1.367-1.609.628-.42 1.473-.722 2.729-.726 1.058.001 1.832.208 2.418.506.873.45 1.386 1.12 1.722 1.881.331.753.443 1.588.441 2.143 0 .132-.006.247-.015.337a4.019 4.019 0 01-.379 1.42c-.291.603-.766 1.155-1.485 1.802-.715.642-1.656 1.359-2.761 2.276-1.621 1.306-3.321 2.793-4.668 4.326-.674.769-1.262 1.549-1.705 2.352-.415.758-.707 1.546-.765 2.385h-.009l-.007.144V36.587l-.006 2.181h14.155v-1.001l-.003-2.771zM159.63 215.451l2.275.01.01-1.447h9.56c-.05.333-.195.756-.463 1.238-.488.891-1.351 1.938-2.386 2.973-1.037 1.039-2.242 2.078-3.417 3.023l-.005.002-.009.008c-1.42 1.183-2.631 2.057-3.616 3.099-.49.522-.92 1.094-1.243 1.758a6.424 6.424 0 00-.606 2.237 5.697 5.697 0 00-.026.56c.001.561.067 1.239.254 1.972.281 1.091.847 2.322 1.929 3.291 1.079.972 2.651 1.607 4.676 1.601 1.625.002 2.96-.421 3.977-1.108a6.206 6.206 0 001.77-1.83c.638-1.006.951-2.054 1.115-2.895a9.319 9.319 0 00.177-1.694l-.001-.072-1.974.053-.304.004v.015c.006.178-.041 1.621-.664 2.858-.31.623-.742 1.189-1.368 1.61-.628.42-1.473.722-2.728.726-1.059-.001-1.831-.209-2.419-.507-.873-.45-1.385-1.12-1.721-1.88a5.566 5.566 0 01-.441-2.144 4.058 4.058 0 01.394-1.758c.291-.601.765-1.154 1.484-1.8.715-.643 1.656-1.36 2.762-2.277 1.621-1.305 3.32-2.794 4.667-4.326.675-.769 1.263-1.549 1.706-2.351.414-.758.707-1.546.765-2.386h.008l.007-.144.001-.002v-.007l.006-2.18h-14.156v1.001l.004 2.769z" fill="#D33D43"/></g></svg>